<?xml version="1.0" encoding="utf-8"?>
<!-- Generator: Adobe Illustrator 16.0.0, SVG Export Plug-In . SVG Version: 6.00 Build 0)  -->
<!DOCTYPE svg PUBLIC "-//W3C//DTD SVG 1.1//EN" "http://www.w3.org/Graphics/SVG/1.1/DTD/svg11.dtd">
<svg version="1.1" id="Layer_1" xmlns="http://www.w3.org/2000/svg" xmlns:xlink="http://www.w3.org/1999/xlink" x="0px" y="0px"
	 width="208px" height="30px" viewBox="0 0 208 30" enable-background="new 0 0 208 30" xml:space="preserve">
<g>
	<path fill="#193A64" d="M17.316,9.361C16,7.768,14.013,6.812,11.992,6.812c-4.521,0-7.118,4.142-7.118,8.284
		c0,4.047,2.693,8.092,7.086,8.092c2.02,0,4.04-1.052,5.356-2.549v5.576c-1.765,0.827-3.528,1.434-5.485,1.434
		C5.034,27.648,0,21.818,0,15.191c0-6.818,4.841-12.84,11.928-12.84c1.892,0,3.752,0.51,5.388,1.401V9.361z"/>
	<path fill="#193A64" d="M35.783,12.451V2.989h4.713v24.023h-4.713V16.275h-8.723v10.736h-4.713V2.989h4.713v9.462H35.783z"/>
	<path fill="#193A64" d="M50.596,7.067v5.289h7.503v4.078h-7.503v6.5h7.792v4.078H45.882V2.989h12.506v4.078H50.596z"/>
	<path fill="#193A64" d="M68.391,21.945l-1.988,5.066h-4.97l9.426-24.66h3.656l9.171,24.66h-5.034l-1.86-5.066H68.391z
		 M72.464,9.393h-0.066l-2.661,8.729h5.739L72.464,9.393z"/>
	<path fill="#193A64" d="M91.766,27.012h-4.715V2.989h6.414c5.066,0,8.368,2.007,8.368,7.456c0,5.097-2.79,7.583-7.727,7.583h-2.34
		V27.012z M91.766,14.14h0.961c2.79,0,4.297-0.606,4.297-3.729c0-3.09-1.796-3.536-4.425-3.536h-0.833V14.14z"/>
	<path fill="#399ECC" d="M117.225,7.544c-0.898-1.497-2.052-2.262-3.881-2.262c-1.924,0-4.04,1.306-4.04,3.409
		c0,1.88,1.86,2.867,3.367,3.441l1.731,0.669c3.432,1.338,5.996,3.218,5.996,7.232c0,4.364-3.398,7.487-7.728,7.487
		c-3.912,0-6.958-2.867-7.472-6.723l3.047-0.637c-0.033,2.643,2.084,4.555,4.682,4.555c2.596,0,4.457-2.166,4.457-4.683
		c0-2.581-2.086-3.696-4.168-4.556l-1.668-0.702c-2.758-1.178-5.26-2.74-5.26-6.085c0-3.887,3.463-6.213,7.119-6.213
		c2.693,0,4.906,1.307,6.221,3.632L117.225,7.544z"/>
	<path fill="#399ECC" d="M128.222,2.989v14.177c0,3.92,1.185,7.551,5.836,7.551c4.649,0,5.835-3.631,5.835-7.551V2.989h3.014v15.198
		c0,5.288-3.302,9.335-8.849,9.335c-5.548,0-8.851-4.047-8.851-9.335V2.989H128.222z"/>
	<path fill="#399ECC" d="M151.917,27.012h-3.015V2.989h3.015V27.012z"/>
	<path fill="#399ECC" d="M164.869,27.012h-3.014V5.729h-5.738v-2.74h14.492v2.74h-5.74V27.012z"/>
	<path fill="#399ECC" d="M174.905,2.989h12.985v2.74h-9.971v6.722h9.683v2.74h-9.683v9.08h9.971v2.74h-12.985V2.989z"/>
	<path fill="#399ECC" d="M204.275,7.544c-0.898-1.497-2.052-2.262-3.879-2.262c-1.925,0-4.04,1.306-4.04,3.409
		c0,1.88,1.859,2.867,3.367,3.441l1.73,0.669c3.431,1.338,5.996,3.218,5.996,7.232c0,4.364-3.398,7.487-7.727,7.487
		c-3.912,0-6.959-2.867-7.472-6.723l3.046-0.637c-0.032,2.643,2.084,4.555,4.681,4.555c2.599,0,4.457-2.166,4.457-4.683
		c0-2.581-2.086-3.696-4.168-4.556l-1.667-0.702c-2.758-1.178-5.257-2.74-5.257-6.085c0-3.887,3.459-6.213,7.116-6.213
		c2.693,0,4.906,1.307,6.22,3.632L204.275,7.544z"/>
</g>
</svg>
