<?xml version="1.0" encoding="utf-8"?>
<!-- Generator: Adobe Illustrator 21.0.0, SVG Export Plug-In . SVG Version: 6.00 Build 0)  -->
<svg version="1.1" id="Layer_1" xmlns="http://www.w3.org/2000/svg" xmlns:xlink="http://www.w3.org/1999/xlink" x="0px" y="0px"
	 viewBox="0 0 184 21" style="enable-background:new 0 0 184 21;" xml:space="preserve">
<style type="text/css">
	.st0{fill:#231F20;}
	.st1{fill:#929497;}
	.st2{fill:#F9A21E;}
	.st3{fill:url(#SVGID_1_);}
	.st4{fill:url(#SVGID_2_);}
	.st5{opacity:0.5;fill:url(#SVGID_3_);}
	.st6{fill:url(#SVGID_4_);}
	.st7{fill:url(#SVGID_5_);}
</style>
<path class="st0" d="M42,1.4c0,0.2,0,0.4,0,0.5c0,0.2-0.1,0.3-0.1,0.4c0,0.1-0.1,0.2-0.2,0.2c-0.1,0-0.1,0.1-0.2,0.1h-5.8v17.9
	c0,0.1,0,0.2-0.1,0.2c0,0.1-0.1,0.1-0.2,0.2c-0.1,0-0.2,0.1-0.4,0.1c-0.2,0-0.4,0-0.7,0c-0.3,0-0.5,0-0.7,0c-0.2,0-0.3-0.1-0.4-0.1
	c-0.1,0-0.2-0.1-0.2-0.2c0-0.1-0.1-0.1-0.1-0.2V2.6H27c-0.1,0-0.2,0-0.2-0.1c-0.1,0-0.1-0.1-0.2-0.2c0-0.1-0.1-0.2-0.1-0.4
	c0-0.1,0-0.3,0-0.5c0-0.2,0-0.4,0-0.5c0-0.2,0.1-0.3,0.1-0.4c0-0.1,0.1-0.2,0.2-0.2c0.1,0,0.1-0.1,0.2-0.1h14.4c0.1,0,0.2,0,0.2,0.1
	c0.1,0,0.1,0.1,0.2,0.2c0,0.1,0.1,0.2,0.1,0.4C41.9,1,42,1.2,42,1.4z"/>
<path class="st0" d="M59.6,20.5c0,0.1,0,0.2-0.1,0.2c0,0.1-0.1,0.1-0.2,0.2c-0.1,0-0.3,0.1-0.4,0.1c-0.2,0-0.4,0-0.8,0
	c-0.3,0-0.5,0-0.7,0c-0.2,0-0.3-0.1-0.4-0.1c-0.1,0-0.2-0.1-0.2-0.2c-0.1-0.1-0.1-0.2-0.2-0.3l-1.9-4.9c-0.2-0.6-0.5-1.1-0.7-1.5
	c-0.2-0.5-0.5-0.9-0.9-1.2c-0.3-0.3-0.7-0.6-1.2-0.8c-0.4-0.2-1-0.3-1.6-0.3h-1.8v8.8c0,0.1,0,0.2-0.1,0.2c0,0.1-0.1,0.1-0.2,0.2
	c-0.1,0-0.2,0.1-0.4,0.1c-0.2,0-0.4,0-0.7,0c-0.3,0-0.5,0-0.7,0c-0.2,0-0.3-0.1-0.4-0.1c-0.1,0-0.2-0.1-0.2-0.2
	c0-0.1-0.1-0.1-0.1-0.2V1.4c0-0.4,0.1-0.7,0.3-0.9c0.2-0.2,0.4-0.2,0.7-0.2h4.4c0.5,0,1,0,1.3,0c0.3,0,0.7,0.1,0.9,0.1
	C54.3,0.5,55,0.7,55.6,1c0.6,0.3,1.1,0.7,1.5,1.1c0.4,0.5,0.7,1,0.9,1.6c0.2,0.6,0.3,1.2,0.3,2c0,0.7-0.1,1.3-0.3,1.9
	c-0.2,0.5-0.5,1-0.8,1.5c-0.4,0.4-0.8,0.8-1.3,1.1c-0.5,0.3-1,0.6-1.6,0.8c0.3,0.1,0.7,0.3,0.9,0.6c0.3,0.2,0.5,0.5,0.8,0.8
	c0.2,0.3,0.5,0.7,0.7,1.1c0.2,0.4,0.4,0.9,0.6,1.4l1.9,4.6c0.1,0.4,0.2,0.7,0.3,0.8C59.6,20.3,59.6,20.4,59.6,20.5z M55.5,6
	c0-0.8-0.2-1.5-0.5-2.1c-0.4-0.6-1-1-1.8-1.2c-0.3-0.1-0.6-0.1-0.9-0.2c-0.3,0-0.8,0-1.3,0h-2.3v7h2.7c0.7,0,1.3-0.1,1.9-0.3
	c0.5-0.2,1-0.4,1.3-0.7c0.4-0.3,0.6-0.7,0.8-1.1C55.4,6.9,55.5,6.5,55.5,6z"/>
<path class="st0" d="M78,13.2c0,1.2-0.2,2.3-0.5,3.3c-0.4,1-0.9,1.8-1.6,2.5c-0.7,0.7-1.5,1.2-2.5,1.5c-1,0.3-2.1,0.5-3.3,0.5
	c-1.1,0-2.1-0.2-3.1-0.5c-0.9-0.3-1.7-0.8-2.4-1.4c-0.7-0.6-1.2-1.4-1.5-2.4c-0.4-1-0.5-2.1-0.5-3.3V0.7c0-0.1,0-0.2,0.1-0.2
	c0-0.1,0.1-0.1,0.2-0.1c0.1,0,0.2-0.1,0.4-0.1c0.2,0,0.4,0,0.7,0c0.3,0,0.5,0,0.6,0c0.2,0,0.3,0.1,0.4,0.1c0.1,0,0.2,0.1,0.2,0.1
	c0,0.1,0.1,0.1,0.1,0.2V13c0,0.9,0.1,1.8,0.3,2.5c0.2,0.7,0.6,1.3,1,1.8c0.4,0.5,1,0.8,1.6,1.1c0.6,0.2,1.3,0.4,2.1,0.4
	c0.8,0,1.5-0.1,2.1-0.3c0.6-0.2,1.1-0.6,1.6-1c0.4-0.5,0.7-1,1-1.7c0.2-0.7,0.3-1.5,0.3-2.4V0.7c0-0.1,0-0.2,0.1-0.2
	c0-0.1,0.1-0.1,0.2-0.1c0.1,0,0.2-0.1,0.4-0.1c0.2,0,0.4,0,0.7,0c0.3,0,0.5,0,0.6,0c0.2,0,0.3,0.1,0.4,0.1c0.1,0,0.2,0.1,0.2,0.1
	C78,0.6,78,0.7,78,0.7V13.2z"/>
<path class="st0" d="M93.5,15c0,0.9-0.2,1.8-0.5,2.5c-0.3,0.7-0.8,1.4-1.4,1.9c-0.6,0.5-1.3,0.9-2.2,1.2c-0.8,0.3-1.7,0.4-2.7,0.4
	c-0.7,0-1.3-0.1-1.9-0.2c-0.6-0.1-1.1-0.3-1.5-0.4c-0.5-0.2-0.8-0.3-1.1-0.5c-0.3-0.2-0.5-0.3-0.6-0.5c-0.1-0.1-0.2-0.3-0.3-0.5
	c-0.1-0.2-0.1-0.5-0.1-0.8c0-0.2,0-0.4,0-0.6c0-0.2,0.1-0.3,0.1-0.4c0-0.1,0.1-0.2,0.2-0.2c0.1,0,0.1-0.1,0.2-0.1
	c0.1,0,0.4,0.1,0.6,0.3c0.3,0.2,0.6,0.4,1,0.6c0.4,0.2,0.9,0.4,1.5,0.6c0.6,0.2,1.3,0.3,2,0.3c0.6,0,1.1-0.1,1.6-0.2
	c0.5-0.2,0.9-0.4,1.2-0.7c0.3-0.3,0.6-0.6,0.8-1.1c0.2-0.4,0.3-0.9,0.3-1.4c0-0.6-0.1-1.1-0.4-1.5c-0.3-0.4-0.6-0.8-1-1.1
	c-0.4-0.3-0.9-0.6-1.5-0.8c-0.5-0.3-1.1-0.5-1.7-0.8c-0.6-0.3-1.1-0.6-1.7-0.9c-0.5-0.3-1-0.7-1.4-1.1c-0.4-0.4-0.8-0.9-1-1.5
	c-0.3-0.6-0.4-1.3-0.4-2.1c0-0.8,0.2-1.6,0.5-2.3c0.3-0.7,0.7-1.2,1.3-1.7c0.5-0.4,1.2-0.8,1.9-1c0.8-0.2,1.6-0.4,2.4-0.4
	c0.4,0,0.9,0,1.3,0.1c0.5,0.1,0.9,0.2,1.3,0.3c0.4,0.1,0.8,0.3,1.1,0.4c0.3,0.2,0.5,0.3,0.6,0.4c0.1,0.1,0.2,0.2,0.2,0.2
	c0,0.1,0.1,0.1,0.1,0.2c0,0.1,0,0.2,0,0.3c0,0.1,0,0.3,0,0.5c0,0.2,0,0.4,0,0.5c0,0.1,0,0.3-0.1,0.4c0,0.1-0.1,0.2-0.1,0.2
	c-0.1,0-0.1,0.1-0.2,0.1c-0.1,0-0.3-0.1-0.5-0.2c-0.2-0.1-0.5-0.3-0.9-0.5c-0.4-0.2-0.8-0.3-1.3-0.5c-0.5-0.1-1-0.2-1.6-0.2
	c-0.6,0-1,0.1-1.5,0.2c-0.4,0.2-0.8,0.4-1,0.6c-0.3,0.3-0.5,0.5-0.6,0.9c-0.1,0.3-0.2,0.7-0.2,1.1c0,0.6,0.1,1,0.4,1.4
	c0.3,0.4,0.6,0.8,1,1.1c0.4,0.3,0.9,0.6,1.5,0.9c0.6,0.3,1.1,0.5,1.7,0.8c0.6,0.3,1.1,0.6,1.7,0.9c0.6,0.3,1,0.7,1.5,1.1
	c0.4,0.4,0.8,0.9,1,1.5C93.4,13.5,93.5,14.2,93.5,15z"/>
<path class="st0" d="M110.6,1.4c0,0.2,0,0.4,0,0.5c0,0.1-0.1,0.3-0.1,0.4c0,0.1-0.1,0.2-0.2,0.2c-0.1,0-0.1,0.1-0.2,0.1h-5.8v17.9
	c0,0.1,0,0.2-0.1,0.2c0,0.1-0.1,0.1-0.2,0.2c-0.1,0-0.2,0.1-0.4,0.1c-0.2,0-0.4,0-0.7,0c-0.3,0-0.5,0-0.7,0c-0.2,0-0.3-0.1-0.4-0.1
	c-0.1,0-0.2-0.1-0.2-0.2c0-0.1-0.1-0.1-0.1-0.2V2.6h-5.8c-0.1,0-0.2,0-0.2-0.1c-0.1,0-0.1-0.1-0.2-0.2c0-0.1-0.1-0.2-0.1-0.4
	c0-0.1,0-0.3,0-0.5c0-0.2,0-0.4,0-0.5c0-0.2,0.1-0.3,0.1-0.4c0-0.1,0.1-0.2,0.2-0.2c0.1,0,0.1-0.1,0.2-0.1H110c0.1,0,0.2,0,0.2,0.1
	c0.1,0,0.1,0.1,0.2,0.2c0,0.1,0.1,0.2,0.1,0.4C110.6,1,110.6,1.2,110.6,1.4z"/>
<path class="st1" d="M126.5,6.3c0,1-0.2,2-0.5,2.8c-0.3,0.8-0.8,1.5-1.5,2.1c-0.6,0.6-1.4,1-2.3,1.4c-0.9,0.3-2,0.5-3.3,0.5h-2.3
	v7.4c0,0.1,0,0.2-0.1,0.2c0,0.1-0.1,0.1-0.2,0.2c-0.1,0-0.2,0.1-0.4,0.1c-0.2,0-0.4,0-0.7,0c-0.3,0-0.5,0-0.7,0
	c-0.2,0-0.3-0.1-0.4-0.1c-0.1,0-0.2-0.1-0.2-0.2c0-0.1-0.1-0.1-0.1-0.2V1.4c0-0.4,0.1-0.7,0.3-0.9c0.2-0.2,0.5-0.3,0.8-0.3h4.4
	c0.4,0,0.9,0,1.3,0.1c0.4,0,0.9,0.1,1.5,0.2c0.6,0.1,1.1,0.4,1.7,0.7c0.6,0.3,1.1,0.7,1.5,1.2c0.4,0.5,0.7,1.1,0.9,1.7
	C126.4,4.8,126.5,5.5,126.5,6.3z M123.6,6.5c0-0.8-0.2-1.5-0.5-2.1c-0.3-0.6-0.7-1-1.2-1.3c-0.5-0.3-0.9-0.5-1.4-0.5
	c-0.5-0.1-1-0.1-1.4-0.1h-2.5v8.3h2.5c0.8,0,1.5-0.1,2.1-0.3c0.5-0.2,1-0.5,1.4-0.9c0.4-0.4,0.7-0.8,0.8-1.4
	C123.6,7.7,123.6,7.1,123.6,6.5z"/>
<path class="st1" d="M133,20.5c0,0.1,0,0.2-0.1,0.2c0,0.1-0.1,0.1-0.2,0.1c-0.1,0-0.2,0.1-0.4,0.1c-0.2,0-0.4,0-0.7,0
	c-0.3,0-0.5,0-0.7,0c-0.2,0-0.3-0.1-0.4-0.1c-0.1,0-0.2-0.1-0.2-0.1c0-0.1-0.1-0.1-0.1-0.2V0.7c0-0.1,0-0.2,0.1-0.2
	c0-0.1,0.1-0.1,0.2-0.1c0.1,0,0.3-0.1,0.4-0.1c0.2,0,0.4,0,0.6,0c0.3,0,0.5,0,0.7,0c0.2,0,0.3,0.1,0.4,0.1c0.1,0,0.2,0.1,0.2,0.1
	c0,0.1,0.1,0.1,0.1,0.2V20.5z"/>
<path class="st1" d="M148.8,19.8c0,0.2,0,0.4,0,0.5c0,0.1-0.1,0.3-0.1,0.4c0,0.1-0.1,0.2-0.2,0.2c-0.1,0-0.2,0.1-0.2,0.1h-9.1
	c-0.2,0-0.5-0.1-0.7-0.2c-0.2-0.2-0.3-0.5-0.3-0.9V0.7c0-0.1,0-0.2,0.1-0.2c0-0.1,0.1-0.1,0.2-0.2c0.1,0,0.3-0.1,0.4-0.1
	c0.2,0,0.4,0,0.7,0c0.3,0,0.5,0,0.7,0c0.2,0,0.3,0.1,0.4,0.1c0.1,0,0.2,0.1,0.2,0.2c0,0.1,0.1,0.1,0.1,0.2v17.9h7.4
	c0.1,0,0.2,0,0.2,0.1c0.1,0,0.1,0.1,0.2,0.2c0.1,0.1,0.1,0.2,0.1,0.4C148.8,19.4,148.8,19.6,148.8,19.8z"/>
<path class="st1" d="M167.6,10.4c0,1.6-0.2,3.1-0.6,4.4c-0.4,1.3-1,2.4-1.7,3.3c-0.8,0.9-1.7,1.6-2.9,2.1c-1.2,0.5-2.5,0.7-4,0.7
	c-1.5,0-2.8-0.2-3.9-0.7c-1.1-0.5-2-1.1-2.7-2c-0.7-0.9-1.3-1.9-1.6-3.2c-0.4-1.3-0.5-2.7-0.5-4.4c0-1.6,0.2-3,0.6-4.3
	c0.4-1.3,1-2.4,1.7-3.3c0.8-0.9,1.7-1.6,2.9-2.1c1.2-0.5,2.5-0.7,4-0.7c1.5,0,2.8,0.2,3.9,0.7c1.1,0.4,2,1.1,2.7,2
	c0.7,0.9,1.3,1.9,1.6,3.2C167.4,7.3,167.6,8.7,167.6,10.4z M164.7,10.5c0-1.1-0.1-2.2-0.3-3.2c-0.2-1-0.5-1.8-1-2.5
	c-0.5-0.7-1.1-1.3-1.9-1.7c-0.8-0.4-1.8-0.6-2.9-0.6c-1.2,0-2.1,0.2-2.9,0.7c-0.8,0.4-1.4,1-1.9,1.7c-0.5,0.7-0.8,1.6-1.1,2.5
	c-0.2,1-0.3,2-0.3,3.1c0,1.2,0.1,2.3,0.3,3.3c0.2,1,0.5,1.9,1,2.6c0.5,0.7,1.1,1.3,1.9,1.7c0.8,0.4,1.8,0.6,2.9,0.6
	c1.2,0,2.2-0.2,3-0.7c0.8-0.4,1.4-1,1.9-1.8c0.5-0.7,0.8-1.6,1-2.6C164.6,12.7,164.7,11.6,164.7,10.5z"/>
<path class="st1" d="M183.6,1.4c0,0.2,0,0.4,0,0.5c0,0.2-0.1,0.3-0.1,0.4c0,0.1-0.1,0.2-0.2,0.2c-0.1,0-0.1,0.1-0.2,0.1h-5.8v17.9
	c0,0.1,0,0.2-0.1,0.2c0,0.1-0.1,0.1-0.2,0.2c-0.1,0-0.2,0.1-0.4,0.1c-0.2,0-0.4,0-0.7,0c-0.3,0-0.5,0-0.7,0c-0.2,0-0.3-0.1-0.4-0.1
	c-0.1,0-0.2-0.1-0.2-0.2c0-0.1-0.1-0.1-0.1-0.2V2.6h-5.8c-0.1,0-0.2,0-0.2-0.1c-0.1,0-0.1-0.1-0.2-0.2c0-0.1-0.1-0.2-0.1-0.4
	c0-0.1,0-0.3,0-0.5c0-0.2,0-0.4,0-0.5c0-0.2,0.1-0.3,0.1-0.4c0-0.1,0.1-0.2,0.2-0.2c0.1,0,0.1-0.1,0.2-0.1h14.4c0.1,0,0.2,0,0.2,0.1
	c0.1,0,0.1,0.1,0.2,0.2c0,0.1,0.1,0.2,0.1,0.4C183.6,1,183.6,1.2,183.6,1.4z"/>
<path class="st2" d="M0.5,9.4c0,0,6.6,3.2,10,8.8c0,0,1.5-12.5,9.8-17.6H0.5"/>
<linearGradient id="SVGID_1_" gradientUnits="userSpaceOnUse" x1="4.9692" y1="20.488" x2="4.9692" y2="16.6023">
	<stop  offset="0" style="stop-color:#E37A26"/>
	<stop  offset="0.4725" style="stop-color:#F9A21E"/>
</linearGradient>
<path class="st3" d="M0.5,20.5h8.9c0,0-3.4-3.6-8.9-3.9"/>
<linearGradient id="SVGID_2_" gradientUnits="userSpaceOnUse" x1="16.1019" y1="20.4806" x2="16.1019" y2="9.1379">
	<stop  offset="0" style="stop-color:#E37A26"/>
	<stop  offset="0.4725" style="stop-color:#F9A21E"/>
</linearGradient>
<path class="st4" d="M11.8,20.5h8.5V9.1C15.5,10.4,11.8,20.5,11.8,20.5z"/>
<linearGradient id="SVGID_3_" gradientUnits="userSpaceOnUse" x1="10.4004" y1="8.3383" x2="10.4004" y2="0.7211">
	<stop  offset="0" style="stop-color:#FFFFFF"/>
	<stop  offset="1" style="stop-color:#F9A21E"/>
</linearGradient>
<path class="st5" d="M0.6,0.7h19.5c0,0-3.2,1.1-6.7,7.5c0,0-7.6,0.8-12.8-1.5"/>
<linearGradient id="SVGID_4_" gradientUnits="userSpaceOnUse" x1="20.3595" y1="0.5883" x2="20.3595" y2="0.6048">
	<stop  offset="0" style="stop-color:#484848"/>
	<stop  offset="1" style="stop-color:#000000"/>
</linearGradient>
<path class="st6" d="M20.3,0.6C20.4,0.6,20.4,0.6,20.3,0.6"/>
<linearGradient id="SVGID_5_" gradientUnits="userSpaceOnUse" x1="10.4473" y1="0.6834" x2="10.4473" y2="20.4095">
	<stop  offset="0" style="stop-color:#484848"/>
	<stop  offset="1" style="stop-color:#000000"/>
</linearGradient>
<path class="st7" d="M0.5,16.6c5.5,0.3,8.9,3.9,8.9,3.9l2.4,0c0,0,3.7-10,8.5-11.3V0.6h0c-8.3,5.1-9.8,17.6-9.8,17.6
	c-3.4-5.7-10-8.8-10-8.8"/>
</svg>
