<?xml version="1.0" encoding="utf-8"?>
<!-- Generator: Adobe Illustrator 21.0.0, SVG Export Plug-In . SVG Version: 6.00 Build 0)  -->
<svg version="1.1" id="Layer_1" xmlns="http://www.w3.org/2000/svg" xmlns:xlink="http://www.w3.org/1999/xlink" x="0px" y="0px"
	 viewBox="0 0 84 878" style="enable-background:new 0 0 84 878;" xml:space="preserve">
<style type="text/css">
	.st0{clip-path:url(#SVGID_2_);}
	.st1{clip-path:url(#SVGID_4_);fill:none;stroke:#000000;stroke-width:1.5;stroke-miterlimit:10;}
	.st2{clip-path:url(#SVGID_4_);fill:none;stroke:#000000;stroke-width:1.5;stroke-linejoin:round;stroke-miterlimit:10;}
	
		.st3{clip-path:url(#SVGID_4_);fill:none;stroke:#000000;stroke-width:1.5;stroke-linecap:round;stroke-linejoin:round;stroke-miterlimit:10;}
	.st4{clip-path:url(#SVGID_4_);}
	.st5{clip-path:url(#SVGID_6_);}
	.st6{clip-path:url(#SVGID_8_);}
	.st7{clip-path:url(#SVGID_8_);fill:none;stroke:#000000;stroke-width:1.5;stroke-linecap:round;stroke-miterlimit:10;}
	.st8{clip-path:url(#SVGID_10_);}
	.st9{clip-path:url(#SVGID_12_);}
	.st10{clip-path:url(#SVGID_14_);}
	.st11{clip-path:url(#SVGID_16_);fill:none;stroke:#000000;stroke-width:1.5;stroke-miterlimit:10;}
	.st12{clip-path:url(#SVGID_16_);}
</style>
<g id="thick-steel-icon">
	<g>
		<defs>
			<rect id="SVGID_1_" x="13.6" y="10.1" width="58.8" height="70.6"/>
		</defs>
		<clipPath id="SVGID_2_">
			<use xlink:href="#SVGID_1_"  style="overflow:visible;"/>
		</clipPath>
		<g class="st0">
			<defs>
				<rect id="SVGID_3_" x="13.6" y="10.1" width="58.8" height="70.6"/>
			</defs>
			<clipPath id="SVGID_4_">
				<use xlink:href="#SVGID_3_"  style="overflow:visible;"/>
			</clipPath>
			<ellipse class="st1" cx="36.8" cy="17" rx="22.4" ry="6.2"/>
			<path class="st1" d="M14.4,17v14.2c0,3.4,10,6.2,22.4,6.2h25c6.2,0,6,4.2,6,4.2c0,1.8,3.8,1.8,3.8,0V27.1c0-3.8-7.7-3.8-7.7-3.8
				l-26.3,0"/>
			<ellipse class="st2" cx="36.8" cy="16.5" rx="6.7" ry="1.6"/>
			<path class="st2" d="M59.2,17c0,0,0.2,6.2,0,6.2"/>
			<line class="st3" x1="26.8" y1="28.2" x2="26.8" y2="36.9"/>
			<line class="st3" x1="55.1" y1="28.8" x2="55.1" y2="37.5"/>
			<line class="st3" x1="41.2" y1="28.8" x2="41.2" y2="37.5"/>
			<line class="st3" x1="18.4" y1="30.3" x2="18.4" y2="34.8"/>
			<line class="st3" x1="22.6" y1="31.5" x2="22.6" y2="36.1"/>
			<line class="st3" x1="31.7" y1="32.8" x2="31.7" y2="37.3"/>
			<line class="st3" x1="45.5" y1="32.9" x2="45.5" y2="37.5"/>
			<line class="st3" x1="36.5" y1="32.9" x2="36.5" y2="37.5"/>
			<line class="st3" x1="50.3" y1="32.9" x2="50.3" y2="37.5"/>
			<line class="st3" x1="59.6" y1="32.9" x2="59.6" y2="37.5"/>
			<line class="st3" x1="64.6" y1="33.3" x2="64.6" y2="37.8"/>
			<path class="st4" d="M31,65.7h-3.2v-8.9l0-1.5l0.1-1.6c-0.5,0.5-0.9,0.9-1.1,1.1L25,56.2l-1.6-2l5-3.9H31V65.7z"/>
			<path class="st4" d="M34,64.2c0-0.6,0.2-1,0.5-1.3c0.3-0.3,0.8-0.5,1.4-0.5c0.6,0,1,0.2,1.4,0.5c0.3,0.3,0.5,0.8,0.5,1.3
				c0,0.6-0.2,1-0.5,1.3c-0.3,0.3-0.8,0.5-1.3,0.5c-0.6,0-1-0.2-1.4-0.5C34.1,65.2,34,64.8,34,64.2"/>
			<path class="st4" d="M45.3,55.9c1.5,0,2.7,0.4,3.5,1.3c0.9,0.8,1.3,2,1.3,3.4c0,1.7-0.5,3-1.6,4c-1.1,0.9-2.6,1.4-4.5,1.4
				c-1.7,0-3.1-0.3-4.1-0.8v-2.8c0.6,0.3,1.2,0.5,1.9,0.7c0.7,0.2,1.4,0.3,2.1,0.3c2,0,3-0.8,3-2.4c0-1.5-1-2.3-3.1-2.3
				c-0.4,0-0.8,0-1.2,0.1c-0.4,0.1-0.8,0.2-1.1,0.2l-1.3-0.7l0.6-7.8h8.3v2.8h-5.5l-0.3,3l0.4-0.1C44.2,55.9,44.7,55.9,45.3,55.9"/>
			<path class="st4" d="M36.4,80.7v-4.5c0-0.5-0.1-1-0.4-1.2c-0.2-0.3-0.6-0.4-1.1-0.4c-0.6,0-1.1,0.2-1.4,0.6
				c-0.3,0.4-0.5,0.9-0.5,1.7v3.8h-1v-4.5c0-0.5-0.1-1-0.4-1.2c-0.2-0.3-0.6-0.4-1.1-0.4c-0.7,0-1.1,0.2-1.4,0.6
				c-0.3,0.4-0.5,1-0.5,1.9v3.6h-1v-6.9h0.8l0.2,0.9h0.1c0.2-0.3,0.5-0.6,0.8-0.8c0.4-0.2,0.8-0.3,1.2-0.3c1.1,0,1.8,0.4,2.1,1.2
				h0.1c0.2-0.4,0.5-0.6,0.9-0.9c0.4-0.2,0.8-0.3,1.3-0.3c0.8,0,1.4,0.2,1.7,0.6c0.4,0.4,0.6,1,0.6,1.9v4.5H36.4z"/>
			<path class="st4" d="M48.4,80.7v-4.5c0-0.5-0.1-1-0.4-1.2c-0.2-0.3-0.6-0.4-1.1-0.4c-0.6,0-1.1,0.2-1.4,0.6
				c-0.3,0.4-0.5,0.9-0.5,1.7v3.8h-1v-4.5c0-0.5-0.1-1-0.4-1.2c-0.2-0.3-0.6-0.4-1.1-0.4c-0.7,0-1.1,0.2-1.4,0.6
				c-0.3,0.4-0.5,1-0.5,1.9v3.6h-1v-6.9h0.8l0.2,0.9h0.1c0.2-0.3,0.5-0.6,0.8-0.8c0.4-0.2,0.8-0.3,1.2-0.3c1.1,0,1.8,0.4,2.1,1.2
				h0.1c0.2-0.4,0.5-0.6,0.9-0.9c0.4-0.2,0.8-0.3,1.3-0.3c0.8,0,1.4,0.2,1.7,0.6c0.4,0.4,0.6,1,0.6,1.9v4.5H48.4z"/>
		</g>
	</g>
</g>
<g id="warmth-icon">
	<g>
		<defs>
			<rect id="SVGID_5_" x="19.7" y="101.6" width="47.6" height="69.9"/>
		</defs>
		<clipPath id="SVGID_6_">
			<use xlink:href="#SVGID_5_"  style="overflow:visible;"/>
		</clipPath>
		<g class="st5">
			<defs>
				<rect id="SVGID_7_" x="19.7" y="101.6" width="47.6" height="69.9"/>
			</defs>
			<clipPath id="SVGID_8_">
				<use xlink:href="#SVGID_7_"  style="overflow:visible;"/>
			</clipPath>
			<path class="st6" d="M37.2,103.1c3.6,0,6.6,2.9,6.6,6.6v23.8c0,3.2,1.4,6.2,3.8,8.3c3.6,3.1,5.7,7.5,5.7,12.2c0,8.8-7.2,16-16,16
				s-16-7.2-16-16c0-4.7,2.1-9.2,5.7-12.2c2.4-2.1,3.8-5.1,3.8-8.3v-23.8C30.7,106,33.6,103.1,37.2,103.1 M37.2,101.6
				c-4.4,0-8.1,3.6-8.1,8.1v23.8c0,2.7-1.2,5.3-3.3,7.1c-3.9,3.3-6.2,8.2-6.2,13.4c0,9.7,7.9,17.5,17.5,17.5s17.5-7.9,17.5-17.5
				c0-5.1-2.3-10-6.2-13.4c-2.1-1.8-3.3-4.4-3.3-7.1v-23.8C45.3,105.2,41.7,101.6,37.2,101.6"/>
			<path class="st6" d="M38.8,122.1v12.8c0,4.7,1.9,7.4,5.1,10.2c2.5,2.2,4.4,5.2,4.4,8.8c0,6.1-5,11.1-11.1,11.1
				c-0.4,0-0.8,0-1.2-0.1c-4.7-0.5-8.6-4.2-9.6-8.8c-0.9-4.6,1.2-8.4,4.2-11c3.2-2.8,5.1-5.5,5.1-10.2v-12.8H38.8 M40.3,120.6h-1.5
				h-3.2h-1.5v1.5v12.8c0,4.2-1.7,6.5-4.6,9.1c-3.9,3.5-5.6,7.9-4.7,12.4c1.1,5.3,5.6,9.4,10.9,10c0.5,0,0.9,0.1,1.4,0.1
				c6.9,0,12.6-5.6,12.6-12.6c0-3.7-1.7-7.1-4.9-9.9c-2.9-2.5-4.6-4.8-4.6-9.1v-12.8V120.6z"/>
			<line class="st7" x1="53.7" y1="138.2" x2="66.5" y2="138.2"/>
			<line class="st7" x1="53.7" y1="132.9" x2="62.5" y2="132.9"/>
			<line class="st7" x1="53.7" y1="127.6" x2="62.5" y2="127.6"/>
			<line class="st7" x1="53.7" y1="122.3" x2="66.5" y2="122.3"/>
			<line class="st7" x1="53.7" y1="117" x2="62.5" y2="117"/>
			<line class="st7" x1="53.7" y1="111.7" x2="62.5" y2="111.7"/>
			<line class="st7" x1="53.7" y1="106.4" x2="66.5" y2="106.4"/>
		</g>
	</g>
</g>
<g id="guarantee-icon">
	<g>
		<defs>
			<rect id="SVGID_9_" x="21" y="193" width="40.8" height="69.9"/>
		</defs>
		<clipPath id="SVGID_10_">
			<use xlink:href="#SVGID_9_"  style="overflow:visible;"/>
		</clipPath>
		<g class="st8">
			<defs>
				<rect id="SVGID_11_" x="21" y="193" width="40.8" height="69.9"/>
			</defs>
			<clipPath id="SVGID_12_">
				<use xlink:href="#SVGID_11_"  style="overflow:visible;"/>
			</clipPath>
			<path class="st9" d="M51.5,238.2v21.7l-9.1-6.9l-0.9-0.7l-0.9,0.7l-9.4,7v-21.7h2.3c2.3,1.6,4.2,2.9,7.9,2.9
				c2.8,0,5.7-1.1,7.9-2.9H51.5 M53,236.7h-4.4c-1.8,1.7-4.4,2.9-7.3,2.9c-3.4,0-5-1.2-7.4-2.9h-4.3v26.2l11.8-8.7l11.5,8.7V236.7z"
				/>
			<path class="st9" d="M41.4,194.5c0.6,0,1.2,0.2,1.7,0.5c0.3,0.2,0.6,0.4,0.9,0.6c2.3,1.7,2.9,2,5.4,2c0.3,0,0.6,0,0.9,0
				c0.3,0,0.7,0,1.1,0c1.2,0,2.3,0.7,2.7,1.9c0.1,0.4,0.2,0.7,0.3,1c1,3.1,1.2,3.3,3.9,5.2c0.3,0.2,0.5,0.4,0.9,0.6
				c0.7,0.5,1.1,1.3,1.1,2.1c0,0.3,0,0.6-0.1,0.8c-0.1,0.4-0.2,0.7-0.3,1c-1.1,3-1.1,3.4,0,6.5c0.1,0.3,0.2,0.6,0.3,1
				c0.1,0.3,0.1,0.5,0.1,0.8c0,0.8-0.4,1.6-1.1,2.1c-0.3,0.2-0.6,0.4-0.9,0.6c-2.7,1.9-2.9,2.1-3.9,5.2c-0.1,0.3-0.2,0.6-0.3,1
				c-0.4,1.1-1.5,1.9-2.7,1.9c-0.4,0-0.7,0-1.1,0c-0.3,0-0.6,0-0.9,0c-2.5,0-3.1,0.3-5.4,2c-0.3,0.2-0.5,0.4-0.9,0.6
				c-0.5,0.3-1.1,0.5-1.7,0.5c-0.6,0-1.2-0.2-1.7-0.5c-0.3-0.2-0.6-0.4-0.9-0.6c-2.3-1.7-2.9-2-5.4-2c-0.3,0-0.6,0-0.9,0
				c-0.3,0-0.7,0-1.1,0c-1.2,0-2.3-0.7-2.7-1.9c-0.1-0.3-0.2-0.7-0.3-0.9c-1-3.1-1.2-3.4-3.9-5.2c-0.3-0.2-0.6-0.4-0.9-0.6
				c-0.7-0.5-1.1-1.3-1.1-2.1c0-0.3,0-0.5,0.1-0.8c0.1-0.4,0.2-0.7,0.3-1c1.1-3,1.1-3.4,0-6.5c-0.1-0.3-0.2-0.6-0.3-1
				c-0.1-0.3-0.1-0.5-0.1-0.8c0-0.8,0.4-1.6,1.1-2.1c0.3-0.2,0.6-0.4,0.9-0.6c2.7-1.8,2.9-2.1,3.9-5.2c0.1-0.3,0.2-0.6,0.3-0.9
				c0.4-1.1,1.5-1.9,2.7-1.9c0.4,0,0.8,0,1.1,0c0.3,0,0.6,0,0.9,0c2.5,0,3-0.3,5.3-2c0.3-0.2,0.5-0.4,0.9-0.6
				C40.2,194.7,40.8,194.5,41.4,194.5 M41.4,193c-0.9,0-1.8,0.3-2.5,0.8c-3,2.1-3,2.3-5.3,2.3c-0.5,0-1.2,0-2,0h0
				c-1.9,0-3.5,1.2-4.1,2.9c-1.4,4.1-0.9,3.5-4.5,6c-1.1,0.8-1.8,2.1-1.8,3.4c0,0.4,0.1,0.9,0.2,1.3c1.4,4.1,1.4,3.3,0,7.4
				c-0.1,0.4-0.2,0.9-0.2,1.3c0,1.3,0.6,2.6,1.8,3.4c3.6,2.5,3.2,1.9,4.5,6c0.6,1.7,2.2,2.9,4.1,2.9h0c0.8,0,1.4,0,2,0
				c2.4,0,2.4,0.2,5.4,2.3c0.8,0.5,1.7,0.8,2.5,0.8c0.9,0,1.8-0.3,2.6-0.8c3-2.1,3-2.3,5.4-2.3c0.5,0,1.2,0,2,0h0
				c1.9,0,3.5-1.2,4.1-2.9c1.4-4.1,0.9-3.5,4.5-6c1.1-0.8,1.8-2.1,1.8-3.4c0-0.4-0.1-0.9-0.2-1.3c-1.4-4.1-1.4-3.3,0-7.4
				c0.1-0.4,0.2-0.9,0.2-1.3c0-1.3-0.6-2.6-1.8-3.4c-3.7-2.5-3.2-1.9-4.5-6c-0.6-1.7-2.2-2.9-4.1-2.9h0c-0.8,0-1.4,0-2,0
				c-2.4,0-2.4-0.2-5.4-2.3C43.2,193.3,42.3,193,41.4,193"/>
			<polygon class="st9" points="34,213.9 35,212.9 39.1,216.8 47.8,207.9 48.8,208.9 39,218.8 			"/>
			<path class="st9" d="M41.4,201.4c6.6,0,12,5.4,12,12c0,6.6-5.4,12-12,12c-6.6,0-12-5.4-12-12C29.4,206.8,34.8,201.4,41.4,201.4
				 M41.4,199.9c-7.5,0-13.5,6-13.5,13.5s6,13.5,13.5,13.5s13.5-6,13.5-13.5S48.8,199.9,41.4,199.9"/>
		</g>
	</g>
</g>
<g id="certified-icon">
	<g>
		<defs>
			<rect id="SVGID_13_" x="10.9" y="287.1" width="63.2" height="64.7"/>
		</defs>
		<clipPath id="SVGID_14_">
			<use xlink:href="#SVGID_13_"  style="overflow:visible;"/>
		</clipPath>
		<g class="st10">
			<defs>
				<rect id="SVGID_15_" x="10.9" y="287.1" width="63.2" height="64.7"/>
			</defs>
			<clipPath id="SVGID_16_">
				<use xlink:href="#SVGID_15_"  style="overflow:visible;"/>
			</clipPath>
			<path class="st11" d="M59.4,337.9c-0.7,4.6-2.6,8.7-5.6,12.2c-0.2-1.2-0.7-2.4-1.2-3.4c-1.1,0.6-2.4,0.9-3.6,0.9
				c-0.2,0-0.5,0-0.7,0c3.2-3.4,4.8-6.8,5.3-11.5c0.8,0.2,1.7,0.3,2.8,0.3C57.6,337.2,58,337.7,59.4,337.9z"/>
			<path class="st11" d="M72.5,347.6c-3.2-3.4-4.8-6.8-5.3-11.5c-0.8,0.2-1.7,0.3-2.8,0.3c-1.1,0.8-1.6,1.2-3,1.5
				c0.7,4.6,2.6,8.7,5.6,12.2c0.2-1.2,0.7-2.4,1.2-3.4C69.6,347.4,71.3,347.7,72.5,347.6z"/>
			<path class="st11" d="M59.1,334.6c-1.9-1.3-1.5-1.2-3.8-1.2h0c-1,0-1.8-0.6-2.1-1.5c-0.7-2.1-0.5-1.8-2.4-3.1
				c-0.8-0.6-1.1-1.6-0.8-2.4c0.7-2.1,0.7-1.7,0-3.9c-0.3-0.9,0-1.9,0.8-2.4c1.9-1.3,1.6-1,2.4-3.1c0.3-0.9,1.2-1.5,2.1-1.5h0
				c2.3,0,1.9,0.1,3.8-1.2c0.4-0.3,0.9-0.4,1.3-0.4s0.9,0.1,1.3,0.4c1.9,1.3,1.5,1.2,3.8,1.2h0c1,0,1.8,0.6,2.1,1.5
				c0.7,2.1,0.5,1.8,2.4,3.1c0.6,0.4,0.9,1.1,0.9,1.7c0,0.2,0,0.5-0.1,0.7c-0.7,2.1-0.7,1.7,0,3.9c0.3,0.9,0,1.9-0.8,2.4
				c-1.9,1.3-1.6,1-2.4,3.1c-0.6,1.6-1.8,1.5-3.2,1.5c-1.2,0-1.2,0.1-2.8,1.2C61,335.2,59.9,335.2,59.1,334.6z"/>
			<circle class="st11" cx="60.4" cy="324.4" r="5.3"/>
			<path class="st12" d="M27.8,348.6c-2.3,0-4.5-1-6.1-2.7c-1.5-1.7-2.2-3.9-2-6.2c0.2-1.9,1-3.5,2.3-4.8l1.2,1.6
				c-1.4,1.5-2,3.5-1.5,5.6c0.6,2.3,2.6,4.6,5.9,4.6c2.3,0,4.4-1.3,5.5-3.4c1-2.1,0.8-4.5-0.6-6.4c-0.1-0.1-15.8-20.2-19.7-25.1
				c-1.3-1.7-2-3.6-2-5.5c0-3.1,1.7-5.7,4.6-7.1l22.2-11.4c0.9-0.4,1.9-0.6,3-0.6c2.7,0,5.2,1.4,6.6,3.8c1.9,3.3,1.1,7.6-2,9.9
				l-20.4,11.5l-1.4-1.8c1.5-1.6,2-3.7,1.4-5.9c-0.8-2.6-3.1-4.3-5.8-4.3c-2.3,0-4.4,1.3-5.5,3.4c-1.1,2.2-0.7,4.7,1,6.9
				c3.3,4.2,15.5,19.8,18.7,23.8l0.7,1c1.2,1.4,1.8,3,1.9,4.8l0.1,2.5c0,0,6.9-4.4,10.9-6.9c0,1.1-0.3,2.1-0.6,2.7l-14.4,9.1
				C30.6,348.2,29.2,348.6,27.8,348.6 M40.7,289.1c-0.8,0-1.7,0.2-2.4,0.5l-17,8.7l2.1,1.4c2.2,1.5,3.6,4,3.6,6.7v2.6l16.5-9.3
				c3.1-1.8,3.4-5.2,2.2-7.6C44.7,290.2,42.9,289.1,40.7,289.1"/>
			<polygon class="st12" points="35.6,327.4 42.4,323.5 43.5,324.9 36.7,328.8 			"/>
			<polygon class="st12" points="28.8,318.7 41.4,311.3 42.5,312.6 29.8,320 			"/>
			<polygon class="st12" points="32.2,323 44.8,315.6 45.9,316.9 33.2,324.4 			"/>
		</g>
	</g>
</g>
</svg>
