<svg width="84" height="1307" xmlns="http://www.w3.org/2000/svg" xmlns:xlink="http://www.w3.org/1999/xlink">
 <style type="text/css">.st0{clip-path:url(#SVGID_2_);}
	.st1{clip-path:url(#SVGID_4_);fill:none;stroke:#000000;stroke-width:1.5;stroke-miterlimit:10;}
	.st2{clip-path:url(#SVGID_4_);fill:none;stroke:#000000;stroke-width:1.5;stroke-linejoin:round;stroke-miterlimit:10;}
	
		.st3{clip-path:url(#SVGID_4_);fill:none;stroke:#000000;stroke-width:1.5;stroke-linecap:round;stroke-linejoin:round;stroke-miterlimit:10;}
	.st4{clip-path:url(#SVGID_4_);}
	.st5{clip-path:url(#SVGID_6_);}
	.st6{clip-path:url(#SVGID_8_);}
	.st7{clip-path:url(#SVGID_8_);fill:none;stroke:#000000;stroke-width:1.5;stroke-linecap:round;stroke-miterlimit:10;}
	.st8{clip-path:url(#SVGID_10_);}
	.st9{clip-path:url(#SVGID_12_);}
	.st10{clip-path:url(#SVGID_14_);}
	.st11{clip-path:url(#SVGID_16_);fill:none;stroke:#000000;stroke-width:1.5;stroke-miterlimit:10;}
	.st12{clip-path:url(#SVGID_16_);}
	.st13{fill:none;stroke:#000000;stroke-miterlimit:10;}
	.st14{fill:none;stroke:#000000;stroke-width:1.25;stroke-miterlimit:10;}
	.st15{fill:#1D1D1B;}
	.st16{fill:none;stroke:#1D1D1B;stroke-width:1.25;stroke-miterlimit:10;}</style>
 <g>
  <title>background</title>
  <rect fill="none" id="canvas_background" height="402" width="582" y="-1" x="-1"/>
 </g>
 <g>
  <title>Layer 1</title>
  <g id="thick-steel-icon">
   <g id="svg_1">
    <defs>
     <rect height="70.6" width="58.8" y="10.1" x="13.6" id="SVGID_1_"/>
    </defs>
    <clipPath id="SVGID_2_">
     <use id="svg_2" xlink:href="#SVGID_1_"/>
    </clipPath>
    <g id="svg_3" class="st0">
     <defs>
      <rect height="70.6" width="58.8" y="10.1" x="13.6" id="SVGID_3_"/>
     </defs>
     <clipPath id="SVGID_4_">
      <use id="svg_4" xlink:href="#SVGID_3_"/>
     </clipPath>
     <ellipse id="svg_5" ry="6.2" rx="22.4" cy="17" cx="36.8" class="st1"/>
     <path id="svg_6" d="m14.4,17l0,14.2c0,3.4 10,6.2 22.4,6.2l25,0c6.2,0 6,4.2 6,4.2c0,1.8 3.8,1.8 3.8,0l0,-14.5c0,-3.8 -7.7,-3.8 -7.7,-3.8l-26.3,0" class="st1"/>
     <ellipse id="svg_7" ry="1.6" rx="6.7" cy="16.5" cx="36.8" class="st2"/>
     <path id="svg_8" d="m59.2,17c0,0 0.2,6.2 0,6.2" class="st2"/>
     <line id="svg_9" y2="36.9" x2="26.8" y1="28.2" x1="26.8" class="st3"/>
     <line id="svg_10" y2="37.5" x2="55.1" y1="28.8" x1="55.1" class="st3"/>
     <line id="svg_11" y2="37.5" x2="41.2" y1="28.8" x1="41.2" class="st3"/>
     <line id="svg_12" y2="34.8" x2="18.4" y1="30.3" x1="18.4" class="st3"/>
     <line id="svg_13" y2="36.1" x2="22.6" y1="31.5" x1="22.6" class="st3"/>
     <line id="svg_14" y2="37.3" x2="31.7" y1="32.8" x1="31.7" class="st3"/>
     <line id="svg_15" y2="37.5" x2="45.5" y1="32.9" x1="45.5" class="st3"/>
     <line id="svg_16" y2="37.5" x2="36.5" y1="32.9" x1="36.5" class="st3"/>
     <line id="svg_17" y2="37.5" x2="50.3" y1="32.9" x1="50.3" class="st3"/>
     <line id="svg_18" y2="37.5" x2="59.6" y1="32.9" x1="59.6" class="st3"/>
     <line id="svg_19" y2="37.8" x2="64.6" y1="33.3" x1="64.6" class="st3"/>
     <path id="svg_20" d="m31,65.7l-3.2,0l0,-8.9l0,-1.5l0.1,-1.6c-0.5,0.5 -0.9,0.9 -1.1,1.1l-1.8,1.4l-1.6,-2l5,-3.9l2.6,0l0,15.4z" class="st4"/>
     <path id="svg_21" d="m34,64.2c0,-0.6 0.2,-1 0.5,-1.3c0.3,-0.3 0.8,-0.5 1.4,-0.5c0.6,0 1,0.2 1.4,0.5c0.3,0.3 0.5,0.8 0.5,1.3c0,0.6 -0.2,1 -0.5,1.3c-0.3,0.3 -0.8,0.5 -1.3,0.5c-0.6,0 -1,-0.2 -1.4,-0.5c-0.5,-0.3 -0.6,-0.7 -0.6,-1.3" class="st4"/>
     <path id="svg_22" d="m45.3,55.9c1.5,0 2.7,0.4 3.5,1.3c0.9,0.8 1.3,2 1.3,3.4c0,1.7 -0.5,3 -1.6,4c-1.1,0.9 -2.6,1.4 -4.5,1.4c-1.7,0 -3.1,-0.3 -4.1,-0.8l0,-2.8c0.6,0.3 1.2,0.5 1.9,0.7c0.7,0.2 1.4,0.3 2.1,0.3c2,0 3,-0.8 3,-2.4c0,-1.5 -1,-2.3 -3.1,-2.3c-0.4,0 -0.8,0 -1.2,0.1c-0.4,0.1 -0.8,0.2 -1.1,0.2l-1.3,-0.7l0.6,-7.8l8.3,0l0,2.8l-5.5,0l-0.3,3l0.4,-0.1c0.5,-0.3 1,-0.3 1.6,-0.3" class="st4"/>
     <path id="svg_23" d="m36.4,80.7l0,-4.5c0,-0.5 -0.1,-1 -0.4,-1.2c-0.2,-0.3 -0.6,-0.4 -1.1,-0.4c-0.6,0 -1.1,0.2 -1.4,0.6c-0.3,0.4 -0.5,0.9 -0.5,1.7l0,3.8l-1,0l0,-4.5c0,-0.5 -0.1,-1 -0.4,-1.2c-0.2,-0.3 -0.6,-0.4 -1.1,-0.4c-0.7,0 -1.1,0.2 -1.4,0.6c-0.3,0.4 -0.5,1 -0.5,1.9l0,3.6l-1,0l0,-6.9l0.8,0l0.2,0.9l0.1,0c0.2,-0.3 0.5,-0.6 0.8,-0.8c0.4,-0.2 0.8,-0.3 1.2,-0.3c1.1,0 1.8,0.4 2.1,1.2l0.1,0c0.2,-0.4 0.5,-0.6 0.9,-0.9c0.4,-0.2 0.8,-0.3 1.3,-0.3c0.8,0 1.4,0.2 1.7,0.6c0.4,0.4 0.6,1 0.6,1.9l0,4.5l-1,0l0,0.1z" class="st4"/>
     <path id="svg_24" d="m48.4,80.7l0,-4.5c0,-0.5 -0.1,-1 -0.4,-1.2c-0.2,-0.3 -0.6,-0.4 -1.1,-0.4c-0.6,0 -1.1,0.2 -1.4,0.6c-0.3,0.4 -0.5,0.9 -0.5,1.7l0,3.8l-1,0l0,-4.5c0,-0.5 -0.1,-1 -0.4,-1.2c-0.2,-0.3 -0.6,-0.4 -1.1,-0.4c-0.7,0 -1.1,0.2 -1.4,0.6c-0.3,0.4 -0.5,1 -0.5,1.9l0,3.6l-1,0l0,-6.9l0.8,0l0.2,0.9l0.1,0c0.2,-0.3 0.5,-0.6 0.8,-0.8c0.4,-0.2 0.8,-0.3 1.2,-0.3c1.1,0 1.8,0.4 2.1,1.2l0.1,0c0.2,-0.4 0.5,-0.6 0.9,-0.9c0.4,-0.2 0.8,-0.3 1.3,-0.3c0.8,0 1.4,0.2 1.7,0.6c0.4,0.4 0.6,1 0.6,1.9l0,4.5l-1,0l0,0.1z" class="st4"/>
    </g>
   </g>
  </g>
  <g id="warmth-icon">
   <g id="svg_25">
    <defs>
     <rect height="69.9" width="47.6" y="101.6" x="19.7" id="SVGID_5_"/>
    </defs>
    <clipPath id="SVGID_6_">
     <use id="svg_26" xlink:href="#SVGID_5_"/>
    </clipPath>
    <g id="svg_27" class="st5">
     <defs>
      <rect height="69.9" width="47.6" y="101.6" x="19.7" id="SVGID_7_"/>
     </defs>
     <clipPath id="SVGID_8_">
      <use id="svg_28" xlink:href="#SVGID_7_"/>
     </clipPath>
     <path id="svg_29" d="m37.2,103.1c3.6,0 6.6,2.9 6.6,6.6l0,23.8c0,3.2 1.4,6.2 3.8,8.3c3.6,3.1 5.7,7.5 5.7,12.2c0,8.8 -7.2,16 -16,16s-16,-7.2 -16,-16c0,-4.7 2.1,-9.2 5.7,-12.2c2.4,-2.1 3.8,-5.1 3.8,-8.3l0,-23.8c-0.1,-3.7 2.8,-6.6 6.4,-6.6m0,-1.5c-4.4,0 -8.1,3.6 -8.1,8.1l0,23.8c0,2.7 -1.2,5.3 -3.3,7.1c-3.9,3.3 -6.2,8.2 -6.2,13.4c0,9.7 7.9,17.5 17.5,17.5s17.5,-7.9 17.5,-17.5c0,-5.1 -2.3,-10 -6.2,-13.4c-2.1,-1.8 -3.3,-4.4 -3.3,-7.1l0,-23.8c0.2,-4.5 -3.4,-8.1 -7.9,-8.1" class="st6"/>
     <path id="svg_30" d="m38.8,122.1l0,12.8c0,4.7 1.9,7.4 5.1,10.2c2.5,2.2 4.4,5.2 4.4,8.8c0,6.1 -5,11.1 -11.1,11.1c-0.4,0 -0.8,0 -1.2,-0.1c-4.7,-0.5 -8.6,-4.2 -9.6,-8.8c-0.9,-4.6 1.2,-8.4 4.2,-11c3.2,-2.8 5.1,-5.5 5.1,-10.2l0,-12.8l3.1,0m1.5,-1.5l-1.5,0l-3.2,0l-1.5,0l0,1.5l0,12.8c0,4.2 -1.7,6.5 -4.6,9.1c-3.9,3.5 -5.6,7.9 -4.7,12.4c1.1,5.3 5.6,9.4 10.9,10c0.5,0.1 0.9,0.1 1.4,0.1c6.9,0 12.6,-5.6 12.6,-12.6c0,-3.7 -1.7,-7.1 -4.9,-9.9c-2.9,-2.5 -4.6,-4.8 -4.6,-9.1l0,-12.8l0,-1.5l0.1,0z" class="st6"/>
     <line id="svg_31" y2="138.2" x2="66.5" y1="138.2" x1="53.7" class="st7"/>
     <line id="svg_32" y2="132.9" x2="62.5" y1="132.9" x1="53.7" class="st7"/>
     <line id="svg_33" y2="127.6" x2="62.5" y1="127.6" x1="53.7" class="st7"/>
     <line id="svg_34" y2="122.3" x2="66.5" y1="122.3" x1="53.7" class="st7"/>
     <line id="svg_35" y2="117" x2="62.5" y1="117" x1="53.7" class="st7"/>
     <line id="svg_36" y2="111.7" x2="62.5" y1="111.7" x1="53.7" class="st7"/>
     <line id="svg_37" y2="106.4" x2="66.5" y1="106.4" x1="53.7" class="st7"/>
    </g>
   </g>
  </g>
  <g id="guarantee-icon">
   <g id="svg_38">
    <defs>
     <rect height="69.9" width="40.8" y="193" x="21" id="SVGID_9_"/>
    </defs>
    <clipPath id="SVGID_10_">
     <use id="svg_39" xlink:href="#SVGID_9_"/>
    </clipPath>
    <g id="svg_40" class="st8">
     <defs>
      <rect height="69.9" width="40.8" y="193" x="21" id="SVGID_11_"/>
     </defs>
     <clipPath id="SVGID_12_">
      <use id="svg_41" xlink:href="#SVGID_11_"/>
     </clipPath>
     <path id="svg_42" d="m51.5,238.2l0,21.7l-9.1,-6.9l-0.9,-0.7l-0.9,0.7l-9.4,7l0,-21.7l2.3,0c2.3,1.6 4.2,2.9 7.9,2.9c2.8,0 5.7,-1.1 7.9,-2.9l2.2,0m1.5,-1.6l-4.4,0c-1.8,1.7 -4.4,2.9 -7.3,2.9c-3.4,0 -5,-1.2 -7.4,-2.9l-4.3,0l0,26.2l11.8,-8.7l11.5,8.7l0,-26.2l0.1,0z" class="st9"/>
     <path id="svg_43" d="m41.4,194.5c0.6,0 1.2,0.2 1.7,0.5c0.3,0.2 0.6,0.4 0.9,0.6c2.3,1.7 2.9,2 5.4,2c0.3,0 0.6,0 0.9,0c0.3,0 0.7,0 1.1,0c1.2,0 2.3,0.7 2.7,1.9c0.1,0.4 0.2,0.7 0.3,1c1,3.1 1.2,3.3 3.9,5.2c0.3,0.2 0.5,0.4 0.9,0.6c0.7,0.5 1.1,1.3 1.1,2.1c0,0.3 0,0.6 -0.1,0.8c-0.1,0.4 -0.2,0.7 -0.3,1c-1.1,3 -1.1,3.4 0,6.5c0.1,0.3 0.2,0.6 0.3,1c0.1,0.3 0.1,0.5 0.1,0.8c0,0.8 -0.4,1.6 -1.1,2.1c-0.3,0.2 -0.6,0.4 -0.9,0.6c-2.7,1.9 -2.9,2.1 -3.9,5.2c-0.1,0.3 -0.2,0.6 -0.3,1c-0.4,1.1 -1.5,1.9 -2.7,1.9c-0.4,0 -0.7,0 -1.1,0c-0.3,0 -0.6,0 -0.9,0c-2.5,0 -3.1,0.3 -5.4,2c-0.3,0.2 -0.5,0.4 -0.9,0.6c-0.5,0.3 -1.1,0.5 -1.7,0.5c-0.6,0 -1.2,-0.2 -1.7,-0.5c-0.3,-0.2 -0.6,-0.4 -0.9,-0.6c-2.3,-1.7 -2.9,-2 -5.4,-2c-0.3,0 -0.6,0 -0.9,0c-0.3,0 -0.7,0 -1.1,0c-1.2,0 -2.3,-0.7 -2.7,-1.9c-0.1,-0.3 -0.2,-0.7 -0.3,-0.9c-1,-3.1 -1.2,-3.4 -3.9,-5.2c-0.3,-0.2 -0.6,-0.4 -0.9,-0.6c-0.7,-0.5 -1.1,-1.3 -1.1,-2.1c0,-0.3 0,-0.5 0.1,-0.8c0.1,-0.4 0.2,-0.7 0.3,-1c1.1,-3 1.1,-3.4 0,-6.5c-0.1,-0.3 -0.2,-0.6 -0.3,-1c-0.1,-0.3 -0.1,-0.5 -0.1,-0.8c0,-0.8 0.4,-1.6 1.1,-2.1c0.3,-0.2 0.6,-0.4 0.9,-0.6c2.7,-1.8 2.9,-2.1 3.9,-5.2c0.1,-0.3 0.2,-0.6 0.3,-0.9c0.4,-1.1 1.5,-1.9 2.7,-1.9c0.4,0 0.8,0 1.1,0c0.3,0 0.6,0 0.9,0c2.5,0 3,-0.3 5.3,-2c0.3,-0.2 0.5,-0.4 0.9,-0.6c0.6,-0.5 1.2,-0.7 1.8,-0.7m0,-1.5c-0.9,0 -1.8,0.3 -2.5,0.8c-3,2.1 -3,2.3 -5.3,2.3c-0.5,0 -1.2,0 -2,0l0,0c-1.9,0 -3.5,1.2 -4.1,2.9c-1.4,4.1 -0.9,3.5 -4.5,6c-1.1,0.8 -1.8,2.1 -1.8,3.4c0,0.4 0.1,0.9 0.2,1.3c1.4,4.1 1.4,3.3 0,7.4c-0.1,0.4 -0.2,0.9 -0.2,1.3c0,1.3 0.6,2.6 1.8,3.4c3.6,2.5 3.2,1.9 4.5,6c0.6,1.7 2.2,2.9 4.1,2.9l0,0c0.8,0 1.4,0 2,0c2.4,0 2.4,0.2 5.4,2.3c0.8,0.5 1.7,0.8 2.5,0.8c0.9,0 1.8,-0.3 2.6,-0.8c3,-2.1 3,-2.3 5.4,-2.3c0.5,0 1.2,0 2,0l0,0c1.9,0 3.5,-1.2 4.1,-2.9c1.4,-4.1 0.9,-3.5 4.5,-6c1.1,-0.8 1.8,-2.1 1.8,-3.4c0,-0.4 -0.1,-0.9 -0.2,-1.3c-1.4,-4.1 -1.4,-3.3 0,-7.4c0.1,-0.4 0.2,-0.9 0.2,-1.3c0,-1.3 -0.6,-2.6 -1.8,-3.4c-3.7,-2.5 -3.2,-1.9 -4.5,-6c-0.6,-1.7 -2.2,-2.9 -4.1,-2.9l0,0c-0.8,0 -1.4,0 -2,0c-2.4,0 -2.4,-0.2 -5.4,-2.3c-0.9,-0.5 -1.8,-0.8 -2.7,-0.8" class="st9"/>
     <polygon id="svg_44" points="34,213.9 35,212.9 39.1,216.8 47.8,207.9 48.8,208.9 39,218.8    " class="st9"/>
     <path id="svg_45" d="m41.4,201.4c6.6,0 12,5.4 12,12c0,6.6 -5.4,12 -12,12c-6.6,0 -12,-5.4 -12,-12c0,-6.6 5.4,-12 12,-12m0,-1.5c-7.5,0 -13.5,6 -13.5,13.5c0,7.5 6,13.5 13.5,13.5s13.5,-6 13.5,-13.5c0,-7.5 -6.1,-13.5 -13.5,-13.5" class="st9"/>
    </g>
   </g>
  </g>
  <g id="certified-icon">
   <g id="svg_46">
    <defs>
     <rect height="64.7" width="63.2" y="287.1" x="10.9" id="SVGID_13_"/>
    </defs>
    <clipPath id="SVGID_14_">
     <use id="svg_47" xlink:href="#SVGID_13_"/>
    </clipPath>
    <g id="svg_48" class="st10">
     <defs>
      <rect height="64.7" width="63.2" y="287.1" x="10.9" id="SVGID_15_"/>
     </defs>
     <clipPath id="SVGID_16_">
      <use id="svg_49" xlink:href="#SVGID_15_"/>
     </clipPath>
     <path id="svg_50" d="m59.4,337.9c-0.7,4.6 -2.6,8.7 -5.6,12.2c-0.2,-1.2 -0.7,-2.4 -1.2,-3.4c-1.1,0.6 -2.4,0.9 -3.6,0.9c-0.2,0 -0.5,0 -0.7,0c3.2,-3.4 4.8,-6.8 5.3,-11.5c0.8,0.2 1.7,0.3 2.8,0.3c1.2,0.8 1.6,1.3 3,1.5z" class="st11"/>
     <path id="svg_51" d="m72.5,347.6c-3.2,-3.4 -4.8,-6.8 -5.3,-11.5c-0.8,0.2 -1.7,0.3 -2.8,0.3c-1.1,0.8 -1.6,1.2 -3,1.5c0.7,4.6 2.6,8.7 5.6,12.2c0.2,-1.2 0.7,-2.4 1.2,-3.4c1.4,0.7 3.1,1 4.3,0.9z" class="st11"/>
     <path id="svg_52" d="m59.1,334.6c-1.9,-1.3 -1.5,-1.2 -3.8,-1.2l0,0c-1,0 -1.8,-0.6 -2.1,-1.5c-0.7,-2.1 -0.5,-1.8 -2.4,-3.1c-0.8,-0.6 -1.1,-1.6 -0.8,-2.4c0.7,-2.1 0.7,-1.7 0,-3.9c-0.3,-0.9 0,-1.9 0.8,-2.4c1.9,-1.3 1.6,-1 2.4,-3.1c0.3,-0.9 1.2,-1.5 2.1,-1.5l0,0c2.3,0 1.9,0.1 3.8,-1.2c0.4,-0.3 0.9,-0.4 1.3,-0.4s0.9,0.1 1.3,0.4c1.9,1.3 1.5,1.2 3.8,1.2l0,0c1,0 1.8,0.6 2.1,1.5c0.7,2.1 0.5,1.8 2.4,3.1c0.6,0.4 0.9,1.1 0.9,1.7c0,0.2 0,0.5 -0.1,0.7c-0.7,2.1 -0.7,1.7 0,3.9c0.3,0.9 0,1.9 -0.8,2.4c-1.9,1.3 -1.6,1 -2.4,3.1c-0.6,1.6 -1.8,1.5 -3.2,1.5c-1.2,0 -1.2,0.1 -2.8,1.2c-0.6,0.6 -1.7,0.6 -2.5,0z" class="st11"/>
     <circle id="svg_53" r="5.3" cy="324.4" cx="60.4" class="st11"/>
     <path id="svg_54" d="m27.8,348.6c-2.3,0 -4.5,-1 -6.1,-2.7c-1.5,-1.7 -2.2,-3.9 -2,-6.2c0.2,-1.9 1,-3.5 2.3,-4.8l1.2,1.6c-1.4,1.5 -2,3.5 -1.5,5.6c0.6,2.3 2.6,4.6 5.9,4.6c2.3,0 4.4,-1.3 5.5,-3.4c1,-2.1 0.8,-4.5 -0.6,-6.4c-0.1,-0.1 -15.8,-20.2 -19.7,-25.1c-1.3,-1.7 -2,-3.6 -2,-5.5c0,-3.1 1.7,-5.7 4.6,-7.1l22.2,-11.4c0.9,-0.4 1.9,-0.6 3,-0.6c2.7,0 5.2,1.4 6.6,3.8c1.9,3.3 1.1,7.6 -2,9.9l-20.4,11.5l-1.4,-1.8c1.5,-1.6 2,-3.7 1.4,-5.9c-0.8,-2.6 -3.1,-4.3 -5.8,-4.3c-2.3,0 -4.4,1.3 -5.5,3.4c-1.1,2.2 -0.7,4.7 1,6.9c3.3,4.2 15.5,19.8 18.7,23.8l0.7,1c1.2,1.4 1.8,3 1.9,4.8l0.1,2.5c0,0 6.9,-4.4 10.9,-6.9c0,1.1 -0.3,2.1 -0.6,2.7l-14.4,9.1c-1.2,0.5 -2.6,0.9 -4,0.9m12.9,-59.5c-0.8,0 -1.7,0.2 -2.4,0.5l-17,8.7l2.1,1.4c2.2,1.5 3.6,4 3.6,6.7l0,2.6l16.5,-9.3c3.1,-1.8 3.4,-5.2 2.2,-7.6c-1,-1.9 -2.8,-3 -5,-3" class="st12"/>
     <polygon id="svg_55" points="35.6,327.4 42.4,323.5 43.5,324.9 36.7,328.8    " class="st12"/>
     <polygon id="svg_56" points="28.8,318.7 41.4,311.3 42.5,312.6 29.8,320    " class="st12"/>
     <polygon id="svg_57" points="32.2,323 44.8,315.6 45.9,316.9 33.2,324.4    " class="st12"/>
    </g>
   </g>
  </g>
  <g id="Layer_2">
   <g id="Layer_1-2">
    <path id="svg_58" d="m41.8,433.4l0,0c-0.9,0 -1.7,-0.4 -2.2,-1l-23.8,-26.8c-1.1,-1.3 -1.7,-3 -1.7,-4.7l0.4,-19.4c0,-1.7 1.4,-3.1 3.2,-3.2l19.3,-0.3c1.7,0 3.4,0.6 4.7,1.7l26.8,23.8c1.2,1.1 1.3,3 0.2,4.2c0,0 -0.1,0.1 -0.1,0.1l-24.7,24.7c-0.6,0.6 -1.3,0.9 -2.1,0.9zm-4.8,-53.9l0,0l-19.4,0.4c-0.9,0 -1.7,0.8 -1.7,1.7l-0.4,19.4c0.1,1.3 0.5,2.6 1.3,3.7l23.8,26.8c0.3,0.3 0.7,0.5 1.1,0.5c0.4,0 0.8,-0.1 1.1,-0.5l24.7,-24.7c0.3,-0.3 0.5,-0.7 0.4,-1.1c0,-0.4 -0.2,-0.8 -0.5,-1.1l-26.8,-23.8c-1,-0.8 -2.3,-1.2 -3.6,-1.3z"/>
    <path id="svg_59" d="m25.3,393.4l0,0c-1.1,0 -2.1,-0.4 -2.9,-1.2c-1.6,-1.6 -1.6,-4.2 0,-5.8c0.8,-0.8 1.8,-1.2 2.9,-1.2c1.1,0 2.1,0.4 2.9,1.2c1.6,1.6 1.6,4.2 0,5.8c0,0 0,0 0,0l0,0c-0.7,0.8 -1.8,1.2 -2.9,1.2zm0,-7.1l0,0c-0.8,0 -1.6,0.3 -2.2,0.9c-1.2,1.2 -1.2,3.1 0,4.4c0.6,0.6 1.4,0.9 2.2,0.9l0,0c0.8,0 1.6,-0.3 2.2,-0.9l0,0c1.2,-1.2 1.2,-3.2 0,-4.4c-0.6,-0.6 -1.3,-0.9 -2.2,-0.9z"/>
    <path id="svg_60" d="m45.2,417.6l-5.2,0l0,-9.4l-8.9,0l0,-5l8.9,0l0,-9.4l5.2,0l0,9.3l8.9,0l0,5l-8.9,0l0,9.5zm-4.2,-1l3.2,0l0,-9.4l8.9,0l0,-3l-8.9,0l0,-9.4l-3.2,0l0,9.3l-8.9,0l0,3l8.9,0l0,9.5z"/>
    <path id="svg_61" d="m53.7,407.7" class="st13"/>
   </g>
  </g>
  <g id="Layer_2_1_">
   <g id="Layer_1-2_1_">
    <path id="svg_62" d="m20.8,507c-2.8,0 -5.5,-1.1 -7.5,-3.1c-0.3,-0.3 -0.3,-0.8 0,-1.1c0.1,-0.1 0.2,-0.2 0.4,-0.2c0.6,-0.1 1.1,-0.3 1.6,-0.6c1.4,-0.9 2.4,-2.3 2.6,-4l0,-0.2c0.4,-3.2 3.2,-5.7 6.4,-5.7c0.9,0 1.8,0.2 2.6,0.6l0.6,0.3l0.2,-0.6c0.8,-2.3 1.9,-4.5 3.4,-6.4c3.9,-5.5 8.2,-10.6 13,-15.2c4.7,-4.8 9.8,-9.1 15.2,-13c3.6,-2.4 6.2,-3.6 7.9,-3.6c0.6,0 1.2,0.2 1.6,0.6c1.4,1.4 0.4,4.5 -3,9.5c-3.9,5.5 -8.2,10.6 -13,15.2c-4.7,4.8 -9.8,9.1 -15.2,13c-2,1.5 -4.3,2.7 -6.7,3.5l-0.6,0.1l0.2,0.6c0.7,2 0.4,4.3 -0.9,6c-0.9,1.2 -2,2.3 -3.3,3.1c-1.7,0.7 -3.6,1.2 -5.5,1.2zm3.5,-13.4c-2.6,0 -4.7,1.9 -5,4.5l0,0.2c-0.3,2.1 -1.4,3.9 -3.2,5l-0.8,0.5l0.8,0.5c2.9,1.7 6.5,1.7 9.4,0c1.1,-0.6 2,-1.5 2.8,-2.5c1.7,-2.2 1.2,-5.3 -1,-7c-1,-0.8 -2,-1.1 -3,-1.2l0,0zm9,-8.4l-0.6,0.9c-3,4.4 -3.9,6.9 -3.8,7.9l0.1,0.4l0.4,0.1l0.3,0c0.6,0 2.7,-0.4 7.6,-3.8l0.9,-0.6l0.5,-0.4l-4.9,-4.9l-0.5,0.4zm4,-5.1c-0.9,1 -1.7,2 -2.4,3l-0.3,0.4l5.2,5.2l0.4,-0.3c1,-0.8 2,-1.6 3,-2.4l0.5,-0.4l-6,-6l-0.4,0.5zm29.8,-24.6c-0.7,0 -2.7,0.4 -7.6,3.8c-5.1,3.7 -10,7.9 -14.4,12.4c-2.1,2.1 -4.2,4.3 -6,6.4l-0.3,0.4l6.1,6.1l0.4,-0.3c2.1,-1.9 4.3,-3.9 6.4,-6c4.5,-4.5 8.6,-9.3 12.3,-14.4c3.1,-4.4 4,-6.9 3.8,-7.8l-0.1,-0.4l-0.4,-0.1l-0.2,-0.1z"/>
    <path id="svg_63" d="m20.8,506.8c-2.8,0 -5.4,-1.1 -7.4,-3c-0.2,-0.2 -0.2,-0.6 0,-0.8c0.1,-0.1 0.2,-0.1 0.3,-0.2c0.6,-0.1 1.2,-0.3 1.7,-0.7c1.5,-0.9 2.5,-2.4 2.7,-4.1l0,-0.2c0.4,-3.2 3.1,-5.5 6.2,-5.5c0.9,0 1.8,0.2 2.6,0.5l0.8,0.4l0.2,-0.8c0.8,-2.3 1.9,-4.4 3.4,-6.4c3.9,-5.5 8.2,-10.5 13,-15.2c4.7,-4.8 9.8,-9.1 15.2,-13c3.5,-2.4 6.1,-3.6 7.7,-3.6c0.5,0 1.1,0.2 1.5,0.5c1.3,1.3 0.3,4.3 -3,9.2c-3.9,5.5 -8.2,10.5 -13,15.2c-4.7,4.8 -9.8,9.1 -15.2,13c-2,1.5 -4.2,2.7 -6.6,3.4l-0.8,0.2l0.3,0.8c0.7,1.9 0.4,4.1 -0.8,5.8c-0.9,1.2 -2,2.2 -3.2,3c-1.9,1 -3.7,1.5 -5.6,1.5zm3.5,-13.4c-2.6,0 -4.9,2 -5.1,4.6l0,0.2c-0.2,2 -1.4,3.8 -3.1,4.9l-1.1,0.6l1.1,0.6c3,1.8 6.6,1.8 9.6,0c1.1,-0.7 2.1,-1.5 2.8,-2.6c1.7,-2.3 1.3,-5.5 -1,-7.3c-0.9,-0.6 -2.1,-1 -3.2,-1l0,0zm8.2,-7.4c-2.6,3.8 -4,6.8 -3.8,8l0.1,0.5l0.5,0.1c0.1,0 0.2,0 0.3,0c0.7,0 2.8,-0.4 7.7,-3.8l0.9,-0.6l0.7,-0.5l-5.3,-5.3l-1.1,1.6zm4.7,-6c-0.9,1 -1.7,2 -2.4,3l-0.4,0.5l5.5,5.5l0.5,-0.4c1,-0.8 2,-1.6 3,-2.4l0.6,-0.5l-6.3,-6.3l-0.5,0.6zm29.9,-24.7c-0.7,0 -2.8,0.4 -7.7,3.8c-5.1,3.7 -9.9,7.9 -14.4,12.4c-2.1,2.1 -4.2,4.3 -6,6.4l-0.5,0.5l6.4,6.4l0.5,-0.5c2.1,-1.9 4.3,-3.9 6.4,-6c4.5,-4.5 8.6,-9.3 12.3,-14.5c2.6,-3.8 4,-6.8 3.8,-8l-0.1,-0.5l-0.5,-0.1c0,0.1 -0.1,0.1 -0.2,0.1z"/>
   </g>
  </g>
  <g id="Layer_2_2_">
   <g id="Layer_1-2_2_">
    <path id="svg_64" d="m40.3,578.8c-0.1,0 -0.2,0 -0.3,0l-18.6,-6.7l-6.7,2.8l3.6,1.5c0.4,0.1 0.6,0.6 0.4,1c-0.1,0.3 -0.4,0.5 -0.7,0.5c-0.1,0 -0.2,0 -0.3,0l-5.3,-2.1c-0.4,-0.1 -0.6,-0.6 -0.4,-1c0,0 0,0 0,0l2.1,-5.2c0.1,-0.3 0.4,-0.5 0.7,-0.5c0.1,0 0.2,0 0.3,0.1c0.4,0.1 0.6,0.6 0.4,1c0,0 0,0 0,0l-1.5,3.6l6.5,-2.8l-0.1,-21.2c0,-0.3 0.2,-0.6 0.5,-0.7l18.3,-6.8l0,-6.6l-2.8,2.8c-0.3,0.2 -0.8,0.2 -1,-0.2c-0.2,-0.2 -0.2,-0.6 0,-0.8l4,-4c0.3,-0.3 0.7,-0.3 1,0l4,4c0.3,0.3 0.3,0.7 0,1c-0.1,0.1 -0.3,0.2 -0.5,0.2c-0.2,0 -0.4,-0.1 -0.5,-0.2l-2.7,-2.8l0,6.6l18.4,6.6c0.3,0.1 0.5,0.4 0.5,0.7l0.1,21.2l6.6,2.7l-1.5,-3.6c-0.2,-0.4 0,-0.8 0.4,-1s0.8,0 1,0.4l0,0l2.2,5.2c0.1,0.2 0.1,0.4 0,0.6c-0.1,0.2 -0.2,0.3 -0.4,0.4l-5.2,2.2c-0.1,0 -0.2,0.1 -0.3,0.1c-0.3,0 -0.6,-0.2 -0.7,-0.5c-0.2,-0.4 0,-0.8 0.4,-1c0,0 0,0 0,0l3.6,-1.5l-6.7,-2.7l-18.6,6.9c-0.1,-0.2 -0.1,-0.2 -0.2,-0.2zm-16.9,-7.5l16.2,5.7l-0.1,-12.4l-16.1,6.7zm17.6,5.7l16.1,-6l-16.2,-6.4l0.1,12.4zm-18.9,-6.9l17.3,-7.1l0,-5.3l-17.4,-6.9l0.1,19.3zm18.8,-12.4l0,5.3l17.4,6.9l-0.1,-19.3l-17.3,7.1zm-17.7,-8l16.2,6.4l-0.1,-12.4l-16.1,6zm17.7,6.4l16.1,-6.6l-16.2,-5.8l0.1,12.4z"/>
   </g>
  </g>
  <g id="Layer_2_3_">
   <g id="Layer_1-2_3_">
    <path id="svg_65" d="m58.2,665.9c-0.2,0 -0.3,-0.1 -0.4,-0.2l-13.3,-13.3l-0.6,0.9c-0.1,0.2 -0.3,0.3 -0.5,0.3c-0.2,0 -0.3,-0.1 -0.4,-0.2l-2.7,-2.3l-2.7,2.3c-0.3,0.2 -0.7,0.2 -0.9,-0.1c0,0 0,0 0,0c-0.1,-0.1 -0.2,-0.2 -0.2,-0.4l-0.3,-0.4l-13.2,13.2c-0.1,0.1 -0.3,0.2 -0.4,0.2c-0.3,0 -0.6,-0.2 -0.6,-0.6l-0.6,-6.5l-6.5,-0.6c-0.4,0 -0.6,-0.4 -0.6,-0.7c0,-0.1 0.1,-0.3 0.2,-0.4l5.3,-5.3c0.3,-0.2 0.7,-0.2 0.9,0.1c0.2,0.2 0.2,0.6 0,0.8l-4.4,4.4l5.7,0.5c0.3,0 0.5,0.3 0.6,0.6l0.5,5.7l12.4,-12.5l-0.7,-1.1l-3.2,1.5c-0.3,0.1 -0.7,0 -0.8,-0.3c0,0 0,0 0,-0.1l-1,-3.4l-3.5,0.5l0,0c-0.2,0 -0.3,0 -0.5,-0.2l-0.1,-0.1l-0.2,-0.2l-1.8,1.8c-0.2,0.3 -0.6,0.3 -0.9,0.1s-0.3,-0.6 -0.1,-0.9c0,0 0.1,-0.1 0.1,-0.1l2.6,-2.6l0.1,-0.1l0.1,-0.1l0,-1.8l-3.5,-0.5c-0.3,-0.1 -0.6,-0.4 -0.5,-0.7c0,0 0,-0.1 0,-0.1l1,-3.4l-3.2,-1.5c-0.3,-0.1 -0.5,-0.5 -0.3,-0.8c0,0 0,-0.1 0,-0.1l1.9,-3l-2.6,-2.3c-0.3,-0.2 -0.3,-0.6 -0.1,-0.9c0,0 0.1,-0.1 0.1,-0.1l2.7,-2.3l-1.9,-3c-0.2,-0.3 -0.1,-0.7 0.2,-0.9c0,0 0,0 0.1,0l3.2,-1.5l-1,-3.4c-0.1,-0.3 0.2,-0.7 0.5,-0.7l3.5,-0.5l0,-3.6c0,-0.3 0.3,-0.6 0.6,-0.6l3.6,0.5l1,-3.4c0.1,-0.2 0.2,-0.3 0.4,-0.4c0.2,-0.1 0.4,-0.1 0.5,0l3.3,1.5l1.9,-3c0.1,-0.2 0.3,-0.3 0.4,-0.3l0,0c0.2,0 0.3,0 0.5,0.2l2.7,2.3l2.7,-2.3c0.1,-0.1 0.3,-0.1 0.4,-0.2c0.2,0 0.4,0.1 0.5,0.3l1.9,3l3.2,-1.5c0.3,-0.1 0.7,0 0.8,0.3c0,0 0,0.1 0,0.1l1,3.4l3.5,-0.5l0,0c0.2,0 0.3,0 0.5,0.1c0.1,0.1 0.2,0.3 0.2,0.5l0,3.5l3.5,0.5c0.3,0.1 0.6,0.4 0.5,0.7c0,0 0,0.1 0,0.1l-1,3.4l3.2,1.5c0.3,0.1 0.5,0.5 0.3,0.8c0,0 0,0.1 0,0.1l-1.9,3l2.7,2.3c0.3,0.2 0.3,0.6 0.1,0.9c0,0 -0.1,0.1 -0.1,0.1l-2.7,2.3l1.9,3c0.2,0.3 0.1,0.7 -0.2,0.9c0,0 0,0 -0.1,0l-3.2,1.5l1,3.4c0,0.2 0,0.4 -0.1,0.5c-0.1,0.2 -0.3,0.3 -0.5,0.3l-3.5,0.5l0,1.5l0.1,0.1l0.1,0.1l11,11c0.2,0.3 0.2,0.7 -0.1,0.9c-0.1,0.1 -0.2,0.2 -0.4,0.2l-6.5,0.6l-0.6,6.5c0,0.5 -0.2,0.7 -0.6,0.7zm-13,-14.6l12.5,12.6l0.5,-5.7c0,-0.3 0.3,-0.5 0.6,-0.6l5.7,-0.5l-9.3,-9.3l-0.1,0.4c0,0.1 -0.1,0.2 -0.2,0.3c-0.1,0.1 -0.3,0.2 -0.4,0.2l-3.6,-0.5l-1,3.4c-0.1,0.2 -0.2,0.3 -0.3,0.4c-0.1,0 -0.2,0.1 -0.3,0.1c-0.1,0 -0.2,0 -0.3,-0.1l-3.2,-1.5l-0.6,0.8zm-4.9,-1.6c0.2,0 0.3,0.1 0.4,0.2l2.5,2.2l1.8,-2.8c0.2,-0.3 0.5,-0.4 0.8,-0.2l3,1.4l1,-3.2c0.1,-0.3 0.3,-0.5 0.6,-0.5l3.4,0.5l0,-3.4c0,-0.3 0.2,-0.6 0.5,-0.6l3.3,-0.5l-0.9,-3.2c-0.1,-0.3 0.1,-0.6 0.3,-0.8l3.1,-1.4l-1.8,-2.8c-0.2,-0.3 -0.1,-0.6 0.1,-0.8l2.5,-2.2l-2.5,-2.2c-0.2,-0.2 -0.3,-0.6 -0.1,-0.8l1.8,-2.8l-3,-1.4c-0.3,-0.1 -0.4,-0.5 -0.3,-0.8l1,-3.2l-3.3,-0.5c-0.3,0 -0.5,-0.3 -0.5,-0.6l0,-3.4l-3.3,0.5c-0.3,0 -0.6,-0.2 -0.7,-0.5l-0.9,-3.2l-3.1,1.3c-0.1,0 -0.2,0.1 -0.3,0.1c-0.2,0 -0.4,-0.1 -0.5,-0.3l-1.8,-2.9l-2.5,2.2c-0.2,0.2 -0.6,0.2 -0.8,0l-2.5,-2.2l-1.8,2.8c-0.2,0.3 -0.5,0.4 -0.8,0.2l-3,-1.4l-1,3.2c-0.1,0.3 -0.3,0.5 -0.6,0.5l-3.4,-0.5l0,3.4c0,0.3 -0.2,0.6 -0.5,0.6l-3.3,0.5l0.9,3.2c0.1,0.3 -0.1,0.6 -0.4,0.8l-3.1,1.4l1.8,2.8c0.2,0.3 0.1,0.6 -0.1,0.8l-2.6,2.2l2.5,2.2c0.2,0.2 0.3,0.6 0.1,0.8l-1.8,2.8l3,1.4c0.3,0.1 0.4,0.5 0.3,0.8l-1,3.2l3.3,0.5c0.3,0 0.5,0.3 0.5,0.6l0,3.4l3.4,-0.5c0.3,0 0.6,0.2 0.7,0.5l0.9,3.2l3.1,-1.4c0.1,0 0.2,-0.1 0.3,-0.1c0.2,0 0.4,0.1 0.5,0.3l1.1,1.7l0.1,0c0.1,0 0.1,0.1 0.1,0.1c0.1,0.1 0.2,0.3 0.2,0.4l0,0.1l0.3,0.5l2.5,-2.2c0.1,0 0.3,-0.1 0.5,0l0,0z"/>
    <path id="svg_66" d="m40.4,649.2c-9.8,0 -17.7,-7.9 -17.7,-17.7c0,-9.8 7.9,-17.7 17.7,-17.7c9.8,0 17.7,7.9 17.7,17.7c0,1.1 -0.1,2.3 -0.3,3.4c-0.1,0.3 -0.3,0.5 -0.6,0.5l-0.2,0c-0.3,-0.1 -0.6,-0.4 -0.5,-0.8c1.8,-8.9 -4,-17.5 -12.9,-19.3s-17.5,4 -19.3,12.9s4,17.5 12.9,19.3c1,0.2 2.1,0.3 3.2,0.3c6.3,0 12,-3.5 14.7,-9.1c0.2,-0.3 0.6,-0.4 0.9,-0.2c0.3,0.2 0.4,0.5 0.3,0.8c-3.1,6 -9.2,9.9 -15.9,9.9l0,0z"/>
    <path id="svg_67" d="m40.4,644.9c-0.2,0 -0.4,-0.1 -0.5,-0.2l-12.6,-14.9c-0.2,-0.2 -0.2,-0.5 0,-0.8l5,-7.6c0.1,-0.2 0.3,-0.3 0.5,-0.3l15.1,0c0.2,0 0.4,0.1 0.5,0.3l5,7.6c0.2,0.2 0.2,0.5 0,0.8l-12.6,14.9c-0.1,0.1 -0.3,0.2 -0.4,0.2zm1.3,-4l0.4,0.2l9.6,-11.4l-7.1,0l-2.9,11.2zm-3.1,0.2l0.4,-0.2l-2.9,-11.2l-7.1,0l9.6,11.4zm1.8,-0.1l3,-11.3l-6,0l3,11.3zm4.8,-12.6l6.4,0l-3.6,-5.4l-2.8,5.4zm-7.6,0l5.5,0l-2.7,-5.1l-2.8,5.1zm-8.4,0l6.3,0l-2.8,-5.3l-3.5,5.3zm7.4,-0.7l2.8,-5.4l-5.7,0l2.9,5.4zm7.6,0l2.8,-5.3l-5.6,0l2.8,5.3z"/>
    <path id="svg_68" d="m63.1,620.7c-0.3,0 -0.6,-0.3 -0.6,-0.6c-0.1,-1 -0.4,-1.9 -1,-2.7c-0.8,-1.1 -2.1,-1.7 -3.4,-1.9c-0.4,0 -0.6,-0.4 -0.6,-0.7c0,-0.3 0.3,-0.5 0.6,-0.6c1.3,-0.2 2.5,-0.9 3.4,-1.9c0.6,-0.8 1,-1.7 1.1,-2.7c0,-0.4 0.4,-0.6 0.7,-0.6c0.3,0 0.5,0.3 0.6,0.6c0.1,1 0.4,1.9 1,2.7c0.8,1 2,1.7 3.4,1.9c0.4,0 0.6,0.4 0.6,0.7c0,0.3 -0.3,0.5 -0.6,0.6c-1.3,0.2 -2.5,0.9 -3.4,1.9c-0.6,0.8 -1,1.7 -1,2.7c-0.2,0.3 -0.5,0.6 -0.8,0.6zm-0.2,-8.3c-0.1,0.2 -0.3,0.5 -0.5,0.7c-0.5,0.6 -1.1,1.1 -1.8,1.5l-0.4,0.2l0.4,0.2c0.9,0.5 1.7,1.3 2.2,2.2l0.2,0.4l0.2,-0.4c0.5,-0.9 1.3,-1.7 2.2,-2.2l0.4,-0.2l-0.4,-0.2c-0.7,-0.4 -1.3,-0.9 -1.8,-1.5c-0.2,-0.2 -0.3,-0.4 -0.5,-0.7l-0.2,-0.4l0,0.4z"/>
    <path id="svg_69" d="m17.6,620.7c-0.3,0 -0.6,-0.3 -0.6,-0.6c-0.1,-1 -0.5,-1.9 -1.1,-2.7c-0.8,-1 -2.1,-1.7 -3.4,-1.9c-0.4,0 -0.6,-0.4 -0.6,-0.7c0,-0.3 0.3,-0.5 0.6,-0.6c1.3,-0.2 2.5,-0.8 3.4,-1.9c0.6,-0.8 1,-1.7 1.1,-2.7c0,-0.4 0.4,-0.6 0.7,-0.6c0.3,0 0.5,0.3 0.6,0.6c0.1,1 0.4,1.9 1,2.7c0.8,1 2,1.7 3.4,1.9c0.4,0 0.6,0.4 0.6,0.7c0,0.3 -0.3,0.5 -0.6,0.6c-1.3,0.2 -2.5,0.9 -3.3,1.9c-0.6,0.8 -1,1.7 -1,2.7c-0.2,0.3 -0.5,0.6 -0.8,0.6zm-0.2,-8.3c-0.1,0.2 -0.3,0.5 -0.5,0.7c-0.5,0.6 -1.1,1.1 -1.8,1.5l-0.4,0.2l0.4,0.2c0.7,0.4 1.3,0.9 1.8,1.5c0.2,0.2 0.3,0.4 0.5,0.7l0.2,0.4l0.2,-0.4c0.1,-0.2 0.3,-0.5 0.5,-0.7c0.5,-0.6 1,-1.1 1.7,-1.5l0.4,-0.2l-0.4,-0.2c-0.7,-0.4 -1.2,-0.9 -1.7,-1.5c-0.2,-0.2 -0.3,-0.4 -0.5,-0.7l-0.2,-0.4l-0.2,0.4z"/>
    <path id="svg_70" d="m40.4,665.5c-0.3,0 -0.6,-0.3 -0.6,-0.6c-0.1,-1 -0.4,-1.9 -1,-2.7c-0.8,-1 -2,-1.7 -3.4,-1.9c-0.4,0 -0.6,-0.4 -0.6,-0.7c0,-0.3 0.3,-0.5 0.6,-0.6c1.3,-0.2 2.5,-0.9 3.4,-1.9c0.6,-0.8 1,-1.7 1,-2.7c0,-0.4 0.4,-0.6 0.7,-0.6c0.3,0 0.5,0.3 0.6,0.6c0.1,1 0.4,1.9 1,2.7c0.9,1.1 2.1,1.7 3.4,1.9c0.4,0 0.6,0.4 0.6,0.7c0,0.3 -0.3,0.5 -0.6,0.6c-1.3,0.2 -2.6,0.8 -3.4,1.9c-0.6,0.8 -0.9,1.7 -1,2.7c-0.1,0.3 -0.4,0.6 -0.7,0.6zm-0.3,-8.3c-0.5,0.9 -1.3,1.7 -2.2,2.2l-0.4,0.2l0.4,0.2c0.9,0.5 1.7,1.3 2.2,2.2l0.2,0.4l0.2,-0.4c0.5,-0.9 1.3,-1.7 2.2,-2.2l0.4,-0.2l-0.4,-0.2c-0.9,-0.5 -1.7,-1.3 -2.2,-2.2l-0.2,-0.4l-0.2,0.4z"/>
   </g>
  </g>
  <g id="Layer_2_4_">
   <g id="Layer_1-2_4_">
    <path id="svg_71" d="m41.5,694.5c12.7,0 23,10.3 23,23s-10.3,23 -23,23s-23,-10.3 -23,-23s10.3,-23 23,-23m0,-3.5c-14.6,0 -26.5,11.9 -26.5,26.5c0,14.6 11.9,26.5 26.5,26.4c14.6,0 26.4,-11.9 26.4,-26.5c0.1,-14.5 -11.8,-26.4 -26.4,-26.4c0,0 0,0 0,0z"/>
    <rect id="svg_72" height="53" width="3.5" transform="matrix(0.7071,-0.7071,0.7071,0.7071,-495.1862,239.4747) " y="691" x="39.7"/>
    <path id="svg_73" d="m49.1,701.4c0.8,0 1.6,0.1 2.4,0.3l-5.1,5.1c-0.5,2.4 2.6,5.8 5.1,5.8c0.2,0 0.4,0 0.5,-0.1l5.1,-5.1c0.2,0.8 0.3,1.6 0.3,2.4c0,4.6 -3.8,8.4 -8.4,8.4c0,0 0,0 0,0l-0.7,0l-0.3,0c-1.1,0 -2.2,0.5 -3,1.3l-13,13c-1.7,1.4 -4.2,1.2 -5.6,-0.6c-1.2,-1.5 -1.2,-3.6 0,-5.1l13,-13c0.9,-0.9 1.3,-2.1 1.2,-3.4c-0.4,-4.6 3.1,-8.7 7.7,-9c0.4,0 0.7,0 0.8,0m0.1,-1.5c-5.5,0 -9.9,4.4 -9.9,9.9c0,0.3 0,0.5 0,0.8c0.1,0.8 -0.2,1.6 -0.8,2.2l-13,13c-2.1,2.1 -2.1,5.6 0,7.8c2.1,2.1 5.6,2.1 7.7,0l13,-13c0.5,-0.5 1.3,-0.8 2,-0.8l0.2,0l0.8,0c5.5,0 9.9,-4.4 9.9,-9.9c0,0 0,0 0,0c0,-1 -0.2,-1.9 -0.5,-2.8l-0.7,-2.4l-1.8,1.8l-4.7,4.6c-1.1,-0.2 -2,-0.9 -2.7,-1.8c-0.5,-0.5 -0.8,-1.1 -0.9,-1.8l4.7,-4.7l1.8,-1.8l-2.4,-0.7c-0.8,-0.3 -1.8,-0.4 -2.7,-0.4l0,0z"/>
    <path id="svg_74" d="m29.4,731.6c-1.2,0 -2.1,-0.9 -2.1,-2.1c0,-1.2 0.9,-2.1 2.1,-2.1s2.1,0.9 2.1,2.1c0,1.2 -0.9,2.1 -2.1,2.1l0,0zm0,-2.6c-0.3,0 -0.6,0.3 -0.6,0.6s0.3,0.6 0.6,0.6s0.6,-0.3 0.6,-0.6c0,-0.4 -0.3,-0.6 -0.6,-0.6l0,0z"/>
   </g>
  </g>
  <g id="Layer_2_5_">
   <g id="Layer_1-2_5_">
    <polygon id="svg_75" points="20.8,826 12,820.9 12,782.5 37.1,768 45.9,773.1 45.9,797 44.7,797 44.7,773.8 37.1,769.4 13.2,783.2 13.2,820.2     20.8,824.6 24.6,822.4 25.2,823.5   "/>
    <polygon id="svg_76" points="21.4,825.3 20.2,825.3 20.2,787.9 12.3,783.4 12.9,782.3 21.4,787.2   "/>
    <path id="svg_77" d="m58.9,802.4" class="st14"/>
    <polygon id="svg_78" points="57.8,818.8 57.2,817.7 69.1,810.8 69.1,783.2 61.6,778.9 50,785.6 50,794.6 48.7,794.6 48.7,784.9 61.6,777.4     70.4,782.5 70.4,811.5   "/>
    <polygon id="svg_79" points="36.5,811.1 36.5,801.3 49.4,793.9 57.8,798.8 57.2,799.9 49.4,795.4 37.7,802.1 37.7,811.1   " class="st15"/>
    <path id="svg_80" d="m37.1,820.6" class="st16"/>
    <polygon id="svg_81" points="45.6,825.8 45,824.7 56.9,817.8 56.9,789.9 58.2,789.9 58.2,818.6   " class="st15"/>
    <path id="svg_82" d="m33,833.1l-8.8,-5.1l0,-10.2l12.9,-7.4l8.8,5.1l0,10.2l-12.9,7.4zm-7.5,-5.8l7.5,4.4l11.6,-6.7l0,-8.7l-7.5,-4.3l-11.6,6.7l0,8.6z" class="st15"/>
    <polygon id="svg_83" points="45.3,807.2 36.8,802.2 37.4,801.2 45.3,805.7 69.4,791.8 70.1,792.8   " class="st15"/>
    <polygon id="svg_84" points="33,823.6 24.6,818.8 25.2,817.7 33,822.2 69.4,801.2 70.1,802.2   " class="st15"/>
    <rect id="svg_85" height="9.4" width="1.2" class="st15" y="806.4" x="44.7"/>
    <rect id="svg_86" height="9.4" width="1.2" class="st15" y="822.9" x="32.4"/>
    <polygon id="svg_87" points="57.5,790.7 49,785.8 49.7,784.7 57.5,789.2 69.4,782.3 70.1,783.4   " class="st15"/>
    <path id="svg_88" d="m31.5,781.4c0.3,7.6 1.1,15.2 1.4,22.8c0,0 0.2,-0.1 0.2,-0.1c0.8,-5.2 2,-10 1.8,-15.3c-0.1,-3 -0.5,-6 -0.5,-9c0,0 -0.2,0.1 -0.2,0.1c-0.1,2.9 0.3,5.8 0.5,8.7c0.1,2.6 0,5.2 -0.3,7.7c-0.2,1.2 -0.4,2.3 -0.6,3.5c-0.1,0.6 -0.3,3.3 -0.7,3.7c0.4,-0.4 0,-3.2 0,-3.7c-0.1,-1.3 -0.1,-2.6 -0.2,-3.9c-0.1,-2.2 -0.3,-4.4 -0.4,-6.5c-0.2,-2.7 -0.5,-5.4 -0.6,-8c-0.2,-0.1 -0.4,0 -0.4,0l0,0z"/>
    <path id="svg_89" d="m41.2,799.5l0,0c-0.1,0 -0.1,-0.1 -0.1,-0.1c0.1,-1.3 0.1,-2.6 0.2,-3.9c0.4,-9.6 0.8,-18.7 0.3,-19.9c0,-0.1 0,-0.1 0.1,-0.2c0.1,0 0.1,0 0.2,0.1l0,0c0.6,1.2 0.2,9.9 -0.2,20c-0.1,1.3 -0.1,2.6 -0.2,3.9c-0.2,0 -0.2,0.1 -0.3,0.1z"/>
    <path id="svg_90" d="m24.6,785.4c1.9,4.9 3.1,10.1 3.6,15.4c0.3,2.6 0.5,5.1 0.5,7.7c0.1,2 -0.7,5.5 0.4,7.2l0.2,-0.1c-1.1,-1.6 -0.4,-4.9 -0.4,-6.8c-0.1,-2.7 -0.3,-5.4 -0.6,-8.1c-0.5,-5.3 -1.7,-10.5 -3.6,-15.4c0.1,0 -0.1,0.1 -0.1,0.1l0,0z"/>
    <path id="svg_91" d="m27.4,816.9c0.2,-6.6 0.4,-12.7 -1.9,-19c-1.3,-3.6 -2.5,-7.2 -3.8,-10.8c0,0 -0.2,0.1 -0.2,0.1c1.3,3.6 2.6,7.2 3.8,10.8c2.3,6.3 2.1,12.4 1.9,19c0,0 0.2,-0.1 0.2,-0.1l0,0z"/>
    <path id="svg_92" d="m32.2,814c0,-3.5 -0.9,-6.7 -1.5,-10.1c-0.4,-2.3 -0.3,-4.6 -0.9,-7c-1,-4.2 -2.2,-8.4 -3.6,-12.5c0,0 -0.2,0.1 -0.2,0.1c1.4,4.1 2.6,8.3 3.6,12.5c0.6,2.3 0.5,4.6 0.9,7c0.6,3.4 1.5,6.6 1.5,10.1c0,0 0.2,-0.1 0.2,-0.1l0,0z"/>
    <path id="svg_93" d="m26.6,777.2l-0.1,0l-1.8,0l-1.8,0l0,-0.3l1.8,0l1.8,0c0.5,0.1 0.9,-0.1 1.3,-0.3c0.4,-0.3 0.3,-0.9 0.3,-1.5c-0.1,-0.4 -0.1,-0.8 0,-1.2l0.2,0.1c-0.1,0.4 -0.1,0.8 0,1.2c0.2,0.6 0.1,1.3 -0.3,1.8c-0.4,0.1 -0.9,0.3 -1.4,0.2z"/>
    <path id="svg_94" d="m24.5,779l-0.6,0l-1.2,0c-1,-0.1 -2,-0.1 -3,0l0,-0.2c1,-0.1 2,-0.1 3,0l1.2,0c1.7,0.1 3.4,-0.2 5.1,-0.8c1.6,-0.6 2.9,-1.8 3.5,-3.4c0.2,-0.5 0.1,-1 -0.1,-1.5c-0.3,-0.5 -0.3,-1 -0.3,-1.5l0.2,0c-0.1,0.5 0,1 0.2,1.4c0.3,0.5 0.3,1.1 0.2,1.6c-0.6,1.7 -1.9,3 -3.7,3.6c-1.5,0.6 -3,0.8 -4.5,0.8z"/>
    <path id="svg_95" d="m38.2,801.2l-0.2,0l0,-1.6c0,-9.8 0,-12.5 -1.7,-21l0.2,0c1.7,8.5 1.7,11.4 1.7,21l0,1.6z"/>
    <path id="svg_96" d="m40.2,799.9c-1.1,-5.1 -1.4,-10.3 -1.1,-15.5c0.1,-2.1 0.1,-4.5 0.1,-7.6l0.2,0c0,3 -0.1,5.4 -0.1,7.6c-0.3,5.2 0,10.4 1.1,15.4l-0.2,0.1z"/>
    <path id="svg_97" d="m26.2,781.8c-0.8,0 -1.7,-0.1 -2.5,-0.1l-1.3,-0.1c-2.1,-0.1 -4.1,-0.4 -6.1,-0.7l0.1,-0.2c2,0.4 4.1,0.6 6.1,0.7l1.3,0.1c2.7,0.2 5.2,0.3 6.7,-1.2l0.5,-0.5c1.5,-1.5 3.3,-3.3 3.9,-5.2c0.3,-0.8 0.4,-1.6 0.3,-2.5c-0.1,-0.8 0,-1.7 0.2,-2.5l0.2,0.1c-0.2,0.8 -0.3,1.6 -0.2,2.4c0.1,0.9 0,1.7 -0.3,2.5c-0.6,1.9 -2.5,3.8 -4,5.2l-0.5,0.5c-1.2,1.2 -2.8,1.7 -4.4,1.5z"/>
    <path id="svg_98" d="m14.5,821.8c-1.2,-8.6 -0.8,-14.6 -0.5,-22.3c0.2,-4.4 0.5,-9.3 0.5,-15.4l0.2,0c0,6.1 -0.2,11.1 -0.5,15.4c-0.4,7.6 -0.7,13.7 0.5,22.3l-0.2,0z"/>
    <path id="svg_99" d="m16.6,822.9c-0.9,-6.2 -0.6,-12.9 -0.4,-21.4c0.2,-4.8 0.4,-10.2 0.4,-16.4l0.2,0c0,6.1 -0.2,11.6 -0.4,16.4c-0.3,8.4 -0.5,15.1 0.4,21.3l-0.2,0.1z"/>
    <path id="svg_100" d="m18.6,823.9l-0.2,0c0,-6.5 0.3,-12.2 0.5,-17.2c0.4,-8 0.6,-14.3 -0.2,-20.3l0.2,0c0.8,6 0.6,12.3 0.2,20.3c-0.2,5 -0.5,10.7 -0.5,17.2z"/>
    <rect id="svg_101" height="1.2" width="28.3" transform="matrix(0.8659,-0.5002,0.5002,0.8659,-385.9444,121.1592) " y="779.9" x="18.9"/>
   </g>
  </g>
  <g id="Layer_2_6_">
   <g id="Layer_1-2_6_">
    <path id="svg_102" d="m41.8,861.3"/>
    <path id="svg_103" d="m40.5,867.3c5.6,7.7 11,16.6 11,20.4c0.2,6 -4.6,11.1 -10.6,11.3s-11.1,-4.6 -11.3,-10.6c0,-0.2 0,-0.4 0,-0.7c-0.1,-3.8 5.3,-12.7 10.9,-20.4m0,-2.5c-4.4,5.8 -12.5,17.6 -12.5,22.9c-0.2,6.9 5.2,12.6 12.1,12.8c6.9,0.2 12.6,-5.2 12.8,-12.1c0,-0.2 0,-0.5 0,-0.7c0,-5.3 -8,-17.1 -12.4,-22.9l0,0z"/>
    <path id="svg_104" d="m40.5,896c-0.5,0 -0.9,-0.4 -0.9,-0.9s0.4,-0.9 0.9,-0.9c3.6,0 6.5,-2.9 6.5,-6.5c0,-0.5 0.4,-0.9 0.9,-0.9c0.5,0 0.9,0.4 0.9,0.9c0,0 0,0 0,0c-0.1,4.6 -3.8,8.3 -8.3,8.3z"/>
    <path id="svg_105" d="m40.5,857.5c13.8,0 25,11.2 25,25s-11.2,25 -25,25s-25,-11.2 -25,-25s11.2,-25 25,-25m0,-1.5c-14.6,0 -26.5,11.9 -26.5,26.5c0,14.6 11.9,26.5 26.5,26.4c14.6,0 26.4,-11.9 26.4,-26.5c0.1,-14.5 -11.8,-26.4 -26.4,-26.4c0,0 0,0 0,0z"/>
   </g>
  </g>
  <g id="Layer_2_7_">
   <g id="Layer_1-2_7_">
    <path id="svg_106" d="m41.6,930.5c2.8,0 5,2.2 5,5l0,19.2c0,2.7 1.2,5.2 3.2,6.9c5.3,4.5 6,12.5 1.5,17.8c-4.5,5.3 -12.5,6 -17.8,1.5s-6,-12.5 -1.5,-17.8c0.4,-0.5 0.9,-1 1.5,-1.5c2,-1.7 3.2,-4.2 3.2,-6.9l0,-19.2c-0.1,-2.8 2.1,-5 4.9,-5m0,-1.5c-3.6,0 -6.5,2.9 -6.5,6.5l0,19.2c0,2.2 -1,4.3 -2.7,5.8c-6,5.1 -6.7,14 -1.6,20c5.1,6 14,6.7 20,1.6c6,-5.1 6.7,-14 1.6,-20c-0.5,-0.6 -1,-1.1 -1.6,-1.6c-1.7,-1.4 -2.7,-3.5 -2.7,-5.8l0,-19.2c0,-3.6 -2.9,-6.5 -6.5,-6.5z"/>
    <path id="svg_107" d="m42.9,945.6l0,10.3c0,3.8 1.5,6 4.1,8.2c2.2,1.7 3.5,4.3 3.6,7.1c0,4.9 -4,8.9 -8.9,8.9c-0.3,0 -0.7,0 -1,0c-3.9,-0.5 -7,-3.3 -7.8,-7.2c-0.8,-3.7 1,-6.7 3.4,-8.9c2.6,-2.3 4.1,-4.4 4.1,-8.2l0,-10.3l2.5,0m1.5,-1.4l-5.5,0l0,11.8c0,3.3 -1.3,5.1 -3.6,7.1c-3.3,2.9 -4.6,6.5 -3.9,10.3c0.9,4.4 4.6,7.8 9.1,8.3c0.4,0 0.8,0.1 1.2,0.1c5.7,0 10.4,-4.7 10.4,-10.4c-0.1,-3.2 -1.5,-6.2 -4,-8.3c-2.3,-2 -3.6,-3.8 -3.6,-7.1l-0.1,-11.8l0,0z"/>
    <path id="svg_108" d="m26.7,977.6c-1.6,0.9 -3.5,0.5 -4.7,-0.9c-0.3,-0.4 -1,-0.5 -1.4,-0.2c-0.1,0.1 -0.1,0.1 -0.2,0.2c-1.4,1.6 -3.8,1.8 -5.4,0.4c-0.1,-0.1 -0.3,-0.3 -0.4,-0.4c-0.3,-0.4 -1,-0.5 -1.4,-0.2c-0.1,0.1 -0.1,0.1 -0.2,0.2c-0.8,0.9 -1.8,1.3 -3,1.3c-0.6,0 -1,0.5 -1,1c0,0.6 0.5,1 1,1c1.2,0 2.4,-0.3 3.4,-1l0.4,-0.3l0.4,0.3c2,1.4 4.7,1.4 6.7,0l0.4,-0.3l0.4,0.3c1.8,1.2 4.2,1.4 6.1,0.3c-0.5,-0.5 -0.8,-1.1 -1.1,-1.7z"/>
    <path id="svg_109" d="m25.5,972.4c-1.3,0.2 -2.6,-0.2 -3.5,-1.3c-0.3,-0.4 -1,-0.5 -1.4,-0.2c-0.1,0.1 -0.1,0.1 -0.2,0.2c-1.4,1.6 -3.8,1.8 -5.4,0.4c-0.1,-0.1 -0.3,-0.3 -0.4,-0.4c-0.3,-0.4 -1,-0.5 -1.4,-0.2c-0.1,0.1 -0.1,0.1 -0.2,0.2c-0.7,0.9 -1.8,1.4 -3,1.3c-0.6,0 -1,0.5 -1,1c0,0.6 0.5,1 1,1c1.2,0 2.4,-0.3 3.4,-1l0.4,-0.3l0.4,0.3c2,1.4 4.7,1.4 6.7,0l0.4,-0.3l0.4,0.3c1.2,0.9 2.7,1.2 4.2,1c-0.3,-0.5 -0.4,-1.3 -0.4,-2z"/>
    <path id="svg_110" d="m26.1,966.7c-1.5,0.5 -3.1,0.1 -4.1,-1.1c-0.3,-0.4 -1,-0.5 -1.4,-0.2c-0.1,0.1 -0.1,0.1 -0.2,0.2c-1.4,1.6 -3.8,1.8 -5.4,0.4c-0.1,-0.1 -0.3,-0.3 -0.4,-0.4c-0.3,-0.4 -1,-0.5 -1.4,-0.2c-0.1,0.1 -0.1,0.1 -0.2,0.2c-0.7,0.9 -1.8,1.4 -3,1.3c-0.6,0 -1,0.5 -1,1c0,0.6 0.5,1 1,1c1.2,0 2.4,-0.3 3.4,-1l0.4,-0.3l0.4,0.3c2,1.4 4.7,1.4 6.7,0l0.4,-0.3l0.4,0.3c1.2,0.8 2.6,1.2 4.1,1c-0.1,-0.7 0.1,-1.4 0.3,-2.2z"/>
    <path id="svg_111" d="m73.2,978c-1.1,0 -2.2,-0.5 -2.9,-1.3c-0.3,-0.4 -1,-0.5 -1.4,-0.2c-0.1,0.1 -0.1,0.1 -0.2,0.2c-1.4,1.6 -3.8,1.8 -5.4,0.4c-0.1,-0.1 -0.3,-0.3 -0.4,-0.4c-0.3,-0.4 -1,-0.5 -1.4,-0.2c-0.1,0.1 -0.1,0.1 -0.2,0.2c-1.2,1.4 -3.2,1.7 -4.7,0.9c-0.3,0.6 -0.6,1.3 -1,1.9c1.9,1 4.3,0.9 6.1,-0.3l0.4,-0.3l0.4,0.3c2,1.4 4.7,1.4 6.7,0l0.4,-0.3l0.4,0.3c1,0.7 2.2,1 3.4,1c0.6,0 1,-0.5 1,-1c-0.3,-0.8 -0.7,-1.2 -1.2,-1.2l0,0z"/>
    <path id="svg_112" d="m73.2,972.5c-1.1,0 -2.2,-0.5 -2.9,-1.3c-0.3,-0.4 -1,-0.5 -1.4,-0.2c-0.1,0.1 -0.1,0.1 -0.2,0.2c-1.4,1.6 -3.8,1.8 -5.4,0.4c-0.1,-0.1 -0.3,-0.3 -0.4,-0.4c-0.3,-0.4 -1,-0.5 -1.4,-0.2c-0.1,0.1 -0.1,0.1 -0.2,0.2c-0.8,1 -2.2,1.5 -3.5,1.3c0,0.7 -0.1,1.4 -0.3,2.1c1.5,0.2 3,-0.1 4.2,-1l0.4,-0.3l0.4,0.3c2,1.4 4.7,1.4 6.7,0l0.4,-0.3l0.4,0.3c1,0.7 2.2,1 3.4,1c0.6,0 1,-0.5 1,-1c-0.2,-0.7 -0.7,-1.2 -1.2,-1.1l0,0z"/>
    <path id="svg_113" d="m73.2,967c-1.1,0 -2.2,-0.5 -2.9,-1.3c-0.3,-0.4 -1,-0.5 -1.4,-0.2c-0.1,0.1 -0.1,0.1 -0.2,0.2c-1.4,1.6 -3.8,1.8 -5.4,0.4c-0.1,-0.1 -0.3,-0.3 -0.4,-0.4c-0.3,-0.4 -1,-0.5 -1.4,-0.2c-0.1,0.1 -0.1,0.1 -0.2,0.2c-1,1.2 -2.7,1.7 -4.1,1.1c0.2,0.7 0.4,1.5 0.5,2.3c1.4,0.2 2.9,-0.2 4.1,-1l0.4,-0.3l0.4,0.3c2,1.4 4.7,1.4 6.7,0l0.4,-0.3l0.4,0.3c1,0.7 2.2,1 3.4,1c0.6,0 1,-0.5 1,-1c-0.3,-0.7 -0.8,-1.2 -1.3,-1.1l0,0z"/>
   </g>
  </g>
 </g>
</svg>