<?xml version="1.0" encoding="UTF-8" standalone="no"?>
<svg
   xmlns:dc="http://purl.org/dc/elements/1.1/"
   xmlns:cc="http://creativecommons.org/ns#"
   xmlns:rdf="http://www.w3.org/1999/02/22-rdf-syntax-ns#"
   xmlns:svg="http://www.w3.org/2000/svg"
   xmlns="http://www.w3.org/2000/svg"
   viewBox="0 0 34.666668 943.33331"
   height="943.33331"
   width="34.666668"
   xml:space="preserve"
   id="svg2"
   version="1.1"><metadata
     id="metadata8"><rdf:RDF><cc:Work
         rdf:about=""><dc:format>image/svg+xml</dc:format><dc:type
           rdf:resource="http://purl.org/dc/dcmitype/StillImage" /></cc:Work></rdf:RDF></metadata><defs
     id="defs6"><clipPath
       id="clipPath18"
       clipPathUnits="userSpaceOnUse"><path
         id="path16"
         d="M 0,707.5 H 26 V 0 H 0 Z" /></clipPath></defs><g
     transform="matrix(1.3333333,0,0,-1.3333333,0,943.33333)"
     id="g10"><g
       id="g12"><g
         clip-path="url(#clipPath18)"
         id="g14"><g
           transform="translate(15.291,703.2754)"
           id="g20"><path
             id="path22"
             style="fill:#666666;fill-opacity:1;fill-rule:nonzero;stroke:none"
             d="m 0,0 h -1.484 c -0.524,0 -0.633,-0.215 -0.633,-0.756 v -1.31 H 0 l -0.203,-2.299 h -1.914 v -6.867 h -2.742 v 6.837 h -1.426 v 2.329 h 1.426 v 1.834 c 0,1.72 0.92,2.619 2.961,2.619 l 1.898,0 z" /></g><g
           transform="translate(15.291,680.2754)"
           id="g24"><path
             id="path26"
             style="fill:#ffffff;fill-opacity:1;fill-rule:nonzero;stroke:none"
             d="m 0,0 h -1.484 c -0.524,0 -0.633,-0.215 -0.633,-0.756 v -1.31 H 0 l -0.203,-2.299 h -1.914 v -6.867 h -2.742 v 6.837 h -1.426 v 2.329 h 1.426 v 1.834 c 0,1.72 0.92,2.619 2.961,2.619 l 1.898,0 z" /></g><g
           transform="translate(19.8125,630.2695)"
           id="g28"><path
             id="path30"
             style="fill:#666666;fill-opacity:1;fill-rule:nonzero;stroke:none"
             d="m 0,0 c 0.217,-4.836 -3.389,-10.227 -9.772,-10.227 -1.942,0 -3.749,0.569 -5.271,1.545 1.824,-0.214 3.645,0.291 5.09,1.424 -1.504,0.028 -2.774,1.022 -3.211,2.387 0.539,-0.104 1.068,-0.072 1.552,0.059 -1.654,0.332 -2.794,1.822 -2.757,3.414 0.463,-0.256 0.993,-0.413 1.556,-0.43 -1.531,1.023 -1.964,3.045 -1.063,4.592 1.695,-2.08 4.23,-3.45 7.086,-3.592 -0.501,2.148 1.13,4.221 3.349,4.221 0.989,0 1.882,-0.418 2.51,-1.086 0.783,0.154 1.519,0.439 2.183,0.834 C 0.996,2.338 0.45,1.664 -0.26,1.238 0.436,1.32 1.098,1.506 1.715,1.779 1.254,1.09 0.671,0.484 0,0" /></g><g
           transform="translate(19.8125,607.2695)"
           id="g32"><path
             id="path34"
             style="fill:#ffffff;fill-opacity:1;fill-rule:nonzero;stroke:none"
             d="m 0,0 c 0.217,-4.836 -3.389,-10.227 -9.772,-10.227 -1.942,0 -3.749,0.569 -5.271,1.545 1.824,-0.214 3.645,0.291 5.09,1.424 -1.504,0.028 -2.774,1.022 -3.211,2.387 0.539,-0.104 1.068,-0.072 1.552,0.059 -1.654,0.332 -2.794,1.822 -2.757,3.414 0.463,-0.256 0.993,-0.413 1.556,-0.43 -1.531,1.023 -1.964,3.045 -1.063,4.592 1.695,-2.08 4.23,-3.45 7.086,-3.592 -0.501,2.148 1.13,4.221 3.349,4.221 0.989,0 1.882,-0.418 2.51,-1.086 0.783,0.154 1.519,0.439 2.183,0.834 C 0.996,2.338 0.45,1.664 -0.26,1.238 0.436,1.32 1.098,1.506 1.715,1.779 1.254,1.09 0.671,0.484 0,0" /></g><g
           transform="translate(14.6318,546.5723)"
           id="g36"><path
             id="path38"
             style="fill:#666666;fill-opacity:1;fill-rule:nonzero;stroke:none"
             d="m 0,0 c -1.192,0 -2.313,0.645 -2.695,1.377 0,0 -0.643,-2.543 -0.778,-3.037 -0.477,-1.735 -1.884,-3.471 -1.993,-3.611 -0.077,-0.1 -0.245,-0.069 -0.262,0.062 -0.03,0.221 -0.39,2.41 0.034,4.195 0.211,0.897 1.421,6.016 1.421,6.016 0,0 -0.355,0.705 -0.355,1.748 0,1.635 0.949,2.859 2.13,2.859 1.004,0 1.489,-0.755 1.489,-1.66 0,-1.01 -0.643,-2.517 -0.975,-3.916 -0.278,-1.174 0.587,-2.127 1.743,-2.127 2.091,0 3.499,2.686 3.499,5.869 0,2.42 -1.629,4.231 -4.593,4.231 -3.348,0 -5.436,-2.496 -5.436,-5.287 0,-0.961 0.285,-1.639 0.729,-2.166 C -5.838,4.312 -5.808,4.217 -5.883,3.938 -5.937,3.734 -6.058,3.246 -6.108,3.053 -6.183,2.771 -6.409,2.672 -6.661,2.777 c -1.542,0.629 -2.262,2.319 -2.262,4.217 0,3.135 2.646,6.895 7.891,6.895 4.217,0 6.989,-3.049 6.989,-6.323 C 5.957,3.234 3.55,0 0,0" /></g><g
           transform="translate(14.6318,518.5723)"
           id="g40"><path
             id="path42"
             style="fill:#ffffff;fill-opacity:1;fill-rule:nonzero;stroke:none"
             d="m 0,0 c -1.192,0 -2.313,0.645 -2.695,1.377 0,0 -0.643,-2.543 -0.778,-3.037 -0.477,-1.735 -1.884,-3.471 -1.993,-3.611 -0.077,-0.1 -0.245,-0.069 -0.262,0.062 -0.03,0.221 -0.39,2.41 0.034,4.195 0.211,0.897 1.421,6.016 1.421,6.016 0,0 -0.355,0.705 -0.355,1.748 0,1.635 0.949,2.859 2.13,2.859 1.004,0 1.489,-0.755 1.489,-1.66 0,-1.01 -0.643,-2.517 -0.975,-3.916 -0.278,-1.174 0.587,-2.127 1.743,-2.127 2.091,0 3.499,2.686 3.499,5.869 0,2.42 -1.629,4.231 -4.593,4.231 -3.348,0 -5.436,-2.496 -5.436,-5.287 0,-0.961 0.285,-1.639 0.729,-2.166 C -5.838,4.312 -5.808,4.217 -5.883,3.938 -5.937,3.734 -6.058,3.246 -6.108,3.053 -6.183,2.771 -6.409,2.672 -6.661,2.777 c -1.542,0.629 -2.262,2.319 -2.262,4.217 0,3.135 2.646,6.895 7.891,6.895 4.217,0 6.989,-3.049 6.989,-6.323 C 5.957,3.234 3.55,0 0,0" /></g><g
           transform="translate(8.9805,458.0156)"
           id="g44"><path
             id="path46"
             style="fill:#666666;fill-opacity:1;fill-rule:nonzero;stroke:none"
             d="m 0,0 c -3.227,0 -5.835,2.609 -5.835,5.836 0,3.227 2.608,5.834 5.835,5.834 1.577,0 2.893,-0.572 3.908,-1.525 L 2.326,8.619 C 1.893,9.037 1.135,9.52 0,9.52 -1.992,9.52 -3.616,7.869 -3.616,5.834 -3.616,3.799 -1.99,2.146 0,2.146 c 2.311,0 3.18,1.663 3.311,2.52 H 0 V 6.668 H 5.51 C 5.562,6.375 5.602,6.084 5.602,5.697 5.603,2.367 3.367,0 0,0" /></g><g
           transform="translate(23.1543,463.0176)"
           id="g48"><path
             id="path50"
             style="fill:#666666;fill-opacity:1;fill-rule:nonzero;stroke:none"
             d="M 0,0 H -2.502 V -2.502 H -4.17 V 0 h -2.5 v 1.666 h 2.5 v 2.502 h 1.668 V 1.666 l 2.502,0 z" /></g><g
           transform="translate(8.9805,437.0156)"
           id="g52"><path
             id="path54"
             style="fill:#ffffff;fill-opacity:1;fill-rule:nonzero;stroke:none"
             d="m 0,0 c -3.227,0 -5.835,2.609 -5.835,5.836 0,3.227 2.608,5.834 5.835,5.834 1.577,0 2.893,-0.572 3.908,-1.525 L 2.326,8.619 C 1.893,9.037 1.135,9.52 0,9.52 -1.992,9.52 -3.616,7.869 -3.616,5.834 -3.616,3.799 -1.99,2.146 0,2.146 c 2.311,0 3.18,1.663 3.311,2.52 H 0 V 6.668 H 5.51 C 5.562,6.375 5.602,6.084 5.602,5.697 5.603,2.367 3.367,0 0,0" /></g><g
           transform="translate(23.1543,442.0176)"
           id="g56"><path
             id="path58"
             style="fill:#ffffff;fill-opacity:1;fill-rule:nonzero;stroke:none"
             d="M 0,0 H -2.502 V -2.502 H -4.17 V 0 h -2.5 v 1.666 h 2.5 v 2.502 h 1.668 V 1.666 l 2.502,0 z" /></g><g
           transform="translate(6.0054,313)"
           id="g60"><path
             id="path62"
             style="fill:#666666;fill-opacity:1;fill-rule:nonzero;stroke:none"
             d="m 0,0 v -2.685 c 6.231,0 11.303,-5.077 11.303,-11.315 h 2.692 C 13.995,-6.282 7.716,0 0,0" /></g><g
           transform="translate(6.002,308.2441)"
           id="g64"><path
             id="path66"
             style="fill:#666666;fill-opacity:1;fill-rule:nonzero;stroke:none"
             d="m 0,0 v -2.684 c 1.747,0 3.39,-0.683 4.627,-1.92 1.235,-1.236 1.918,-2.885 1.918,-4.64 H 9.241 C 9.241,-4.146 5.094,0 0,0" /></g><g
           transform="translate(7.8638,302.7344)"
           id="g68"><path
             id="path70"
             style="fill:#666666;fill-opacity:1;fill-rule:nonzero;stroke:none"
             d="m 0,0 c -1.028,0 -1.864,-0.837 -1.864,-1.859 0,-1.029 0.836,-1.858 1.864,-1.858 1.032,0 1.866,0.829 1.866,1.858 C 1.866,-0.839 1.032,0 0,0" /></g><g
           transform="translate(6.0054,290)"
           id="g72"><path
             id="path74"
             style="fill:#ffffff;fill-opacity:1;fill-rule:nonzero;stroke:none"
             d="m 0,0 v -2.685 c 6.231,0 11.303,-5.077 11.303,-11.315 h 2.692 C 13.995,-6.282 7.716,0 0,0" /></g><g
           transform="translate(6.002,285.2441)"
           id="g76"><path
             id="path78"
             style="fill:#ffffff;fill-opacity:1;fill-rule:nonzero;stroke:none"
             d="m 0,0 v -2.684 c 1.747,0 3.39,-0.683 4.627,-1.92 1.235,-1.236 1.918,-2.885 1.918,-4.64 H 9.241 C 9.241,-4.146 5.094,0 0,0" /></g><g
           transform="translate(7.8638,279.7344)"
           id="g80"><path
             id="path82"
             style="fill:#ffffff;fill-opacity:1;fill-rule:nonzero;stroke:none"
             d="m 0,0 c -1.028,0 -1.864,-0.837 -1.864,-1.859 0,-1.029 0.836,-1.858 1.864,-1.858 1.032,0 1.866,0.829 1.866,1.858 C 1.866,-0.839 1.032,0 0,0" /></g><g
           transform="translate(7.3774,233.9824)"
           id="g84"><path
             id="path86"
             style="fill:#666666;fill-opacity:1;fill-rule:nonzero;stroke:none"
             d="M 0,0 5.173,3.018 V -3.019 L 0,-6.036 Z" /></g><g
           transform="translate(7.3774,227.9463)"
           id="g88"><path
             id="path90"
             style="fill:#666666;fill-opacity:1;fill-rule:nonzero;stroke:none"
             d="M 0,0 5.105,-2.979 0,-5.929 Z" /></g><g
           transform="translate(12.5508,230.9639)"
           id="g92"><path
             id="path94"
             style="fill:#666666;fill-opacity:1;fill-rule:nonzero;stroke:none"
             d="M 0,0 5.174,3.019 V -3.018 Z" /></g><g
           transform="translate(12.5508,225)"
           id="g96"><path
             id="path98"
             style="fill:#666666;fill-opacity:1;fill-rule:nonzero;stroke:none"
             d="m 0,0 v -6 l 5.174,3.018 v 5.928 z" /></g><g
           transform="translate(19.668,112.1406)"
           id="g100"><path
             id="path102"
             style="fill:#666666;fill-opacity:1;fill-rule:nonzero;stroke:none"
             d="m 0,0 c 0,-0.859 -0.699,-1.559 -1.558,-1.559 h -9.97 c -0.859,0 -1.558,0.7 -1.558,1.559 v 6.652 h 2.427 c -0.061,-0.147 -0.114,-0.301 -0.157,-0.457 -0.112,-0.384 -0.17,-0.791 -0.17,-1.21 0,-2.45 1.994,-4.443 4.442,-4.443 2.451,0 4.444,1.993 4.444,4.443 0,0.419 -0.06,0.826 -0.169,1.21 -0.046,0.156 -0.097,0.31 -0.157,0.457 H 0 Z m -9.033,6.382 c 0.053,0.092 0.109,0.183 0.171,0.27 0.521,0.722 1.365,1.194 2.318,1.194 0.956,0 1.8,-0.472 2.32,-1.194 0.063,-0.087 0.119,-0.178 0.172,-0.273 0.232,-0.411 0.37,-0.888 0.37,-1.394 0,-1.577 -1.285,-2.859 -2.862,-2.859 -1.578,0 -2.86,1.282 -2.86,2.859 0,0.506 0.136,0.983 0.371,1.397 m 6.333,4.85 2.042,0.005 h 0.005 c 0.196,0.002 0.356,-0.157 0.356,-0.35 v -2.05 c 0,-0.195 -0.158,-0.353 -0.354,-0.353 L -2.69,8.477 c -0.196,0 -0.353,0.157 -0.353,0.35 l -0.008,2.05 c -0.002,0.195 0.155,0.353 0.351,0.355 m 1.728,1.88 h -11.141 c -1.41,0 -2.555,-1.144 -2.555,-2.557 V -0.586 c 0,-1.41 1.145,-2.555 2.555,-2.555 h 11.141 c 1.41,0 2.555,1.145 2.555,2.555 v 11.141 c 0,1.413 -1.145,2.557 -2.555,2.557" /></g><g
           transform="translate(19.668,140.1406)"
           id="g104"><path
             id="path106"
             style="fill:#ffffff;fill-opacity:1;fill-rule:nonzero;stroke:none"
             d="m 0,0 c 0,-0.859 -0.699,-1.559 -1.558,-1.559 h -9.97 c -0.859,0 -1.558,0.7 -1.558,1.559 v 6.652 h 2.427 c -0.061,-0.147 -0.114,-0.301 -0.157,-0.457 -0.112,-0.384 -0.17,-0.791 -0.17,-1.21 0,-2.45 1.994,-4.443 4.442,-4.443 2.451,0 4.444,1.993 4.444,4.443 0,0.419 -0.06,0.826 -0.169,1.21 -0.046,0.156 -0.097,0.31 -0.157,0.457 H 0 Z m -9.033,6.382 c 0.053,0.092 0.109,0.183 0.171,0.27 0.521,0.722 1.365,1.194 2.318,1.194 0.956,0 1.8,-0.472 2.32,-1.194 0.063,-0.087 0.119,-0.178 0.172,-0.273 0.232,-0.411 0.37,-0.888 0.37,-1.394 0,-1.577 -1.285,-2.859 -2.862,-2.859 -1.578,0 -2.86,1.282 -2.86,2.859 0,0.506 0.136,0.983 0.371,1.397 m 6.333,4.85 2.042,0.005 h 0.005 c 0.196,0.002 0.356,-0.157 0.356,-0.35 v -2.05 c 0,-0.195 -0.158,-0.353 -0.354,-0.353 L -2.69,8.477 c -0.196,0 -0.353,0.157 -0.353,0.35 l -0.008,2.05 c -0.002,0.195 0.155,0.353 0.351,0.355 m 1.728,1.88 h -11.141 c -1.41,0 -2.555,-1.144 -2.555,-2.557 V -0.586 c 0,-1.41 1.145,-2.555 2.555,-2.555 h 11.141 c 1.41,0 2.555,1.145 2.555,2.555 v 11.141 c 0,1.413 -1.145,2.557 -2.555,2.557" /></g><g
           transform="translate(7.3774,208.9824)"
           id="g108"><path
             id="path110"
             style="fill:#ffffff;fill-opacity:1;fill-rule:nonzero;stroke:none"
             d="M 0,0 5.173,3.018 V -3.019 L 0,-6.036 Z" /></g><g
           transform="translate(7.3774,202.9463)"
           id="g112"><path
             id="path114"
             style="fill:#ffffff;fill-opacity:1;fill-rule:nonzero;stroke:none"
             d="M 0,0 5.105,-2.979 0,-5.929 Z" /></g><g
           transform="translate(12.5508,205.9639)"
           id="g116"><path
             id="path118"
             style="fill:#ffffff;fill-opacity:1;fill-rule:nonzero;stroke:none"
             d="M 0,0 5.174,3.019 V -3.018 Z" /></g><g
           transform="translate(12.5508,200)"
           id="g120"><path
             id="path122"
             style="fill:#ffffff;fill-opacity:1;fill-rule:nonzero;stroke:none"
             d="m 0,0 v -6 l 5.174,3.018 v 5.928 z" /></g><g
           transform="translate(9,386.6094)"
           id="g124"><path
             id="path126"
             style="fill:#666666;fill-opacity:1;fill-rule:nonzero;stroke:none"
             d="M 0,0 V 15.486 L 11.208,7.742 Z" /></g><g
           transform="translate(9,356.6094)"
           id="g128"><path
             id="path130"
             style="fill:#ffffff;fill-opacity:1;fill-rule:nonzero;stroke:none"
             d="M 0,0 V 15.486 L 11.208,7.742 Z" /></g><g
           transform="translate(15.291,657.2754)"
           id="g132"><path
             id="path134"
             style="fill:#000000;fill-opacity:1;fill-rule:nonzero;stroke:none"
             d="m 0,0 h -1.484 c -0.524,0 -0.633,-0.215 -0.633,-0.756 v -1.31 H 0 l -0.203,-2.299 h -1.914 v -6.867 h -2.742 v 6.837 h -1.426 v 2.329 h 1.426 v 1.834 c 0,1.72 0.92,2.619 2.961,2.619 l 1.898,0 z" /></g><g
           transform="translate(19.8125,583.2695)"
           id="g136"><path
             id="path138"
             style="fill:#000000;fill-opacity:1;fill-rule:nonzero;stroke:none"
             d="m 0,0 c 0.217,-4.836 -3.389,-10.227 -9.772,-10.227 -1.942,0 -3.749,0.569 -5.271,1.545 1.824,-0.214 3.645,0.291 5.09,1.424 -1.504,0.028 -2.774,1.022 -3.211,2.387 0.539,-0.104 1.068,-0.072 1.552,0.059 -1.654,0.332 -2.794,1.822 -2.757,3.414 0.463,-0.256 0.993,-0.413 1.556,-0.43 -1.531,1.023 -1.964,3.045 -1.063,4.592 1.695,-2.08 4.23,-3.45 7.086,-3.592 -0.501,2.148 1.13,4.221 3.349,4.221 0.989,0 1.882,-0.418 2.51,-1.086 0.783,0.154 1.519,0.439 2.183,0.834 C 0.996,2.338 0.45,1.664 -0.26,1.238 0.436,1.32 1.098,1.506 1.715,1.779 1.254,1.09 0.671,0.484 0,0" /></g><g
           transform="translate(14.6318,489.5723)"
           id="g140"><path
             id="path142"
             style="fill:#000000;fill-opacity:1;fill-rule:nonzero;stroke:none"
             d="m 0,0 c -1.192,0 -2.313,0.645 -2.695,1.377 0,0 -0.643,-2.543 -0.778,-3.037 -0.477,-1.735 -1.884,-3.471 -1.993,-3.611 -0.077,-0.1 -0.245,-0.069 -0.262,0.062 -0.03,0.221 -0.39,2.41 0.034,4.195 0.211,0.897 1.421,6.016 1.421,6.016 0,0 -0.355,0.705 -0.355,1.748 0,1.635 0.949,2.859 2.13,2.859 1.004,0 1.489,-0.755 1.489,-1.66 0,-1.01 -0.643,-2.517 -0.975,-3.916 -0.278,-1.174 0.587,-2.127 1.743,-2.127 2.091,0 3.499,2.686 3.499,5.869 0,2.42 -1.629,4.231 -4.593,4.231 -3.348,0 -5.436,-2.496 -5.436,-5.287 0,-0.961 0.285,-1.639 0.729,-2.166 C -5.838,4.312 -5.808,4.217 -5.883,3.938 -5.937,3.734 -6.058,3.246 -6.108,3.053 -6.183,2.771 -6.409,2.672 -6.661,2.777 c -1.542,0.629 -2.262,2.319 -2.262,4.217 0,3.135 2.646,6.895 7.891,6.895 4.217,0 6.989,-3.049 6.989,-6.323 C 5.957,3.234 3.55,0 0,0" /></g><g
           transform="translate(8.9805,415.0156)"
           id="g144"><path
             id="path146"
             style="fill:#000000;fill-opacity:1;fill-rule:nonzero;stroke:none"
             d="m 0,0 c -3.227,0 -5.835,2.609 -5.835,5.836 0,3.227 2.608,5.834 5.835,5.834 1.577,0 2.893,-0.572 3.908,-1.525 L 2.326,8.619 C 1.893,9.037 1.135,9.52 0,9.52 -1.992,9.52 -3.616,7.869 -3.616,5.834 -3.616,3.799 -1.99,2.146 0,2.146 c 2.311,0 3.18,1.663 3.311,2.52 H 0 V 6.668 H 5.51 C 5.562,6.375 5.602,6.084 5.602,5.697 5.603,2.367 3.367,0 0,0" /></g><g
           transform="translate(23.1543,420.0176)"
           id="g148"><path
             id="path150"
             style="fill:#000000;fill-opacity:1;fill-rule:nonzero;stroke:none"
             d="M 0,0 H -2.502 V -2.502 H -4.17 V 0 h -2.5 v 1.666 h 2.5 v 2.502 h 1.668 V 1.666 l 2.502,0 z" /></g><g
           transform="translate(9,327.6094)"
           id="g152"><path
             id="path154"
             style="fill:#000000;fill-opacity:1;fill-rule:nonzero;stroke:none"
             d="M 0,0 V 15.486 L 11.208,7.742 Z" /></g><g
           transform="translate(6.0054,265)"
           id="g156"><path
             id="path158"
             style="fill:#000000;fill-opacity:1;fill-rule:nonzero;stroke:none"
             d="m 0,0 v -2.685 c 6.231,0 11.303,-5.077 11.303,-11.315 h 2.692 C 13.995,-6.282 7.716,0 0,0" /></g><g
           transform="translate(6.002,260.2441)"
           id="g160"><path
             id="path162"
             style="fill:#000000;fill-opacity:1;fill-rule:nonzero;stroke:none"
             d="m 0,0 v -2.684 c 1.747,0 3.39,-0.683 4.627,-1.92 1.235,-1.236 1.918,-2.885 1.918,-4.64 H 9.241 C 9.241,-4.146 5.094,0 0,0" /></g><g
           transform="translate(7.8638,254.7344)"
           id="g164"><path
             id="path166"
             style="fill:#000000;fill-opacity:1;fill-rule:nonzero;stroke:none"
             d="m 0,0 c -1.028,0 -1.864,-0.837 -1.864,-1.859 0,-1.029 0.836,-1.858 1.864,-1.858 1.032,0 1.866,0.829 1.866,1.858 C 1.866,-0.839 1.032,0 0,0" /></g><g
           transform="translate(7.3774,180.9824)"
           id="g168"><path
             id="path170"
             style="fill:#000000;fill-opacity:1;fill-rule:nonzero;stroke:none"
             d="M 0,0 5.173,3.018 V -3.019 L 0,-6.036 Z" /></g><g
           transform="translate(7.3774,174.9463)"
           id="g172"><path
             id="path174"
             style="fill:#000000;fill-opacity:1;fill-rule:nonzero;stroke:none"
             d="M 0,0 5.105,-2.979 0,-5.929 Z" /></g><g
           transform="translate(12.5508,177.9639)"
           id="g176"><path
             id="path178"
             style="fill:#000000;fill-opacity:1;fill-rule:nonzero;stroke:none"
             d="M 0,0 5.174,3.019 V -3.018 Z" /></g><g
           transform="translate(12.5508,172)"
           id="g180"><path
             id="path182"
             style="fill:#000000;fill-opacity:1;fill-rule:nonzero;stroke:none"
             d="m 0,0 v -6 l 5.174,3.018 v 5.928 z" /></g><g
           transform="translate(19.668,84.1406)"
           id="g184"><path
             id="path186"
             style="fill:#000000;fill-opacity:1;fill-rule:nonzero;stroke:none"
             d="m 0,0 c 0,-0.859 -0.699,-1.559 -1.558,-1.559 h -9.97 c -0.859,0 -1.558,0.7 -1.558,1.559 v 6.652 h 2.427 c -0.061,-0.147 -0.114,-0.301 -0.157,-0.457 -0.112,-0.384 -0.17,-0.791 -0.17,-1.21 0,-2.45 1.994,-4.443 4.442,-4.443 2.451,0 4.444,1.993 4.444,4.443 0,0.419 -0.06,0.826 -0.169,1.21 -0.046,0.156 -0.097,0.31 -0.157,0.457 H 0 Z m -9.033,6.382 c 0.053,0.092 0.109,0.183 0.171,0.27 0.521,0.722 1.365,1.194 2.318,1.194 0.956,0 1.8,-0.472 2.32,-1.194 0.063,-0.087 0.119,-0.178 0.172,-0.273 0.232,-0.411 0.37,-0.888 0.37,-1.394 0,-1.577 -1.285,-2.859 -2.862,-2.859 -1.578,0 -2.86,1.282 -2.86,2.859 0,0.506 0.136,0.983 0.371,1.397 m 6.333,4.85 2.042,0.005 h 0.005 c 0.196,0.002 0.356,-0.157 0.356,-0.35 v -2.05 c 0,-0.195 -0.158,-0.353 -0.354,-0.353 L -2.69,8.477 c -0.196,0 -0.353,0.157 -0.353,0.35 l -0.008,2.05 c -0.002,0.195 0.155,0.353 0.351,0.355 m 1.728,1.88 h -11.141 c -1.41,0 -2.555,-1.144 -2.555,-2.557 V -0.586 c 0,-1.41 1.145,-2.555 2.555,-2.555 h 11.141 c 1.41,0 2.555,1.145 2.555,2.555 v 11.141 c 0,1.413 -1.145,2.557 -2.555,2.557" /></g></g></g></g></svg>