<svg xmlns="http://www.w3.org/2000/svg" xmlns:xlink="http://www.w3.org/1999/xlink" viewBox="0 0 28.18 29.91"><defs><style>.cls-1{fill:none;}.cls-2{clip-path:url(#clip-path);}</style><clipPath id="clip-path" transform="translate(0 -0.02)"><rect class="cls-1" width="28.18" height="30"/></clipPath></defs><title>pdf-icon</title><g id="Layer_2" data-name="Layer 2"><g id="Layer_1-2" data-name="Layer 1"><g class="cls-2"><path d="M28,8.12,20.4.2A.58.58,0,0,0,20,0H8.63a2.31,2.31,0,0,0-2.3,2.3v8H1.72A1.73,1.73,0,0,0,0,12.1v8.63a1.73,1.73,0,0,0,1.72,1.72h4.6v5.18a2.31,2.31,0,0,0,2.3,2.3H25.88a2.3,2.3,0,0,0,2.3-2.3V8.52a.58.58,0,0,0-.16-.4ZM20.13,1.58l6.25,6.5H20.13ZM1.72,21.3a.57.57,0,0,1-.57-.57V12.1a.57.57,0,0,1,.57-.57H17.25a.57.57,0,0,1,.57.57v8.63a.57.57,0,0,1-.57.57ZM27,27.63a1.15,1.15,0,0,1-1.15,1.15H8.63a1.15,1.15,0,0,1-1.15-1.15V22.45h9.78A1.73,1.73,0,0,0,19,20.73V12.1a1.73,1.73,0,0,0-1.72-1.72H7.48v-8A1.16,1.16,0,0,1,8.63,1.17H19V8.65a.58.58,0,0,0,.58.58H27Zm0,0" transform="translate(0 -0.02)"/></g><path d="M6.88,14.62a1.29,1.29,0,0,0-.71-.48A5.79,5.79,0,0,0,5,14.06H3.38V19h1V17.14H5a5.67,5.67,0,0,0,1-.07,1.44,1.44,0,0,0,.52-.23A1.36,1.36,0,0,0,7,16.35a1.61,1.61,0,0,0,.17-.76,1.53,1.53,0,0,0-.29-1ZM6,16a.66.66,0,0,1-.31.24,2.58,2.58,0,0,1-.79.08H4.38V14.9h.48a4.79,4.79,0,0,1,.72,0,.69.69,0,0,1,.4.22.64.64,0,0,1,.16.44A.66.66,0,0,1,6,16Zm0,0" transform="translate(0 -0.02)"/><path d="M12,15.41a2.16,2.16,0,0,0-.47-.8,1.65,1.65,0,0,0-.74-.45,3.56,3.56,0,0,0-.94-.09H8V19H9.85a3,3,0,0,0,.88-.1,1.75,1.75,0,0,0,.7-.39,2.17,2.17,0,0,0,.53-.87,3.24,3.24,0,0,0,.15-1.05A3.65,3.65,0,0,0,12,15.41Zm-1,2a1,1,0,0,1-.26.48.92.92,0,0,1-.4.21,2.71,2.71,0,0,1-.6,0H9V14.9h.45a4.5,4.5,0,0,1,.82,0,1,1,0,0,1,.46.23,1.13,1.13,0,0,1,.28.48,3,3,0,0,1,.1.88,3.23,3.23,0,0,1-.1.9Zm0,0" transform="translate(0 -0.02)"/><path d="M16.36,14.9v-.84H13V19h1V16.9H16v-.84H14V14.9Zm0,0" transform="translate(0 -0.02)"/></g></g></svg>