<?xml version="1.0" encoding="UTF-8" standalone="no"?>
<svg
   xmlns:dc="http://purl.org/dc/elements/1.1/"
   xmlns:cc="http://creativecommons.org/ns#"
   xmlns:rdf="http://www.w3.org/1999/02/22-rdf-syntax-ns#"
   xmlns:svg="http://www.w3.org/2000/svg"
   xmlns="http://www.w3.org/2000/svg"
   viewBox="0 0 123.33333 1742.6667"
   height="1742.6667"
   width="123.33333"
   xml:space="preserve"
   id="svg2"
   version="1.1"><metadata
     id="metadata8"><rdf:RDF><cc:Work
         rdf:about=""><dc:format>image/svg+xml</dc:format><dc:type
           rdf:resource="http://purl.org/dc/dcmitype/StillImage" /></cc:Work></rdf:RDF></metadata><defs
     id="defs6"><clipPath
       id="clipPath38"
       clipPathUnits="userSpaceOnUse"><path
         id="path36"
         d="M 0,1307 H 92.5 V 0 H 0 Z" /></clipPath></defs><g
     transform="matrix(1.3333333,0,0,-1.3333333,0,1742.6667)"
     id="g10"><g
       transform="translate(39.7739,1242.2798)"
       id="g12"><path
         id="path14"
         style="fill:none;stroke:#333333;stroke-width:1.5;stroke-linecap:butt;stroke-linejoin:miter;stroke-miterlimit:10;stroke-dasharray:none;stroke-opacity:1"
         d="M 0,0 H -29.646 V 29.672 59.345 H -5.185 3.163 L 19.277,43.23 V 29.672 0 H 14.25" /></g><g
       transform="translate(17.4131,1279.2373)"
       id="g16"><path
         id="path18"
         style="fill:none;stroke:#333333;stroke-width:1.5;stroke-linecap:butt;stroke-linejoin:miter;stroke-miterlimit:10;stroke-dasharray:none;stroke-opacity:1"
         d="M 0,0 H 33.581" /></g><g
       transform="translate(17.4131,1270.8423)"
       id="g20"><path
         id="path22"
         style="fill:none;stroke:#333333;stroke-width:1.5;stroke-linecap:butt;stroke-linejoin:miter;stroke-miterlimit:10;stroke-dasharray:none;stroke-opacity:1"
         d="M 0,0 H 33.581" /></g><g
       transform="translate(17.4131,1262.4473)"
       id="g24"><path
         id="path26"
         style="fill:none;stroke:#333333;stroke-width:1.5;stroke-linecap:butt;stroke-linejoin:miter;stroke-miterlimit:10;stroke-dasharray:none;stroke-opacity:1"
         d="M 0,0 H 17.176" /></g><g
       transform="translate(17.4131,1254.0522)"
       id="g28"><path
         id="path30"
         style="fill:none;stroke:#333333;stroke-width:1.5;stroke-linecap:butt;stroke-linejoin:miter;stroke-miterlimit:10;stroke-dasharray:none;stroke-opacity:1"
         d="M 0,0 H 17.176" /></g><g
       id="g32"><g
         clip-path="url(#clipPath38)"
         id="g34"><g
           transform="translate(55.5664,1253.8589)"
           id="g40"><path
             id="path42"
             style="fill:none;stroke:#333333;stroke-width:1.5;stroke-linecap:butt;stroke-linejoin:miter;stroke-miterlimit:10;stroke-dasharray:none;stroke-opacity:1"
             d="m 0,0 c 0,-4.787 -3.881,-8.667 -8.667,-8.667 -4.787,0 -8.668,3.88 -8.668,8.667 0,4.787 3.881,8.667 8.668,8.667 C -3.881,8.667 0,4.787 0,0 Z" /></g><g
           transform="translate(48.6289,1245.3657)"
           id="g44"><path
             id="path46"
             style="fill:none;stroke:#333333;stroke-width:1.5;stroke-linecap:butt;stroke-linejoin:miter;stroke-miterlimit:10;stroke-dasharray:none;stroke-opacity:1"
             d="m 0,0 -1.874,-7.724 -2.298,-9.471 -2.599,5.993 -5.057,-4.135 2.298,9.471 1.936,7.979" /></g><g
           transform="translate(46.8994,1238.2349)"
           id="g48"><path
             id="path50"
             style="fill:none;stroke:#333333;stroke-width:1.5;stroke-linecap:butt;stroke-linejoin:miter;stroke-miterlimit:10;stroke-dasharray:none;stroke-opacity:1"
             d="m 0,0 2.441,-10.064 2.6,5.993 5.057,-4.136 -4.235,17.45" /></g><g
           transform="translate(59.0518,1285.5098)"
           id="g52"><path
             id="path54"
             style="fill:none;stroke:#333333;stroke-width:1.5;stroke-linecap:butt;stroke-linejoin:miter;stroke-miterlimit:10;stroke-dasharray:none;stroke-opacity:1"
             d="M 0,0 H -16.115 V 16.115" /></g><g
           transform="translate(17.4131,1295.3804)"
           id="g56"><path
             id="path58"
             style="fill:#333333;fill-opacity:1;fill-rule:nonzero;stroke:none"
             d="M 0,0 H 3.537 V -0.807 H 0.924 V -1.999 H 3.268 V -2.806 H 0.924 V -4.02 H 3.62 V -4.826 H 0 Z" /></g><g
           transform="translate(25.335,1295.3804)"
           id="g60"><path
             id="path62"
             style="fill:#333333;fill-opacity:1;fill-rule:nonzero;stroke:none"
             d="M 0,0 H 0.896 V -4.826 H 0.021 l -2.482,3.323 V -4.826 H -3.365 V 0 h 0.876 L 0,-3.33 Z" /></g><g
           transform="translate(30.7397,1292.4849)"
           id="g64"><path
             id="path66"
             style="fill:#333333;fill-opacity:1;fill-rule:nonzero;stroke:none"
             d="m 0,0 v -0.793 h -0.696 v -1.138 h -0.855 v 1.138 h -2.31 v 0.683 l 1.572,3.006 h 0.89 L -2.875,0 h 1.324 v 1.117 h 0.855 V 0 Z" /></g><g
           transform="translate(34.876,1292.4849)"
           id="g68"><path
             id="path70"
             style="fill:#333333;fill-opacity:1;fill-rule:nonzero;stroke:none"
             d="m 0,0 v -0.793 h -0.696 v -1.138 h -0.855 v 1.138 h -2.31 v 0.683 l 1.572,3.006 h 0.89 L -2.875,0 h 1.324 v 1.117 h 0.855 V 0 Z" /></g><g
           transform="translate(38.9297,1291.3608)"
           id="g72"><path
             id="path74"
             style="fill:#333333;fill-opacity:1;fill-rule:nonzero;stroke:none"
             d="m 0,0 v -0.807 h -3.571 v 0.669 l 1.82,1.876 c 0.175,0.174 0.315,0.346 0.42,0.517 0.106,0.17 0.159,0.317 0.159,0.441 0,0.175 -0.069,0.311 -0.207,0.41 -0.138,0.099 -0.329,0.148 -0.572,0.148 -0.212,0 -0.437,-0.052 -0.675,-0.158 C -2.866,2.99 -3.091,2.843 -3.302,2.654 l -0.365,0.711 c 0.284,0.22 0.584,0.391 0.899,0.513 0.315,0.122 0.631,0.183 0.948,0.183 0.317,0 0.597,-0.051 0.841,-0.152 0.244,-0.101 0.433,-0.244 0.569,-0.43 0.136,-0.187 0.203,-0.402 0.203,-0.646 0,-0.234 -0.08,-0.482 -0.241,-0.744 C -0.609,1.827 -0.834,1.544 -1.124,1.241 L -2.351,0 Z" /></g><g
           transform="translate(64.0117,1239.3994)"
           id="g76"><path
             id="path78"
             style="fill:#118a37;fill-opacity:1;fill-rule:nonzero;stroke:none"
             d="m 0,0 c -0.16,0.16 -0.238,0.403 -0.238,0.563 0,0.16 0.078,0.398 0.238,0.558 l 1.121,1.121 c 0.321,0.321 0.801,0.321 1.121,0 L 2.321,2.16 6.723,-2.558 c 0.16,-0.161 0.398,-0.161 0.559,0 L 18,8.563 h 0.082 c 0.321,0.316 0.801,0.316 1.121,0 l 1.118,-1.121 c 0.32,-0.321 0.32,-0.801 0,-1.121 L 7.523,-6.961 c -0.159,-0.16 -0.32,-0.238 -0.562,-0.238 -0.238,0 -0.399,0.078 -0.558,0.238 L 0.16,-0.238 Z" /></g><g
           transform="translate(65.6484,1162.5313)"
           id="g80"><path
             id="path82"
             style="fill:none;stroke:#333333;stroke-width:1.5;stroke-linecap:butt;stroke-linejoin:miter;stroke-miterlimit:10;stroke-dasharray:none;stroke-opacity:1"
             d="m 0,0 c 0,-16.07 -13.027,-29.097 -29.098,-29.097 -16.069,0 -29.097,13.027 -29.097,29.097 0,16.07 13.028,29.098 29.097,29.098 C -13.027,29.098 0,16.07 0,0 Z" /></g><g
           transform="translate(23.0376,1177.3311)"
           id="g84"><path
             id="path86"
             style="fill:#333333;fill-opacity:1;fill-rule:nonzero;stroke:none"
             d="M 0,0 H 6.403 V -15.952 H 3.35 V -2.689 H 0 Z" /></g><g
           transform="translate(35.4004,1163.9995)"
           id="g88"><path
             id="path90"
             style="fill:#333333;fill-opacity:1;fill-rule:nonzero;stroke:none"
             d="m 0,0 c 0.296,-0.304 0.444,-0.692 0.444,-1.163 0,-0.486 -0.148,-0.884 -0.444,-1.196 -0.296,-0.31 -0.672,-0.467 -1.128,-0.467 -0.441,0 -0.809,0.16 -1.105,0.479 -0.297,0.319 -0.445,0.714 -0.445,1.184 0,0.471 0.148,0.859 0.445,1.163 0.296,0.304 0.664,0.456 1.105,0.456 C -0.672,0.456 -0.296,0.304 0,0" /></g><g
           transform="translate(47.2158,1170.8818)"
           id="g92"><path
             id="path94"
             style="fill:#333333;fill-opacity:1;fill-rule:nonzero;stroke:none"
             d="M 0,0 C 0.911,-0.41 1.614,-0.984 2.108,-1.72 2.602,-2.458 2.849,-3.29 2.849,-4.216 2.849,-5.295 2.59,-6.244 2.073,-7.064 1.557,-7.885 0.828,-8.52 -0.113,-8.968 -1.057,-9.416 -2.15,-9.64 -3.396,-9.64 c -1.002,0 -2.047,0.171 -3.133,0.513 -1.086,0.341 -2.047,0.801 -2.883,1.379 l 1.208,2.393 c 0.683,-0.532 1.413,-0.946 2.188,-1.242 0.775,-0.297 1.549,-0.445 2.324,-0.445 1.004,0 1.796,0.232 2.381,0.695 0.585,0.463 0.877,1.098 0.877,1.903 0,0.775 -0.288,1.375 -0.865,1.801 -0.578,0.425 -1.435,0.638 -2.575,0.638 -0.547,0 -1.269,-0.019 -2.165,-0.058 -0.897,-0.038 -1.588,-0.079 -2.074,-0.125 V 6.449 H 2.142 V 3.783 H -5.287 V 0.616 h 2.12 C -1.968,0.616 -0.912,0.41 0,0" /></g><g
           transform="translate(34.8647,1153.3564)"
           id="g96"><path
             id="path98"
             style="fill:#333333;fill-opacity:1;fill-rule:nonzero;stroke:none"
             d="m 0,0 c 0.413,-0.429 0.62,-1.025 0.62,-1.788 v -3.837 h -0.81 v 3.646 c 0,0.596 -0.162,1.059 -0.483,1.389 -0.322,0.329 -0.765,0.495 -1.329,0.495 -0.667,-0.016 -1.189,-0.247 -1.567,-0.692 -0.377,-0.444 -0.566,-1.032 -0.566,-1.763 v -3.075 h -0.81 v 3.646 c 0,0.596 -0.161,1.059 -0.483,1.389 -0.322,0.329 -0.765,0.495 -1.328,0.495 C -7.424,-0.111 -7.948,-0.342 -8.33,-0.787 -8.711,-1.231 -8.901,-1.819 -8.901,-2.55 V -5.625 H -9.7 V 0.62 h 0.799 v -1.466 c 0.206,0.492 0.514,0.862 0.923,1.108 0.409,0.246 0.908,0.374 1.496,0.381 0.595,0 1.09,-0.146 1.483,-0.441 0.394,-0.293 0.653,-0.707 0.781,-1.239 0.191,0.556 0.498,0.973 0.923,1.251 0.425,0.279 0.948,0.422 1.567,0.429 C -0.989,0.643 -0.413,0.429 0,0" /></g><g
           transform="translate(47.3174,1153.3564)"
           id="g100"><path
             id="path102"
             style="fill:#333333;fill-opacity:1;fill-rule:nonzero;stroke:none"
             d="m 0,0 c 0.413,-0.429 0.62,-1.025 0.62,-1.788 v -3.837 h -0.81 v 3.646 c 0,0.596 -0.162,1.059 -0.484,1.389 -0.321,0.329 -0.764,0.495 -1.328,0.495 -0.667,-0.016 -1.189,-0.247 -1.567,-0.692 -0.377,-0.444 -0.566,-1.032 -0.566,-1.763 v -3.075 h -0.81 v 3.646 c 0,0.596 -0.161,1.059 -0.483,1.389 -0.322,0.329 -0.765,0.495 -1.328,0.495 C -7.424,-0.111 -7.948,-0.342 -8.33,-0.787 -8.711,-1.231 -8.902,-1.819 -8.902,-2.55 V -5.625 H -9.7 V 0.62 h 0.798 v -1.466 c 0.207,0.492 0.515,0.862 0.924,1.108 0.409,0.246 0.908,0.374 1.496,0.381 0.595,0 1.09,-0.146 1.483,-0.441 0.394,-0.293 0.653,-0.707 0.78,-1.239 0.192,0.556 0.499,0.973 0.924,1.251 0.425,0.279 0.947,0.422 1.567,0.429 C -0.989,0.643 -0.413,0.429 0,0" /></g><g
           transform="translate(65.9727,1137.0332)"
           id="g104"><path
             id="path106"
             style="fill:#118a37;fill-opacity:1;fill-rule:nonzero;stroke:none"
             d="m 0,0 c -0.159,0.16 -0.237,0.403 -0.237,0.563 0,0.16 0.078,0.398 0.237,0.558 l 1.121,1.121 c 0.321,0.321 0.801,0.321 1.121,0 L 2.321,2.16 6.724,-2.558 c 0.16,-0.161 0.397,-0.161 0.558,0 L 18,8.563 h 0.082 c 0.321,0.316 0.802,0.316 1.121,0 l 1.118,-1.121 c 0.321,-0.321 0.321,-0.801 0,-1.121 L 7.524,-6.961 c -0.16,-0.16 -0.321,-0.238 -0.563,-0.238 -0.237,0 -0.398,0.078 -0.558,0.238 L 0.16,-0.238 Z" /></g><g
           transform="translate(38.04,1083.2407)"
           id="g108"><path
             id="path110"
             style="fill:none;stroke:#333333;stroke-width:1.5;stroke-linecap:butt;stroke-linejoin:miter;stroke-miterlimit:10;stroke-dasharray:none;stroke-opacity:1"
             d="M 0,0 V -43.238" /></g><g
           transform="translate(38.04,1098.1973)"
           id="g112"><path
             id="path114"
             style="fill:none;stroke:#333333;stroke-width:1.5;stroke-linecap:butt;stroke-linejoin:miter;stroke-miterlimit:10;stroke-dasharray:none;stroke-opacity:1"
             d="M 0,0 V -7.252" /></g><g
           transform="translate(41.7563,1087.0933)"
           id="g116"><path
             id="path118"
             style="fill:none;stroke:#333333;stroke-width:1.5;stroke-linecap:butt;stroke-linejoin:miter;stroke-miterlimit:10;stroke-dasharray:none;stroke-opacity:1"
             d="m 0,0 c 0,-2.128 -1.725,-3.853 -3.852,-3.853 -2.128,0 -3.853,1.725 -3.853,3.853 0,2.127 1.725,3.852 3.853,3.852 C -1.725,3.852 0,2.127 0,0 Z" /></g><g
           transform="translate(16.9185,1087.0933)"
           id="g120"><path
             id="path122"
             style="fill:none;stroke:#333333;stroke-width:1.5;stroke-linecap:butt;stroke-linejoin:miter;stroke-miterlimit:10;stroke-dasharray:none;stroke-opacity:1"
             d="M 0,0 H 17.133" /></g><g
           transform="translate(41.7563,1087.0933)"
           id="g124"><path
             id="path126"
             style="fill:none;stroke:#333333;stroke-width:1.5;stroke-linecap:butt;stroke-linejoin:miter;stroke-miterlimit:10;stroke-dasharray:none;stroke-opacity:1"
             d="M 0,0 H 17.405" /></g><g
           transform="translate(25.5308,1040.0024)"
           id="g128"><path
             id="path130"
             style="fill:none;stroke:#333333;stroke-width:1.5;stroke-linecap:butt;stroke-linejoin:miter;stroke-miterlimit:10;stroke-dasharray:none;stroke-opacity:1"
             d="M 0,0 H 25.018" /></g><g
           transform="translate(16.9185,1060.0127)"
           id="g132"><path
             id="path134"
             style="fill:none;stroke:#333333;stroke-width:1.5;stroke-linecap:butt;stroke-linejoin:miter;stroke-miterlimit:10;stroke-dasharray:none;stroke-opacity:1"
             d="M 0,0 C 7.259,0 13.144,5.884 13.144,13.144 H -13.144 C -13.144,5.884 -7.259,0 0,0 Z" /></g><g
           transform="translate(9.4873,1073.5249)"
           id="g136"><path
             id="path138"
             style="fill:none;stroke:#333333;stroke-width:1.5;stroke-linecap:butt;stroke-linejoin:miter;stroke-miterlimit:10;stroke-dasharray:none;stroke-opacity:1"
             d="M 0,0 7.431,12.452 14.863,0" /></g><g
           transform="translate(59.1611,1060.0127)"
           id="g140"><path
             id="path142"
             style="fill:none;stroke:#333333;stroke-width:1.5;stroke-linecap:butt;stroke-linejoin:miter;stroke-miterlimit:10;stroke-dasharray:none;stroke-opacity:1"
             d="M 0,0 C 7.26,0 13.145,5.884 13.145,13.144 H -13.144 C -13.144,5.884 -7.259,0 0,0 Z" /></g><g
           transform="translate(51.7305,1073.5249)"
           id="g144"><path
             id="path146"
             style="fill:none;stroke:#333333;stroke-width:1.5;stroke-linecap:butt;stroke-linejoin:miter;stroke-miterlimit:10;stroke-dasharray:none;stroke-opacity:1"
             d="M 0,0 7.431,12.452 14.862,0" /></g><g
           transform="translate(67.4619,1043.6016)"
           id="g148"><path
             id="path150"
             style="fill:#118a37;fill-opacity:1;fill-rule:nonzero;stroke:none"
             d="m 0,0 c -0.16,0.16 -0.238,0.403 -0.238,0.563 0,0.16 0.078,0.398 0.238,0.558 l 1.121,1.121 c 0.321,0.321 0.801,0.321 1.121,0 L 2.321,2.16 6.724,-2.558 c 0.159,-0.161 0.397,-0.161 0.558,0 L 18,8.563 h 0.082 c 0.321,0.316 0.801,0.316 1.121,0 l 1.118,-1.121 c 0.321,-0.321 0.321,-0.801 0,-1.121 L 7.524,-6.961 c -0.16,-0.16 -0.321,-0.238 -0.563,-0.238 -0.237,0 -0.398,0.078 -0.558,0.238 L 0.16,-0.238 Z" /></g><g
           transform="translate(59.665,995.5981)"
           id="g152"><path
             id="path154"
             style="fill:#333333;fill-opacity:1;fill-rule:nonzero;stroke:none"
             d="m 0,0 h -48.88 v -20.581 c 0,-26.36 21.497,-36.376 24.434,-37.614 C -21.508,-56.957 0,-46.916 0,-20.581 Z m -1.5,-1.5 v -19.081 c 0,-24.124 -18.793,-34.072 -22.946,-35.975 -4.15,1.902 -22.934,11.847 -22.934,35.975 V -1.5 H -1.5" /></g><g
           transform="translate(10.7852,977.3896)"
           id="g156"><path
             id="path158"
             style="fill:none;stroke:#333333;stroke-width:1.5;stroke-linecap:butt;stroke-linejoin:miter;stroke-miterlimit:10;stroke-dasharray:none;stroke-opacity:1"
             d="M 0,0 H 48.88" /></g><g
           transform="translate(14.2256,960.3896)"
           id="g160"><path
             id="path162"
             style="fill:none;stroke:#333333;stroke-width:1.5;stroke-linecap:butt;stroke-linejoin:miter;stroke-miterlimit:10;stroke-dasharray:none;stroke-opacity:1"
             d="M 0,0 H 42" /></g><g
           transform="translate(35.2256,991.3301)"
           id="g164"><path
             id="path166"
             style="fill:#333333;fill-opacity:1;fill-rule:nonzero;stroke:none"
             d="M 0,0 1.611,-3.265 5.214,-3.789 2.607,-6.33 3.223,-9.918 0,-8.225 l -3.223,-1.693 0.616,3.588 -2.608,2.541 3.603,0.524 z" /></g><g
           transform="translate(23.0547,992.0356)"
           id="g168"><path
             id="path170"
             style="fill:#333333;fill-opacity:1;fill-rule:nonzero;stroke:none"
             d="M 0,0 0.767,-1.555 2.483,-1.804 1.242,-3.014 1.535,-4.723 0,-3.917 l -1.535,-0.806 0.293,1.709 -1.241,1.21 1.715,0.249 z" /></g><g
           transform="translate(19.2339,985.6987)"
           id="g172"><path
             id="path174"
             style="fill:#333333;fill-opacity:1;fill-rule:nonzero;stroke:none"
             d="M 0,0 0.811,-1.644 2.625,-1.907 1.312,-3.187 1.622,-4.993 0,-4.14 l -1.623,-0.853 0.311,1.806 -1.313,1.28 1.813,0.263 z" /></g><g
           transform="translate(47.3965,992.0356)"
           id="g176"><path
             id="path178"
             style="fill:#333333;fill-opacity:1;fill-rule:nonzero;stroke:none"
             d="m 0,0 -0.768,-1.555 -1.715,-0.249 1.241,-1.21 -0.293,-1.709 1.535,0.806 1.534,-0.806 -0.293,1.709 1.242,1.21 -1.716,0.249 z" /></g><g
           transform="translate(51.2168,985.6987)"
           id="g180"><path
             id="path182"
             style="fill:#333333;fill-opacity:1;fill-rule:nonzero;stroke:none"
             d="m 0,0 -0.811,-1.644 -1.814,-0.263 1.313,-1.28 -0.31,-1.806 1.622,0.853 1.622,-0.853 -0.31,1.806 1.313,1.28 -1.813,0.263 z" /></g><g
           transform="translate(64.6475,941.0024)"
           id="g184"><path
             id="path186"
             style="fill:#118a37;fill-opacity:1;fill-rule:nonzero;stroke:none"
             d="m 0,0 c -0.16,0.16 -0.238,0.403 -0.238,0.563 0,0.16 0.078,0.398 0.238,0.558 l 1.121,1.121 c 0.321,0.321 0.801,0.321 1.121,0 L 2.321,2.16 6.723,-2.558 c 0.16,-0.161 0.398,-0.161 0.559,0 L 18,8.563 h 0.082 c 0.321,0.316 0.801,0.316 1.121,0 l 1.118,-1.121 c 0.32,-0.321 0.32,-0.801 0,-1.121 L 7.523,-6.961 c -0.159,-0.16 -0.32,-0.238 -0.562,-0.238 -0.238,0 -0.399,0.078 -0.558,0.238 L 0.16,-0.238 Z" /></g><g
           transform="translate(48.4404,888.5254)"
           id="g188"><path
             id="path190"
             style="fill:none;stroke:#333333;stroke-width:1.5;stroke-linecap:round;stroke-linejoin:miter;stroke-miterlimit:10;stroke-dasharray:none;stroke-opacity:1"
             d="m 0,0 h 10.893 c 2.627,0 4.756,-2.129 4.756,-4.757 v -62.452 c 0,-2.627 -2.129,-4.757 -4.756,-4.757 H -33.58 c -2.627,0 -4.756,2.13 -4.756,4.757 v 62.452 c 0,2.628 2.129,4.757 4.756,4.757 h 10.893" /></g><g
           transform="translate(48.4404,881.6626)"
           id="g192"><path
             id="path194"
             style="fill:none;stroke:#333333;stroke-width:1.5;stroke-linecap:butt;stroke-linejoin:miter;stroke-miterlimit:10;stroke-dasharray:none;stroke-opacity:1"
             d="M 0,0 H 8.786 V -58.24 H -31.473 V 0 h 8.786" /></g><g
           transform="translate(44.3545,890.5254)"
           id="g196"><path
             id="path198"
             style="fill:none;stroke:#333333;stroke-width:1.5;stroke-linecap:butt;stroke-linejoin:miter;stroke-miterlimit:10;stroke-dasharray:none;stroke-opacity:1"
             d="m 0,0 c -0.654,0 -1.187,0.479 -1.316,1.119 -0.562,2.771 -3.005,4.858 -5.941,4.858 -2.937,0 -5.38,-2.087 -5.942,-4.858 C -13.329,0.479 -13.861,0 -14.515,0 h -2.928 c -0.639,0 -1.158,-0.519 -1.158,-1.158 v -7.276 c 0,-1.343 1.09,-2.432 2.434,-2.432 H 1.652 c 1.344,0 2.434,1.089 2.434,2.432 v 7.276 C 4.086,-0.519 3.567,0 2.928,0 Z" /></g><g
           transform="translate(37.2109,887.4272)"
           id="g200"><path
             id="path202"
             style="fill:#333333;fill-opacity:1;fill-rule:nonzero;stroke:none"
             d="M 0,0 H -0.228 C -0.663,0 -1.02,0.356 -1.02,0.792 v 3.566 c 0,0.435 0.357,0.791 0.792,0.791 H 0 c 0.436,0 0.792,-0.356 0.792,-0.791 V 0.792 C 0.792,0.356 0.436,0 0,0" /></g><g
           transform="translate(22.7837,869.144)"
           id="g204"><path
             id="path206"
             style="fill:none;stroke:#333333;stroke-width:1.5;stroke-linecap:round;stroke-linejoin:miter;stroke-miterlimit:10;stroke-dasharray:none;stroke-opacity:1"
             d="M 0,0 H 18.683" /></g><g
           transform="translate(22.7837,863.6104)"
           id="g208"><path
             id="path210"
             style="fill:none;stroke:#333333;stroke-width:1.5;stroke-linecap:round;stroke-linejoin:miter;stroke-miterlimit:10;stroke-dasharray:none;stroke-opacity:1"
             d="M 0,0 H 12.963" /></g><g
           transform="translate(22.7837,858.0762)"
           id="g212"><path
             id="path214"
             style="fill:none;stroke:#333333;stroke-width:1.5;stroke-linecap:round;stroke-linejoin:miter;stroke-miterlimit:10;stroke-dasharray:none;stroke-opacity:1"
             d="M 0,0 H 18.683" /></g><g
           transform="translate(22.7837,852.5425)"
           id="g216"><path
             id="path218"
             style="fill:none;stroke:#333333;stroke-width:1.5;stroke-linecap:round;stroke-linejoin:miter;stroke-miterlimit:10;stroke-dasharray:none;stroke-opacity:1"
             d="M 0,0 H 12.963" /></g><g
           transform="translate(22.7837,847.0088)"
           id="g220"><path
             id="path222"
             style="fill:none;stroke:#333333;stroke-width:1.5;stroke-linecap:round;stroke-linejoin:miter;stroke-miterlimit:10;stroke-dasharray:none;stroke-opacity:1"
             d="M 0,0 H 18.683" /></g><g
           transform="translate(22.7837,841.4751)"
           id="g224"><path
             id="path226"
             style="fill:none;stroke:#333333;stroke-width:1.5;stroke-linecap:round;stroke-linejoin:miter;stroke-miterlimit:10;stroke-dasharray:none;stroke-opacity:1"
             d="M 0,0 H 12.963" /></g><g
           transform="translate(22.7837,835.9414)"
           id="g228"><path
             id="path230"
             style="fill:none;stroke:#333333;stroke-width:1.5;stroke-linecap:round;stroke-linejoin:miter;stroke-miterlimit:10;stroke-dasharray:none;stroke-opacity:1"
             d="M 0,0 H 18.683" /></g><g
           transform="translate(42.7695,863.4136)"
           id="g232"><path
             id="path234"
             style="fill:none;stroke:#333333;stroke-width:1.5;stroke-linecap:round;stroke-linejoin:miter;stroke-miterlimit:10;stroke-dasharray:none;stroke-opacity:1"
             d="M 0,0 2.802,-2.801 8.641,3.038" /></g><g
           transform="translate(42.7695,852.4243)"
           id="g236"><path
             id="path238"
             style="fill:none;stroke:#333333;stroke-width:1.5;stroke-linecap:round;stroke-linejoin:miter;stroke-miterlimit:10;stroke-dasharray:none;stroke-opacity:1"
             d="M 0,0 2.802,-2.801 8.641,3.038" /></g><g
           transform="translate(42.7695,841.4351)"
           id="g240"><path
             id="path242"
             style="fill:none;stroke:#333333;stroke-width:1.5;stroke-linecap:round;stroke-linejoin:miter;stroke-miterlimit:10;stroke-dasharray:none;stroke-opacity:1"
             d="M 0,0 2.802,-2.801 8.641,3.038" /></g><g
           transform="translate(66.5186,831.0327)"
           id="g244"><path
             id="path246"
             style="fill:#118a37;fill-opacity:1;fill-rule:nonzero;stroke:none"
             d="m 0,0 c -0.159,0.16 -0.237,0.403 -0.237,0.563 0,0.16 0.078,0.398 0.237,0.558 l 1.121,1.121 c 0.321,0.321 0.802,0.321 1.121,0 L 2.321,2.16 6.724,-2.558 c 0.16,-0.161 0.397,-0.161 0.558,0 L 18,8.563 h 0.082 c 0.321,0.316 0.802,0.316 1.121,0 l 1.118,-1.121 c 0.321,-0.321 0.321,-0.801 0,-1.121 L 7.524,-6.961 c -0.16,-0.16 -0.321,-0.238 -0.562,-0.238 -0.238,0 -0.399,0.078 -0.559,0.238 L 0.16,-0.238 Z" /></g><g
           transform="translate(28.9585,762.5547)"
           id="g248"><path
             id="path250"
             style="fill:none;stroke:#333333;stroke-width:1.5;stroke-linecap:round;stroke-linejoin:miter;stroke-miterlimit:10;stroke-dasharray:none;stroke-opacity:1"
             d="m 0,0 c -9.926,-9.926 -9.926,-26.019 0,-35.944 9.926,-9.926 26.019,-9.926 35.945,0 9.926,9.925 9.926,26.018 0,35.944 C 26.019,9.926 9.926,9.926 0,0 Z" /></g><g
           transform="translate(33.8457,731.498)"
           id="g252"><path
             id="path254"
             style="fill:none;stroke:#333333;stroke-width:1.5;stroke-linecap:round;stroke-linejoin:miter;stroke-miterlimit:10;stroke-dasharray:none;stroke-opacity:1"
             d="m 0,0 c 7.215,-7.215 18.954,-7.215 26.17,0 7.215,7.215 7.215,18.955 0,26.169 C 18.955,33.384 7.216,33.384 0,26.169 -7.215,18.954 -7.215,7.214 0,0 Z" /></g><g
           transform="translate(24.2861,725.5806)"
           id="g256"><path
             id="path258"
             style="fill:none;stroke:#333333;stroke-width:1.5;stroke-linecap:round;stroke-linejoin:miter;stroke-miterlimit:10;stroke-dasharray:none;stroke-opacity:1"
             d="M 0,0 3.642,-3.643 6.494,-0.792 2.851,2.851 Z" /></g><g
           transform="translate(6.6587,704.3105)"
           id="g260"><path
             id="path262"
             style="fill:none;stroke:#333333;stroke-width:1.5;stroke-linecap:round;stroke-linejoin:miter;stroke-miterlimit:10;stroke-dasharray:none;stroke-opacity:1"
             d="M 0,0 V 0 C 1.746,-1.746 4.577,-1.746 6.323,0 L 22.61,16.287 16.287,22.61 0,6.323 C -1.746,4.577 -1.746,1.746 0,0 Z" /></g><g
           transform="translate(68.2705,711.002)"
           id="g264"><path
             id="path266"
             style="fill:#118a37;fill-opacity:1;fill-rule:nonzero;stroke:none"
             d="m 0,0 c -0.16,0.16 -0.238,0.403 -0.238,0.563 0,0.16 0.078,0.398 0.238,0.558 l 1.121,1.121 c 0.32,0.321 0.801,0.321 1.12,0 L 2.32,2.16 6.723,-2.558 c 0.16,-0.161 0.398,-0.161 0.558,0 L 18,8.563 h 0.082 c 0.32,0.316 0.801,0.316 1.12,0 L 20.32,7.442 c 0.321,-0.321 0.321,-0.801 0,-1.121 L 7.523,-6.961 c -0.16,-0.16 -0.321,-0.238 -0.562,-0.238 -0.238,0 -0.399,0.078 -0.559,0.238 l -6.243,6.723 z" /></g><g
           transform="translate(37.6816,657.8926)"
           id="g268"><path
             id="path270"
             style="fill:none;stroke:#333333;stroke-width:1.5;stroke-linecap:butt;stroke-linejoin:miter;stroke-miterlimit:10;stroke-dasharray:none;stroke-opacity:1"
             d="m 0,0 8.816,-20.298 22.03,-2.113 -16.58,-14.657 4.797,-21.605 L 0,-47.434 l -19.064,-11.239 4.798,21.605 -16.58,14.657 22.029,2.113 z" /></g><g
           transform="translate(67.1035,600.5576)"
           id="g272"><path
             id="path274"
             style="fill:#118a37;fill-opacity:1;fill-rule:nonzero;stroke:none"
             d="m 0,0 c -0.16,0.16 -0.238,0.403 -0.238,0.563 0,0.161 0.078,0.398 0.238,0.558 l 1.121,1.121 c 0.321,0.321 0.801,0.321 1.121,0 L 2.321,2.16 6.723,-2.558 c 0.16,-0.161 0.398,-0.161 0.559,0 L 18,8.563 h 0.082 c 0.321,0.317 0.801,0.317 1.121,0 l 1.118,-1.121 c 0.32,-0.321 0.32,-0.8 0,-1.121 L 7.524,-6.961 c -0.16,-0.16 -0.321,-0.237 -0.563,-0.237 -0.238,0 -0.398,0.077 -0.558,0.237 L 0.16,-0.237 Z" /></g><g
           transform="translate(29.0249,541.6016)"
           id="g276"><path
             id="path278"
             style="fill:none;stroke:#333333;stroke-width:1.5;stroke-linecap:butt;stroke-linejoin:miter;stroke-miterlimit:10;stroke-dasharray:none;stroke-opacity:1"
             d="m 0,0 c -3.654,-0.162 -5.786,-0.342 -9.421,-0.708 l 0.458,-3.338 c 2.949,0.511 5.897,0.971 8.848,1.303 2.186,-6.764 10.828,-23.057 41.856,-11.506 0,0 -15.774,38.16 -41.741,14.249 z" /></g><g
           transform="translate(29.0083,542.3516)"
           id="g280"><path
             id="path282"
             style="fill:#333333;fill-opacity:1;fill-rule:nonzero;stroke:none"
             d="m 0,0 c 2.846,0.174 5.847,0.134 8.747,-0.091 2.919,-0.231 5.823,-0.654 8.674,-1.314 2.845,-0.692 5.625,-1.634 8.281,-2.857 2.633,-1.277 5.08,-2.903 7.268,-4.825 l -0.109,-0.124 c -2.249,1.826 -4.725,3.337 -7.365,4.495 -2.663,1.104 -5.431,1.925 -8.251,2.496 -2.828,0.542 -5.694,0.848 -8.566,0.964 -2.892,0.11 -5.707,0.044 -8.646,-0.244 z" /></g><g
           transform="translate(20.394,487.624)"
           id="g284"><path
             id="path286"
             style="fill:none;stroke:#333333;stroke-width:1.5;stroke-linecap:butt;stroke-linejoin:miter;stroke-miterlimit:10;stroke-dasharray:none;stroke-opacity:1"
             d="M 0,0 C 1.967,-3.083 3.189,-4.841 5.323,-7.806 L 7.985,-5.74 C 6.069,-3.44 4.196,-1.117 2.434,1.272 7.197,6.547 16.987,22.178 -8.53,43.273 -8.53,43.273 -33.691,10.532 0,0 Z" /></g><g
           transform="translate(19.7529,487.2344)"
           id="g288"><path
             id="path290"
             style="fill:#333333;fill-opacity:1;fill-rule:nonzero;stroke:none"
             d="m 0,0 c -1.573,2.378 -3.04,4.997 -4.294,7.621 -1.26,2.643 -2.346,5.369 -3.199,8.169 -0.824,2.81 -1.398,5.689 -1.667,8.6 -0.211,2.919 -0.026,5.85 0.544,8.707 l 0.162,-0.034 c -0.457,-2.86 -0.527,-5.758 -0.21,-8.625 0.376,-2.858 1.049,-5.666 1.963,-8.394 0.945,-2.719 2.114,-5.355 3.449,-7.9 1.351,-2.559 2.815,-4.964 4.534,-7.366 z" /></g><g
           transform="translate(73.0664,505.3584)"
           id="g292"><path
             id="path294"
             style="fill:none;stroke:#333333;stroke-width:1.5;stroke-linecap:butt;stroke-linejoin:miter;stroke-miterlimit:10;stroke-dasharray:none;stroke-opacity:1"
             d="M 0,0 C 1.687,3.244 2.598,5.182 4.098,8.513 L 0.979,9.785 C -0.055,6.976 -1.13,4.191 -2.318,1.471 -9.269,2.959 -27.7,3.622 -33.21,-29.024 c 0,0 40.935,-5.42 33.21,29.024 z" /></g><g
           transform="translate(73.7246,504.9971)"
           id="g296"><path
             id="path298"
             style="fill:#333333;fill-opacity:1;fill-rule:nonzero;stroke:none"
             d="m 0,0 c -1.272,-2.552 -2.808,-5.131 -4.452,-7.529 -1.66,-2.412 -3.478,-4.716 -5.476,-6.855 -2.021,-2.118 -4.227,-4.055 -6.614,-5.743 -2.423,-1.643 -5.055,-2.947 -7.812,-3.883 l -0.053,0.157 c 2.706,1.035 5.252,2.423 7.575,4.131 2.287,1.755 4.382,3.742 6.287,5.897 1.883,2.178 3.581,4.509 5.118,6.937 1.541,2.45 2.892,4.92 4.112,7.61 z" /></g><g
           transform="translate(69.4229,487.252)"
           id="g300"><path
             id="path302"
             style="fill:#118a37;fill-opacity:1;fill-rule:nonzero;stroke:none"
             d="m 0,0 c -0.16,0.16 -0.238,0.403 -0.238,0.563 0,0.16 0.078,0.398 0.238,0.558 l 1.121,1.121 c 0.32,0.321 0.801,0.321 1.121,0 L 2.321,2.16 6.723,-2.558 c 0.16,-0.161 0.398,-0.161 0.559,0 L 18,8.563 h 0.082 c 0.32,0.316 0.801,0.316 1.121,0 l 1.118,-1.121 c 0.32,-0.321 0.32,-0.8 0,-1.121 L 7.523,-6.961 c -0.159,-0.16 -0.32,-0.238 -0.562,-0.238 -0.238,0 -0.399,0.078 -0.559,0.238 L 0.16,-0.238 Z" /></g><g
           transform="translate(27.6245,428.0146)"
           id="g304"><path
             id="path306"
             style="fill:#333333;fill-opacity:1;fill-rule:nonzero;stroke:none"
             d="m 0,0 1.022,-2.45 6.133,-14.7 -4.842,-6.34 -7.912,1.02 -6.132,14.7 -1.022,2.451 -1.571,-2.14 c -3.662,-4.985 -4.454,-11.636 -2.069,-17.356 2.427,-5.816 7.599,-9.828 13.835,-10.731 l 1.327,-0.192 15.087,-36.172 c 0.821,-1.969 2.36,-3.499 4.334,-4.312 0.977,-0.401 1.998,-0.605 3.037,-0.605 1.051,0 2.085,0.209 3.073,0.621 1.969,0.821 3.5,2.36 4.311,4.333 0.811,1.972 0.806,4.142 -0.015,6.111 l -15.088,36.173 0.796,1.077 c 3.748,5.068 4.537,11.565 2.111,17.381 -2.387,5.72 -7.67,9.836 -13.789,10.742 z m 2.407,-1.873 c 5.591,-0.828 10.402,-4.511 12.624,-9.836 2.22,-5.324 1.499,-11.271 -1.933,-15.911 l -1.302,-1.762 15.416,-36.957 c 0.666,-1.599 0.671,-3.361 0.011,-4.964 -0.658,-1.602 -1.901,-2.852 -3.5,-3.518 -0.805,-0.336 -1.644,-0.506 -2.496,-0.506 -0.842,0 -1.672,0.166 -2.467,0.493 -1.603,0.659 -2.853,1.902 -3.519,3.501 l -15.415,36.957 -2.169,0.314 c -5.71,0.828 -10.444,4.5 -12.665,9.825 -2.221,5.325 -1.453,11.335 1.893,15.89 l 6.465,-15.5 9.63,-1.242 5.893,7.717 -6.466,15.499" /></g><g
           transform="translate(48.7773,363.7432)"
           id="g308"><path
             id="path310"
             style="fill:#333333;fill-opacity:1;fill-rule:nonzero;stroke:none"
             d="m 0,0 c -2.351,0 -4.263,-1.912 -4.263,-4.263 0,-2.35 1.912,-4.262 4.263,-4.262 2.351,0 4.263,1.912 4.263,4.262 C 4.263,-1.912 2.351,0 0,0 m 0,-1.5 c 1.526,0 2.763,-1.237 2.763,-2.763 0,-1.526 -1.237,-2.762 -2.763,-2.762 -1.525,0 -2.763,1.236 -2.763,2.762 0,1.526 1.238,2.763 2.763,2.763" /></g><g
           transform="translate(62.7695,363.916)"
           id="g312"><path
             id="path314"
             style="fill:#118a37;fill-opacity:1;fill-rule:nonzero;stroke:none"
             d="m 0,0 c -0.159,0.16 -0.237,0.403 -0.237,0.563 0,0.161 0.078,0.399 0.237,0.558 l 1.121,1.121 c 0.321,0.321 0.802,0.321 1.121,0 L 2.321,2.16 6.724,-2.558 c 0.16,-0.161 0.397,-0.161 0.558,0 L 18,8.563 h 0.082 c 0.321,0.317 0.802,0.317 1.121,0 l 1.118,-1.121 c 0.321,-0.321 0.321,-0.8 0,-1.121 L 7.524,-6.961 C 7.364,-7.12 7.203,-7.198 6.962,-7.198 c -0.238,0 -0.399,0.078 -0.559,0.237 L 0.16,-0.237 Z" /></g><g
           transform="translate(58.8936,234.2012)"
           id="g316"><path
             id="path318"
             style="fill:none;stroke:#333333;stroke-width:1.5;stroke-linecap:butt;stroke-linejoin:miter;stroke-miterlimit:10;stroke-dasharray:none;stroke-opacity:1"
             d="M 0,0 V 0 C -2.117,0 -3.833,1.716 -3.833,3.833 V 62.5 c 0,2.117 1.716,3.833 3.833,3.833 2.117,0 3.833,-1.716 3.833,-3.833 V 3.833 C 3.833,1.716 2.117,0 0,0 Z" /></g><g
           transform="translate(17.2412,234.125)"
           id="g320"><path
             id="path322"
             style="fill:none;stroke:#333333;stroke-width:1.5;stroke-linecap:butt;stroke-linejoin:miter;stroke-miterlimit:10;stroke-dasharray:none;stroke-opacity:1"
             d="M 0,0 V 0 C -2.117,0 -3.833,1.716 -3.833,3.833 V 62.5 c 0,2.117 1.716,3.833 3.833,3.833 2.117,0 3.833,-1.716 3.833,-3.833 V 3.833 C 3.833,1.716 2.117,0 0,0 Z" /></g><g
           transform="translate(13.4082,287.0156)"
           id="g324"><path
             id="path326"
             style="fill:none;stroke:#333333;stroke-width:1.5;stroke-linecap:butt;stroke-linejoin:miter;stroke-miterlimit:10;stroke-dasharray:none;stroke-opacity:1"
             d="m 0,0 h -2.22 c -2.092,0 -3.787,1.696 -3.787,3.788 0,2.092 1.695,3.788 3.787,3.788 H 0" /></g><g
           transform="translate(27.2925,287.0156)"
           id="g328"><path
             id="path330"
             style="fill:none;stroke:#333333;stroke-width:1.5;stroke-linecap:butt;stroke-linejoin:miter;stroke-miterlimit:10;stroke-dasharray:none;stroke-opacity:1"
             d="M 0,0 H -6.218" /></g><g
           transform="translate(41.1763,287.0156)"
           id="g332"><path
             id="path334"
             style="fill:none;stroke:#333333;stroke-width:1.5;stroke-linecap:butt;stroke-linejoin:miter;stroke-miterlimit:10;stroke-dasharray:none;stroke-opacity:1"
             d="M 0,0 H -3.747 -6.218" /></g><g
           transform="translate(55.0605,287.0156)"
           id="g336"><path
             id="path338"
             style="fill:none;stroke:#333333;stroke-width:1.5;stroke-linecap:butt;stroke-linejoin:miter;stroke-miterlimit:10;stroke-dasharray:none;stroke-opacity:1"
             d="M 0,0 H -3.693 -6.218" /></g><g
           transform="translate(62.7266,294.5918)"
           id="g340"><path
             id="path342"
             style="fill:none;stroke:#333333;stroke-width:1.5;stroke-linecap:butt;stroke-linejoin:miter;stroke-miterlimit:10;stroke-dasharray:none;stroke-opacity:1"
             d="M 0,0 H 2.22 C 4.312,0 6.008,-1.696 6.008,-3.788 6.008,-5.88 4.312,-7.576 2.22,-7.576 H 0" /></g><g
           transform="translate(48.8428,294.5918)"
           id="g344"><path
             id="path346"
             style="fill:none;stroke:#333333;stroke-width:1.5;stroke-linecap:butt;stroke-linejoin:miter;stroke-miterlimit:10;stroke-dasharray:none;stroke-opacity:1"
             d="M 0,0 H 6.218" /></g><g
           transform="translate(34.9585,294.5918)"
           id="g348"><path
             id="path350"
             style="fill:none;stroke:#333333;stroke-width:1.5;stroke-linecap:butt;stroke-linejoin:miter;stroke-miterlimit:10;stroke-dasharray:none;stroke-opacity:1"
             d="M 0,0 H 6.218" /></g><g
           transform="translate(21.0742,294.5918)"
           id="g352"><path
             id="path354"
             style="fill:none;stroke:#333333;stroke-width:1.5;stroke-linecap:butt;stroke-linejoin:miter;stroke-miterlimit:10;stroke-dasharray:none;stroke-opacity:1"
             d="M 0,0 H 6.218" /></g><g
           transform="translate(13.4082,240.0674)"
           id="g356"><path
             id="path358"
             style="fill:none;stroke:#333333;stroke-width:1.5;stroke-linecap:butt;stroke-linejoin:miter;stroke-miterlimit:10;stroke-dasharray:none;stroke-opacity:1"
             d="m 0,0 h -2.22 c -2.092,0 -3.787,1.696 -3.787,3.788 0,2.092 1.695,3.788 3.787,3.788 H 0" /></g><g
           transform="translate(27.2925,240.0674)"
           id="g360"><path
             id="path362"
             style="fill:none;stroke:#333333;stroke-width:1.5;stroke-linecap:butt;stroke-linejoin:miter;stroke-miterlimit:10;stroke-dasharray:none;stroke-opacity:1"
             d="M 0,0 H -6.218" /></g><g
           transform="translate(41.1763,240.0674)"
           id="g364"><path
             id="path366"
             style="fill:none;stroke:#333333;stroke-width:1.5;stroke-linecap:butt;stroke-linejoin:miter;stroke-miterlimit:10;stroke-dasharray:none;stroke-opacity:1"
             d="M 0,0 H -3.747 -6.218" /></g><g
           transform="translate(55.0605,240.0674)"
           id="g368"><path
             id="path370"
             style="fill:none;stroke:#333333;stroke-width:1.5;stroke-linecap:butt;stroke-linejoin:miter;stroke-miterlimit:10;stroke-dasharray:none;stroke-opacity:1"
             d="M 0,0 H -3.693 -6.218" /></g><g
           transform="translate(62.7266,247.6436)"
           id="g372"><path
             id="path374"
             style="fill:none;stroke:#333333;stroke-width:1.5;stroke-linecap:butt;stroke-linejoin:miter;stroke-miterlimit:10;stroke-dasharray:none;stroke-opacity:1"
             d="M 0,0 H 2.22 C 4.312,0 6.008,-1.696 6.008,-3.788 6.008,-5.88 4.312,-7.576 2.22,-7.576 H 0" /></g><g
           transform="translate(48.8428,247.6436)"
           id="g376"><path
             id="path378"
             style="fill:none;stroke:#333333;stroke-width:1.5;stroke-linecap:butt;stroke-linejoin:miter;stroke-miterlimit:10;stroke-dasharray:none;stroke-opacity:1"
             d="M 0,0 H 6.218" /></g><g
           transform="translate(34.9585,247.6436)"
           id="g380"><path
             id="path382"
             style="fill:none;stroke:#333333;stroke-width:1.5;stroke-linecap:butt;stroke-linejoin:miter;stroke-miterlimit:10;stroke-dasharray:none;stroke-opacity:1"
             d="M 0,0 H 6.218" /></g><g
           transform="translate(21.0742,247.6436)"
           id="g384"><path
             id="path386"
             style="fill:none;stroke:#333333;stroke-width:1.5;stroke-linecap:butt;stroke-linejoin:miter;stroke-miterlimit:10;stroke-dasharray:none;stroke-opacity:1"
             d="M 0,0 H 6.218" /></g><g
           transform="translate(66.5381,242.3936)"
           id="g388"><path
             id="path390"
             style="fill:#118a37;fill-opacity:1;fill-rule:nonzero;stroke:none"
             d="m 0,0 c -0.16,0.16 -0.238,0.403 -0.238,0.563 0,0.16 0.078,0.398 0.238,0.558 l 1.121,1.121 c 0.321,0.321 0.801,0.321 1.121,0 L 2.321,2.16 6.724,-2.558 c 0.159,-0.161 0.397,-0.161 0.558,0 L 18,8.563 h 0.082 c 0.321,0.316 0.801,0.316 1.121,0 l 1.118,-1.121 c 0.321,-0.321 0.321,-0.801 0,-1.121 L 7.524,-6.961 c -0.16,-0.16 -0.321,-0.238 -0.563,-0.238 -0.237,0 -0.398,0.078 -0.558,0.238 L 0.16,-0.238 Z" /></g><g
           transform="translate(41.1763,251.9541)"
           id="g392"><path
             id="path394"
             style="fill:none;stroke:#333333;stroke-width:1.5;stroke-linecap:butt;stroke-linejoin:miter;stroke-miterlimit:10;stroke-dasharray:none;stroke-opacity:1"
             d="m 0,0 v -13.996 c 0,-2.117 1.716,-3.833 3.833,-3.833 2.117,0 3.834,1.716 3.834,3.833 v 18" /></g><g
           transform="translate(48.8428,278.7012)"
           id="g396"><path
             id="path398"
             style="fill:none;stroke:#333333;stroke-width:1.5;stroke-linecap:butt;stroke-linejoin:miter;stroke-miterlimit:10;stroke-dasharray:none;stroke-opacity:1"
             d="m 0,0 v 17.924 c 0,2.117 -1.717,3.833 -3.833,3.833 -2.117,0 -3.834,-1.716 -3.834,-3.833 V 4.004" /></g><g
           transform="translate(50.7549,267.3301)"
           id="g400"><path
             id="path402"
             style="fill:none;stroke:#333333;stroke-width:1.5;stroke-linecap:butt;stroke-linejoin:miter;stroke-miterlimit:10;stroke-dasharray:none;stroke-opacity:1"
             d="m 0,0 c 0,-7.008 -5.681,-12.688 -12.688,-12.688 -7.007,0 -12.687,5.68 -12.687,12.688 0,7.007 5.68,12.688 12.687,12.688 C -5.681,12.688 0,7.007 0,0 Z" /></g><g
           transform="translate(36.2451,258.0381)"
           id="g404"><path
             id="path406"
             style="fill:#333333;fill-opacity:1;fill-rule:nonzero;stroke:none"
             d="m 0,0 1.631,6.938 h -4.739 l 3.506,8.988 0.25,0.657 h 4.464 l -0.29,-0.661 -2.447,-5.86 h 4.377 z" /></g><g
           transform="translate(34.9585,282.7051)"
           id="g408"><path
             id="path410"
             style="fill:none;stroke:#333333;stroke-width:1.5;stroke-linecap:butt;stroke-linejoin:miter;stroke-miterlimit:10;stroke-dasharray:none;stroke-opacity:1"
             d="m 0,0 v 13.92 c 0,2.117 -1.716,3.833 -3.833,3.833 -2.117,0 -3.833,-1.716 -3.833,-3.833 V -4.004" /></g><g
           transform="translate(27.2925,255.958)"
           id="g412"><path
             id="path414"
             style="fill:none;stroke:#333333;stroke-width:1.5;stroke-linecap:butt;stroke-linejoin:miter;stroke-miterlimit:10;stroke-dasharray:none;stroke-opacity:1"
             d="m 0,0 v -18 c 0,-2.117 1.716,-3.833 3.833,-3.833 2.117,0 3.833,1.716 3.833,3.833 v 13.996" /></g></g></g></g></svg>