<?xml version="1.0" encoding="UTF-8" standalone="no"?>
<svg
   xmlns:dc="http://purl.org/dc/elements/1.1/"
   xmlns:cc="http://creativecommons.org/ns#"
   xmlns:rdf="http://www.w3.org/1999/02/22-rdf-syntax-ns#"
   xmlns:svg="http://www.w3.org/2000/svg"
   xmlns="http://www.w3.org/2000/svg"
   viewBox="0 0 182.66667 3600"
   height="3600"
   width="182.66667"
   xml:space="preserve"
   id="svg2"
   version="1.1"><metadata
     id="metadata8"><rdf:RDF><cc:Work
         rdf:about=""><dc:format>image/svg+xml</dc:format><dc:type
           rdf:resource="http://purl.org/dc/dcmitype/StillImage" /></cc:Work></rdf:RDF></metadata><defs
     id="defs6"><clipPath
       id="clipPath18"
       clipPathUnits="userSpaceOnUse"><path
         id="path16"
         d="m 61.943,2478.942 h 17.615 v 17.616 H 61.943 Z" /></clipPath><clipPath
       id="clipPath34"
       clipPathUnits="userSpaceOnUse"><path
         id="path32"
         d="m 61.943,2449.25 h 17.615 v 3 H 61.943 Z" /></clipPath><clipPath
       id="clipPath46"
       clipPathUnits="userSpaceOnUse"><path
         id="path44"
         d="M 63,2398.479 H 78.521 V 2414 H 63 Z" /></clipPath><clipPath
       id="clipPath62"
       clipPathUnits="userSpaceOnUse"><path
         id="path60"
         d="M 9,2191.549 H 126.119 V 2214 H 9 Z" /></clipPath><clipPath
       id="clipPath106"
       clipPathUnits="userSpaceOnUse"><path
         id="path104"
         d="M 0,2700 H 137 V 0 H 0 Z" /></clipPath><clipPath
       id="clipPath122"
       clipPathUnits="userSpaceOnUse"><path
         id="path120"
         d="m 46,2076.757 h 45.243 v 45.242 H 46 Z" /></clipPath><clipPath
       id="clipPath142"
       clipPathUnits="userSpaceOnUse"><path
         id="path140"
         d="M 47,2000.757 H 92.243 V 2046 H 47 Z" /></clipPath><clipPath
       id="clipPath162"
       clipPathUnits="userSpaceOnUse"><path
         id="path160"
         d="m 47.379,1925.379 h 45.243 v 45.243 H 47.379 Z" /></clipPath><clipPath
       id="clipPath178"
       clipPathUnits="userSpaceOnUse"><path
         id="path176"
         d="m 46.379,1848.379 h 45.243 v 45.243 H 46.379 Z" /></clipPath><clipPath
       id="clipPath194"
       clipPathUnits="userSpaceOnUse"><path
         id="path192"
         d="m 64.743,1803.872 h 8.513 v 4.257 h -8.513 z" /></clipPath><clipPath
       id="clipPath206"
       clipPathUnits="userSpaceOnUse"><path
         id="path204"
         d="M 0,2700 H 137 V 0 H 0 Z" /></clipPath></defs><g
     transform="matrix(1.3333333,0,0,-1.3333333,0,3600)"
     id="g10"><g
       id="g12"><g
         clip-path="url(#clipPath18)"
         id="g14"><g
           transform="translate(70.75,2496.5581)"
           id="g20"><path
             id="path22"
             style="fill:none;stroke:#000000;stroke-width:1.5;stroke-linecap:butt;stroke-linejoin:miter;stroke-miterlimit:10;stroke-dasharray:none;stroke-opacity:1"
             d="M 0,0 V -17.615" /></g><g
           transform="translate(79.5577,2487.7505)"
           id="g24"><path
             id="path26"
             style="fill:none;stroke:#000000;stroke-width:1.5;stroke-linecap:butt;stroke-linejoin:miter;stroke-miterlimit:10;stroke-dasharray:none;stroke-opacity:1"
             d="M 0,0 H -17.615" /></g></g></g><g
       id="g28"><g
         clip-path="url(#clipPath34)"
         id="g30"><g
           transform="translate(79.5577,2450.0005)"
           id="g36"><path
             id="path38"
             style="fill:none;stroke:#000000;stroke-width:1.5;stroke-linecap:butt;stroke-linejoin:miter;stroke-miterlimit:10;stroke-dasharray:none;stroke-opacity:1"
             d="M 0,0 H -17.615" /></g></g></g><g
       id="g40"><g
         clip-path="url(#clipPath46)"
         id="g42"><g
           transform="translate(72.6516,2411.7283)"
           id="g48"><path
             id="path50"
             style="fill:none;stroke:#777777;stroke-width:1.5;stroke-linecap:round;stroke-linejoin:miter;stroke-miterlimit:10;stroke-dasharray:none;stroke-opacity:1"
             d="m 0,0 c -2.029,2.03 -5.35,2.03 -7.38,0 -2.029,-2.029 -2.029,-5.35 0,-7.38 2.03,-2.029 5.351,-2.029 7.38,0 2.03,2.03 2.03,5.351 0,7.38 z" /></g><g
           transform="translate(72.6516,2404.3484)"
           id="g52"><path
             id="path54"
             style="fill:none;stroke:#777777;stroke-width:1.5;stroke-linecap:round;stroke-linejoin:miter;stroke-miterlimit:10;stroke-dasharray:none;stroke-opacity:1"
             d="M 0,0 5.119,-5.119" /></g></g></g><g
       id="g56"><g
         clip-path="url(#clipPath62)"
         id="g58"><g
           transform="translate(44.3154,2196.4316)"
           id="g64"><path
             id="path66"
             style="fill:#919191;fill-opacity:1;fill-rule:evenodd;stroke:none"
             d="m 0,0 3.138,10.086 c 0.091,0.303 0.185,0.394 0.581,0.465 l 0.836,0.137 V 11.91 H 0.163 l -0.254,-1.222 1.51,-0.182 -2.58,-8.352 -2.253,9.422 h -2.441 l -2.671,-9.447 -2.601,8.377 1.486,0.182 v 1.222 h -4.67 l -0.28,-1.222 0.999,-0.208 c 0.281,-0.068 0.396,-0.115 0.489,-0.394 L -9.827,0.002 h 2.557 l 2.554,9.221 2.231,-9.221 z" /></g><g
           transform="translate(54.6113,2196.1816)"
           id="g68"><path
             id="path70"
             style="fill:#919191;fill-opacity:1;fill-rule:evenodd;stroke:none"
             d="m 0,0 c 3.949,0 5.712,2.521 5.712,6.424 0,3.48 -1.533,5.998 -5.482,5.998 -3.948,0 -5.805,-2.494 -5.805,-6.141 C -5.575,2.596 -4.019,0 0,0 m 0.068,1.689 c -2.285,0 -3.461,1.483 -3.461,4.571 0,3.066 1.316,4.41 3.576,4.41 C 2.42,10.67 3.53,9.326 3.53,6.281 3.53,3.102 2.305,1.689 0.068,1.689" /></g><g
           transform="translate(67.4453,2196.4453)"
           id="g72"><path
             id="path74"
             style="fill:#919191;fill-opacity:1;fill-rule:evenodd;stroke:none"
             d="m 0,0 v 1.221 l -2.188,0.185 c -0.356,0.026 -0.379,0.092 -0.379,0.467 v 7.012 c 0.546,0.513 1.757,1.467 2.829,1.467 0.211,0 0.259,-0.045 0.284,-0.233 L 0.831,8.498 2.456,8.428 v 3.511 c -0.414,0.131 -1.123,0.227 -1.651,0.227 -1.615,0 -2.779,-1.002 -3.556,-1.859 l -0.067,0.021 -0.225,1.59 H -6.05 l -0.21,-1.24 1.324,-0.438 c 0.234,-0.072 0.304,-0.232 0.304,-0.49 V 1.846 c 0,-0.348 -0.047,-0.418 -0.371,-0.463 L -6.166,1.244 V 0 Z" /></g><g
           transform="translate(75.7119,2196.4453)"
           id="g76"><path
             id="path78"
             style="fill:#919191;fill-opacity:1;fill-rule:evenodd;stroke:none"
             d="m 0,0 v 1.221 l -1.392,0.162 c -0.348,0.049 -0.372,0.09 -0.372,0.465 v 15.707 h -3.553 l -0.208,-1.237 1.394,-0.439 c 0.234,-0.072 0.304,-0.236 0.304,-0.488 V 1.848 c 0,-0.35 -0.048,-0.442 -0.372,-0.465 L -5.64,1.244 V 0 Z" /></g><g
           transform="translate(88.4062,2196.4355)"
           id="g80"><path
             id="path82"
             style="fill:#919191;fill-opacity:1;fill-rule:evenodd;stroke:none"
             d="m 0,0 v 1.24 l -1.185,0.164 c -0.347,0.045 -0.372,0.094 -0.372,0.463 v 15.697 h -3.505 l -0.209,-1.236 1.394,-0.443 c 0.209,-0.069 0.301,-0.235 0.301,-0.465 v -4.359 c -0.904,0.648 -2.158,1.115 -3.554,1.115 -2.786,0 -4.842,-1.881 -4.842,-6.467 0,-4.256 1.733,-5.959 4.379,-5.959 1.812,0 3.021,0.807 4.085,1.82 L -3.416,1.547 -3.236,0 Z M -3.62,3.426 C -4.644,2.404 -5.758,1.5 -7.13,1.5 c -1.624,0 -2.715,1.045 -2.715,4.27 0,2.757 0.859,4.664 3.041,4.664 1.231,0 2.485,-0.674 3.184,-1.256 z" /></g><g
           transform="translate(95.2715,2191.5488)"
           id="g84"><path
             id="path86"
             style="fill:#ef2316;fill-opacity:1;fill-rule:evenodd;stroke:none"
             d="M 0,0 V 1.219 L -2.181,1.406 C -2.529,1.43 -2.554,1.498 -2.554,1.871 v 4.037 c 1.092,-0.955 2.206,-1.281 3.532,-1.281 3.64,0 4.821,3.207 4.821,6.691 0,4.09 -1.76,5.727 -4.358,5.727 -1.579,0 -2.878,-0.641 -4.157,-1.57 l -0.067,0.021 -0.206,1.318 h -3.047 l -0.208,-1.24 1.322,-0.437 c 0.235,-0.069 0.305,-0.231 0.305,-0.485 V 1.848 c 0,-0.35 -0.07,-0.418 -0.395,-0.465 L -5.965,1.242 V 0 Z m -2.554,13.852 c 0.673,0.533 2.068,1.441 3.553,1.441 1.44,0 2.672,-0.998 2.672,-4.16 0,-2.926 -0.837,-4.764 -3.042,-4.764 -1.233,0 -2.392,0.746 -3.183,1.51 z" /></g><g
           transform="translate(113.2675,2196.4355)"
           id="g88"><path
             id="path90"
             style="fill:#ef2316;fill-opacity:1;fill-rule:evenodd;stroke:none"
             d="m 0,0 v 1.24 l -1.186,0.164 c -0.347,0.045 -0.371,0.094 -0.371,0.461 v 6.158 c 0,3.221 -1.102,4.157 -4.38,4.157 -1.82,0 -4.465,-0.328 -4.465,-3.2 l 1.998,-0.212 c 0.023,1.753 1.039,1.796 2.448,1.796 2.011,0 2.335,-0.837 2.335,-2.541 V 6.785 L -6.74,6.527 C -9.526,6.299 -10.965,5.209 -10.965,2.9 c 0,-1.175 0.371,-3.146 3.269,-3.146 1.784,0 3.078,0.754 4.19,1.785 L -3.438,1.518 -3.231,0 Z m -3.621,3.156 c -0.717,-0.67 -2.177,-1.777 -3.54,-1.777 -1.089,0 -1.62,0.508 -1.62,1.756 0,1.197 0.554,1.773 2.544,1.959 l 2.616,0.23 z" /></g><g
           transform="translate(121.3672,2191.5488)"
           id="g92"><path
             id="path94"
             style="fill:#ef2316;fill-opacity:1;fill-rule:evenodd;stroke:none"
             d="m 0,0 v 1.201 l -2.247,0.229 5.63,13.633 c 0.116,0.257 0.301,0.347 0.581,0.394 l 0.788,0.113 v 1.223 H 0.163 l -0.255,-1.223 1.575,-0.181 -3.22,-7.832 -3.082,7.832 1.528,0.181 v 1.223 h -4.796 l -0.277,-1.223 0.95,-0.23 c 0.277,-0.069 0.371,-0.115 0.486,-0.395 L -2.757,5.016 -4.102,1.918 C -4.241,1.59 -4.333,1.449 -4.61,1.43 L -6.278,1.223 V 0 Z" /></g><g
           transform="translate(20.0283,2210.7852)"
           id="g96"><path
             id="path98"
             style="fill:#ef2316;fill-opacity:1;fill-rule:evenodd;stroke:none"
             d="m 0,0 c 1.269,-0.271 2.713,-0.812 3.956,-2.053 0.401,-0.394 0.749,-0.939 0.898,-1.359 0.073,-0.17 0.073,-0.443 0.199,-0.615 0.198,-0.299 0.546,-0.545 0.794,-0.866 0.326,-0.347 0.524,-0.716 0.699,-1.113 0.074,-0.121 0.1,-0.297 0.173,-0.445 0.099,-0.195 0.274,-1.135 0.274,-1.485 0,-0.714 -0.248,-1.605 -0.572,-2.294 0,-0.026 0.025,-0.026 0.025,-0.1 v -0.619 c -0.273,-3.805 -4.878,-6.547 -7.767,-6.547 -0.348,0 -1.342,0.051 -1.342,0.742 0,0.076 0.05,0.297 0.1,0.469 -0.55,-0.078 -1.621,-0.272 -2.244,-0.272 -0.47,0 -2.635,0.024 -2.635,1.184 0,1.09 1.939,1.164 2.314,1.164 1.044,0 2.14,-0.297 3.21,-0.791 -0.175,-0.049 -0.497,-0.148 -0.547,-0.148 -0.075,0 -0.175,0.076 -0.274,0.099 -0.697,0.246 -1.494,0.393 -2.216,0.393 -0.422,0 -0.497,0.027 -0.994,-0.098 -0.051,0 -0.922,-0.225 -0.922,-0.568 0,-0.246 0.697,-0.397 0.846,-0.42 0.297,-0.047 0.921,-0.098 0.969,-0.098 4.434,0 11.305,3.656 11.305,8.031 0,0.815 -0.375,1.977 -1.123,2.719 C 5.075,-5.41 5.003,-5.756 4.878,-6.105 4.804,-6.326 4.604,-6.723 4.604,-6.771 c 0,0 1.243,-1.358 1.243,-1.655 C 5.847,-8.6 5.575,-9.365 5.575,-9.391 5.327,-8.725 4.977,-8.057 4.281,-7.389 4.181,-7.488 4.082,-7.635 3.982,-7.76 3.856,-7.936 3.708,-8.107 3.559,-8.277 3.234,-8.65 2.488,-9.291 2.488,-9.365 c 0,0 0.895,-0.891 1.196,-1.928 0.049,-0.148 0.123,-0.445 0.123,-0.492 0,-0.151 -0.498,-0.473 -0.498,-0.496 -0.025,0.84 -0.373,1.728 -1.294,2.57 -1.072,-0.791 -2.19,-1.435 -3.26,-1.953 0.646,-0.545 1.019,-1.334 1.019,-1.902 0,-0.274 -0.148,-0.866 -0.274,-0.94 -0.148,-0.098 -0.321,-0.15 -0.497,-0.197 0.198,0.248 0.375,0.814 0.375,1.06 0,0.444 -0.299,1.139 -0.799,1.508 -0.123,0.074 -0.298,0.246 -0.348,0.246 -0.073,0 -0.696,-0.269 -1.044,-0.392 -0.4,-0.151 -0.821,-0.274 -1.245,-0.397 -1.269,-0.371 -2.464,-0.593 -3.684,-0.593 -0.474,0 -2.54,0.048 -2.54,1.162 0,1.656 3.836,1.806 4.355,1.806 1.147,0 2.242,-0.127 3.412,-0.646 -0.224,-0.072 -0.648,-0.244 -0.698,-0.244 -0.073,0 -1.368,0.369 -2.538,0.369 -0.523,0 -1.17,-0.049 -1.667,-0.147 -0.4,-0.076 -0.798,-0.175 -1.145,-0.322 -0.125,-0.025 -1.046,-0.422 -1.046,-0.768 0,-0.048 0.149,-0.148 0.248,-0.197 0.5,-0.246 0.947,-0.224 1.444,-0.224 4.704,0 11.923,3.687 12.347,7.517 v 0.615 c -0.226,2.495 -4.108,4.102 -6,4.102 -0.049,0 -0.371,-0.023 -0.572,-0.074 0.124,-0.047 0.275,-0.047 0.4,-0.098 0.099,-0.025 0.222,-0.076 0.347,-0.123 0.199,-0.076 0.547,-0.248 0.773,-0.445 0.173,-0.149 0.271,-0.369 0.447,-0.494 0.125,-0.123 0.374,-0.098 0.573,-0.176 0.646,-0.197 1.445,-0.49 2.117,-0.789 0.271,-0.147 0.62,-0.295 0.922,-0.471 0.097,-0.074 0.171,-0.221 0.247,-0.344 0.123,-0.195 0.272,-0.519 0.322,-0.791 -1.293,0.965 -2.589,1.459 -3.883,1.879 H 0.05 C 0.1,-2.842 -0.175,-3.51 -0.648,-4.176 0.771,-4.547 2.264,-5.09 3.733,-6.105 3.658,-6.277 3.559,-6.473 3.437,-6.646 c -0.624,0.445 -1.296,0.789 -1.919,1.085 -0.15,0.073 -2.24,0.84 -2.565,0.84 -0.075,0 -0.572,-0.494 -0.845,-0.716 -0.671,-0.54 -1.344,-0.961 -2.016,-1.358 1.815,-0.248 3.634,-0.644 5.45,-1.828 -0.125,-0.125 -0.398,-0.371 -0.472,-0.371 -0.049,0 -0.524,0.344 -0.799,0.469 -1.268,0.617 -3.682,1.207 -5.15,1.207 -0.125,0 -1.567,-0.618 -1.918,-0.711 -1.021,-0.301 -2.14,-0.666 -3.184,-0.666 -0.351,0 -1.047,0.021 -1.047,0.588 0,1.113 3.959,1.384 4.231,1.384 h 0.87 c -0.622,-0.246 -1.367,-0.517 -1.965,-0.666 -0.572,-0.148 -1.169,-0.246 -1.717,-0.42 -0.1,-0.025 -0.2,-0.099 -0.299,-0.148 0,0 -0.023,-0.027 0.05,-0.027 0.049,0 0.87,0.125 1.319,0.224 2.265,0.543 4.704,1.434 6.946,3.483 0.546,0.523 0.945,1.164 1.071,1.73 v 0.494 c -0.077,0.545 -0.873,1.114 -1.37,1.262 -0.325,0.1 -0.946,0.223 -1.02,0.223 -0.125,0 -0.301,-0.073 -0.424,-0.274 0.796,-0.172 1.717,0 2.415,-0.988 0,0 0.024,-0.025 0,-0.074 -0.201,0.074 -2.641,0.644 -3.038,0.644 -0.148,0 -1.318,-0.816 -1.593,-0.988 -0.745,-0.445 -1.517,-0.865 -2.266,-1.236 l 2.564,-0.026 c 1.12,-0.072 2.392,-0.22 3.535,-0.441 -0.05,-0.028 -0.498,-0.496 -0.595,-0.496 -0.05,0 -0.849,0.148 -1.248,0.197 -0.72,0.1 -1.466,0.123 -2.214,0.174 L -9.01,-4.15 c -0.176,0.023 -0.524,0.046 -0.524,0.345 0,0.223 0.272,0.367 0.473,0.446 0.149,0.048 0.323,0.146 0.472,0.195 1.592,0.666 3.236,1.559 4.856,2.57 -0.049,0.026 -0.152,0.026 -0.202,0.026 -0.073,0 -0.272,-0.026 -0.421,-0.073 0.023,-0.029 0.049,-0.029 0.074,-0.029 -0.223,-0.121 -0.597,-0.367 -0.673,-0.367 -0.173,0 -0.422,0.225 -0.422,0.367 0,0.447 1.021,0.471 1.095,0.471 1.019,0.025 1.095,-0.024 1.169,-0.024 0.05,0 0.473,0.223 0.749,0.274 0.396,0.097 0.595,0.097 0.969,0.097 C -0.971,0.148 -0.474,0.096 0,0 m -1.52,-16.93 c -0.073,0 -0.697,0 -0.697,0.221 0,0.127 0.199,0.523 0.375,0.568 0.371,0.153 1.17,0.352 1.22,0.352 0.073,0 0.722,-0.076 0.795,-0.076 0.05,0 0.523,0.025 0.798,0.099 0.322,0.075 0.721,0.221 1.093,0.444 0.374,0.224 0.922,0.693 1.17,1.088 0.149,0.224 0.225,0.519 0.4,0.718 0.222,0.293 0.647,0.541 0.995,0.864 0.348,0.347 0.698,0.716 1.02,1.109 -0.672,-3.113 -4.754,-5.387 -7.169,-5.387 m 1.768,1.487 c 0.723,0.322 1.519,0.714 2.29,1.181 -0.745,-0.836 -1.543,-1.06 -2.29,-1.181" /></g></g></g><g
       id="g100"><g
         clip-path="url(#clipPath106)"
         id="g102"><g
           transform="translate(67.7285,2170.8447)"
           id="g108"><path
             id="path110"
             style="fill:#000000;fill-opacity:1;fill-rule:nonzero;stroke:none"
             d="m 0,0 c -0.058,0 -0.116,-0.001 -0.174,-0.002 -5.893,-0.094 -10.594,-4.947 -10.5,-10.841 0.094,-5.835 4.853,-10.501 10.667,-10.501 0.058,0 0.116,0.001 0.174,0.002 5.894,0.094 10.594,4.948 10.5,10.841 C 10.573,-4.666 5.814,0 0,0 m 0.001,-1.5 v 0 c 4.975,0 9.086,-4.049 9.166,-9.025 0.081,-5.056 -3.967,-9.236 -9.023,-9.317 l -0.151,-0.002 c -4.974,0 -9.087,4.049 -9.167,9.026 -0.039,2.449 0.878,4.767 2.582,6.527 1.705,1.76 3.992,2.75 6.442,2.79 L 0.001,-1.5" /></g><g
           transform="translate(63.8213,2159.4063)"
           id="g112"><path
             id="path114"
             style="fill:none;stroke:#000000;stroke-width:2;stroke-linecap:round;stroke-linejoin:round;stroke-miterlimit:10;stroke-dasharray:none;stroke-opacity:1"
             d="m 0,0 c 0,0 4.053,-2.623 3.986,-2.559 -0.065,0.064 3.766,7.53 3.766,7.53" /></g></g></g><g
       id="g116"><g
         clip-path="url(#clipPath122)"
         id="g118"><g
           transform="translate(69.2464,2098.7537)"
           id="g124"><path
             id="path126"
             style="fill:none;stroke:#78b44c;stroke-width:2;stroke-linecap:round;stroke-linejoin:miter;stroke-miterlimit:10;stroke-dasharray:none;stroke-opacity:1"
             d="M 0,0 -1.389,-7.511 C -1.653,-8.937 -3.613,-9.138 -4.161,-7.796 L -11.11,9.217 c -0.487,1.191 0.702,2.379 1.893,1.893 L 7.796,4.161 C 9.138,3.613 8.936,1.653 7.511,1.389 Z" /></g><g
           transform="translate(79.2186,2088.7815)"
           id="g128"><path
             id="path130"
             style="fill:none;stroke:#78b44c;stroke-width:2;stroke-linecap:round;stroke-linejoin:miter;stroke-miterlimit:10;stroke-dasharray:none;stroke-opacity:1"
             d="M 0,0 -9.972,9.972" /></g><g
           transform="translate(90.243,2099.3782)"
           id="g132"><path
             id="path134"
             style="fill:none;stroke:#78b44c;stroke-width:2;stroke-linecap:round;stroke-linejoin:miter;stroke-miterlimit:10;stroke-dasharray:none;stroke-opacity:1"
             d="m 0,0 c 0,-11.941 -9.68,-21.621 -21.622,-21.621 -11.941,0 -21.621,9.68 -21.621,21.621 0,11.941 9.68,21.622 21.621,21.622 C -9.68,21.622 0,11.941 0,0 Z" /></g></g></g><g
       id="g136"><g
         clip-path="url(#clipPath142)"
         id="g138"><g
           transform="translate(70.2464,2022.7538)"
           id="g144"><path
             id="path146"
             style="fill:none;stroke:#cecece;stroke-width:2;stroke-linecap:round;stroke-linejoin:miter;stroke-miterlimit:10;stroke-dasharray:none;stroke-opacity:1"
             d="M 0,0 -1.389,-7.511 C -1.653,-8.937 -3.613,-9.138 -4.161,-7.796 L -11.11,9.217 c -0.487,1.191 0.702,2.379 1.893,1.893 L 7.796,4.161 C 9.138,3.613 8.936,1.652 7.511,1.389 Z" /></g><g
           transform="translate(80.2186,2012.7815)"
           id="g148"><path
             id="path150"
             style="fill:none;stroke:#cecece;stroke-width:2;stroke-linecap:round;stroke-linejoin:miter;stroke-miterlimit:10;stroke-dasharray:none;stroke-opacity:1"
             d="M 0,0 -9.972,9.972" /></g><g
           transform="translate(91.243,2023.3783)"
           id="g152"><path
             id="path154"
             style="fill:none;stroke:#cecece;stroke-width:2;stroke-linecap:round;stroke-linejoin:miter;stroke-miterlimit:10;stroke-dasharray:none;stroke-opacity:1"
             d="m 0,0 c 0,-11.941 -9.68,-21.622 -21.622,-21.622 -11.941,0 -21.621,9.681 -21.621,21.622 0,11.941 9.68,21.622 21.621,21.622 C -9.68,21.622 0,11.941 0,0 Z" /></g></g></g><g
       id="g156"><g
         clip-path="url(#clipPath162)"
         id="g158"><g
           transform="translate(79.5516,1954.1478)"
           id="g164"><path
             id="path166"
             style="fill:none;stroke:#cecece;stroke-width:2;stroke-linecap:round;stroke-linejoin:miter;stroke-miterlimit:10;stroke-dasharray:none;stroke-opacity:1"
             d="m 0,0 -7.163,6.106 c -1.376,1.173 -3.401,1.173 -4.777,0 L -19.104,0 c -0.899,-0.767 -1.417,-1.889 -1.417,-3.071 v -13.664 c 0,-1.406 1.14,-2.546 2.545,-2.546 h 2.18 c 1.55,0 2.807,1.257 2.807,2.807 v 6.334 c 0,0.999 0.817,1.816 1.816,1.816 h 3.243 c 0.998,0 1.816,-0.817 1.816,-1.816 v -6.334 c 0,-1.55 1.257,-2.807 2.807,-2.807 h 2.18 c 1.405,0 2.544,1.14 2.544,2.545 V -3.071 C 1.417,-1.889 0.899,-0.767 0,0 Z" /></g><g
           transform="translate(91.6214,1948.0004)"
           id="g168"><path
             id="path170"
             style="fill:none;stroke:#cecece;stroke-width:2;stroke-linecap:round;stroke-linejoin:miter;stroke-miterlimit:10;stroke-dasharray:none;stroke-opacity:1"
             d="m 0,0 c 0,-11.941 -9.68,-21.622 -21.622,-21.622 -11.941,0 -21.621,9.681 -21.621,21.622 0,11.941 9.68,21.622 21.621,21.622 C -9.68,21.622 0,11.941 0,0 Z" /></g></g></g><g
       id="g172"><g
         clip-path="url(#clipPath178)"
         id="g174"><g
           transform="translate(78.5516,1877.1477)"
           id="g180"><path
             id="path182"
             style="fill:none;stroke:#78b44c;stroke-width:2;stroke-linecap:butt;stroke-linejoin:miter;stroke-miterlimit:10;stroke-dasharray:none;stroke-opacity:1"
             d="m 0,0 -7.163,6.106 c -1.376,1.173 -3.401,1.173 -4.777,0 L -19.104,0 c -0.899,-0.767 -1.417,-1.889 -1.417,-3.071 v -13.664 c 0,-1.406 1.14,-2.545 2.545,-2.545 h 2.18 c 1.55,0 2.807,1.256 2.807,2.807 v 6.333 c 0,0.999 0.817,1.816 1.816,1.816 h 3.243 c 0.998,0 1.816,-0.817 1.816,-1.816 v -6.333 c 0,-1.551 1.257,-2.807 2.807,-2.807 h 2.18 c 1.405,0 2.544,1.139 2.544,2.545 V -3.071 C 1.417,-1.889 0.899,-0.767 0,0 Z" /></g><g
           transform="translate(90.6214,1871.0002)"
           id="g184"><path
             id="path186"
             style="fill:none;stroke:#78b44c;stroke-width:2;stroke-linecap:round;stroke-linejoin:miter;stroke-miterlimit:10;stroke-dasharray:none;stroke-opacity:1"
             d="m 0,0 c 0,-11.941 -9.68,-21.621 -21.622,-21.621 -11.941,0 -21.621,9.68 -21.621,21.621 0,11.941 9.68,21.622 21.621,21.622 C -9.68,21.622 0,11.941 0,0 Z" /></g></g></g><g
       id="g188"><g
         clip-path="url(#clipPath194)"
         id="g190"><g
           transform="translate(68.9993,1808.129)"
           id="g196"><path
             id="path198"
             style="fill:#888888;fill-opacity:1;fill-rule:nonzero;stroke:none"
             d="M 0,0 -4.256,-4.257 H 4.257 Z" /></g></g></g><g
       id="g200"><g
         clip-path="url(#clipPath206)"
         id="g202"><g
           transform="translate(68.6094,1758.168)"
           id="g208"><path
             id="path210"
             style="fill:#000000;fill-opacity:1;fill-rule:nonzero;stroke:none"
             d="M 0,0 -6.408,12.832 H 8.408 Z" /></g><g
           transform="translate(70.79,2374.5)"
           id="g212"><path
             id="path214"
             style="fill:#ff8000;fill-opacity:1;fill-rule:nonzero;stroke:none"
             d="m 0,0 c -2.091,-0.006 -3.784,-1.699 -3.79,-3.79 v -2 h 7.58 v 2 C 3.784,-1.699 2.091,-0.006 0,0 M -10.22,-25.62 H 10.21 L 8.58,-7.24 H 5.29 v -2.18 c 0,-0.414 -0.336,-0.75 -0.75,-0.75 -0.414,0 -0.75,0.336 -0.75,0.75 v 2.18 h -7.58 v -2.18 c 0,-0.414 -0.336,-0.75 -0.75,-0.75 -0.414,0 -0.75,0.336 -0.75,0.75 v 2.18 h -3.28 z m -0.82,-1.5 c -0.414,-10e-4 -0.751,0.333 -0.752,0.748 -10e-4,0.02 0,0.041 0.002,0.062 L -10,-6.43 c 0.036,0.387 0.361,0.682 0.75,0.68 h 4 v 2 c -0.001,2.922 2.366,5.291 5.287,5.292 2.922,0.002 5.292,-2.365 5.293,-5.287 v -0.005 -2 h 4 c 0.389,0.002 0.714,-0.293 0.75,-0.68 0,0 1.79,-19.91 1.79,-20 -0.006,-0.41 -0.34,-0.74 -0.75,-0.74 z" /></g><g
           transform="translate(71.25,2323.25)"
           id="g216"><path
             id="path218"
             style="fill:none;stroke:#ff8000;stroke-width:1.5;stroke-linecap:butt;stroke-linejoin:miter;stroke-miterlimit:10;stroke-dasharray:none;stroke-opacity:1"
             d="m 0,0 c -6.903,0 -12.5,-5.597 -12.5,-12.5 0,-6.903 5.597,-12.5 12.5,-12.5 6.903,0 12.5,5.597 12.5,12.5 C 12.479,-5.605 6.895,-0.021 0,0 Z" /></g><g
           transform="translate(71.25,2319.5)"
           id="g220"><path
             id="path222"
             style="fill:#ff8000;fill-opacity:1;fill-rule:nonzero;stroke:none"
             d="M 0,0 C 2.032,0.039 3.711,-1.576 3.75,-3.608 3.751,-3.655 3.751,-3.703 3.75,-3.75 3.789,-5.782 2.174,-7.461 0.142,-7.5 0.095,-7.501 0.047,-7.501 0,-7.5 c -2.032,-0.039 -3.711,1.576 -3.75,3.608 -10e-4,0.047 -10e-4,0.095 0,0.142 -0.039,2.032 1.576,3.711 3.608,3.75 0.047,0.001 0.095,0.001 0.142,0" /></g><g
           transform="translate(71.25,2301.75)"
           id="g224"><path
             id="path226"
             style="fill:#ff8000;fill-opacity:1;fill-rule:nonzero;stroke:none"
             d="m 0,0 c -3.007,0.016 -5.812,1.512 -7.5,4 0,2.5 5,3.87 7.5,3.87 2.5,0 7.5,-1.38 7.5,-3.88 C 5.81,1.506 3.005,0.014 0,0" /></g><g
           transform="translate(73.0342,2255.0781)"
           id="g228"><path
             id="path230"
             style="fill:#ff8000;fill-opacity:1;fill-rule:nonzero;stroke:none"
             d="m 0,0 c -2.94,0 -6.396,4.803 -7.408,8.933 -0.315,1.282 -0.823,4.379 1.231,5.45 l 1.57,0.73 2.369,-4.624 -1.608,-0.791 -0.05,-0.117 c -0.319,-0.75 0.517,-2.458 1.004,-3.257 0.567,-0.928 1.063,-1.415 1.474,-1.445 l 0.115,-0.008 0.098,0.063 c 0.083,0.046 0.957,0.477 1.431,0.711 L 2.635,0.999 C 2.111,0.743 1.114,0.255 1.063,0.23 0.73,0.079 0.371,0 0,0" /></g><g
           transform="translate(70.5,2275.1348)"
           id="g232"><path
             id="path234"
             style="fill:none;stroke:#ff8000;stroke-width:1.5;stroke-linecap:butt;stroke-linejoin:miter;stroke-miterlimit:10;stroke-dasharray:none;stroke-opacity:1"
             d="m 0,0 c -6.875,0 -12.5,-5.625 -12.5,-12.5 0,-6.875 5.625,-12.5 12.5,-12.5 6.875,0 12.5,5.625 12.5,12.5 C 12.5,-5.625 6.875,0 0,0 Z" /></g><path
           id="path236"
           style="fill:#ff8000;fill-opacity:1;fill-rule:nonzero;stroke:none"
           d="m 76.509,2622 h 4.368 v 1.615 h -4.368 z" /><path
           id="path238"
           style="fill:#ff8000;fill-opacity:1;fill-rule:nonzero;stroke:none"
           d="M 73.178,2623.615 H 61.575 V 2622 h 11.603 z" /><path
           id="path240"
           style="fill:#ff8000;fill-opacity:1;fill-rule:nonzero;stroke:none"
           d="M 73.178,2631 H 61.575 v -1.615 h 11.603 z" /><path
           id="path242"
           style="fill:#ff8000;fill-opacity:1;fill-rule:nonzero;stroke:none"
           d="m 76.509,2629.385 h 4.368 V 2631 h -4.368 z" /><path
           id="path244"
           style="fill:#ff8000;fill-opacity:1;fill-rule:nonzero;stroke:none"
           d="m 76.509,2636.769 h 4.368 v 1.615 h -4.368 z" /><path
           id="path246"
           style="fill:#ff8000;fill-opacity:1;fill-rule:nonzero;stroke:none"
           d="M 73.178,2638.384 H 61.575 v -1.615 h 11.603 z" /><g
           transform="translate(54.7705,2540.7217)"
           id="g248"><path
             id="path250"
             style="fill:none;stroke:#ff8000;stroke-width:1.5;stroke-linecap:butt;stroke-linejoin:miter;stroke-miterlimit:10;stroke-dasharray:none;stroke-opacity:1"
             d="M 0,0 H 21.226 V -15.821 H 12.394" /></g><g
           transform="translate(78.3691,2524.9004)"
           id="g252"><path
             id="path254"
             style="fill:none;stroke:#ff8000;stroke-width:1.5;stroke-linecap:butt;stroke-linejoin:miter;stroke-miterlimit:10;stroke-dasharray:none;stroke-opacity:1"
             d="M 0,0 H -2.373 V 12.195 H 1.319 5.011 L 8.175,6.098 V 0 H 5.802" /></g><g
           transform="translate(67.1641,2524.9004)"
           id="g256"><path
             id="path258"
             style="fill:none;stroke:#ff8000;stroke-width:1.5;stroke-linecap:butt;stroke-linejoin:miter;stroke-miterlimit:10;stroke-dasharray:none;stroke-opacity:1"
             d="m 0,0 c 0,-1.602 -1.3,-2.9 -2.901,-2.9 -1.602,0 -2.9,1.298 -2.9,2.9 0,1.602 1.298,2.901 2.9,2.901 C -1.3,2.901 0,1.602 0,0 Z" /></g><g
           transform="translate(84.1709,2524.9004)"
           id="g260"><path
             id="path262"
             style="fill:none;stroke:#ff8000;stroke-width:1.5;stroke-linecap:butt;stroke-linejoin:miter;stroke-miterlimit:10;stroke-dasharray:none;stroke-opacity:1"
             d="m 0,0 c 0,-1.602 -1.299,-2.9 -2.9,-2.9 -1.603,0 -2.902,1.298 -2.902,2.9 0,1.602 1.299,2.901 2.902,2.901 C -1.299,2.901 0,1.602 0,0 Z" /></g><g
           transform="translate(58.3301,2536.7324)"
           id="g264"><path
             id="path266"
             style="fill:none;stroke:#ff8000;stroke-width:1.5;stroke-linecap:butt;stroke-linejoin:miter;stroke-miterlimit:10;stroke-dasharray:none;stroke-opacity:1"
             d="M 0,0 H 11.141" /></g><g
           transform="translate(61.2383,2524.9004)"
           id="g268"><path
             id="path270"
             style="fill:none;stroke:#ff8000;stroke-width:1.5;stroke-linecap:butt;stroke-linejoin:miter;stroke-miterlimit:10;stroke-dasharray:none;stroke-opacity:1"
             d="M 0,0 H -2.908 V 3.956 7.91 h 6.921" /></g><path
           id="path272"
           style="fill:none;stroke:#ff8000;stroke-width:1.5;stroke-linecap:butt;stroke-linejoin:miter;stroke-miterlimit:10;stroke-dasharray:none;stroke-opacity:1"
           d="M 79,2666.195 H 62.824 v 23.169 H 79 Z" /><g
           transform="translate(65.9746,2684.4517)"
           id="g274"><path
             id="path276"
             style="fill:none;stroke:#ff8000;stroke-width:1.5;stroke-linecap:butt;stroke-linejoin:miter;stroke-miterlimit:10;stroke-dasharray:none;stroke-opacity:1"
             d="M 0,0 H 9.875" /></g><g
           transform="translate(65.9746,2681.1157)"
           id="g278"><path
             id="path280"
             style="fill:none;stroke:#ff8000;stroke-width:1.5;stroke-linecap:butt;stroke-linejoin:miter;stroke-miterlimit:10;stroke-dasharray:none;stroke-opacity:1"
             d="M 0,0 H 9.875" /></g><g
           transform="translate(65.9746,2677.7798)"
           id="g282"><path
             id="path284"
             style="fill:none;stroke:#ff8000;stroke-width:1.5;stroke-linecap:butt;stroke-linejoin:miter;stroke-miterlimit:10;stroke-dasharray:none;stroke-opacity:1"
             d="M 0,0 H 9.875" /></g><g
           transform="translate(65.9746,2674.4438)"
           id="g286"><path
             id="path288"
             style="fill:none;stroke:#ff8000;stroke-width:1.5;stroke-linecap:butt;stroke-linejoin:miter;stroke-miterlimit:10;stroke-dasharray:none;stroke-opacity:1"
             d="M 0,0 H 9.875" /></g><g
           transform="translate(65.9746,2671.1079)"
           id="g290"><path
             id="path292"
             style="fill:none;stroke:#ff8000;stroke-width:1.5;stroke-linecap:butt;stroke-linejoin:miter;stroke-miterlimit:10;stroke-dasharray:none;stroke-opacity:1"
             d="M 0,0 H 3.664" /></g><g
           transform="translate(82.1953,2577.1133)"
           id="g294"><path
             id="path296"
             style="fill:none;stroke:#ff8000;stroke-width:1.5;stroke-linecap:round;stroke-linejoin:round;stroke-miterlimit:10;stroke-dasharray:none;stroke-opacity:1"
             d="m 0,0 -6.154,-6.154 -18.137,18.136 6.154,6.155 z" /></g><g
           transform="translate(60.3164,2586.6836)"
           id="g298"><path
             id="path300"
             style="fill:none;stroke:#ff8000;stroke-width:1.5;stroke-linecap:round;stroke-linejoin:round;stroke-miterlimit:10;stroke-dasharray:none;stroke-opacity:1"
             d="M 0,0 4.19,4.19" /></g><g
           transform="translate(62.9785,2584.021)"
           id="g302"><path
             id="path304"
             style="fill:none;stroke:#ff8000;stroke-width:1.5;stroke-linecap:round;stroke-linejoin:round;stroke-miterlimit:10;stroke-dasharray:none;stroke-opacity:1"
             d="M 0,0 3.077,3.077" /></g><g
           transform="translate(65.6416,2581.3589)"
           id="g306"><path
             id="path308"
             style="fill:none;stroke:#ff8000;stroke-width:1.5;stroke-linecap:round;stroke-linejoin:round;stroke-miterlimit:10;stroke-dasharray:none;stroke-opacity:1"
             d="M 0,0 4.189,4.19" /></g><g
           transform="translate(68.3037,2578.6963)"
           id="g310"><path
             id="path312"
             style="fill:none;stroke:#ff8000;stroke-width:1.5;stroke-linecap:round;stroke-linejoin:round;stroke-miterlimit:10;stroke-dasharray:none;stroke-opacity:1"
             d="M 0,0 3.077,3.077" /></g><g
           transform="translate(70.9658,2576.0337)"
           id="g314"><path
             id="path316"
             style="fill:none;stroke:#ff8000;stroke-width:1.5;stroke-linecap:round;stroke-linejoin:round;stroke-miterlimit:10;stroke-dasharray:none;stroke-opacity:1"
             d="M 0,0 4.19,4.19" /></g><g
           transform="translate(73.6289,2573.3711)"
           id="g318"><path
             id="path320"
             style="fill:none;stroke:#ff8000;stroke-width:1.5;stroke-linecap:round;stroke-linejoin:round;stroke-miterlimit:10;stroke-dasharray:none;stroke-opacity:1"
             d="M 0,0 3.077,3.077" /></g><g
           transform="translate(71.001,1703.3135)"
           id="g322"><path
             id="path324"
             style="fill:#cfcece;fill-opacity:1;fill-rule:nonzero;stroke:none"
             d="m 0,0 c 0.048,-2.466 1.46,-4.785 2.511,-6.175 0.05,-0.062 0.104,-0.133 0.162,-0.206 L 2.848,-6.603 2.836,-6.609 c 0.51,-0.716 1.108,-1.748 1.404,-2.942 4.599,2.37 7.759,7.281 7.759,12.961 0,7.992 -6.27,14.473 -14,14.473 -7.732,0 -14,-6.481 -14,-14.473 0,-7.996 6.268,-14.474 14,-14.474 1.761,0 3.451,0.336 5.003,0.952 -0.503,0.853 -1.388,2.005 -2.731,2.601 -0.7,-0.146 -1.42,-0.223 -2.164,-0.223 -5.95,0 -10.777,4.989 -10.777,11.144 0,6.151 4.827,11.14 10.777,11.14 C 4.062,14.55 8.89,9.561 8.89,3.41 8.89,1.375 8.359,-0.527 7.443,-2.167 7.459,0.025 6.608,2.332 5.414,3.754 3.229,6.358 4.972,9.381 4.972,9.381 0.342,7.505 -0.048,2.495 0,0" /></g><g
           transform="translate(77.252,1655.9922)"
           id="g326"><path
             id="path328"
             style="fill:#333333;fill-opacity:1;fill-rule:nonzero;stroke:none"
             d="m 0,0 -11.348,-11.349 -2.382,2.384 9.02,9.023 2.372,-2.372 1.178,1.178 -2.371,2.371 1.147,1.148 z m -12.526,-12.527 -2.986,-0.604 0.602,2.986 z m -3.918,3.207 -1.2,-5.94 5.941,1.197 14.061,14.061 -4.742,4.742 z" /></g><g
           transform="translate(79.7764,1610.374)"
           id="g330"><path
             id="path332"
             style="fill:#333333;fill-opacity:1;fill-rule:nonzero;stroke:none"
             d="M 0,0 V -1.667 H -16.667 V 0 h 4.759 c 0.751,0 1.359,0.916 1.359,1.667 h 4.43 C -6.119,0.916 -5.512,0 -4.76,0 Z m -3.334,-15 c 0,-0.46 -0.373,-0.833 -0.833,-0.833 -0.46,0 -0.833,0.373 -0.833,0.833 v 8.333 c 0,0.46 0.373,0.834 0.833,0.834 0.46,0 0.833,-0.374 0.833,-0.834 z m -4.166,0 c 0,-0.46 -0.374,-0.833 -0.834,-0.833 -0.459,0 -0.833,0.373 -0.833,0.833 v 8.333 c 0,0.46 0.374,0.834 0.833,0.834 0.46,0 0.834,-0.374 0.834,-0.834 z m -4.167,0 c 0,-0.46 -0.374,-0.833 -0.833,-0.833 -0.46,0 -0.834,0.373 -0.834,0.833 v 8.333 c 0,0.46 0.374,0.834 0.834,0.834 0.459,0 0.833,-0.374 0.833,-0.834 z m -4.167,-3.333 h 15 v 15 h -15 z" /></g></g></g></g></svg>