<?xml version="1.0" encoding="UTF-8" standalone="no"?>
<svg
   xmlns:dc="http://purl.org/dc/elements/1.1/"
   xmlns:cc="http://creativecommons.org/ns#"
   xmlns:rdf="http://www.w3.org/1999/02/22-rdf-syntax-ns#"
   xmlns:svg="http://www.w3.org/2000/svg"
   xmlns="http://www.w3.org/2000/svg"
   viewBox="0 0 68 750.66669"
   height="750.66669"
   width="68"
   xml:space="preserve"
   id="svg2"
   version="1.1"><metadata
     id="metadata8"><rdf:RDF><cc:Work
         rdf:about=""><dc:format>image/svg+xml</dc:format><dc:type
           rdf:resource="http://purl.org/dc/dcmitype/StillImage" /></cc:Work></rdf:RDF></metadata><defs
     id="defs6"><clipPath
       id="clipPath18"
       clipPathUnits="userSpaceOnUse"><path
         id="path16"
         d="M 0,563 H 51 V 0 H 0 Z" /></clipPath></defs><g
     transform="matrix(1.3333333,0,0,-1.3333333,0,750.66667)"
     id="g10"><g
       id="g12"><g
         clip-path="url(#clipPath18)"
         id="g14"><g
           transform="translate(11.8999,548.3999)"
           id="g20"><path
             id="path22"
             style="fill:#333333;fill-opacity:1;fill-rule:nonzero;stroke:none"
             d="m 0,0 h -0.8 c -1.3,0 -2.3,1 -2.3,2.3 0,1.3 1,2.3 2.3,2.3 H 0 V 3.8 h -0.8 c -0.8,0 -1.5,-0.7 -1.5,-1.5 0,-0.8 0.7,-1.5 1.5,-1.5 l 0.8,0 z" /></g><path
           id="path24"
           style="fill:#333333;fill-opacity:1;fill-rule:nonzero;stroke:none"
           d="m 15.7,549.2 h 3.4 v -0.8 h -3.4 z" /><path
           id="path26"
           style="fill:#333333;fill-opacity:1;fill-rule:nonzero;stroke:none"
           d="m 22.9,549.2 h 3.4 v -0.8 h -3.4 z" /><path
           id="path28"
           style="fill:#333333;fill-opacity:1;fill-rule:nonzero;stroke:none"
           d="m 30.1,549.2 h 3.4 v -0.8 h -3.4 z" /><g
           transform="translate(38.0996,548.3999)"
           id="g30"><path
             id="path32"
             style="fill:#333333;fill-opacity:1;fill-rule:nonzero;stroke:none"
             d="M 0,0 H -0.8 V 0.8 H 0 C 0.801,0.8 1.5,1.5 1.5,2.3 1.5,3.1 0.801,3.8 0,3.8 H -0.8 V 4.6 H 0 C 1.301,4.6 2.301,3.6 2.301,2.3 2.301,1 1.2,0 0,0" /></g><path
           id="path34"
           style="fill:#333333;fill-opacity:1;fill-rule:nonzero;stroke:none"
           d="m 30.1,553 h 3.4 v -0.8 h -3.4 z" /><path
           id="path36"
           style="fill:#333333;fill-opacity:1;fill-rule:nonzero;stroke:none"
           d="m 22.9,553 h 3.4 v -0.8 h -3.4 z" /><path
           id="path38"
           style="fill:#333333;fill-opacity:1;fill-rule:nonzero;stroke:none"
           d="m 15.7,553 h 3.4 v -0.8 h -3.4 z" /><g
           transform="translate(11.5,525.6001)"
           id="g40"><path
             id="path42"
             style="fill:#333333;fill-opacity:1;fill-rule:nonzero;stroke:none"
             d="M 0,0 Z" /></g><g
           transform="translate(15.7002,525.2998)"
           id="g44"><path
             id="path46"
             style="fill:#333333;fill-opacity:1;fill-rule:nonzero;stroke:none"
             d="m 0,0 c -0.2,0 -0.4,0.2 -0.4,0.4 v 28.9 c 0,0.8 -0.7,1.5 -1.5,1.5 -0.8,0 -1.5,-0.7 -1.5,-1.5 V 0.4 C -3.4,0.2 -3.6,0 -3.8,0 -4,0 -4.2,0.2 -4.2,0.4 v 28.9 c 0,1.3 1,2.3 2.3,2.3 1.3,0 2.3,-1 2.3,-2.3 L 0.4,0.4 C 0.4,0.2 0.2,0 0,0" /></g><g
           transform="translate(37.2998,525.2998)"
           id="g48"><path
             id="path50"
             style="fill:#333333;fill-opacity:1;fill-rule:nonzero;stroke:none"
             d="m 0,0 c -0.2,0 -0.399,0.2 -0.399,0.4 v 28.9 c 0,0.8 -0.701,1.5 -1.5,1.5 -0.801,0 -1.5,-0.7 -1.5,-1.5 V 0.4 C -3.399,0.2 -3.6,0 -3.8,0 -4,0 -4.2,0.2 -4.2,0.4 v 28.9 c 0,1.3 1,2.3 2.301,2.3 1.299,0 2.299,-1 2.299,-2.3 L 0.4,0.4 C 0.3,0.2 0.2,0 0,0" /></g><g
           transform="translate(22.8999,525.2998)"
           id="g52"><path
             id="path54"
             style="fill:#333333;fill-opacity:1;fill-rule:nonzero;stroke:none"
             d="m 0,0 c -0.2,0 -0.4,0.2 -0.4,0.4 v 28.9 c 0,0.8 -0.7,1.5 -1.5,1.5 -0.8,0 -1.5,-0.7 -1.5,-1.5 V 0.4 C -3.4,0.2 -3.6,0 -3.8,0 -4,0 -4.2,0.2 -4.2,0.4 v 28.9 c 0,1.3 1,2.3 2.3,2.3 1.3,0 2.3,-1 2.3,-2.3 L 0.4,0.4 C 0.4,0.2 0.2,0 0,0" /></g><g
           transform="translate(30.0996,525.2998)"
           id="g56"><path
             id="path58"
             style="fill:#333333;fill-opacity:1;fill-rule:nonzero;stroke:none"
             d="m 0,0 c -0.199,0 -0.399,0.2 -0.399,0.4 v 28.9 c 0,0.8 -0.701,1.5 -1.5,1.5 -0.8,0 -1.5,-0.7 -1.5,-1.5 V 0.4 C -3.399,0.2 -3.6,0 -3.8,0 -4,0 -4.2,0.2 -4.2,0.4 v 28.9 c 0,1.3 1.001,2.3 2.301,2.3 1.299,0 2.299,-1 2.299,-2.3 L 0.4,0.4 C 0.4,0.2 0.2,0 0,0" /></g><path
           id="path60"
           style="fill:#333333;fill-opacity:1;fill-rule:nonzero;stroke:none"
           d="m 16.2,495.1 h 16.899 v -0.8 H 16.2 Z" /><path
           id="path62"
           style="fill:#333333;fill-opacity:1;fill-rule:nonzero;stroke:none"
           d="m 16.2,499 h 16.899 v -0.8 H 16.2 Z" /><path
           id="path64"
           style="fill:#333333;fill-opacity:1;fill-rule:nonzero;stroke:none"
           d="m 16.2,502 h 16.899 v -0.8 H 16.2 Z" /><path
           id="path66"
           style="fill:#333333;fill-opacity:1;fill-rule:nonzero;stroke:none"
           d="m 16.2,505.9 h 16.899 v -0.8 H 16.2 Z" /><g
           transform="translate(37.2998,488.2002)"
           id="g68"><path
             id="path70"
             style="fill:#333333;fill-opacity:1;fill-rule:nonzero;stroke:none"
             d="M 0,0 H 0.8 C 1.601,0 2.3,0.7 2.3,1.5 2.3,2.3 1.601,3 0.8,3 H 0 Z M 0.8,-0.8 H -0.7 V 3.8 H 0.8 C 2.101,3.8 3.101,2.8 3.101,1.5 3.101,0.3 2,-0.8 0.8,-0.8" /></g><path
           id="path72"
           style="fill:#333333;fill-opacity:1;fill-rule:nonzero;stroke:none"
           d="m 16.5,488.2 h 16.2 v 3.1 H 16.5 Z m 16.9,-0.8 H 15.7 v 4.6 h 17.7 z" /><g
           transform="translate(11.1001,491.2998)"
           id="g74"><path
             id="path76"
             style="fill:#333333;fill-opacity:1;fill-rule:nonzero;stroke:none"
             d="M 0,0 C -0.8,0 -1.5,-0.7 -1.5,-1.5 -1.5,-2.3 -0.8,-3 0,-3 H 0.8 V 0.1 L 0,0.1 Z M 1.6,-3.9 H 0.1 c -1.3,0 -2.3,1 -2.3,2.3 0,1.3 1,2.3 2.3,2.3 h 1.5 z" /></g><g
           transform="translate(11.1001,512.1001)"
           id="g78"><path
             id="path80"
             style="fill:#333333;fill-opacity:1;fill-rule:nonzero;stroke:none"
             d="M 0,0 C -0.8,0 -1.5,-0.7 -1.5,-1.5 -1.5,-2.3 -0.8,-3 0,-3 H 0.8 V 0.1 L 0,0.1 Z M 1.6,-3.9 H 0.1 c -1.3,0 -2.3,1 -2.3,2.3 0,1.3 1,2.3 2.3,2.3 h 1.5 z" /></g><g
           transform="translate(37.2998,509)"
           id="g82"><path
             id="path84"
             style="fill:#333333;fill-opacity:1;fill-rule:nonzero;stroke:none"
             d="M 0,0 H 0.8 C 1.601,0 2.3,0.7 2.3,1.5 2.3,2.3 1.601,3 0.8,3 H 0 Z M 0.8,-0.8 H -0.7 V 3.8 H 0.8 C 2.101,3.8 3.101,2.8 3.101,1.5 3.101,0.2 2,-0.8 0.8,-0.8" /></g><path
           id="path86"
           style="fill:#333333;fill-opacity:1;fill-rule:nonzero;stroke:none"
           d="m 16.5,509 h 16.2 v 3.1 H 16.5 Z m 16.9,-0.8 H 15.7 v 4.6 h 17.7 z" /><g
           transform="translate(14.2002,484.2998)"
           id="g88"><path
             id="path90"
             style="fill:#333333;fill-opacity:1;fill-rule:nonzero;stroke:none"
             d="m 0,0 c -1.3,0 -2.3,1 -2.3,2.3 v 1.2 h 0.8 V 2.3 c 0,-0.8 0.7,-1.5 1.5,-1.5 0.8,0 1.5,0.7 1.5,1.5 V 3.5 H 2.3 V 2.3 C 2.3,1.1 1.3,0 0,0" /></g><path
           id="path92"
           style="fill:#333333;fill-opacity:1;fill-rule:nonzero;stroke:none"
           d="m 15.7,508.6 h 0.8 v -16.9 h -0.8 z" /><path
           id="path94"
           style="fill:#333333;fill-opacity:1;fill-rule:nonzero;stroke:none"
           d="m 11.9,508.6 h 0.8 v -16.9 h -0.8 z" /><g
           transform="translate(16.5,512.3999)"
           id="g96"><path
             id="path98"
             style="fill:#333333;fill-opacity:1;fill-rule:nonzero;stroke:none"
             d="M 0,0 H -0.8 V 1.2 C -0.8,2 -1.5,2.7 -2.3,2.7 -3.1,2.7 -3.8,2 -3.8,1.2 V 0 h -0.8 v 1.2 c 0,1.3 1,2.3 2.3,2.3 C -1,3.5 0,2.5 0,1.2 Z" /></g><path
           id="path100"
           style="fill:#333333;fill-opacity:1;fill-rule:nonzero;stroke:none"
           d="m 32.7,508.6 h 0.8 v -16.9 h -0.8 z" /><path
           id="path102"
           style="fill:#333333;fill-opacity:1;fill-rule:nonzero;stroke:none"
           d="m 36.5,508.6 h 0.8 v -16.9 h -0.8 z" /><g
           transform="translate(35,484.2998)"
           id="g104"><path
             id="path106"
             style="fill:#333333;fill-opacity:1;fill-rule:nonzero;stroke:none"
             d="m 0,0 c -1.3,0 -2.3,1 -2.3,2.3 v 1.2 h 0.8 V 2.3 c 0,-0.8 0.7,-1.5 1.5,-1.5 0.8,0 1.5,0.7 1.5,1.5 V 3.5 H 2.3 V 2.3 C 2.3,1.1 1.3,0 0,0" /></g><g
           transform="translate(37.2998,512.3999)"
           id="g108"><path
             id="path110"
             style="fill:#333333;fill-opacity:1;fill-rule:nonzero;stroke:none"
             d="M 0,0 H -0.8 V 1.2 C -0.8,2 -1.5,2.7 -2.3,2.7 -3.1,2.7 -3.8,2 -3.8,1.2 V 0 h -0.8 v 1.2 c 0,1.3 1,2.3 2.3,2.3 C -1,3.5 0,2.5 0,1.2 Z" /></g><g
           transform="translate(39.2002,455.2998)"
           id="g112"><path
             id="path114"
             style="fill:#333333;fill-opacity:1;fill-rule:nonzero;stroke:none"
             d="M 0,0 H -2.101 C -3,0 -3.8,0.7 -3.8,1.7 v 1 H -3 v -1 C -3,1.2 -2.601,0.8 -2.101,0.8 H 0 c 0.5,0 0.899,0.4 0.899,0.9 V 4 H 1.7 V 1.7 C 1.7,0.7 0.899,0 0,0" /></g><g
           transform="translate(11.6001,460.5)"
           id="g116"><path
             id="path118"
             style="fill:#333333;fill-opacity:1;fill-rule:nonzero;stroke:none"
             d="m 0,0 v -17.8 c 0,-0.4 0.3,-0.7 0.7,-0.7 h 6.7 c 0.4,0 0.7,0.3 0.7,0.7 v 6.4 c 0,0.4 0.2,0.8 0.5,1.1 6.1,5.8 17.4,8.7 20.8,9.5 0.3,0.1 0.6,0.4 0.6,0.7 0,0.2 -0.1,0.4 -0.2,0.5 -0.1,0.1 -0.3,0.2 -0.5,0.2 -8,0 -16.7,-2.4 -19.2,-3.2 -0.5,-0.1 -0.9,0 -1.3,0.2 -0.4,0.3 -0.6,0.7 -0.6,1.2 L 8.2,0 Z M 7.4,-19.2 H 0.7 c -0.8,0 -1.5,0.7 -1.5,1.5 V 0.8 h 9.7 v -1.9 c 0,-0.2 0.1,-0.4 0.3,-0.6 0.2,-0.1 0.4,-0.2 0.6,-0.1 2.5,0.7 11.3,3.2 19.4,3.2 0.4,0 0.8,-0.2 1,-0.4 0.3,-0.3 0.4,-0.7 0.4,-1.1 0,-0.7 -0.5,-1.3 -1.2,-1.5 C 16.4,-4.6 10.5,-9.5 9,-10.9 8.9,-11 8.8,-11.2 8.8,-11.4 v -6.4 c 0.1,-0.7 -0.5,-1.4 -1.4,-1.4" /></g><g
           transform="translate(11.6001,463.6001)"
           id="g120"><path
             id="path122"
             style="fill:#333333;fill-opacity:1;fill-rule:nonzero;stroke:none"
             d="m 0,0 h 8.1 v 2 c 0,0.7 0.3,1.4 0.9,1.9 1.5,1.2 5,3.1 12.3,3.3 0.3,0 0.6,0.3 0.6,0.6 0,0.3 -0.3,0.6 -0.6,0.6 C 10.4,8.8 4.6,6.9 3.1,6.3 1.2,5.6 -0.1,3.7 -0.1,1.7 V 0 Z m 8.9,-0.8 h -9.7 v 2.5 c 0,2.4 1.5,4.5 3.7,5.4 2.6,1 6.1,1.7 10.4,2 3.5,0.3 6.6,0.2 8.1,0.2 0.8,0 1.4,-0.6 1.4,-1.4 C 22.8,7.1 22.2,6.5 21.4,6.5 14.3,6.3 10.9,4.5 9.5,3.4 9.1,3.1 8.9,2.6 8.9,2.1 Z" /></g><g
           transform="translate(38.2002,452.7998)"
           id="g124"><path
             id="path126"
             style="fill:#333333;fill-opacity:1;fill-rule:nonzero;stroke:none"
             d="M 0,0 -1.601,-3.8 C -1.8,-4.4 -1.8,-5 -1.5,-5.5 -1.2,-6 -0.7,-6.3 -0.101,-6.3 H 0.1 c 0.6,0 1.1,0.3 1.4,0.8 0.3,0.5 0.399,1.2 0.1,1.7 z m 0,-7.1 h -0.101 c -0.799,0 -1.599,0.5 -2,1.2 -0.5,0.7 -0.5,1.6 -0.199,2.4 l 1.699,3.9 C -0.5,0.7 -0.2,0.9 0.1,0.9 0.399,0.9 0.7,0.7 0.8,0.4 L 2.5,-3.5 C 2.8,-4.3 2.8,-5.2 2.3,-5.9 1.8,-6.6 1.1,-7.1 0.3,-7.1 Z" /></g><g
           transform="translate(39.0996,416.6001)"
           id="g128"><path
             id="path130"
             style="fill:#333333;fill-opacity:1;fill-rule:nonzero;stroke:none"
             d="m 0,0 h -0.8 c 0,1.8 -0.7,3.4 -2,4.6 -1.3,1.2 -3,1.9 -4.899,1.9 -1.901,0 -3.601,-0.7 -4.901,-1.9 -1.299,-1.2 -2,-2.9 -2,-4.6 h -0.799 c 0,2 0.799,3.8 2.299,5.2 1.401,1.4 3.401,2.1 5.401,2.1 2.099,0 4,-0.7 5.399,-2.1 C -0.899,3.8 0,2 0,0" /></g><g
           transform="translate(11.6001,398.5)"
           id="g132"><path
             id="path134"
             style="fill:#333333;fill-opacity:1;fill-rule:nonzero;stroke:none"
             d="m 0,0 c -1,0 -1.7,0.8 -1.7,1.7 v 18.1 c 0,6.4 5.2,11.7 11.6,11.8 2.2,0 4.4,-0.6 6.2,-1.7 1.8,-1.1 3.3,-2.7 4.3,-4.6 L 19.7,25 c -0.9,1.8 -2.3,3.3 -4,4.3 -1.7,1.1 -3.8,1.6 -5.8,1.6 -6,-0.1 -10.8,-5 -10.8,-11 V 1.8 c 0,-0.5 0.4,-1 1,-1 0.5,0 1,0.4 1,1 v 18.1 c 0,5 4,9 8.9,9.1 3.1,0 5.9,-1.5 7.5,-4.1 L 16.9,24.5 C 15.4,26.9 12.8,28.3 10,28.3 5.5,28.3 1.8,24.6 1.8,20 V 1.9 C 1.7,0.8 0.9,0 0,0" /></g><g
           transform="translate(23.2998,416.2002)"
           id="g136"><path
             id="path138"
             style="fill:#333333;fill-opacity:1;fill-rule:nonzero;stroke:none"
             d="m 0,0 c -0.6,0 -1.2,-0.5 -1.2,-1.2 0,-0.6 0.5,-1.2 1.2,-1.2 h 16.101 c 0.599,0 1.199,0.5 1.199,1.2 0,0.6 -0.5,1.2 -1.199,1.2 z M 16.101,-3.1 H 0 c -1.1,0 -1.9,0.9 -1.9,1.9 0,1.1 0.9,1.9 1.9,1.9 H 16.101 C 17.2,0.7 18,-0.2 18,-1.2 c 0.101,-1 -0.8,-1.9 -1.899,-1.9" /></g><g
           transform="translate(25.2002,410.7998)"
           id="g140"><path
             id="path142"
             style="fill:#333333;fill-opacity:1;fill-rule:nonzero;stroke:none"
             d="m 0,0 c -0.4,0 -0.8,-0.3 -0.8,-0.8 v -3.1 c 0,-0.4 0.3,-0.8 0.8,-0.8 0.5,0 0.8,0.3 0.8,0.8 v 3.1 C 0.8,-0.3 0.4,0 0,0 m 0,-5.4 c -0.8,0 -1.5,0.7 -1.5,1.5 v 3.1 C -1.5,0 -0.8,0.7 0,0.7 0.8,0.7 1.5,0 1.5,-0.8 V -3.9 C 1.5,-4.7 0.8,-5.4 0,-5.4" /></g><g
           transform="translate(37.5,410.7998)"
           id="g144"><path
             id="path146"
             style="fill:#333333;fill-opacity:1;fill-rule:nonzero;stroke:none"
             d="m 0,0 c -0.4,0 -0.8,-0.3 -0.8,-0.8 v -3.1 c 0,-0.4 0.3,-0.8 0.8,-0.8 0.4,0 0.8,0.3 0.8,0.8 v 3.1 C 0.8,-0.3 0.4,0 0,0 m 0,-5.4 c -0.8,0 -1.5,0.7 -1.5,1.5 v 3.1 C -1.5,0 -0.8,0.7 0,0.7 0.8,0.7 1.5,0 1.5,-0.8 V -3.9 C 1.6,-4.7 0.9,-5.4 0,-5.4" /></g><g
           transform="translate(31.4004,410.7998)"
           id="g148"><path
             id="path150"
             style="fill:#333333;fill-opacity:1;fill-rule:nonzero;stroke:none"
             d="m 0,0 c -0.4,0 -0.801,-0.3 -0.801,-0.8 v -3.1 c 0,-0.4 0.301,-0.8 0.801,-0.8 0.5,0 0.8,0.3 0.8,0.8 v 3.1 C 0.699,-0.3 0.399,0 0,0 m 0,-5.4 c -0.801,0 -1.5,0.7 -1.5,1.5 v 3.1 C -1.5,0 -0.801,0.7 0,0.7 0.8,0.7 1.5,0 1.5,-0.8 V -3.9 C 1.5,-4.7 0.8,-5.4 0,-5.4" /></g><g
           transform="translate(34.4004,403.8999)"
           id="g152"><path
             id="path154"
             style="fill:#333333;fill-opacity:1;fill-rule:nonzero;stroke:none"
             d="m 0,0 c -0.4,0 -0.801,-0.3 -0.801,-0.8 v -3.1 c 0,-0.4 0.301,-0.8 0.801,-0.8 0.399,0 0.8,0.3 0.8,0.8 v 3.1 C 0.8,-0.4 0.5,0 0,0 m 0,-5.4 c -0.801,0 -1.5,0.7 -1.5,1.5 v 3.1 C -1.5,0 -0.801,0.7 0,0.7 0.8,0.7 1.5,0 1.5,-0.8 V -3.9 C 1.6,-4.7 0.899,-5.4 0,-5.4" /></g><g
           transform="translate(28.2998,403.8999)"
           id="g156"><path
             id="path158"
             style="fill:#333333;fill-opacity:1;fill-rule:nonzero;stroke:none"
             d="m 0,0 c -0.399,0 -0.8,-0.3 -0.8,-0.8 v -3.1 c 0,-0.4 0.3,-0.8 0.8,-0.8 0.5,0 0.8,0.3 0.8,0.8 v 3.1 C 0.7,-0.4 0.4,0 0,0 m 0,-5.4 c -0.8,0 -1.5,0.7 -1.5,1.5 v 3.1 C -1.5,0 -0.8,0.7 0,0.7 0.8,0.7 1.5,0 1.5,-0.8 V -3.9 C 1.5,-4.7 0.8,-5.4 0,-5.4" /></g><path
           id="path160"
           style="fill:#333333;fill-opacity:1;fill-rule:nonzero;stroke:none"
           d="m 14.6,368.4 h 20 v -0.8 h -20 z" /><g
           transform="translate(31.5996,370.5)"
           id="g162"><path
             id="path164"
             style="fill:#333333;fill-opacity:1;fill-rule:nonzero;stroke:none"
             d="m 0,0 h -0.8 l 0.601,10.9 c 0.099,0.5 -0.101,1 -0.301,1.3 -0.199,0.2 -0.5,0.4 -0.699,0.4 h -11.7 c -0.301,0 -0.5,-0.1 -0.701,-0.4 -0.299,-0.3 -0.4,-0.8 -0.299,-1.3 L -13.3,0 h -0.8 l -0.6,10.8 c -0.1,0.7 0.1,1.4 0.5,1.9 0.301,0.4 0.801,0.6 1.301,0.6 h 11.7 c 0.5,0 1,-0.2 1.3,-0.6 0.399,-0.5 0.599,-1.2 0.5,-1.9 z" /></g><g
           transform="translate(24.6001,360.2002)"
           id="g166"><path
             id="path168"
             style="fill:#333333;fill-opacity:1;fill-rule:nonzero;stroke:none"
             d="m 0,0 c -0.1,0 -0.3,0.1 -0.3,0.3 0,0.2 0.1,0.3 0.3,0.3 0.9,0 1.8,0.1 2.6,0.2 C 2.7,0.8 2.9,0.7 2.9,0.6 2.9,0.5 2.8,0.3 2.7,0.3 1.8,0.1 0.9,0 0,0" /></g><g
           transform="translate(24.6001,360.2002)"
           id="g170"><path
             id="path172"
             style="fill:#333333;fill-opacity:1;fill-rule:nonzero;stroke:none"
             d="m 0,0 c -0.9,0 -1.8,0.1 -2.7,0.2 -0.1,0 -0.2,0.2 -0.2,0.3 0,0.1 0.2,0.2 0.3,0.2 C -1.8,0.5 -0.9,0.5 0,0.5 0.1,0.5 0.3,0.4 0.3,0.2 0.3,0 0.1,0 0,0" /></g><g
           transform="translate(15.3999,370.1001)"
           id="g174"><path
             id="path176"
             style="fill:#333333;fill-opacity:1;fill-rule:nonzero;stroke:none"
             d="m 0,0 c -0.2,0 -0.4,-0.2 -0.4,-0.5 v -1.6 c 0,-2.7 2.3,-5.4 5.4,-6.5 l 0.3,-0.1 -0.8,-6.8 c 0,-0.4 0.1,-0.8 0.3,-1.1 0.2,-0.3 0.6,-0.5 1,-0.5 h 6.8 c 0.4,0 0.7,0.2 1,0.5 0.3,0.3 0.4,0.7 0.3,1.1 l -0.8,6.8 0.3,0.1 c 3.1,1 5.4,3.8 5.4,6.5 v 1.6 C 18.8,-0.2 18.6,0 18.4,0 Z M 12.6,-17.7 H 5.7 c -0.6,0 -1.2,0.3 -1.6,0.7 -0.4,0.5 -0.6,1.1 -0.5,1.7 l 0.7,6.2 C 2.8,-8.5 1.4,-7.5 0.4,-6.3 -0.7,-5 -1.3,-3.5 -1.3,-2 v 1.6 c 0,0.7 0.5,1.3 1.2,1.3 h 18.4 c 0.7,0 1.2,-0.6 1.2,-1.3 V -2 c 0,-1.4 -0.6,-3 -1.7,-4.3 -1,-1.2 -2.4,-2.2 -3.9,-2.8 l 0.7,-6.2 c 0.1,-0.6 -0.1,-1.2 -0.5,-1.7 -0.3,-0.5 -0.9,-0.7 -1.5,-0.7" /></g><g
           transform="translate(16.8999,332.2998)"
           id="g178"><path
             id="path180"
             style="fill:#333333;fill-opacity:1;fill-rule:nonzero;stroke:none"
             d="M 0,0 C -0.8,0 -1.5,-0.7 -1.5,-1.5 -1.5,-2.3 -0.8,-3 0,-3 h 15.4 c 0.8,0 1.5,0.7 1.5,1.5 0,0.8 -0.7,1.5 -1.5,1.5 z M 15.4,-3.9 H 0 c -1.3,0 -2.3,1 -2.3,2.3 0,1.3 1,2.3 2.3,2.3 h 15.4 c 1.3,0 2.3,-1 2.3,-2.3 0,-1.2 -1,-2.3 -2.3,-2.3" /></g><g
           transform="translate(16.8999,328.3999)"
           id="g182"><path
             id="path184"
             style="fill:#333333;fill-opacity:1;fill-rule:nonzero;stroke:none"
             d="m 0,0 c 0.4,-3.5 3.7,-6.2 7.7,-6.2 4,0 7.2,2.7 7.7,6.2 z m 7.7,-6.9 c -4.5,0 -8.2,3.2 -8.5,7.3 v 0.4 h 17 V 0.4 c -0.3,-4.1 -4,-7.3 -8.5,-7.3" /></g><g
           transform="translate(25.1001,332.7002)"
           id="g186"><path
             id="path188"
             style="fill:#333333;fill-opacity:1;fill-rule:nonzero;stroke:none"
             d="m 0,0 h -1.1 v 4.6 c 0,1.6 1.3,2.8 2.8,2.8 1.6,0 2.8,-1.3 2.8,-2.8 H 3.4 c 0,1 -0.8,1.8 -1.8,1.8 -1,0 -1.8,-0.8 -1.8,-1.8 l 0,-4.6 z" /></g><path
           id="path190"
           style="fill:#333333;fill-opacity:1;fill-rule:nonzero;stroke:none"
           d="m 28.7,335 h 1.1 v -2.3 h -1.1 z" /><path
           id="path192"
           style="fill:#333333;fill-opacity:1;fill-rule:nonzero;stroke:none"
           d="m 27.9,335.5 h 2.6 v -1.1 h -2.6 z" /><path
           id="path194"
           style="fill:#333333;fill-opacity:1;fill-rule:nonzero;stroke:none"
           d="m 19.4,335 h 1.1 v -2.3 h -1.1 z" /><path
           id="path196"
           style="fill:#333333;fill-opacity:1;fill-rule:nonzero;stroke:none"
           d="m 18.7,335.5 h 2.6 v -1.1 h -2.6 z" /><g
           transform="translate(26.5,308.3999)"
           id="g198"><path
             id="path200"
             style="fill:#333333;fill-opacity:1;fill-rule:nonzero;stroke:none"
             d="M 0,0 H -3.8 C -4.4,0 -5,0.2 -5.4,0.7 -5.8,1.2 -6.1,1.7 -6,2.4 l 0.6,11.7 h 0.8 L -5.2,2.4 C -5.2,2 -5.1,1.6 -4.8,1.3 -4.5,1 -4.1,0.8 -3.7,0.8 H 0.1 C 0.5,0.8 0.9,1 1.2,1.3 1.5,1.6 1.6,2 1.6,2.4 L 1,14.1 H 1.8 L 2.4,2.4 C 2.4,1.8 2.2,1.2 1.8,0.7 1.2,0.3 0.6,0 0,0" /></g><g
           transform="translate(11.2002,280.9004)"
           id="g202"><path
             id="path204"
             style="fill:#333333;fill-opacity:1;fill-rule:nonzero;stroke:none"
             d="m 0,0 1.7,-8.301 c 0.3,-1.399 1.6,-2.5 3,-2.5 h 17.4 c 1.5,0 2.7,1 3,2.5 L 26.8,0 Z M 22.1,-11.5 H 4.7 c -1.8,0 -3.4,1.3 -3.8,3.1 L -0.9,0.8 H 27.8 L 26,-8.4 c -0.5,-1.8 -2.101,-3.1 -3.9,-3.1" /></g><g
           transform="translate(16.7998,265.5)"
           id="g206"><path
             id="path208"
             style="fill:#333333;fill-opacity:1;fill-rule:nonzero;stroke:none"
             d="M 0,0 H -0.8 C -1.1,0 -1.4,0.2 -1.6,0.4 -1.8,0.7 -1.8,1 -1.7,1.3 l 1.2,3 L 0.2,4 -1,1 V 0.8 c 0,0 0.1,-0.1 0.2,-0.1 H 0 c 0.1,0 0.1,0 0.2,0.1 L 2.6,4.4 3.2,4 0.8,0.4 C 0.6,0.2 0.3,0 0,0" /></g><g
           transform="translate(33.2002,265.5)"
           id="g210"><path
             id="path212"
             style="fill:#333333;fill-opacity:1;fill-rule:nonzero;stroke:none"
             d="M 0,0 H -0.8 C -1.101,0 -1.4,0.2 -1.601,0.4 L -4,4 -3.4,4.4 -1,0.8 C -1,0.7 -0.9,0.7 -0.8,0.7 H 0 c 0.1,0 0.1,0.1 0.2,0.1 0,0 0.1,0.1 0,0.2 L -1,4 -0.3,4.3 0.899,1.3 C 1,1 1,0.7 0.8,0.4 0.7,0.2 0.399,0 0,0" /></g><g
           transform="translate(10.2998,283.2002)"
           id="g214"><path
             id="path216"
             style="fill:#333333;fill-opacity:1;fill-rule:nonzero;stroke:none"
             d="m 0,0 c -0.4,0 -0.8,-0.3 -0.8,-0.8 0,-0.5 0.3,-0.8 0.8,-0.8 h 28.5 c 0.4,0 0.8,0.3 0.8,0.8 C 29.3,-0.3 29,0 28.5,0 Z M 28.5,-2.3 H 0 c -0.8,0 -1.5,0.7 -1.5,1.5 0,0.8 0.7,1.5 1.5,1.5 H 28.5 C 29.3,0.7 30,0 30,-0.8 30,-1.6 29.4,-2.3 28.5,-2.3" /></g><g
           transform="translate(15.1001,283.6001)"
           id="g218"><path
             id="path220"
             style="fill:#333333;fill-opacity:1;fill-rule:nonzero;stroke:none"
             d="m 0,0 h -1.1 v 4.6 c 0,1.6 1.3,2.8 2.8,2.8 1.6,0 2.8,-1.3 2.8,-2.8 H 3.4 c 0,1 -0.8,1.8 -1.8,1.8 -1,0 -1.8,-0.8 -1.8,-1.8 l 0,-4.6 z" /></g><g
           transform="translate(30.4004,284)"
           id="g222"><path
             id="path224"
             style="fill:#333333;fill-opacity:1;fill-rule:nonzero;stroke:none"
             d="M 0,0 H -0.801 C -0.801,1.7 -2.2,3.1 -3.9,3.1 -5.601,3.1 -7,1.7 -7,0 h -0.8 c 0,2.1 1.699,3.8 3.8,3.8 2.1,0 4,-1.7 4,-3.8" /></g><g
           transform="translate(33.4004,291.7002)"
           id="g226"><path
             id="path228"
             style="fill:#333333;fill-opacity:1;fill-rule:nonzero;stroke:none"
             d="M 0,0 C -0.801,0 -1.5,-0.7 -1.5,-1.5 -1.5,-2.3 -0.801,-3 0,-3 0.8,-3 1.5,-2.3 1.5,-1.5 1.6,-0.7 0.899,0 0,0 m 0,-3.9 c -1.301,0 -2.301,1 -2.301,2.3 0,1.3 1,2.3 2.301,2.3 1.3,0 2.3,-1 2.3,-2.3 0,-1.3 -1,-2.3 -2.3,-2.3" /></g><g
           transform="translate(24.6001,292.5)"
           id="g230"><path
             id="path232"
             style="fill:#333333;fill-opacity:1;fill-rule:nonzero;stroke:none"
             d="m 0,0 c -0.6,0 -1.2,-0.5 -1.2,-1.2 0,-0.6 0.5,-1.2 1.2,-1.2 0.6,0 1.2,0.5 1.2,1.2 C 1.1,-0.6 0.6,0 0,0 m 0,-3.1 c -1.1,0 -1.9,0.9 -1.9,1.9 0,1 0.9,1.9 1.9,1.9 1,0 1.9,-0.9 1.9,-1.9 0,-1 -0.8,-1.9 -1.9,-1.9" /></g><g
           transform="translate(29.4004,296.2998)"
           id="g234"><path
             id="path236"
             style="fill:#333333;fill-opacity:1;fill-rule:nonzero;stroke:none"
             d="m 0,0 c -0.301,0 -0.601,-0.3 -0.601,-0.6 0,-0.3 0.3,-0.6 0.601,-0.6 0.3,0 0.6,0.3 0.6,0.6 C 0.699,-0.3 0.399,0 0,0 m 0,-2 c -0.801,0 -1.4,0.6 -1.4,1.4 0,0.8 0.599,1.4 1.4,1.4 0.8,0 1.399,-0.6 1.399,-1.4 C 1.399,-1.4 0.8,-2 0,-2" /></g><g
           transform="translate(16.7998,221.2002)"
           id="g238"><path
             id="path240"
             style="fill:#333333;fill-opacity:1;fill-rule:nonzero;stroke:none"
             d="M 0,0 H -0.8 C -1.1,0 -1.4,0.2 -1.6,0.399 -1.8,0.7 -1.8,1 -1.7,1.3 l 1.2,3 L 0.2,4 -1,1 V 0.8 c 0,0 0.1,-0.1 0.2,-0.1 H 0 c 0.1,0 0.1,0 0.2,0.1 L 2.6,4.399 3.2,4 0.8,0.399 C 0.6,0.1 0.3,0 0,0" /></g><g
           transform="translate(33.2002,221.2002)"
           id="g242"><path
             id="path244"
             style="fill:#333333;fill-opacity:1;fill-rule:nonzero;stroke:none"
             d="M 0,0 H -0.8 C -1.101,0 -1.4,0.2 -1.601,0.399 L -4,4 -3.4,4.399 -1,0.8 C -1,0.7 -0.9,0.7 -0.8,0.7 H 0 c 0.1,0 0.1,0.1 0.2,0.1 0,0 0.1,0.099 0,0.2 L -1,4 -0.3,4.3 0.899,1.3 C 1,1 1,0.7 0.8,0.399 0.7,0.1 0.399,0 0,0" /></g><g
           transform="translate(11.5,240.4004)"
           id="g246"><path
             id="path248"
             style="fill:#333333;fill-opacity:1;fill-rule:nonzero;stroke:none"
             d="m 0,0 c -1.1,0 -1.9,-0.9 -1.9,-1.9 v -10.8 c 0,-1.101 0.9,-1.901 1.9,-1.901 h 26.2 c 1.1,0 1.9,0.901 1.9,1.901 V -1.9 C 28.1,-0.801 27.2,0 26.2,0 Z M 26.2,-15.4 H 0 c -1.5,0 -2.7,1.2 -2.7,2.7 v 10.8 c 0,1.5 1.2,2.7 2.7,2.7 h 26.2 c 1.5,0 2.7,-1.2 2.7,-2.7 v -10.8 c 0,-1.5 -1.2,-2.7 -2.7,-2.7" /></g><path
           id="path250"
           style="fill:#333333;fill-opacity:1;fill-rule:nonzero;stroke:none"
           d="M 9.2,233.5 H 40 v -0.8 H 9.2 Z" /><g
           transform="translate(32.2998,236.5996)"
           id="g252"><path
             id="path254"
             style="fill:#333333;fill-opacity:1;fill-rule:nonzero;stroke:none"
             d="m 0,0 h -15.4 c -0.2,0 -0.4,0.2 -0.4,0.4 0,0.201 0.2,0.401 0.4,0.401 H 0 C 0.2,0.801 0.4,0.601 0.4,0.4 0.4,0.101 0.2,0 0,0" /></g><g
           transform="translate(32.2998,228.9004)"
           id="g256"><path
             id="path258"
             style="fill:#333333;fill-opacity:1;fill-rule:nonzero;stroke:none"
             d="m 0,0 h -15.4 c -0.2,0 -0.4,0.199 -0.4,0.399 0,0.201 0.2,0.401 0.4,0.401 H 0 C 0.2,0.8 0.4,0.6 0.4,0.399 0.4,0.199 0.2,0 0,0" /></g><path
           id="path260"
           style="fill:#333333;fill-opacity:1;fill-rule:nonzero;stroke:none"
           d="m 11.9,241.2 h 25.4 v 1.5 H 11.9 Z m 26.2,-0.8 h -27 v 3.1 H 38 v -3.1 z" /><g
           transform="translate(25.1001,243.0996)"
           id="g262"><path
             id="path264"
             style="fill:#333333;fill-opacity:1;fill-rule:nonzero;stroke:none"
             d="m 0,0 h -1.1 v 6.9 c 0,1.6 1.3,2.8 2.8,2.8 1.6,0 2.8,-1.3 2.8,-2.8 H 3.4 c 0,1 -0.8,1.8 -1.8,1.8 -1,0 -1.8,-0.8 -1.8,-1.8 l 0,-6.9 z" /></g><path
           id="path266"
           style="fill:#333333;fill-opacity:1;fill-rule:nonzero;stroke:none"
           d="m 30.2,245.4 h 1.1 v -2.301 h -1.1 z" /><path
           id="path268"
           style="fill:#333333;fill-opacity:1;fill-rule:nonzero;stroke:none"
           d="M 29.4,246 H 32 v -1.1 h -2.6 z" /><path
           id="path270"
           style="fill:#333333;fill-opacity:1;fill-rule:nonzero;stroke:none"
           d="M 17.9,245.4 H 19 v -2.301 h -1.1 z" /><path
           id="path272"
           style="fill:#333333;fill-opacity:1;fill-rule:nonzero;stroke:none"
           d="m 17.1,246 h 2.6 v -1.1 h -2.6 z" /><g
           transform="translate(21.1001,187.9004)"
           id="g274"><path
             id="path276"
             style="fill:#333333;fill-opacity:1;fill-rule:nonzero;stroke:none"
             d="m 0,0 h 6.9 c 0.1,2.399 1,4.8 2.6,6.6 1.3,1.5 2,3.4 2,5.299 0,2.201 -0.9,4.201 -2.4,5.8 C 7.6,19.199 5.5,20.1 3.3,20 1.2,20 -0.9,19.1 -2.4,17.6 -3.9,16.1 -4.7,14.1 -4.7,11.899 -4.7,10 -4,8.1 -2.7,6.6 -1,4.699 -0.1,2.399 0,0 M 7.7,-0.801 H -0.8 V -0.4 c 0,2.299 -0.9,4.599 -2.5,6.5 -1.4,1.599 -2.2,3.7 -2.2,5.799 0,2.401 0.9,4.601 2.5,6.201 1.6,1.7 3.8,2.599 6.2,2.599 h 0.1 c 2.3,0 4.5,-0.899 6.2,-2.599 1.7,-1.701 2.6,-3.901 2.6,-6.3 C 12.1,9.699 11.3,7.6 9.9,6 8.3,4.199 7.5,1.899 7.5,-0.4 v -0.401 z" /></g><g
           transform="translate(22.5,179.4004)"
           id="g278"><path
             id="path280"
             style="fill:#333333;fill-opacity:1;fill-rule:nonzero;stroke:none"
             d="M 0,0 H 4.2 L 5.6,2 V 7.699 H -1.3 L -1.3,2 Z m 4.6,-0.801 h -5 L -2.1,1.8 V 8.5 H 6.4 V 1.8 Z" /></g><g
           transform="translate(24.6001,177.2002)"
           id="g282"><path
             id="path284"
             style="fill:#333333;fill-opacity:1;fill-rule:nonzero;stroke:none"
             d="m 0,0 c -1,0 -1.8,0.8 -1.8,1.8 h 0.5 c 0,-0.7 0.6,-1.3 1.3,-1.3 0.7,0 1.3,0.6 1.3,1.3 H 1.8 C 1.8,0.8 1,0 0,0" /></g><g
           transform="translate(24.6001,202.5996)"
           id="g286"><path
             id="path288"
             style="fill:#333333;fill-opacity:1;fill-rule:nonzero;stroke:none"
             d="m 0,0 c 0,0 -0.1,0 0,0 -0.5,0 -0.8,-0.399 -0.9,-0.6 -0.1,-0.299 0,-0.7 0.3,-1 l 0.5,-0.4 0.5,0.4 c 0.4,0.3 0.4,0.701 0.3,1 C 0.8,-0.3 0.5,0 0,0 m -4.1,-2.6 c -0.1,0 -0.3,0 -0.4,-0.099 C -4.9,-2.8 -5.1,-3.199 -5.1,-3.6 V -3.699 -3.8 c 0,-0.399 0.2,-0.7 0.6,-0.899 0.4,-0.2 0.8,-0.101 1.1,0.099 l 0.9,0.6 -0.9,0.9 c -0.2,0.401 -0.5,0.5 -0.7,0.5 M 2.5,-3.8 3.4,-4.399 C 3.7,-4.6 4.2,-4.699 4.5,-4.5 4.9,-4.3 5.1,-4 5.1,-3.6 v 0.1 0.101 C 5.1,-3 4.8,-2.699 4.5,-2.5 4.2,-2.399 3.7,-2.399 3.4,-2.699 Z M 1.8,-15.1 H 1.3 V -6 c 0,1 0.1,1.7 0.4,2.2 L 0,-2.6 -1.7,-3.8 c 0.3,-0.399 0.4,-0.899 0.4,-1.399 V -15 h -0.5 v 9.801 c 0,0.399 -0.1,0.8 -0.3,1.099 L -3,-4.8 C -3.5,-5.199 -4.1,-5.199 -4.7,-4.899 -5.2,-4.6 -5.6,-4.1 -5.6,-3.6 v 0.1 0.101 c 0,0.599 0.4,1.099 1,1.299 0.6,0.201 1.2,0.1 1.7,-0.4 l 1,-1 1.6,1.101 -0.4,0.299 c -0.5,0.401 -0.7,1 -0.6,1.6 0.2,0.601 0.7,1 1.3,1 h 0.2 c 0.6,0 1.1,-0.399 1.3,-1 0.2,-0.6 0,-1.199 -0.6,-1.6 L 0.5,-2.399 2.1,-3.5 l 1,1 c 0.4,0.4 1.1,0.601 1.7,0.4 0.6,-0.2 0.9,-0.7 1,-1.299 V -3.5 -3.6 C 5.8,-4.199 5.4,-4.699 4.9,-4.899 4.4,-5.199 3.7,-5.1 3.2,-4.8 L 2.3,-4.1 C 2.1,-4.5 2,-5 2,-5.899 V -15.1 Z" /></g><g
           transform="translate(20.6978,183.1494)"
           id="g290"><path
             id="path292"
             style="fill:#333333;fill-opacity:1;fill-rule:nonzero;stroke:none"
             d="M 0,0 7.663,2.299 7.806,1.82 0.144,-0.479 Z" /></g><g
           transform="translate(20.6934,181.6484)"
           id="g294"><path
             id="path296"
             style="fill:#333333;fill-opacity:1;fill-rule:nonzero;stroke:none"
             d="M 0,0 7.663,2.299 7.807,1.82 0.144,-0.479 Z" /></g><g
           transform="translate(20.709,184.6504)"
           id="g298"><path
             id="path300"
             style="fill:#333333;fill-opacity:1;fill-rule:nonzero;stroke:none"
             d="M 0,0 7.662,2.3 7.806,1.82 0.144,-0.479 Z" /></g><g
           transform="translate(29.2002,186.7002)"
           id="g302"><path
             id="path304"
             style="fill:#333333;fill-opacity:1;fill-rule:nonzero;stroke:none"
             d="m 0,0 h -9.2 c -0.4,0 -0.8,0.3 -0.8,0.8 0,0.4 0.3,0.8 0.8,0.8 H 0 C 0.399,1.6 0.8,1.3 0.8,0.8 0.8,0.399 0.399,0 0,0" /></g><g
           transform="translate(29.2002,188.2998)"
           id="g306"><path
             id="path308"
             style="fill:#333333;fill-opacity:1;fill-rule:nonzero;stroke:none"
             d="m 0,0 h -9.2 c -0.4,0 -0.8,-0.3 -0.8,-0.8 0,-0.5 0.3,-0.8 0.8,-0.8 H 0 c 0.399,0 0.8,0.3 0.8,0.8 C 0.8,-0.3 0.399,0 0,0" /></g><g
           transform="translate(24.6001,159.5)"
           id="g310"><path
             id="path312"
             style="fill:#333333;fill-opacity:1;fill-rule:nonzero;stroke:none"
             d="m 0,0 c -0.3,0 -0.6,-0.1 -0.8,-0.3 l -5.5,-5.1 c -0.6,-0.6 -1,-1.4 -1,-2.3 v -15.8 c 0,-1.1 0.9,-2 2,-2 H 5.3 c 1.1,0 2,0.9 2,2 v 15.8 c 0,0.9 -0.4,1.7 -1,2.3 L 0.8,-0.3 C 0.6,-0.2 0.3,0 0,0 M 5.3,-26.4 H -5.3 c -1.5,0 -2.8,1.2 -2.8,2.8 v 15.8 c 0,1.1 0.5,2.1 1.2,2.9 l 5.5,5.1 c 0.8,0.7 2,0.7 2.7,0 L 6.8,-4.9 C 7.6,-5.6 8,-6.7 8,-7.8 v -15.8 c 0.1,-1.5 -1.1,-2.8 -2.7,-2.8" /></g><g
           transform="translate(24.6001,155.4004)"
           id="g314"><path
             id="path316"
             style="fill:#333333;fill-opacity:1;fill-rule:nonzero;stroke:none"
             d="m 0,0 c -0.6,0 -1.2,-0.5 -1.2,-1.2 0,-0.601 0.5,-1.2 1.2,-1.2 0.6,0 1.2,0.5 1.2,1.2 C 1.1,-0.5 0.6,0 0,0 m 0,-3 c -1.1,0 -1.9,0.899 -1.9,1.899 0,1 0.9,1.901 1.9,1.901 1,0 1.9,-0.901 1.9,-1.901 C 1.9,-2.101 1.1,-3 0,-3" /></g><g
           transform="translate(24.6001,153.9004)"
           id="g318"><path
             id="path320"
             style="fill:#333333;fill-opacity:1;fill-rule:nonzero;stroke:none"
             d="m 0,0 c -0.2,0 -0.4,0.199 -0.4,0.399 v 10 c 0,0.201 0.2,0.401 0.4,0.401 0.2,0 0.4,-0.2 0.4,-0.401 v -10 C 0.4,0.199 0.2,0 0,0" /></g><g
           transform="translate(18.1113,109.3838)"
           id="g322"><path
             id="path324"
             style="fill:#333333;fill-opacity:1;fill-rule:nonzero;stroke:none"
             d="M 0,0 C -0.249,0 -0.45,0.201 -0.45,0.449 V 6.77 c 0,0.249 0.201,0.45 0.45,0.45 0.249,0 0.45,-0.201 0.45,-0.45 V 0.43 C 0.439,0.188 0.241,-0.001 0,0" /></g><g
           transform="translate(15.8613,115.4932)"
           id="g326"><path
             id="path328"
             style="fill:#333333;fill-opacity:1;fill-rule:nonzero;stroke:none"
             d="M 0,0 2.25,3.891 4.49,0 Z" /></g><g
           transform="translate(24.7515,109.3838)"
           id="g330"><path
             id="path332"
             style="fill:#333333;fill-opacity:1;fill-rule:nonzero;stroke:none"
             d="M 0,0 C -0.249,0 -0.45,0.201 -0.45,0.449 V 6.77 c 0,0.249 0.202,0.45 0.45,0.449 0.249,0 0.45,-0.201 0.45,-0.449 V 0.43 C 0.439,0.188 0.241,-0.001 0,0" /></g><g
           transform="translate(22.5015,115.4932)"
           id="g334"><path
             id="path336"
             style="fill:#333333;fill-opacity:1;fill-rule:nonzero;stroke:none"
             d="M 0,0 2.25,3.891 4.49,0 Z" /></g><g
           transform="translate(31.3916,109.3838)"
           id="g338"><path
             id="path340"
             style="fill:#333333;fill-opacity:1;fill-rule:nonzero;stroke:none"
             d="M 0,0 C -0.249,0 -0.45,0.201 -0.45,0.449 V 6.77 c 0,0.249 0.202,0.45 0.45,0.449 0.248,0 0.449,-0.201 0.45,-0.449 V 0.43 C 0.439,0.188 0.241,-0.001 0,0" /></g><g
           transform="translate(29.1416,115.4932)"
           id="g342"><path
             id="path344"
             style="fill:#333333;fill-opacity:1;fill-rule:nonzero;stroke:none"
             d="M 0,0 2.25,3.891 4.49,0 Z" /></g><g
           transform="translate(36.8516,95.3838)"
           id="g346"><path
             id="path348"
             style="fill:#333333;fill-opacity:1;fill-rule:nonzero;stroke:none"
             d="m 0,0 h -21.66 c -1.643,-0.214 -3.148,0.945 -3.361,2.588 -0.214,1.643 0.945,3.148 2.588,3.361 0.257,0.033 0.516,0.033 0.773,0 h 19.139 c 1.147,0 2.076,0.93 2.076,2.075 0,1.147 -0.929,2.076 -2.076,2.076 H -24.21 c -0.248,0 -0.45,0.202 -0.45,0.45 0,0.248 0.202,0.449 0.45,0.45 H -2.521 C -0.877,10.786 0.282,9.281 0.068,7.638 -0.107,6.288 -1.17,5.225 -2.521,5.05 H -21.66 c -1.146,0 -2.075,-0.93 -2.075,-2.075 0,-1.147 0.929,-2.076 2.075,-2.076 H 0 c 0.248,0 0.45,-0.202 0.449,-0.45 C 0.449,0.201 0.248,0 0,0" /></g><g
           transform="translate(24.21,81.9336)"
           id="g350"><path
             id="path352"
             style="fill:#333333;fill-opacity:1;fill-rule:nonzero;stroke:none"
             d="m 0,0 c -6.334,0.005 -11.475,-5.126 -11.48,-11.46 -0.005,-6.335 5.126,-11.475 11.46,-11.48 6.334,-0.005 11.474,5.125 11.48,11.46 v 0.009 C 11.454,-5.142 6.328,-0.012 0,0 m 0,-23.83 c -6.832,-0.006 -12.375,5.528 -12.38,12.359 -0.005,6.832 5.528,12.375 12.36,12.381 6.832,0.005 12.374,-5.528 12.38,-12.36 v -0.021 C 12.349,-18.292 6.821,-23.819 0,-23.83" /></g><g
           transform="translate(24.23,67.3838)"
           id="g354"><path
             id="path356"
             style="fill:#333333;fill-opacity:1;fill-rule:nonzero;stroke:none"
             d="M 0,0 3.19,-1.681 2.58,1.869 5.16,4.39 1.61,4.909 -0.02,8.149 -1.62,4.92 -5.19,4.399 -2.61,1.88 -3.22,-1.671 Z m -4.39,-3.32 0.84,4.88 -3.57,3.46 4.9,0.709 2.19,4.441 L 2.16,5.729 7.06,5.02 3.51,1.56 4.35,-3.32 -0.04,-1.011 Z" /></g><g
           transform="translate(22.353,38.1885)"
           id="g358"><path
             id="path360"
             style="fill:#343434;fill-opacity:1;fill-rule:nonzero;stroke:none"
             d="M 0,0 C -0.1,-0.1 -0.1,-0.1 -0.2,-0.2 -0.1,-0.1 0,0 0,0" /></g><g
           transform="translate(25.853,37.4883)"
           id="g362"><path
             id="path364"
             style="fill:#343434;fill-opacity:1;fill-rule:nonzero;stroke:none"
             d="M 0,0 C 0.3,-0.3 0.4,-0.699 0.4,-1.199 0.4,-1.5 0.3,-1.8 0.1,-2.1 0,-2.3 -0.1,-2.399 -0.3,-2.6 l -0.5,-0.5 c -0.5,-0.5 -0.9,-1 -1,-1.4 C -2,-4.899 -2,-5.399 -2,-6.1 h 1.2 c 0,0.6 0.1,1 0.2,1.3 0.1,0.3 0.4,0.601 0.8,1.101 0.6,0.599 1,1 1.2,1.3 0.2,0.299 0.3,0.7 0.3,1.2 C 1.7,-0.399 1.4,0.2 0.9,0.7 0.4,1.2 -0.3,1.5 -1.2,1.5 -2.2,1.5 -2.9,1.2 -3.5,0.601 -4.1,0 -4.3,-0.8 -4.3,-1.8 h 1.2 c 0,0.601 0.1,1 0.3,1.3 0.3,0.601 0.8,0.801 1.6,0.801 C -0.7,0.5 -0.2,0.4 0,0" /></g><path
           id="path366"
           style="fill:#343434;fill-opacity:1;fill-rule:nonzero;stroke:none"
           d="m 23.853,30.389 h 1.3 v -1.4 h -1.3 z" /><g
           transform="translate(14.4531,43.6885)"
           id="g368"><path
             id="path370"
             style="fill:#343434;fill-opacity:1;fill-rule:nonzero;stroke:none"
             d="m 0,0 c -1.2,0 -2.1,-0.899 -2.1,-2.1 v -15.2 c 0,-1.2 0.9,-2.099 2.1,-2.099 h 10.1 c 0.2,0 0.4,-0.201 0.4,-0.401 v -4 l 4.3,4.3 c 0.099,0.101 0.2,0.101 0.3,0.101 h 5.1 c 1.199,0 2.1,0.899 2.1,2.099 V -2.1 C 22.3,-0.899 21.399,0 20.2,0 Z M 10.1,-25.3 H 9.9 c -0.2,0.1 -0.3,0.2 -0.3,0.401 V -20.3 H 0 c -1.6,0 -3,1.3 -3,3 v 15.2 c 0,1.6 1.3,3 3,3 h 20.2 c 1.6,0 3,-1.299 3,-3 v -15.2 c 0,-1.599 -1.301,-3 -3,-3 h -4.9 l -4.9,-4.9 c -0.1,-0.1 -0.2,-0.1 -0.3,-0.1" /></g></g></g></g></svg>