<?xml version="1.0" encoding="UTF-8" standalone="no"?>
<svg
   xmlns:dc="http://purl.org/dc/elements/1.1/"
   xmlns:cc="http://creativecommons.org/ns#"
   xmlns:rdf="http://www.w3.org/1999/02/22-rdf-syntax-ns#"
   xmlns:svg="http://www.w3.org/2000/svg"
   xmlns="http://www.w3.org/2000/svg"
   viewBox="0 0 24.4 29.6"
   height="29.6"
   width="24.4"
   xml:space="preserve"
   id="svg2"
   version="1.1"><metadata
     id="metadata8"><rdf:RDF><cc:Work
         rdf:about=""><dc:format>image/svg+xml</dc:format><dc:type
           rdf:resource="http://purl.org/dc/dcmitype/StillImage" /></cc:Work></rdf:RDF></metadata><defs
     id="defs6"><clipPath
       id="clipPath18"
       clipPathUnits="userSpaceOnUse"><path
         id="path16"
         d="M 0,22.2 H 18.3 V 0 H 0 Z" /></clipPath></defs><g
     transform="matrix(1.3333333,0,0,-1.3333333,0,29.6)"
     id="g10"><g
       id="g12"><g
         clip-path="url(#clipPath18)"
         id="g14"><g
           transform="translate(9.1202,20.9482)"
           id="g20"><path
             id="path22"
             style="fill:#ff8000;fill-opacity:1;fill-rule:nonzero;stroke:none"
             d="m 0,0 c -1.604,-0.004 -2.904,-1.304 -2.908,-2.908 v -1.535 h 5.816 v 1.535 C 2.904,-1.304 1.604,-0.004 0,0 M -7.842,-19.659 H 7.834 L 6.583,-5.555 H 4.059 v -1.673 c 0,-0.318 -0.258,-0.576 -0.575,-0.576 -0.318,0 -0.576,0.258 -0.576,0.576 v 1.673 h -5.816 v -1.673 c 0,-0.318 -0.258,-0.576 -0.576,-0.576 -0.317,0 -0.575,0.258 -0.575,0.576 v 1.673 h -2.517 z m -0.629,-1.151 c -0.318,-0.001 -0.576,0.256 -0.578,0.574 0,0.016 10e-4,0.031 0.002,0.048 l 1.374,15.254 c 0.027,0.297 0.277,0.523 0.575,0.522 h 3.07 v 1.535 c -0.001,2.241 1.815,4.06 4.057,4.061 2.242,0.001 4.06,-1.816 4.061,-4.058 v -0.003 -1.535 h 3.069 c 0.299,0.001 0.548,-0.225 0.576,-0.522 0,0 1.373,-15.277 1.373,-15.347 -0.004,-0.314 -0.261,-0.567 -0.575,-0.567 z" /></g></g></g></g></svg>