<?xml version="1.0" encoding="utf-8"?>
<!-- Generator: Adobe Illustrator 21.0.0, SVG Export Plug-In . SVG Version: 6.00 Build 0)  -->
<svg version="1.1" id="Layer_1" xmlns="http://www.w3.org/2000/svg" xmlns:xlink="http://www.w3.org/1999/xlink" x="0px" y="0px"
	 viewBox="0 0 27 27" style="enable-background:new 0 0 27 27;" xml:space="preserve">
<style type="text/css">
	.st0{fill:#FF8000;}
	.st1{fill:none;stroke:#FF8000;stroke-width:1.5;stroke-miterlimit:10;}
</style>
<path class="st0" d="M16,20.9c-2.9,0-6.4-4.8-7.4-8.9c-0.3-1.3-0.8-4.4,1.2-5.4l1.6-0.7l2.4,4.6l-1.6,0.8l-0.1,0.1
	c-0.3,0.7,0.5,2.5,1,3.3c0.6,0.9,1.1,1.4,1.5,1.4l0.1,0l0.1-0.1c0.1,0,1-0.5,1.4-0.7l2.4,4.6c-0.5,0.3-1.5,0.7-1.6,0.8
	C16.8,20.8,16.4,20.9,16,20.9z"/>
<path class="st1" d="M13.5,26C20.4,26,26,20.4,26,13.5S20.4,1,13.5,1S1,6.6,1,13.5S6.6,26,13.5,26"/>
</svg>
