<?xml version="1.0" encoding="UTF-8" standalone="no"?>
<svg
   xmlns:dc="http://purl.org/dc/elements/1.1/"
   xmlns:cc="http://creativecommons.org/ns#"
   xmlns:rdf="http://www.w3.org/1999/02/22-rdf-syntax-ns#"
   xmlns:svg="http://www.w3.org/2000/svg"
   xmlns="http://www.w3.org/2000/svg"
   viewBox="0 0 53.333332 293.33334"
   height="293.33334"
   width="53.333332"
   xml:space="preserve"
   id="svg2"
   version="1.1"><metadata
     id="metadata8"><rdf:RDF><cc:Work
         rdf:about=""><dc:format>image/svg+xml</dc:format><dc:type
           rdf:resource="http://purl.org/dc/dcmitype/StillImage" /></cc:Work></rdf:RDF></metadata><defs
     id="defs6"><clipPath
       id="clipPath18"
       clipPathUnits="userSpaceOnUse"><path
         id="path16"
         d="M 0,220 H 40 V 0 H 0 Z" /></clipPath></defs><g
     transform="matrix(1.3333333,0,0,-1.3333333,0,293.33333)"
     id="g10"><g
       id="g12"><g
         clip-path="url(#clipPath18)"
         id="g14"><g
           transform="translate(19.8164,215.2808)"
           id="g20"><path
             id="path22"
             style="fill:#333333;fill-opacity:1;fill-rule:nonzero;stroke:none"
             d="m 0,0 c -7.904,0 -14.313,-6.409 -14.313,-14.313 0,-7.905 6.409,-14.312 14.313,-14.312 7.904,0 14.312,6.407 14.312,14.312 C 14.312,-6.409 7.904,0 0,0 m 0,-1.5 c 7.064,0 12.812,-5.748 12.812,-12.813 0,-7.064 -5.748,-12.812 -12.812,-12.812 -7.065,0 -12.813,5.748 -12.813,12.812 0,7.065 5.748,12.813 12.813,12.813" /></g><g
           transform="translate(13.8677,200.5352)"
           id="g24"><path
             id="path26"
             style="fill:none;stroke:#333333;stroke-width:1.5;stroke-linecap:round;stroke-linejoin:miter;stroke-miterlimit:10;stroke-dasharray:none;stroke-opacity:1"
             d="m 0,0 5.446,-4.41 6.451,9.686" /></g><g
           transform="translate(19.6089,173.3135)"
           id="g28"><path
             id="path30"
             style="fill:#333333;fill-opacity:1;fill-rule:nonzero;stroke:none"
             d="m 0,0 c -2.091,0 -3.791,-1.701 -3.791,-3.793 v -1.953 h 7.583 v 1.953 C 3.792,-1.701 2.091,0 0,0 M -10.226,-25.629 H 10.223 L 8.573,-7.244 H 5.291 V -9.42 c 0,-0.413 -0.336,-0.749 -0.749,-0.749 -0.414,0 -0.75,0.336 -0.75,0.749 v 2.176 H -3.791 V -9.42 c 0,-0.413 -0.337,-0.749 -0.75,-0.749 -0.413,0 -0.749,0.336 -0.749,0.749 v 2.176 h -3.284 z m -0.819,-1.497 c -0.21,0 -0.411,0.089 -0.553,0.243 -0.14,0.154 -0.212,0.363 -0.193,0.573 l 1.785,19.881 c 0.035,0.389 0.356,0.683 0.746,0.683 h 3.97 v 1.953 c 0,2.917 2.373,5.291 5.29,5.291 2.917,0 5.291,-2.374 5.291,-5.291 v -1.953 h 3.966 c 0.391,0 0.711,-0.294 0.746,-0.683 0,0 1.791,-19.909 1.792,-19.954 0,-0.407 -0.336,-0.743 -0.749,-0.743 z" /></g><g
           transform="translate(15.0708,73.3809)"
           id="g32"><path
             id="path34"
             style="fill:none;stroke:#333333;stroke-width:1;stroke-linecap:butt;stroke-linejoin:miter;stroke-miterlimit:10;stroke-dasharray:none;stroke-opacity:1"
             d="M 0,0 10.548,-10.547" /></g><g
           transform="translate(25.6191,73.3809)"
           id="g36"><path
             id="path38"
             style="fill:none;stroke:#333333;stroke-width:1;stroke-linecap:butt;stroke-linejoin:miter;stroke-miterlimit:10;stroke-dasharray:none;stroke-opacity:1"
             d="M 0,0 -10.548,-10.547" /></g><g
           transform="translate(15.624,104.5928)"
           id="g40"><path
             id="path42"
             style="fill:none;stroke:#333333;stroke-width:1.5;stroke-linecap:round;stroke-linejoin:round;stroke-miterlimit:10;stroke-dasharray:none;stroke-opacity:1"
             d="M 0,0 10.292,-8.373 0,-16.746" /></g><g
           transform="translate(24.376,117.8467)"
           id="g44"><path
             id="path46"
             style="fill:none;stroke:#333333;stroke-width:1.5;stroke-linecap:round;stroke-linejoin:round;stroke-miterlimit:10;stroke-dasharray:none;stroke-opacity:1"
             d="M 0,0 -10.292,8.373 0,16.746" /></g></g></g></g></svg>