<?xml version="1.0" encoding="utf-8"?>
<!-- Generator: Adobe Illustrator 16.0.0, SVG Export Plug-In . SVG Version: 6.00 Build 0)  -->
<!DOCTYPE svg PUBLIC "-//W3C//DTD SVG 1.1//EN" "http://www.w3.org/Graphics/SVG/1.1/DTD/svg11.dtd">
<svg version="1.1" id="Layer_1" xmlns="http://www.w3.org/2000/svg" xmlns:xlink="http://www.w3.org/1999/xlink" x="0px" y="0px"
	 width="34.812px" height="28.467px" viewBox="0 0 34.812 28.467" enable-background="new 0 0 34.812 28.467" xml:space="preserve">
<g>
	<defs>
		<rect id="SVGID_1_" width="34.812" height="28.467"/>
	</defs>
	<clipPath id="SVGID_2_">
		<use xlink:href="#SVGID_1_"  overflow="visible"/>
	</clipPath>
	<path clip-path="url(#SVGID_2_)" fill="#78B44B" d="M8.198,17.293c-3.008,0-5.447,2.439-5.447,5.447s2.439,5.447,5.447,5.447
		c3.008,0,5.447-2.439,5.447-5.447S11.206,17.293,8.198,17.293 M8.198,26.223c-1.92,0-3.481-1.562-3.481-3.482
		s1.561-3.48,3.481-3.48c1.92,0,3.481,1.561,3.481,3.48S10.118,26.223,8.198,26.223"/>
	<path clip-path="url(#SVGID_2_)" fill="#78B44B" d="M34.462,3.009c-0.045-0.224-0.112-0.438-0.198-0.642s-0.192-0.398-0.315-0.581
		c-0.122-0.181-0.263-0.35-0.417-0.505c-0.154-0.153-0.324-0.294-0.506-0.417S32.65,0.637,32.446,0.55
		c-0.205-0.086-0.419-0.153-0.642-0.199c-0.223-0.045-0.453-0.069-0.688-0.069H12.497c-0.106,0-0.211,0.005-0.315,0.017
		c-0.105,0.01-0.208,0.025-0.31,0.047c-0.102,0.021-0.203,0.046-0.302,0.077c-0.099,0.03-0.197,0.066-0.292,0.106
		c-0.095,0.04-0.189,0.086-0.28,0.135c-0.091,0.051-0.18,0.104-0.266,0.163c-0.086,0.06-0.169,0.122-0.249,0.189
		c-0.08,0.068-0.157,0.14-0.231,0.216L1.809,9.935c-0.122,0.127-0.238,0.258-0.347,0.395c-0.109,0.137-0.211,0.278-0.305,0.424
		c-0.095,0.146-0.182,0.295-0.262,0.448s-0.153,0.311-0.218,0.471c-0.065,0.161-0.122,0.323-0.171,0.489
		c-0.05,0.165-0.091,0.334-0.125,0.505c-0.033,0.171-0.058,0.343-0.075,0.517c-0.017,0.173-0.026,0.349-0.026,0.525v7.798
		c0,0.625,0.465,1.141,1.067,1.223c0.003-1.826,0.715-3.541,2.007-4.832c1.293-1.293,3.014-2.006,4.843-2.006
		c1.83,0,3.55,0.713,4.844,2.006s2.007,3.014,2.007,4.844h4.716c0-1.83,0.713-3.551,2.008-4.844
		c1.293-1.293,3.014-2.006,4.843-2.006s3.551,0.713,4.844,2.006c1.288,1.287,1.999,2.998,2.006,4.818
		c0.609-0.125,1.068-0.664,1.068-1.311V3.696C34.532,3.461,34.508,3.23,34.462,3.009 M16.676,10.163H4.325L11.663,2.6
		c0.217-0.224,0.521-0.353,0.834-0.353h4.179V10.163z"/>
	<path clip-path="url(#SVGID_2_)" fill="#78B44B" d="M26.615,17.293c-3.009,0-5.447,2.439-5.447,5.447s2.438,5.447,5.447,5.447
		c3.008,0,5.446-2.439,5.446-5.447S29.623,17.293,26.615,17.293 M26.615,26.223c-1.921,0-3.481-1.562-3.481-3.482
		s1.561-3.48,3.481-3.48c1.92,0,3.48,1.561,3.48,3.48S28.535,26.223,26.615,26.223"/>
</g>
</svg>
