<?xml version="1.0" encoding="utf-8"?>
<!-- Generator: Adobe Illustrator 21.0.2, SVG Export Plug-In . SVG Version: 6.00 Build 0)  -->
<svg version="1.1" id="Layer_1" xmlns="http://www.w3.org/2000/svg" xmlns:xlink="http://www.w3.org/1999/xlink" x="0px" y="0px"
	 viewBox="0 0 34 30.9" style="enable-background:new 0 0 34 30.9;" xml:space="preserve">
<style type="text/css">
	.st0{fill:none;stroke:#000000;stroke-width:2;stroke-miterlimit:10;}
</style>
<g>
	<path class="st0" d="M17.2,1.3C9.2,1.3,2,6.7,2,14c0,2.6,0.9,5.1,2.6,7.1c0.1,2.3-1.3,5.6-2.5,8.1c3.3-0.6,8-1.9,10.1-3.2
		c11.7,2.8,20.2-4.3,20.2-12C32.4,6.6,25.2,1.3,17.2,1.3z"/>
	<g>
		<circle cx="17.2" cy="19" r="1.3"/>
		<path d="M19.2,14.2c-0.9,1-1,1.6-1,2.3h-2.1c0-1.5,0-2.2,1.5-3.6c0.6-0.6,1.1-1,1-1.9c-0.1-0.8-0.8-1.3-1.4-1.3
			c-0.7,0-1.6,0.5-1.6,2.1h-2.1c0-2.5,1.5-4.1,3.7-4.1c1.1,0,2,0.4,2.6,1c0.6,0.6,0.9,1.4,0.9,2.4C20.8,12.5,19.9,13.4,19.2,14.2z"
			/>
	</g>
</g>
</svg>