<?xml version="1.0" encoding="utf-8"?>
<!-- Generator: Adobe Illustrator 15.1.0, SVG Export Plug-In . SVG Version: 6.00 Build 0)  -->
<!DOCTYPE svg PUBLIC "-//W3C//DTD SVG 1.1//EN" "http://www.w3.org/Graphics/SVG/1.1/DTD/svg11.dtd">
<svg version="1.1" id="Layer_1" xmlns="http://www.w3.org/2000/svg" xmlns:xlink="http://www.w3.org/1999/xlink" x="0px" y="0px"
	 width="37.125px" height="36.625px" viewBox="0 0 37.125 36.625" enable-background="new 0 0 37.125 36.625" xml:space="preserve">
<path fill="#676766" d="M18.524,1C9.054,1,1.375,8.678,1.375,18.148s7.679,17.15,17.149,17.15s17.149-7.68,17.149-17.15
	S27.995,1,18.524,1 M14.355,23.984c-3.227,0-5.835-2.609-5.835-5.836s2.608-5.834,5.835-5.834c1.577,0,2.893,0.572,3.908,1.525
	l-1.582,1.525c-0.434-0.418-1.191-0.9-2.326-0.9c-1.992,0-3.616,1.65-3.616,3.686s1.626,3.688,3.616,3.688
	c2.311,0,3.18-1.662,3.311-2.52h-3.311v-2.002h5.51c0.053,0.293,0.092,0.584,0.092,0.971C19.958,21.617,17.723,23.984,14.355,23.984
	 M28.529,18.982h-2.502v2.502h-1.668v-2.502h-2.5v-1.666h2.5v-2.502h1.668v2.502h2.502V18.982z"/>
</svg>
