<?xml version="1.0" encoding="iso-8859-1"?>
<!-- Generator: Adobe Illustrator 21.0.0, SVG Export Plug-In . SVG Version: 6.00 Build 0)  -->
<svg version="1.1" id="Layer_1" xmlns="http://www.w3.org/2000/svg" xmlns:xlink="http://www.w3.org/1999/xlink" x="0px" y="0px"
	 width="213.1px" height="25.6px" viewBox="0 0 213.1 25.6" style="enable-background:new 0 0 213.1 25.6;" xml:space="preserve">
<g>
	<path d="M0,15.5c0-0.8,0-1.4,0-2.1c4.8,0,9.7,0,14.5,0c0-0.2,0-0.3,0-0.5c0-1.6,0-3.1,0-4.7c0-1-0.4-1.6-1.3-2
		c-0.7-0.2-1.5-0.3-2.3-0.5c0-0.2-0.1-0.6-0.1-1c3.4,0.1,6.7,0.3,10.1,0c0,0.3,0,0.7,0,1c-0.6,0.1-1.1,0.2-1.7,0.3
		c-0.4,0.1-0.7,0.2-1,0.5c-0.2,0.2-0.5,0.6-0.5,0.9c0,2,0,4.1,0,6.1c3.3,0,6.7,0,10,0c0-0.2,0-0.3,0-0.4c0-1.6,0-3.2,0-4.7
		c0-1-0.4-1.7-1.3-2C25.7,6,24.9,5.9,24,5.7c0-0.2,0-0.4,0-0.7c3.3,0,6.7,0,10.1,0c0,0.1,0,0.2,0,0.4c0,0.1,0,0.3,0,0.4
		c-0.5,0.1-1.1,0.1-1.6,0.2c-1.2,0.3-1.7,0.9-1.7,2.2c0,4.8,0,9.7,0,14.6c0,0.5,0.2,0.8,0.6,1c0.6,0.2,1.2,0.4,1.8,0.5
		c0.4,0.1,0.9,0.1,1.4,0.1c0,0.3,0,0.7,0,1c-3.4,0-6.8,0-10.2,0c0-0.3,0-0.6,0-1c0.4,0,0.8,0,1.2,0c0.6-0.1,1.1-0.2,1.7-0.4
		c0.4-0.1,0.6-0.5,0.6-1c0-2.4,0-4.9,0-7.3c0-0.1,0-0.1,0-0.2c-3.4,0-6.7,0-10.1,0c0,0.1,0,0.3,0,0.4c0,2.2,0,4.4,0,6.6
		c0,0.7,0.3,1.1,0.9,1.3c0.8,0.4,1.7,0.4,2.6,0.5c0.1,0,0.2,0,0.3,0c0,0.3,0,0.6,0,0.9c-3.5,0-6.9,0-10.4,0c0-0.3,0-0.6,0-1
		c0.4,0,0.8,0,1.2,0c0.5-0.1,1.1-0.2,1.6-0.3c0.4-0.1,0.7-0.4,0.7-0.9c0-2.5,0-5,0-7.6C9.7,15.5,4.9,15.5,0,15.5z"/>
	<path d="M193.9,9.9c0-0.3,0-0.7,0-1c0-2,0-4,0-6c0-0.7-0.2-1-0.9-1c-0.8,0-1.5,0.1-2.3,0.2c-0.1,0-0.2,0-0.3,0.1c0-0.3,0-0.6,0-0.9
		c2-0.4,4.1-0.9,6.2-1.3c0,0.2,0,0.3,0,0.5c0,7.1,0,14.1,0,21.2c0,0.1,0,0.3,0,0.4c-0.1,0.7,0.1,1,0.8,1.2c0.4,0.1,0.9,0.1,1.4,0.1
		c4.6,0,9.2,0,13.8,0c0.2,0,0.3,0,0.5,0c0,0.6,0,1.2,0,1.9c-0.1,0-0.3,0-0.4,0c-5.1,0-10.2,0-15.4,0c-0.4,0-0.8,0-1.2,0
		c-0.9,0.1-1.5-0.4-1.9-1.2c-0.1-0.2-0.2-0.5-0.3-0.7c-0.5,0.4-1,0.9-1.6,1.2c-4,2.3-8.8,0-9.6-4.6c-0.3-1.9-0.3-3.7,0.2-5.6
		c0.6-2.6,2.3-4.1,4.9-4.6C189.8,9.4,191.8,9.5,193.9,9.9z M193.8,16.4c0-1.5,0-3,0-4.5c0-0.3-0.1-0.4-0.4-0.5
		c-1.1-0.2-2.1-0.5-3.2-0.6c-2.6-0.2-4.3,1.1-4.8,3.6c-0.2,0.9-0.2,1.8-0.2,2.7c0,1.4,0.2,2.7,0.8,4c1,2.2,3.5,3.2,5.7,2.3
		c1.2-0.5,2-1.7,2-3.1C193.8,19.1,193.8,17.7,193.8,16.4z"/>
	<path d="M131.9,25.2c0-0.3,0-0.6,0-0.9c0.6,0,1.2-0.1,1.8-0.1c0.2,0,0.5-0.1,0.7-0.2c0.6-0.2,0.8-0.5,0.8-1.2c0-4.5,0-9,0-13.5
		c0-0.4,0-0.8,0-1.2c-0.2-1.3-1.2-2.1-2.6-2.3c-0.5-0.1-0.9-0.1-1.5-0.1c0-0.3,0.1-0.6,0.1-0.9c0.9,0,1.8,0.1,2.7,0.1
		c2.7,0,5.4,0,8.1-0.1c0.6,0,1.2-0.1,1.8,0c1.5,0.2,2.5,1,3,2.4c0.6,1.7,0.6,3.3,0,5c-0.4,1.2-1.2,2.1-2.5,2.7
		c0.7,0.3,1.1,0.8,1.4,1.4c1,2,2,4,3.1,5.9c0.3,0.6,0.7,1.2,1.2,1.7c0.3,0.3,0.7,0.5,1.2,0.3c0,0.3,0.1,0.5,0.1,0.9
		c-0.6,0.1-1.1,0.2-1.6,0.2c-0.6,0-1.2,0-1.8,0c-0.7,0-1.2-0.3-1.5-1c-1-2.1-2.1-4.3-3.2-6.4c-0.3-0.6-0.7-1-1.1-1.5
		c-0.1-0.1-0.2-0.2-0.4-0.2c-1.1,0-2.2,0-3.4,0c0,0.1,0,0.2,0,0.4c0,2.1,0,4.3,0,6.4c0,0.6,0.1,0.9,0.7,1c0.7,0.2,1.4,0.3,2.1,0.4
		c0,0.2,0,0.5,0,0.7C138,25.2,135,25.2,131.9,25.2z M138.2,6.3c0,2.9,0,5.7,0,8.5c0.9,0,1.8,0,2.7,0c1.4,0,2.5-0.7,3-2.1
		c0.5-1.4,0.5-2.8,0.2-4.2c-0.5-1.7-1.6-2.5-3.4-2.4C139.9,6.2,139.1,6.2,138.2,6.3z"/>
	<path d="M72.2,23.5c0,0.3,0,0.5,0,0.8c-1.4,0.3-2.9,0.7-4.4,1.1c-0.1-0.7-0.3-1.3-0.4-2c-0.1,0.1-0.2,0.1-0.2,0.2
		c-1.9,1.8-4.1,2.3-6.6,1.6c-2.4-0.6-3.7-2.3-4.3-4.7c-0.5-2.2-0.4-4.5,0.2-6.7c0.7-2.3,2.4-3.6,4.7-4c1.9-0.4,3.8-0.3,5.8,0
		c0.1,0,0.1,0,0.2,0c0-0.2,0-0.3,0-0.5c0-2.2,0-4.3,0-6.5c0-0.7-0.2-1-0.9-1c-0.8,0-1.5,0.1-2.3,0.2c-0.1,0-0.1,0-0.2,0
		c0-0.3,0-0.6,0-0.9c2-0.4,4.1-0.9,6.2-1.3c0,0.2,0,0.3,0,0.5c0,7.1,0,14.2,0,21.3c0,0.1,0,0.2,0,0.3c0,1,0.5,1.5,1.6,1.4
		C71.8,23.5,72,23.5,72.2,23.5z M67.3,11.6c-1.3-0.5-2.6-0.7-3.9-0.7c-2.4,0-4,1.2-4.5,3.6c-0.2,0.9-0.2,1.8-0.2,2.8
		c0,1.4,0.2,2.7,0.8,4c1,2.2,3.5,3.2,5.7,2.2c1.3-0.6,2.1-1.6,2-3.1c0-2.8,0-5.5,0-8.3C67.3,11.9,67.3,11.8,67.3,11.6z"/>
	<path d="M103.9,12.2C103.9,12.2,103.8,12.1,103.9,12.2c0-0.9,0-0.9,0.8-1.1c1.5-0.4,3.1-0.9,4.6-1.4c0.1,0.6,0.1,1.2,0.2,1.8
		c0.3-0.2,0.6-0.3,0.9-0.4c1.7-0.8,3.5-1.4,5.4-1.4c2,0,3.7,1.8,3.7,3.8c0,3.1,0,6.3,0,9.4c0,1,0.4,1.3,1.3,1.4c0.3,0,0.7,0,1,0
		c0,0.3,0,0.6,0,0.8c-2.4,0-4.8,0-7.2,0c0-0.2,0-0.5,0-0.8c0.4,0,0.8,0,1.2-0.1c0.7-0.1,1-0.4,1-1.2c0-3,0-6,0-9
		c0-1.1-0.5-1.9-1.5-2.3c-1.4-0.6-2.9-0.6-4.3,0.1c-0.9,0.5-1.5,1.2-1.5,2.4c0,3,0,6,0,9c0,0.6,0.2,0.9,0.8,1c0.5,0.1,1,0.2,1.6,0.3
		c0,0.2,0,0.5,0,0.8c-2.5,0-4.9,0-7.4,0c0-0.3,0-0.5,0-0.8c0.4,0,0.8,0,1.2-0.1c0.8-0.2,1-0.5,1-1.3c0-3.3,0-6.7,0-10
		c0-0.7-0.3-1.1-1-1C105.1,12,104.5,12.1,103.9,12.2z"/>
	<path d="M46,11.9c0-0.2,0-0.4,0-0.7c1.8-0.4,3.7-0.6,5.5-1.4c0,0.2,0,0.3,0,0.5c0,3.8,0,7.7,0,11.5c0,0.3,0,0.7,0.1,1
		c0.2,0.8,0.7,1.1,1.5,0.9c0.2,0,0.4-0.1,0.6-0.2c0,0.3,0,0.5,0,0.8c-1.4,0.3-2.8,0.7-4.3,1.1c-0.2-0.7-0.3-1.4-0.5-2.2
		c-0.1,0.1-0.2,0.2-0.3,0.2c-1.8,1.5-3.9,2.3-6.3,2c-1.8-0.3-3.7-1.2-3.7-3c0-0.2,0-0.4,0-0.6c0-2.9,0-5.8,0-8.7c0-0.8-0.2-1-1-1.1
		c-0.3,0-0.6-0.1-0.9-0.1c-0.3,0-0.6,0-0.9,0.1c0-0.3,0-0.5,0-0.8c1.9-0.4,3.7-0.8,5.6-1.3c0,0.1,0,0.2,0,0.4c0,3.6,0,7.2,0,10.7
		c0,0.3,0.1,0.6,0.1,0.9c0.3,1.4,1.1,2,2.5,1.9c1.6-0.1,3.1-0.6,4.3-1.7c0.3-0.3,0.4-0.6,0.4-1c0-2.7,0-5.4,0-8.1
		c0-0.6-0.1-0.8-0.7-0.9C47.4,12,46.8,11.9,46,11.9z"/>
	<path d="M94,25.4c-1.8,0-3.4-0.4-4.7-1.6c-1.1-1-1.7-2.4-2-3.8c-0.3-1.9-0.4-3.7,0.2-5.5c0.8-2.7,2.7-4.2,5.4-4.6
		c1.3-0.2,2.7-0.2,4,0c2.2,0.4,3.8,1.8,4.5,4c0.7,2.2,0.8,4.5,0.1,6.8c-0.8,2.6-2.7,4.1-5.3,4.6C95.5,25.3,94.8,25.3,94,25.4z
		 M90,17c0,1.9,0.3,3.6,1,4.9c0.9,1.8,2.2,2.4,4.2,2.2c1.8-0.2,2.9-1.5,3.4-3.1c0.5-1.6,0.5-3.3,0.3-5c-0.2-1.2-0.5-2.4-1.2-3.4
		c-1.6-2.2-5.8-2.2-7,0.8C90.1,14.4,90,15.7,90,17z"/>
	<path d="M165.5,17.1c-3.4,0.3-6.7,0.7-10.1,1c0.1,1.4,0.4,2.8,1.2,4c0.6,1,1.5,1.7,2.6,1.9c0.7,0.1,1.5,0.1,2.3,0
		c1.5-0.2,3-0.6,4.3-1.6c0,0.4,0.1,0.7,0.1,1.1c0,0.1-0.1,0.3-0.2,0.4c-1,0.8-2.1,1.2-3.4,1.5c-1.5,0.3-3,0.4-4.5,0.1
		c-2.2-0.4-3.8-1.7-4.6-3.8c-0.9-2.3-1-4.6-0.4-6.9c0.7-2.7,2.8-4.5,5.6-4.8c0.8-0.1,1.7-0.1,2.6,0c1.7,0.2,2.9,1.2,3.7,2.6
		C165.3,13.9,165.5,15.5,165.5,17.1z M155.3,16.8c1.5-0.2,2.9-0.3,4.4-0.5c1-0.1,2-0.3,3.1-0.4c0.2,0,0.3-0.1,0.3-0.3
		c-0.1-1.2-0.4-2.4-1.1-3.4c-1.4-1.8-4.2-1.9-5.5-0.1C155.4,13.5,155.2,15.1,155.3,16.8z"/>
	<path d="M180.4,17.1c-1.7,0.2-3.4,0.3-5.1,0.5c-1.7,0.2-3.4,0.3-5.1,0.5c0.1,1.4,0.4,2.8,1.2,4c0.7,1.1,1.8,1.8,3.1,1.9
		c0.8,0,1.5,0,2.3-0.2c1.4-0.2,2.6-0.7,3.8-1.5c0,0.4,0.1,0.8,0.1,1.1c0,0.1-0.2,0.3-0.3,0.4c-1.3,1-2.9,1.5-4.5,1.7
		c-1.2,0.1-2.3,0.2-3.5-0.1c-2.1-0.5-3.6-1.8-4.4-3.8c-0.9-2.3-1-4.7-0.3-7.1c0.8-2.8,2.8-4.2,5.6-4.6c0.8-0.1,1.7-0.1,2.6,0
		c1.6,0.2,2.8,1.2,3.6,2.6C180.2,13.9,180.4,15.4,180.4,17.1z M170.2,16.8c0.1,0,0.2,0,0.2,0c1.6-0.2,3.1-0.3,4.7-0.5
		c0.9-0.1,1.7-0.3,2.5-0.4c0.1,0,0.3-0.2,0.3-0.3c-0.1-1.3-0.4-2.5-1.3-3.6c-1.4-1.6-3.9-1.6-5.2-0.1
		C170.3,13.4,170.1,15.1,170.2,16.8z"/>
	<path d="M83.9,14.1c-0.3,0-0.6,0-0.8,0c0-0.2,0-0.4-0.1-0.6c-0.2-1.3-0.9-2.1-2.2-2.4c-1.1-0.3-2.3-0.3-3.4,0
		c-0.9,0.3-1.5,0.8-1.7,1.8c-0.2,1,0.1,1.8,0.9,2.5c0.8,0.6,1.7,1,2.7,1.2c1.1,0.2,2.2,0.6,3.3,1.2c2.9,1.7,2.1,5.9-0.4,7.1
		c-1.2,0.5-2.4,0.8-3.6,0.8c-1.4,0-2.8-0.1-4.2-0.2c-0.9-0.1-1-0.5-1.1-1.3c-0.1-0.6-0.1-1.1-0.1-1.7c0-0.3,0-0.5-0.1-0.8
		c0.3,0,0.6,0,0.9,0c0,0.1,0,0.2,0,0.3c0,0.9,0.4,1.5,1.1,1.9c1.7,0.9,3.6,1.1,5.4,0.3c0.8-0.4,1.4-1,1.4-2c0.1-1-0.4-1.7-1.2-2.2
		c-0.9-0.4-1.8-0.7-2.8-1.1c-0.7-0.2-1.4-0.4-2.1-0.7c-2.2-0.9-2.9-2.6-2.6-4.7c0.2-1.8,1.2-3,3-3.5c2.3-0.6,4.5-0.6,6.8,0.2
		c0.9,0.3,0.9,0.3,0.8,1.2C83.9,12.3,83.9,13.2,83.9,14.1z"/>
</g>
</svg>
