<?xml version="1.0" encoding="iso-8859-1"?>
<!-- Generator: Adobe Illustrator 21.0.0, SVG Export Plug-In . SVG Version: 6.00 Build 0)  -->
<svg version="1.1" id="Layer_1" xmlns="http://www.w3.org/2000/svg" xmlns:xlink="http://www.w3.org/1999/xlink" x="0px" y="0px"
	 width="27px" height="27px" viewBox="0 0 27 27" style="enable-background:new 0 0 27 27;" xml:space="preserve">
<style type="text/css">
	.st0{clip-path:url(#SVGID_2_);}
	.st1{clip-path:url(#SVGID_4_);fill:none;stroke:#FFFFFF;stroke-width:1.5;stroke-miterlimit:10;}
	.st2{clip-path:url(#SVGID_4_);fill:#FFFFFF;}
</style>
<g id="Account_Icon_White">
	<g>
		<defs>
			<rect id="SVGID_1_" x="0" y="0.1" width="26.5" height="26.5"/>
		</defs>
		<clipPath id="SVGID_2_">
			<use xlink:href="#SVGID_1_"  style="overflow:visible;"/>
		</clipPath>
		<g class="st0">
			<defs>
				<rect id="SVGID_3_" x="0" y="0.1" width="26.5" height="26.5"/>
			</defs>
			<clipPath id="SVGID_4_">
				<use xlink:href="#SVGID_3_"  style="overflow:visible;"/>
			</clipPath>
			<path class="st1" d="M13.2,0.9C6.4,0.9,0.7,6.5,0.7,13.4s5.6,12.5,12.5,12.5s12.5-5.6,12.5-12.5S20.1,0.9,13.2,0.9z"/>
			<path class="st2" d="M13.2,4.6c2.1,0,3.8,1.6,3.8,3.8s-1.6,3.8-3.8,3.8c-2.1,0-3.8-1.6-3.8-3.8S11.1,4.6,13.2,4.6"/>
			<path class="st2" d="M13.2,22.4c-3.1,0-5.9-1.6-7.5-4c0-2.5,5-3.9,7.5-3.9c2.5,0,7.5,1.4,7.5,3.9C19.1,20.7,16.4,22.4,13.2,22.4"
				/>
		</g>
	</g>
</g>
</svg>
