<?xml version="1.0" encoding="utf-8"?>
<!-- Generator: Adobe Illustrator 15.1.0, SVG Export Plug-In . SVG Version: 6.00 Build 0)  -->
<!DOCTYPE svg PUBLIC "-//W3C//DTD SVG 1.1//EN" "http://www.w3.org/Graphics/SVG/1.1/DTD/svg11.dtd">
<svg version="1.1" id="Layer_1" xmlns="http://www.w3.org/2000/svg" xmlns:xlink="http://www.w3.org/1999/xlink" x="0px" y="0px"
	 width="27px" height="27.334px" viewBox="0 0 27 27.334" enable-background="new 0 0 27 27.334" xml:space="preserve">
<path fill="#FFFFFF" d="M13.616,1.293c-6.875,0-12.5,5.625-12.5,12.5s5.625,12.5,12.5,12.5s12.5-5.625,12.5-12.5
	S20.491,1.293,13.616,1.293 M13.616,5.043c2.125,0,3.75,1.625,3.75,3.75s-1.625,3.75-3.75,3.75c-2.126,0-3.751-1.625-3.751-3.75
	S11.49,5.043,13.616,5.043 M13.616,22.793c-3.126,0-5.875-1.625-7.501-4c0-2.5,5-3.875,7.501-3.875c2.499,0,7.5,1.375,7.5,3.875
	C19.491,21.168,16.741,22.793,13.616,22.793"/>
</svg>
