<?xml version="1.0" encoding="utf-8"?>
<!-- Generator: Adobe Illustrator 15.1.0, SVG Export Plug-In . SVG Version: 6.00 Build 0)  -->
<!DOCTYPE svg PUBLIC "-//W3C//DTD SVG 1.1//EN" "http://www.w3.org/Graphics/SVG/1.1/DTD/svg11.dtd">
<svg version="1.1" id="Layer_1" xmlns="http://www.w3.org/2000/svg" xmlns:xlink="http://www.w3.org/1999/xlink" x="0px" y="0px"
	 width="32.334px" height="34.061px" viewBox="0 0 32.334 34.061" enable-background="new 0 0 32.334 34.061" xml:space="preserve">
<path d="M28.412,29.942L26.574,9.473c-0.05-0.559-0.519-0.987-1.08-0.987h-3.789V6.777C21.705,3.59,19.111,1,15.928,1
	c-3.188,0-5.778,2.59-5.778,5.777v1.709H6.356c-0.56,0-1.029,0.428-1.079,0.987L3.432,30.022c-0.026,0.304,0.074,0.604,0.279,0.829
	c0.206,0.225,0.497,0.352,0.801,0.352H27.34h0.004c0.598,0,1.084-0.484,1.084-1.083C28.426,30.059,28.422,30,28.412,29.942
	 M12.318,6.777c0-1.99,1.618-3.609,3.609-3.609c1.99,0,3.608,1.619,3.608,3.609v1.709h-7.218V6.777z"/>
</svg>
