<?xml version="1.0" encoding="iso-8859-1"?>
<!-- Generator: Adobe Illustrator 21.0.0, SVG Export Plug-In . SVG Version: 6.00 Build 0)  -->
<svg version="1.1" id="Layer_1" xmlns="http://www.w3.org/2000/svg" xmlns:xlink="http://www.w3.org/1999/xlink" x="0px" y="0px"
	 width="25px" height="29px" viewBox="0 0 25 29" style="enable-background:new 0 0 25 29;" xml:space="preserve">
<style type="text/css">
	.st0{fill:#FFFFFF;}
</style>
<g>
	<path class="st0" d="M1.7,28.6c-0.2,0-0.4-0.1-0.6-0.2C1.1,28.2,1,28,1,27.8L2.8,7.9c0-0.4,0.4-0.7,0.7-0.7h4v-2
		C7.5,2.4,9.9,0,12.8,0s5.3,2.4,5.3,5.3v2h4c0.4,0,0.7,0.3,0.7,0.7c0,0,1.8,19.9,1.8,20c0,0.4-0.3,0.7-0.7,0.7H1.7z M2.6,27.1H23
		L21.4,8.7h-3.3v2.2c0,0.4-0.3,0.7-0.7,0.7s-0.7-0.3-0.7-0.7V8.7H9v2.2c0,0.4-0.3,0.7-0.8,0.7c-0.4,0-0.7-0.3-0.7-0.7V8.7H4.2
		L2.6,27.1z M12.8,1.5C10.7,1.5,9,3.2,9,5.3v2h7.6v-2C16.6,3.2,14.9,1.5,12.8,1.5z"/>
</g>
</svg>
