<?xml version="1.0" encoding="utf-8"?>
<!-- Generator: Adobe Illustrator 15.1.0, SVG Export Plug-In . SVG Version: 6.00 Build 0)  -->
<!DOCTYPE svg PUBLIC "-//W3C//DTD SVG 1.1//EN" "http://www.w3.org/Graphics/SVG/1.1/DTD/svg11.dtd">
<svg version="1.1" id="Layer_1" xmlns="http://www.w3.org/2000/svg" xmlns:xlink="http://www.w3.org/1999/xlink" x="0px" y="0px"
	 width="29.667px" height="34px" viewBox="0 0 29.667 34" enable-background="new 0 0 29.667 34" xml:space="preserve">
<path fill="#FFFFFF" d="M27.412,30.8l-1.838-20.469c-0.05-0.559-0.519-0.987-1.08-0.987h-3.789V7.635
	c0-3.187-2.594-5.777-5.777-5.777c-3.188,0-5.778,2.59-5.778,5.777v1.709H5.356c-0.56,0-1.029,0.428-1.079,0.987L2.432,30.88
	c-0.026,0.304,0.074,0.604,0.279,0.829c0.206,0.225,0.497,0.352,0.801,0.352H26.34h0.004c0.598,0,1.084-0.484,1.084-1.083
	C27.426,30.917,27.422,30.858,27.412,30.8 M11.318,7.635c0-1.99,1.618-3.609,3.609-3.609c1.99,0,3.608,1.619,3.608,3.609v1.709
	h-7.218V7.635z"/>
</svg>
