<?xml version="1.0" encoding="iso-8859-1"?>
<!-- Generator: Adobe Illustrator 21.0.0, SVG Export Plug-In . SVG Version: 6.00 Build 0)  -->
<svg version="1.1" id="Layer_1" xmlns="http://www.w3.org/2000/svg" xmlns:xlink="http://www.w3.org/1999/xlink" x="0px" y="0px"
	 width="27px" height="27px" viewBox="0 0 27 27" style="enable-background:new 0 0 27 27;" xml:space="preserve">
<style type="text/css">
	.st0{clip-path:url(#SVGID_2_);}
	.st1{clip-path:url(#SVGID_4_);fill:#FFFFFF;}
	.st2{clip-path:url(#SVGID_4_);fill:none;stroke:#FFFFFF;stroke-width:1.5;stroke-miterlimit:10;}
</style>
<g id="Phone_Icon_White">
	<g>
		<defs>
			<rect id="SVGID_1_" y="0" width="26.5" height="26.5"/>
		</defs>
		<clipPath id="SVGID_2_">
			<use xlink:href="#SVGID_1_"  style="overflow:visible;"/>
		</clipPath>
		<g class="st0">
			<defs>
				<rect id="SVGID_3_" y="0" width="26.5" height="26.5"/>
			</defs>
			<clipPath id="SVGID_4_">
				<use xlink:href="#SVGID_3_"  style="overflow:visible;"/>
			</clipPath>
			<path class="st1" d="M15.8,20.8c-2.9,0-6.4-4.8-7.4-8.9c-0.3-1.3-0.8-4.4,1.2-5.4l1.6-0.7l2.4,4.6l-1.6,0.8l-0.1,0.1
				c-0.3,0.7,0.5,2.5,1,3.3c0.6,0.9,1.1,1.4,1.5,1.4l0.1,0l0.1-0.1c0.1,0,1-0.5,1.4-0.7l2.4,4.6c-0.5,0.3-1.5,0.7-1.6,0.8
				C16.5,20.7,16.2,20.8,15.8,20.8"/>
			<path class="st2" d="M13.2,0.8C6.4,0.8,0.7,6.4,0.7,13.2s5.6,12.5,12.5,12.5s12.5-5.6,12.5-12.5S20.1,0.8,13.2,0.8z"/>
		</g>
	</g>
</g>
</svg>
