<?xml version="1.0" encoding="utf-8"?>
<!-- Generator: Adobe Illustrator 15.1.0, SVG Export Plug-In . SVG Version: 6.00 Build 0)  -->
<!DOCTYPE svg PUBLIC "-//W3C//DTD SVG 1.1//EN" "http://www.w3.org/Graphics/SVG/1.1/DTD/svg11.dtd">
<svg version="1.1" id="Layer_1" xmlns="http://www.w3.org/2000/svg" xmlns:xlink="http://www.w3.org/1999/xlink" x="0px" y="0px"
	 width="31.333px" height="34px" viewBox="0 0 31.333 34" enable-background="new 0 0 31.333 34" xml:space="preserve">
<path fill="#FFFFFF" d="M6.529,4.825L9.76,3.323l4.591,8.965l-3.095,1.524c-0.611,1.432,2.453,7.147,3.748,7.241
	c0.102-0.065,3.033-1.506,3.033-1.506l4.672,9.012c0,0-3.141,1.538-3.242,1.587C10.534,34.226-2.242,9.397,6.529,4.825"/>
<path fill="#FFFFFF" d="M17.624,14.965l3.313,0.989c0.253-0.848,0.184-1.796-0.272-2.635c-0.453-0.838-1.206-1.417-2.056-1.668
	L17.624,14.965z"/>
<path fill="#FFFFFF" d="M19.673,8.08c1.762,0.524,3.324,1.724,4.269,3.466c0.944,1.746,1.09,3.711,0.564,5.471l-2.041-0.609
	c0.37-1.239,0.267-2.62-0.396-3.849c-0.666-1.228-1.764-2.07-3.006-2.438L19.673,8.08z"/>
<path fill="#FFFFFF" d="M20.752,4.459c2.688,0.801,5.07,2.627,6.513,5.291c1.438,2.662,1.663,5.656,0.861,8.345l-2.089-0.622
	c0.641-2.153,0.461-4.553-0.693-6.686s-3.062-3.596-5.218-4.236L20.752,4.459z"/>
</svg>
