<?xml version="1.0" encoding="iso-8859-1"?>
<!-- Generator: Adobe Illustrator 21.0.0, SVG Export Plug-In . SVG Version: 6.00 Build 0)  -->
<svg version="1.1" id="Layer_1" xmlns="http://www.w3.org/2000/svg" xmlns:xlink="http://www.w3.org/1999/xlink" x="0px" y="0px"
	 width="51px" height="563px" viewBox="0 0 51 563" style="enable-background:new 0 0 51 563;" xml:space="preserve">
<style type="text/css">
	.st0{fill:#FFFFFF;}
	.st1{fill:#FFFFFF;stroke:#000000;stroke-width:10;stroke-miterlimit:10;}
</style>
<g>
	<path d="M11.9,14.6h-0.8c-1.3,0-2.3-1-2.3-2.3s1-2.3,2.3-2.3h0.8v0.8h-0.8c-0.8,0-1.5,0.7-1.5,1.5c0,0.8,0.7,1.5,1.5,1.5h0.8V14.6z
		"/>
	<rect x="15.7" y="13.8" width="3.4" height="0.8"/>
	<rect x="22.9" y="13.8" width="3.4" height="0.8"/>
	<rect x="30.1" y="13.8" width="3.4" height="0.8"/>
	<path d="M38.1,14.6h-0.8v-0.8h0.8c0.8,0,1.5-0.7,1.5-1.5c0-0.8-0.7-1.5-1.5-1.5h-0.8V10h0.8c1.3,0,2.3,1,2.3,2.3
		S39.3,14.6,38.1,14.6z"/>
	<rect x="30.1" y="10" width="3.4" height="0.8"/>
	<rect x="22.9" y="10" width="3.4" height="0.8"/>
	<rect x="15.7" y="10" width="3.4" height="0.8"/>
	<g>
		<line class="st0" x1="11.5" y1="37.4" x2="11.5" y2="37.4"/>
		<path d="M11.5,37.4"/>
	</g>
	<g>
		<path d="M15.7,37.7c-0.2,0-0.4-0.2-0.4-0.4V8.4c0-0.8-0.7-1.5-1.5-1.5c-0.8,0-1.5,0.7-1.5,1.5v28.9c0,0.2-0.2,0.4-0.4,0.4
			s-0.4-0.2-0.4-0.4V8.4c0-1.3,1-2.3,2.3-2.3s2.3,1,2.3,2.3v28.9C16.1,37.5,15.9,37.7,15.7,37.7z"/>
		<path d="M37.3,37.7c-0.2,0-0.4-0.2-0.4-0.4V8.4c0-0.8-0.7-1.5-1.5-1.5s-1.5,0.7-1.5,1.5v28.9c0,0.2-0.2,0.4-0.4,0.4
			s-0.4-0.2-0.4-0.4V8.4c0-1.3,1-2.3,2.3-2.3c1.3,0,2.3,1,2.3,2.3v28.9C37.6,37.5,37.5,37.7,37.3,37.7z"/>
		<path d="M22.9,37.7c-0.2,0-0.4-0.2-0.4-0.4V8.4c0-0.8-0.7-1.5-1.5-1.5s-1.5,0.7-1.5,1.5v28.9c0,0.2-0.2,0.4-0.4,0.4
			s-0.4-0.2-0.4-0.4V8.4c0-1.3,1-2.3,2.3-2.3s2.3,1,2.3,2.3v28.9C23.3,37.5,23.1,37.7,22.9,37.7z"/>
		<path d="M30.1,37.7c-0.2,0-0.4-0.2-0.4-0.4V8.4c0-0.8-0.7-1.5-1.5-1.5c-0.8,0-1.5,0.7-1.5,1.5v28.9c0,0.2-0.2,0.4-0.4,0.4
			c-0.2,0-0.4-0.2-0.4-0.4V8.4c0-1.3,1-2.3,2.3-2.3c1.3,0,2.3,1,2.3,2.3v28.9C30.5,37.5,30.3,37.7,30.1,37.7z"/>
	</g>
</g>
<g>
	<rect x="16.2" y="67.9" width="16.9" height="0.8"/>
	<rect x="16.2" y="64" width="16.9" height="0.8"/>
	<rect x="16.2" y="61" width="16.9" height="0.8"/>
	<rect x="16.2" y="57.1" width="16.9" height="0.8"/>
	<g>
		<path d="M38.1,75.6h-1.5V71h1.5c1.3,0,2.3,1,2.3,2.3C40.4,74.5,39.3,75.6,38.1,75.6z M37.3,74.8h0.8c0.8,0,1.5-0.7,1.5-1.5
			c0-0.8-0.7-1.5-1.5-1.5h-0.8V74.8z"/>
		<path d="M33.4,75.6H15.7V71h17.7V75.6z M16.5,74.8h16.2v-3.1H16.5V74.8z"/>
		<path d="M12.7,75.6h-1.5c-1.3,0-2.3-1-2.3-2.3c0-1.3,1-2.3,2.3-2.3h1.5V75.6z M11.1,71.7c-0.8,0-1.5,0.7-1.5,1.5
			c0,0.8,0.7,1.5,1.5,1.5h0.8v-3.1H11.1z"/>
		<path d="M12.7,54.8h-1.5c-1.3,0-2.3-1-2.3-2.3c0-1.3,1-2.3,2.3-2.3h1.5V54.8z M11.1,50.9c-0.8,0-1.5,0.7-1.5,1.5
			c0,0.8,0.7,1.5,1.5,1.5h0.8v-3.1H11.1z"/>
		<path d="M38.1,54.8h-1.5v-4.6h1.5c1.3,0,2.3,1,2.3,2.3C40.4,53.8,39.3,54.8,38.1,54.8z M37.3,54h0.8c0.8,0,1.5-0.7,1.5-1.5
			c0-0.8-0.7-1.5-1.5-1.5h-0.8V54z"/>
		<path d="M33.4,54.8H15.7v-4.6h17.7V54.8z M16.5,54h16.2v-3.1H16.5V54z"/>
		<path d="M14.2,78.7c-1.3,0-2.3-1-2.3-2.3v-1.2h0.8v1.2c0,0.8,0.7,1.5,1.5,1.5s1.5-0.7,1.5-1.5v-1.2h0.8v1.2
			C16.5,77.6,15.5,78.7,14.2,78.7z"/>
		<rect x="15.7" y="54.4" width="0.8" height="16.9"/>
		<rect x="11.9" y="54.4" width="0.8" height="16.9"/>
		<path d="M16.5,50.6h-0.8v-1.2c0-0.8-0.7-1.5-1.5-1.5s-1.5,0.7-1.5,1.5v1.2h-0.8v-1.2c0-1.3,1-2.3,2.3-2.3s2.3,1,2.3,2.3V50.6z"/>
		<rect x="32.7" y="54.4" width="0.8" height="16.9"/>
		<rect x="36.5" y="54.4" width="0.8" height="16.9"/>
		<path d="M35,78.7c-1.3,0-2.3-1-2.3-2.3v-1.2h0.8v1.2c0,0.8,0.7,1.5,1.5,1.5s1.5-0.7,1.5-1.5v-1.2h0.8v1.2
			C37.3,77.6,36.3,78.7,35,78.7z"/>
		<path d="M37.3,50.6h-0.8v-1.2c0-0.8-0.7-1.5-1.5-1.5s-1.5,0.7-1.5,1.5v1.2h-0.8v-1.2c0-1.3,1-2.3,2.3-2.3c1.3,0,2.3,1,2.3,2.3
			V50.6z"/>
	</g>
</g>
<g>
	<path class="st1" d="M40.5,102.8"/>
	<path d="M39.2,107.7h-2.1c-0.9,0-1.7-0.7-1.7-1.7v-1h0.8v1c0,0.5,0.4,0.9,0.9,0.9h2.1c0.5,0,0.9-0.4,0.9-0.9v-2.3h0.8v2.3
		C40.9,107,40.1,107.7,39.2,107.7z"/>
	<path d="M19,121.7h-6.7c-0.8,0-1.5-0.7-1.5-1.5v-18.5h9.7l0,1.9c0,0.2,0.1,0.4,0.3,0.6c0.2,0.1,0.4,0.2,0.6,0.1
		c2.5-0.7,11.3-3.2,19.4-3.2c0,0,0,0,0,0c0.4,0,0.8,0.2,1,0.4c0.3,0.3,0.4,0.7,0.4,1.1c0,0.7-0.5,1.3-1.2,1.5
		c-13,3-18.9,7.9-20.4,9.3c-0.1,0.1-0.2,0.3-0.2,0.5v6.4C20.5,121,19.9,121.7,19,121.7z M11.6,102.5v17.8c0,0.4,0.3,0.7,0.7,0.7H19
		c0.4,0,0.7-0.3,0.7-0.7v-6.4c0-0.4,0.2-0.8,0.5-1.1c6.1-5.8,17.4-8.7,20.8-9.5c0.3-0.1,0.6-0.4,0.6-0.7c0-0.2-0.1-0.4-0.2-0.5
		c-0.1-0.1-0.3-0.2-0.5-0.2c0,0,0,0,0,0c-8,0-16.7,2.4-19.2,3.2c-0.5,0.1-0.9,0-1.3-0.2c-0.4-0.3-0.6-0.7-0.6-1.2l0-1.2H11.6z"/>
	<path d="M20.5,100.2h-9.7v-2.5c0-2.4,1.5-4.5,3.7-5.4c2.6-1,6.1-1.7,10.4-2c3.5-0.3,6.6-0.2,8.1-0.2c0.8,0,1.4,0.6,1.4,1.4
		c0,0.8-0.6,1.4-1.4,1.4c-7.1,0.2-10.5,2-11.9,3.1c-0.4,0.3-0.6,0.8-0.6,1.3V100.2z M11.6,99.4h8.1v-2c0-0.7,0.3-1.4,0.9-1.9
		c1.5-1.2,5-3.1,12.3-3.3c0.3,0,0.6-0.3,0.6-0.6c0-0.3-0.3-0.6-0.6-0.6c-10.9-0.4-16.7,1.5-18.2,2.1c-1.9,0.7-3.2,2.6-3.2,4.6V99.4z
		"/>
	<path d="M38.2,117.3c0,0-0.1,0-0.1,0c-0.8,0-1.6-0.5-2-1.2c-0.5-0.7-0.5-1.6-0.2-2.4l1.7-3.9c0.1-0.3,0.4-0.5,0.7-0.5
		s0.6,0.2,0.7,0.5l1.7,3.9c0.3,0.8,0.3,1.7-0.2,2.4c-0.5,0.7-1.2,1.2-2,1.2C38.3,117.3,38.2,117.3,38.2,117.3z M38.2,110.2l-1.6,3.8
		c-0.2,0.6-0.2,1.2,0.1,1.7c0.3,0.5,0.8,0.8,1.4,0.8c0.1,0,0.1,0,0.2,0c0.6,0,1.1-0.3,1.4-0.8c0.3-0.5,0.4-1.2,0.1-1.7L38.2,110.2z"
		/>
</g>
<g>
	<path d="M39.1,146.4h-0.8c0-1.8-0.7-3.4-2-4.6c-1.3-1.2-3-1.9-4.9-1.9c-1.9,0-3.6,0.7-4.9,1.9c-1.3,1.2-2,2.9-2,4.6h-0.8
		c0-2,0.8-3.8,2.3-5.2c1.4-1.4,3.4-2.1,5.4-2.1c2.1,0,4,0.7,5.4,2.1C38.2,142.6,39.1,144.4,39.1,146.4z"/>
	<path d="M11.6,164.5c-1,0-1.7-0.8-1.7-1.7v-18.1c0-6.4,5.2-11.7,11.6-11.8c2.2,0,4.4,0.6,6.2,1.7c1.8,1.1,3.3,2.7,4.3,4.6l-0.7,0.3
		c-0.9-1.8-2.3-3.3-4-4.3c-1.7-1.1-3.8-1.6-5.8-1.6c-6,0.1-10.8,5-10.8,11v18.1c0,0.5,0.4,1,1,1c0.5,0,1-0.4,1-1v-18.1
		c0-5,4-9,8.9-9.1c0,0,0,0,0,0c3.1,0,5.9,1.5,7.5,4.1l-0.6,0.4c-1.5-2.4-4.1-3.8-6.9-3.8c0,0,0,0,0,0c-4.5,0-8.2,3.7-8.2,8.3v18.1
		C13.3,163.7,12.5,164.5,11.6,164.5z"/>
	<path d="M39.4,149.9H23.3c-1.1,0-1.9-0.9-1.9-1.9c0-1.1,0.9-1.9,1.9-1.9h16.1c1.1,0,1.9,0.9,1.9,1.9
		C41.4,149,40.5,149.9,39.4,149.9z M23.3,146.8c-0.6,0-1.2,0.5-1.2,1.2c0,0.6,0.5,1.2,1.2,1.2h16.1c0.6,0,1.2-0.5,1.2-1.2
		c0-0.6-0.5-1.2-1.2-1.2H23.3z"/>
	<path d="M25.2,157.6c-0.8,0-1.5-0.7-1.5-1.5V153c0-0.8,0.7-1.5,1.5-1.5c0.8,0,1.5,0.7,1.5,1.5v3.1C26.7,156.9,26,157.6,25.2,157.6z
		 M25.2,152.2c-0.4,0-0.8,0.3-0.8,0.8v3.1c0,0.4,0.3,0.8,0.8,0.8s0.8-0.3,0.8-0.8V153C26,152.5,25.6,152.2,25.2,152.2z"/>
	<path d="M37.5,157.6c-0.8,0-1.5-0.7-1.5-1.5V153c0-0.8,0.7-1.5,1.5-1.5c0.8,0,1.5,0.7,1.5,1.5v3.1
		C39.1,156.9,38.4,157.6,37.5,157.6z M37.5,152.2c-0.4,0-0.8,0.3-0.8,0.8v3.1c0,0.4,0.3,0.8,0.8,0.8c0.4,0,0.8-0.3,0.8-0.8V153
		C38.3,152.5,37.9,152.2,37.5,152.2z"/>
	<path d="M31.4,157.6c-0.8,0-1.5-0.7-1.5-1.5V153c0-0.8,0.7-1.5,1.5-1.5s1.5,0.7,1.5,1.5v3.1C32.9,156.9,32.2,157.6,31.4,157.6z
		 M31.4,152.2c-0.4,0-0.8,0.3-0.8,0.8v3.1c0,0.4,0.3,0.8,0.8,0.8s0.8-0.3,0.8-0.8V153C32.1,152.5,31.8,152.2,31.4,152.2z"/>
	<g>
		<path d="M34.4,164.5c-0.8,0-1.5-0.7-1.5-1.5v-3.1c0-0.8,0.7-1.5,1.5-1.5c0.8,0,1.5,0.7,1.5,1.5v3.1
			C36,163.8,35.3,164.5,34.4,164.5z M34.4,159.1c-0.4,0-0.8,0.3-0.8,0.8v3.1c0,0.4,0.3,0.8,0.8,0.8c0.4,0,0.8-0.3,0.8-0.8v-3.1
			C35.2,159.5,34.9,159.1,34.4,159.1z"/>
		<path d="M28.3,164.5c-0.8,0-1.5-0.7-1.5-1.5v-3.1c0-0.8,0.7-1.5,1.5-1.5s1.5,0.7,1.5,1.5v3.1C29.8,163.8,29.1,164.5,28.3,164.5z
			 M28.3,159.1c-0.4,0-0.8,0.3-0.8,0.8v3.1c0,0.4,0.3,0.8,0.8,0.8s0.8-0.3,0.8-0.8v-3.1C29,159.5,28.7,159.1,28.3,159.1z"/>
	</g>
</g>
<g>
	<rect x="14.6" y="194.6" width="20" height="0.8"/>
	<path d="M31.6,192.5l-0.8,0l0.6-10.9l0,0c0.1-0.5-0.1-1-0.3-1.3c-0.2-0.2-0.5-0.4-0.7-0.4H18.7c-0.3,0-0.5,0.1-0.7,0.4
		c-0.3,0.3-0.4,0.8-0.3,1.3l0,0l0.6,10.9l-0.8,0l-0.6-10.8c-0.1-0.7,0.1-1.4,0.5-1.9c0.3-0.4,0.8-0.6,1.3-0.6h11.7
		c0.5,0,1,0.2,1.3,0.6c0.4,0.5,0.6,1.2,0.5,1.9L31.6,192.5z"/>
	<path d="M24.6,202.8c-0.1,0-0.3-0.1-0.3-0.3s0.1-0.3,0.3-0.3c0.9,0,1.8-0.1,2.6-0.2c0.1,0,0.3,0.1,0.3,0.2c0,0.1-0.1,0.3-0.2,0.3
		C26.4,202.7,25.5,202.8,24.6,202.8z"/>
	<path d="M24.6,202.8c-0.9,0-1.8-0.1-2.7-0.2c-0.1,0-0.2-0.2-0.2-0.3c0-0.1,0.2-0.2,0.3-0.2c0.8,0.2,1.7,0.2,2.6,0.2
		c0.1,0,0.3,0.1,0.3,0.3S24.7,202.8,24.6,202.8z"/>
	<path d="M28,210.6h-6.9c-0.6,0-1.2-0.3-1.6-0.7c-0.4-0.5-0.6-1.1-0.5-1.7l0.7-6.2c-1.5-0.6-2.9-1.6-3.9-2.8
		c-1.1-1.3-1.7-2.8-1.7-4.3v-1.6c0-0.7,0.5-1.3,1.2-1.3h18.4c0.7,0,1.2,0.6,1.2,1.3v1.6c0,1.4-0.6,3-1.7,4.3c-1,1.2-2.4,2.2-3.9,2.8
		l0.7,6.2c0.1,0.6-0.1,1.2-0.5,1.7C29.2,210.4,28.6,210.6,28,210.6z M15.4,192.9c-0.2,0-0.4,0.2-0.4,0.5v1.6c0,2.7,2.3,5.4,5.4,6.5
		l0.3,0.1l-0.8,6.8c0,0.4,0.1,0.8,0.3,1.1s0.6,0.5,1,0.5H28c0.4,0,0.7-0.2,1-0.5s0.4-0.7,0.3-1.1l-0.8-6.8l0.3-0.1
		c3.1-1,5.4-3.8,5.4-6.5v-1.6c0-0.3-0.2-0.5-0.4-0.5H15.4z"/>
</g>
<g>
	<path d="M32.3,234.6H16.9c-1.3,0-2.3-1-2.3-2.3c0-1.3,1-2.3,2.3-2.3h15.4c1.3,0,2.3,1,2.3,2.3C34.6,233.5,33.6,234.6,32.3,234.6z
		 M16.9,230.7c-0.8,0-1.5,0.7-1.5,1.5c0,0.8,0.7,1.5,1.5,1.5h15.4c0.8,0,1.5-0.7,1.5-1.5c0-0.8-0.7-1.5-1.5-1.5H16.9z"/>
	<path d="M24.6,241.5c-4.5,0-8.2-3.2-8.5-7.3l0-0.4h17l0,0.4C32.8,238.3,29.1,241.5,24.6,241.5z M16.9,234.6
		c0.4,3.5,3.7,6.2,7.7,6.2s7.2-2.7,7.7-6.2H16.9z"/>
	<path d="M25.1,230.3h-1.1v-4.6c0-1.6,1.3-2.8,2.8-2.8c1.6,0,2.8,1.3,2.8,2.8h-1.1c0-1-0.8-1.8-1.8-1.8c-1,0-1.8,0.8-1.8,1.8V230.3z
		"/>
	<rect x="28.7" y="228" width="1.1" height="2.3"/>
	<rect x="27.9" y="227.5" width="2.6" height="1.1"/>
	<rect x="19.4" y="228" width="1.1" height="2.3"/>
	<rect x="18.7" y="227.5" width="2.6" height="1.1"/>
	<path d="M26.5,254.6h-3.8c-0.6,0-1.2-0.2-1.6-0.7s-0.7-1-0.6-1.7l0.6-11.7l0.8,0l-0.6,11.7c0,0.4,0.1,0.8,0.4,1.1
		c0.3,0.3,0.7,0.5,1.1,0.5h3.8c0.4,0,0.8-0.2,1.1-0.5s0.4-0.7,0.4-1.1l-0.6-11.7l0.8,0l0.6,11.7c0,0.6-0.2,1.2-0.6,1.7
		C27.7,254.3,27.1,254.6,26.5,254.6z"/>
</g>
<g>
	<path d="M33.3,293.6H15.9c-1.8,0-3.4-1.3-3.8-3.1l-1.8-9.2h28.7l-1.8,9.2C36.7,292.3,35.1,293.6,33.3,293.6z M11.2,282.1l1.7,8.3
		c0.3,1.4,1.6,2.5,3,2.5h17.4c1.5,0,2.7-1,3-2.5l1.7-8.3H11.2z"/>
	<g>
		<path d="M16.8,297.5h-0.8c-0.3,0-0.6-0.2-0.8-0.4c-0.2-0.3-0.2-0.6-0.1-0.9l1.2-3l0.7,0.3l-1.2,3c0,0.1,0,0.2,0,0.2
			c0,0,0.1,0.1,0.2,0.1h0.8c0.1,0,0.1,0,0.2-0.1l2.4-3.6l0.6,0.4l-2.4,3.6C17.4,297.3,17.1,297.5,16.8,297.5z"/>
		<path d="M33.2,297.5h-0.8c-0.3,0-0.6-0.2-0.8-0.4l-2.4-3.6l0.6-0.4l2.4,3.6c0,0.1,0.1,0.1,0.2,0.1h0.8c0.1,0,0.1-0.1,0.2-0.1
			c0,0,0.1-0.1,0-0.2l-1.2-3l0.7-0.3l1.2,3c0.1,0.3,0.1,0.6-0.1,0.9C33.9,297.3,33.6,297.5,33.2,297.5z"/>
	</g>
	<path d="M38.8,282.1H10.3c-0.8,0-1.5-0.7-1.5-1.5s0.7-1.5,1.5-1.5h28.5c0.8,0,1.5,0.7,1.5,1.5S39.7,282.1,38.8,282.1z M10.3,279.8
		c-0.4,0-0.8,0.3-0.8,0.8s0.3,0.8,0.8,0.8h28.5c0.4,0,0.8-0.3,0.8-0.8s-0.3-0.8-0.8-0.8H10.3z"/>
	<path d="M15.1,279.4H14v-4.6c0-1.6,1.3-2.8,2.8-2.8c1.6,0,2.8,1.3,2.8,2.8h-1.1c0-1-0.8-1.8-1.8-1.8s-1.8,0.8-1.8,1.8V279.4z"/>
	<path d="M30.4,279h-0.8c0-1.7-1.4-3.1-3.1-3.1c-1.7,0-3.1,1.4-3.1,3.1h-0.8c0-2.1,1.7-3.8,3.8-3.8S30.4,276.9,30.4,279z"/>
	<path d="M33.4,275.2c-1.3,0-2.3-1-2.3-2.3s1-2.3,2.3-2.3c1.3,0,2.3,1,2.3,2.3S34.7,275.2,33.4,275.2z M33.4,271.3
		c-0.8,0-1.5,0.7-1.5,1.5c0,0.8,0.7,1.5,1.5,1.5s1.5-0.7,1.5-1.5C35,272,34.3,271.3,33.4,271.3z"/>
	<path d="M24.6,273.6c-1.1,0-1.9-0.9-1.9-1.9s0.9-1.9,1.9-1.9s1.9,0.9,1.9,1.9S25.7,273.6,24.6,273.6z M24.6,270.5
		c-0.6,0-1.2,0.5-1.2,1.2c0,0.6,0.5,1.2,1.2,1.2c0.6,0,1.2-0.5,1.2-1.2C25.7,271.1,25.2,270.5,24.6,270.5z"/>
	<path d="M29.4,268.7c-0.8,0-1.4-0.6-1.4-1.4s0.6-1.4,1.4-1.4s1.4,0.6,1.4,1.4S30.2,268.7,29.4,268.7z M29.4,266.7
		c-0.3,0-0.6,0.3-0.6,0.6c0,0.3,0.3,0.6,0.6,0.6s0.6-0.3,0.6-0.6C30.1,267,29.8,266.7,29.4,266.7z"/>
</g>
<g>
	<g>
		<path d="M16.8,341.8h-0.8c-0.3,0-0.6-0.2-0.8-0.4c-0.2-0.3-0.2-0.6-0.1-0.9l1.2-3l0.7,0.3l-1.2,3c0,0.1,0,0.2,0,0.2
			c0,0,0.1,0.1,0.2,0.1h0.8c0.1,0,0.1,0,0.2-0.1l2.4-3.6l0.6,0.4l-2.4,3.6C17.4,341.7,17.1,341.8,16.8,341.8z"/>
		<path d="M33.2,341.8h-0.8c-0.3,0-0.6-0.2-0.8-0.4l-2.4-3.6l0.6-0.4l2.4,3.6c0,0.1,0.1,0.1,0.2,0.1h0.8c0.1,0,0.1-0.1,0.2-0.1
			c0,0,0.1-0.1,0-0.2l-1.2-3l0.7-0.3l1.2,3c0.1,0.3,0.1,0.6-0.1,0.9C33.9,341.7,33.6,341.8,33.2,341.8z"/>
	</g>
	<path d="M37.7,338H11.5c-1.5,0-2.7-1.2-2.7-2.7v-10.8c0-1.5,1.2-2.7,2.7-2.7h26.2c1.5,0,2.7,1.2,2.7,2.7v10.8
		C40.4,336.8,39.2,338,37.7,338z M11.5,322.6c-1.1,0-1.9,0.9-1.9,1.9v10.8c0,1.1,0.9,1.9,1.9,1.9h26.2c1.1,0,1.9-0.9,1.9-1.9v-10.8
		c0-1.1-0.9-1.9-1.9-1.9H11.5z"/>
	<rect x="9.2" y="329.5" width="30.8" height="0.8"/>
	<path d="M32.3,326.4H16.9c-0.2,0-0.4-0.2-0.4-0.4c0-0.2,0.2-0.4,0.4-0.4h15.4c0.2,0,0.4,0.2,0.4,0.4
		C32.7,326.3,32.5,326.4,32.3,326.4z"/>
	<path d="M32.3,334.1H16.9c-0.2,0-0.4-0.2-0.4-0.4s0.2-0.4,0.4-0.4h15.4c0.2,0,0.4,0.2,0.4,0.4S32.5,334.1,32.3,334.1z"/>
	<path d="M38.1,322.6H11.1v-3.1h26.9V322.6z M11.9,321.8h25.4v-1.5H11.9V321.8z"/>
	<path d="M25.1,319.9h-1.1V313c0-1.6,1.3-2.8,2.8-2.8c1.6,0,2.8,1.3,2.8,2.8h-1.1c0-1-0.8-1.8-1.8-1.8c-1,0-1.8,0.8-1.8,1.8V319.9z"
		/>
	<rect x="30.2" y="317.6" width="1.1" height="2.3"/>
	<rect x="29.4" y="317" width="2.6" height="1.1"/>
	<rect x="17.9" y="317.6" width="1.1" height="2.3"/>
	<rect x="17.1" y="317" width="2.6" height="1.1"/>
</g>
<g>
	<path d="M28.8,375.9h-8.5v-0.4c0-2.3-0.9-4.6-2.5-6.5c-1.4-1.6-2.2-3.7-2.2-5.8c0-2.4,0.9-4.6,2.5-6.2c1.6-1.7,3.8-2.6,6.2-2.6
		c0,0,0.1,0,0.1,0c2.3,0,4.5,0.9,6.2,2.6c1.7,1.7,2.6,3.9,2.6,6.3c0,2.1-0.8,4.2-2.2,5.8c-1.6,1.8-2.4,4.1-2.4,6.4V375.9z
		 M21.1,375.1h6.9c0.1-2.4,1-4.8,2.6-6.6c1.3-1.5,2-3.4,2-5.3c0-2.2-0.9-4.2-2.4-5.8c-1.5-1.5-3.6-2.4-5.8-2.3
		c-2.1,0-4.2,0.9-5.7,2.4c-1.5,1.5-2.3,3.5-2.3,5.7c0,1.9,0.7,3.8,2,5.3C20.1,370.4,21,372.7,21.1,375.1z"/>
	<path d="M27.1,384.4h-5l-1.7-2.6v-6.7h8.5v6.7L27.1,384.4z M22.5,383.6h4.2l1.4-2v-5.7h-6.9v5.7L22.5,383.6z"/>
	<path d="M24.6,385.8c-1,0-1.8-0.8-1.8-1.8h0.5c0,0.7,0.6,1.3,1.3,1.3c0.7,0,1.3-0.6,1.3-1.3h0.5C26.4,385,25.6,385.8,24.6,385.8z"
		/>
	<path d="M26.4,375.5h-0.5v-9.1c0-1,0.1-1.7,0.4-2.2l-1.7-1.2l-1.7,1.2c0.3,0.4,0.4,0.9,0.4,1.4v9.8h-0.5v-9.8
		c0-0.4-0.1-0.8-0.3-1.1l-0.9,0.7c-0.5,0.4-1.1,0.4-1.7,0.1c-0.5-0.3-0.9-0.8-0.9-1.3c0,0,0-0.1,0-0.1c0,0,0-0.1,0-0.1
		c0-0.6,0.4-1.1,1-1.3c0.6-0.2,1.2-0.1,1.7,0.4l1,1l1.6-1.1l-0.4-0.3c-0.5-0.4-0.7-1-0.6-1.6c0.2-0.6,0.7-1,1.3-1c0.1,0,0.1,0,0.2,0
		c0.6,0,1.1,0.4,1.3,1c0.2,0.6,0,1.2-0.6,1.6l-0.4,0.3l1.6,1.1l1-1c0.4-0.4,1.1-0.6,1.7-0.4c0.6,0.2,0.9,0.7,1,1.3c0,0,0,0.1,0,0.1
		c0,0,0,0.1,0,0.1c0,0.6-0.4,1.1-0.9,1.3c-0.5,0.3-1.2,0.2-1.7-0.1l-0.9-0.7c-0.2,0.4-0.3,0.9-0.3,1.8V375.5z M27.1,364.2l0.9,0.6
		c0.3,0.2,0.8,0.3,1.1,0.1c0.4-0.2,0.6-0.5,0.6-0.9c0,0,0,0,0-0.1c0,0,0-0.1,0-0.1c0-0.4-0.3-0.7-0.6-0.9c-0.3-0.1-0.8-0.1-1.1,0.2
		L27.1,364.2z M20.5,363c-0.1,0-0.3,0-0.4,0.1c-0.4,0.1-0.6,0.5-0.6,0.9c0,0,0,0,0,0.1c0,0,0,0.1,0,0.1c0,0.4,0.2,0.7,0.6,0.9
		c0.4,0.2,0.8,0.1,1.1-0.1l0.9-0.6l-0.9-0.9C21,363.1,20.7,363,20.5,363z M24.6,360.4C24.6,360.4,24.5,360.4,24.6,360.4
		c-0.5,0-0.8,0.4-0.9,0.6c-0.1,0.3,0,0.7,0.3,1l0.5,0.4l0.5-0.4c0.4-0.3,0.4-0.7,0.3-1C25.4,360.7,25.1,360.4,24.6,360.4
		C24.6,360.4,24.6,360.4,24.6,360.4z"/>
	<rect x="20.6" y="378.7" transform="matrix(0.9578 -0.2874 0.2874 0.9578 -107.8715 23.0525)" width="8" height="0.5"/>
	<rect x="20.6" y="380.2" transform="matrix(0.9578 -0.2874 0.2874 0.9578 -108.3066 23.1164)" width="8" height="0.5"/>
	<rect x="20.6" y="377.2" transform="matrix(0.9578 -0.2874 0.2874 0.9578 -107.429 22.9876)" width="8" height="0.5"/>
	<g>
		<path class="st0" d="M29.2,376.3H20c-0.4,0-0.8-0.3-0.8-0.8l0,0c0-0.4,0.3-0.8,0.8-0.8h9.2c0.4,0,0.8,0.3,0.8,0.8l0,0
			C30,375.9,29.6,376.3,29.2,376.3z"/>
		<path d="M29.2,374.7H20c-0.4,0-0.8,0.3-0.8,0.8s0.3,0.8,0.8,0.8h9.2c0.4,0,0.8-0.3,0.8-0.8S29.6,374.7,29.2,374.7L29.2,374.7z"/>
	</g>
</g>
<g>
	<path d="M29.9,429.9H19.3c-1.5,0-2.8-1.2-2.8-2.8v-15.8c0-1.1,0.5-2.1,1.2-2.9l5.5-5.1c0.8-0.7,2-0.7,2.7,0l5.5,5.1
		c0.8,0.7,1.2,1.8,1.2,2.9v15.8C32.7,428.6,31.5,429.9,29.9,429.9z M24.6,403.5c-0.3,0-0.6,0.1-0.8,0.3l-5.5,5.1
		c-0.6,0.6-1,1.4-1,2.3v15.8c0,1.1,0.9,2,2,2h10.6c1.1,0,2-0.9,2-2v-15.8c0-0.9-0.4-1.7-1-2.3l-5.5-5.1
		C25.2,403.7,24.9,403.5,24.6,403.5z"/>
	<path d="M24.6,410.6c-1.1,0-1.9-0.9-1.9-1.9s0.9-1.9,1.9-1.9s1.9,0.9,1.9,1.9S25.7,410.6,24.6,410.6z M24.6,407.6
		c-0.6,0-1.2,0.5-1.2,1.2c0,0.6,0.5,1.2,1.2,1.2c0.6,0,1.2-0.5,1.2-1.2C25.7,408.1,25.2,407.6,24.6,407.6z"/>
	<path d="M24.6,409.1c-0.2,0-0.4-0.2-0.4-0.4v-10c0-0.2,0.2-0.4,0.4-0.4s0.4,0.2,0.4,0.4v10C25,408.9,24.8,409.1,24.6,409.1z"/>
</g>
</svg>
