<?xml version="1.0" encoding="iso-8859-1"?>
<!-- Generator: Adobe Illustrator 21.0.0, SVG Export Plug-In . SVG Version: 6.00 Build 0)  -->
<svg version="1.1" id="Layer_1" xmlns="http://www.w3.org/2000/svg" xmlns:xlink="http://www.w3.org/1999/xlink" x="0px" y="0px"
	 width="37px" height="37px" viewBox="0 0 37 37" style="enable-background:new 0 0 37 37;" xml:space="preserve">
<style type="text/css">
	.st0{clip-path:url(#SVGID_2_);}
	.st1{clip-path:url(#SVGID_4_);fill:none;stroke:#666666;stroke-width:2;stroke-miterlimit:10;}
	.st2{clip-path:url(#SVGID_4_);fill:#666666;}
</style>
<g id="Pinterest_Icon">
	<g>
		<defs>
			<rect id="SVGID_1_" x="0" width="36.3" height="36.3"/>
		</defs>
		<clipPath id="SVGID_2_">
			<use xlink:href="#SVGID_1_"  style="overflow:visible;"/>
		</clipPath>
		<g class="st0">
			<defs>
				<rect id="SVGID_3_" x="0" y="0" width="36.3" height="36.3"/>
			</defs>
			<clipPath id="SVGID_4_">
				<use xlink:href="#SVGID_3_"  style="overflow:visible;"/>
			</clipPath>
			<circle class="st1" cx="18.1" cy="18.1" r="17.1"/>
			<path class="st2" d="M19.6,22.4c-1.2,0-2.3-0.6-2.7-1.4c0,0-0.6,2.5-0.8,3c-0.5,1.7-1.9,3.5-2,3.6c-0.1,0.1-0.2,0.1-0.3-0.1
				c0-0.2-0.4-2.4,0-4.2c0.2-0.9,1.4-6,1.4-6S15,16.7,15,15.7c0-1.6,0.9-2.9,2.1-2.9c1,0,1.5,0.8,1.5,1.7c0,1-0.6,2.5-1,3.9
				c-0.3,1.2,0.6,2.1,1.7,2.1c2.1,0,3.5-2.7,3.5-5.9c0-2.4-1.6-4.2-4.6-4.2c-3.3,0-5.4,2.5-5.4,5.3c0,1,0.3,1.6,0.7,2.2
				c0.2,0.2,0.2,0.3,0.2,0.6c-0.1,0.2-0.2,0.7-0.2,0.9c-0.1,0.3-0.3,0.4-0.6,0.3c-1.5-0.6-2.3-2.3-2.3-4.2c0-3.1,2.6-6.9,7.9-6.9
				c4.2,0,7,3,7,6.3C25.6,19.2,23.2,22.4,19.6,22.4"/>
		</g>
	</g>
</g>
</svg>
