<?xml version="1.0" encoding="utf-8"?>
<!-- Generator: Adobe Illustrator 15.1.0, SVG Export Plug-In . SVG Version: 6.00 Build 0)  -->
<!DOCTYPE svg PUBLIC "-//W3C//DTD SVG 1.1//EN" "http://www.w3.org/Graphics/SVG/1.1/DTD/svg11.dtd">
<svg version="1.1" id="Layer_1" xmlns="http://www.w3.org/2000/svg" xmlns:xlink="http://www.w3.org/1999/xlink" x="0px" y="0px"
	 width="35.75px" height="35.625px" viewBox="0 0 35.75 35.625" enable-background="new 0 0 35.75 35.625" xml:space="preserve">
<path fill="#676766" d="M34.968,17.148c0,9.471-7.679,17.148-17.148,17.148c-9.472,0-17.15-7.678-17.15-17.148S8.348,0,17.82,0
	C27.289,0,34.968,7.678,34.968,17.148"/>
<path fill="#010101" d="M18.27,7.539c-5.245,0-7.891,3.76-7.891,6.896c0,1.897,0.72,3.587,2.262,4.216
	c0.252,0.105,0.479,0.006,0.553-0.275c0.051-0.193,0.171-0.682,0.225-0.885c0.076-0.279,0.045-0.375-0.159-0.615
	c-0.444-0.527-0.729-1.205-0.729-2.166c0-2.791,2.089-5.287,5.436-5.287c2.964,0,4.593,1.811,4.593,4.23
	c0,3.184-1.408,5.869-3.499,5.869c-1.156,0-2.02-0.953-1.743-2.127c0.332-1.398,0.975-2.906,0.975-3.916
	c0-0.904-0.485-1.66-1.489-1.66c-1.18,0-2.13,1.225-2.13,2.859c0,1.043,0.355,1.748,0.355,1.748s-1.21,5.119-1.421,6.016
	c-0.424,1.785-0.064,3.975-0.033,4.195c0.016,0.132,0.184,0.162,0.261,0.062c0.109-0.14,1.516-1.877,1.994-3.611
	c0.134-0.494,0.777-3.037,0.777-3.037c0.383,0.732,1.503,1.377,2.695,1.377c3.55,0,5.957-3.234,5.957-7.566
	C25.258,10.588,22.486,7.539,18.27,7.539"/>
</svg>
