<?xml version="1.0" encoding="utf-8"?>
<!-- Generator: Adobe Illustrator 21.0.0, SVG Export Plug-In . SVG Version: 6.00 Build 0)  -->
<svg version="1.1" id="Layer_1" xmlns="http://www.w3.org/2000/svg" xmlns:xlink="http://www.w3.org/1999/xlink" x="0px" y="0px"
	 viewBox="0 0 24 29" style="enable-background:new 0 0 24 29;" xml:space="preserve">
<style type="text/css">
	.st0{fill:#333333;}
</style>
<path class="st0" d="M0.9,28.8c-0.2,0-0.4-0.1-0.6-0.2c-0.1-0.2-0.2-0.4-0.2-0.6L2,8.1c0-0.4,0.4-0.7,0.7-0.7h4v-2
	c0-2.9,2.4-5.3,5.3-5.3s5.3,2.4,5.3,5.3v2h4c0.4,0,0.7,0.3,0.7,0.7c0,0,1.8,19.9,1.8,20c0,0.4-0.3,0.7-0.7,0.7H0.9z M1.8,27.3h20.4
	L20.6,8.9h-3.3v2.2c0,0.4-0.3,0.7-0.7,0.7s-0.7-0.3-0.7-0.7V8.9H8.2v2.2c0,0.4-0.3,0.7-0.8,0.7s-0.7-0.3-0.7-0.7V8.9H3.4L1.8,27.3z
	 M12,1.7c-2.1,0-3.8,1.7-3.8,3.8v2h7.6v-2C15.8,3.4,14.1,1.7,12,1.7z"/>
</svg>
