<?xml version="1.0" encoding="utf-8"?>
<!-- Generator: Adobe Illustrator 15.1.0, SVG Export Plug-In . SVG Version: 6.00 Build 0)  -->
<!DOCTYPE svg PUBLIC "-//W3C//DTD SVG 1.1//EN" "http://www.w3.org/Graphics/SVG/1.1/DTD/svg11.dtd">
<svg version="1.1" id="Layer_1" xmlns="http://www.w3.org/2000/svg" xmlns:xlink="http://www.w3.org/1999/xlink" x="0px" y="0px"
	 width="252.708px" height="41.667px" viewBox="0 0 252.708 41.667" enable-background="new 0 0 252.708 41.667"
	 xml:space="preserve">
<path fill="#FFFFFF" d="M62.859,10.186c0,0.26-0.014,0.492-0.042,0.686c-0.031,0.199-0.075,0.354-0.138,0.473
	c-0.062,0.117-0.139,0.203-0.227,0.26c-0.093,0.057-0.194,0.082-0.306,0.082h-7.6v23.432c0,0.115-0.03,0.211-0.084,0.295
	c-0.056,0.082-0.155,0.15-0.293,0.197c-0.14,0.047-0.324,0.092-0.553,0.127c-0.231,0.031-0.519,0.053-0.865,0.053
	c-0.334,0-0.621-0.021-0.858-0.053c-0.239-0.035-0.424-0.08-0.566-0.127c-0.138-0.047-0.233-0.115-0.29-0.197
	c-0.055-0.084-0.083-0.18-0.083-0.295V11.686H43.35c-0.111,0-0.21-0.025-0.303-0.082c-0.088-0.057-0.162-0.143-0.216-0.26
	c-0.058-0.119-0.103-0.273-0.139-0.473c-0.033-0.193-0.049-0.426-0.049-0.686c0-0.268,0.016-0.5,0.049-0.701
	c0.036-0.203,0.081-0.367,0.139-0.492c0.054-0.121,0.128-0.215,0.216-0.271c0.093-0.055,0.192-0.084,0.303-0.084h18.796
	c0.112,0,0.213,0.029,0.306,0.084c0.088,0.057,0.165,0.15,0.227,0.271c0.063,0.125,0.107,0.289,0.138,0.492
	C62.845,9.686,62.859,9.918,62.859,10.186"/>
<path fill="#FFFFFF" d="M85.917,35.118c0,0.115-0.019,0.211-0.067,0.295c-0.039,0.082-0.128,0.154-0.268,0.205
	c-0.14,0.059-0.334,0.1-0.585,0.129c-0.25,0.027-0.586,0.043-1.003,0.043c-0.362,0-0.658-0.016-0.887-0.043
	c-0.229-0.029-0.413-0.076-0.553-0.137s-0.248-0.148-0.323-0.262c-0.079-0.108-0.145-0.248-0.202-0.418l-2.482-6.369
	c-0.293-0.723-0.599-1.391-0.908-1.994c-0.315-0.605-0.687-1.125-1.119-1.566c-0.433-0.438-0.94-0.781-1.524-1.021
	c-0.584-0.244-1.287-0.366-2.107-0.366h-2.405v11.505c0,0.115-0.03,0.211-0.095,0.295c-0.063,0.082-0.157,0.15-0.291,0.197
	c-0.135,0.047-0.313,0.092-0.541,0.128c-0.232,0.03-0.52,0.052-0.868,0.052c-0.348,0-0.636-0.021-0.866-0.052
	c-0.23-0.036-0.416-0.081-0.555-0.128c-0.139-0.047-0.234-0.115-0.293-0.197c-0.054-0.084-0.081-0.18-0.081-0.295V10.102
	c0-0.545,0.14-0.924,0.428-1.141c0.286-0.215,0.587-0.324,0.909-0.324h5.741c0.682,0,1.251,0.021,1.703,0.055
	c0.452,0.031,0.86,0.074,1.222,0.115c1.044,0.181,1.965,0.467,2.766,0.855c0.8,0.389,1.473,0.883,2.018,1.484
	c0.541,0.596,0.949,1.285,1.22,2.057c0.271,0.77,0.406,1.623,0.406,2.555c0,0.908-0.122,1.717-0.367,2.436
	c-0.243,0.715-0.592,1.35-1.052,1.898c-0.46,0.551-1.009,1.027-1.65,1.432c-0.64,0.406-1.359,0.746-2.154,1.023
	c0.451,0.193,0.851,0.442,1.214,0.738c0.361,0.303,0.697,0.662,1.013,1.077c0.312,0.421,0.607,0.899,0.89,1.446
	c0.274,0.537,0.554,1.152,0.833,1.836l2.421,5.949c0.197,0.502,0.321,0.855,0.377,1.055C85.885,34.852,85.917,35.006,85.917,35.118
	 M80.506,16.135c0-1.057-0.236-1.953-0.71-2.684c-0.474-0.729-1.268-1.255-2.381-1.574c-0.348-0.1-0.741-0.168-1.18-0.213
	c-0.439-0.041-1.012-0.061-1.722-0.061h-3.03v9.105h3.509c0.948,0,1.762-0.115,2.455-0.344c0.689-0.232,1.264-0.551,1.721-0.96
	c0.46-0.413,0.798-0.896,1.015-1.452C80.398,17.397,80.506,16.79,80.506,16.135"/>
<path fill="#FFFFFF" d="M109.985,25.538c0,1.617-0.232,3.061-0.706,4.328c-0.472,1.27-1.148,2.34-2.027,3.217
	c-0.877,0.877-1.947,1.539-3.207,1.992c-1.257,0.457-2.692,0.682-4.295,0.682c-1.468,0-2.802-0.213-4.01-0.639
	c-1.204-0.424-2.24-1.051-3.105-1.883c-0.863-0.828-1.526-1.869-1.992-3.109c-0.466-1.248-0.698-2.688-0.698-4.316V9.297
	c0-0.111,0.025-0.203,0.081-0.291c0.055-0.08,0.151-0.145,0.286-0.193c0.138-0.047,0.316-0.09,0.537-0.121
	c0.217-0.037,0.505-0.055,0.863-0.055c0.329,0,0.61,0.018,0.842,0.055c0.231,0.031,0.414,0.074,0.545,0.121
	c0.128,0.049,0.223,0.113,0.279,0.193c0.054,0.088,0.082,0.18,0.082,0.291v16.076c0,1.234,0.15,2.311,0.45,3.228
	c0.304,0.919,0.738,1.681,1.306,2.292c0.567,0.609,1.253,1.072,2.057,1.379c0.799,0.307,1.701,0.463,2.704,0.463
	c1.027,0,1.943-0.148,2.741-0.457c0.805-0.297,1.483-0.75,2.039-1.354c0.554-0.605,0.977-1.352,1.271-2.244
	c0.299-0.885,0.444-1.928,0.444-3.123V9.297c0-0.111,0.028-0.203,0.083-0.291c0.055-0.08,0.151-0.145,0.286-0.193
	c0.139-0.047,0.321-0.09,0.544-0.121c0.228-0.037,0.514-0.055,0.856-0.055c0.329,0,0.605,0.018,0.83,0.055
	c0.227,0.031,0.405,0.074,0.535,0.121c0.133,0.049,0.227,0.113,0.29,0.193c0.062,0.088,0.089,0.18,0.089,0.291V25.538z"/>
<path fill="#FFFFFF" d="M130.249,27.991c0,1.24-0.23,2.342-0.685,3.305c-0.456,0.965-1.087,1.781-1.893,2.453
	c-0.809,0.672-1.76,1.182-2.854,1.52c-1.095,0.338-2.269,0.51-3.535,0.51c-0.884,0-1.701-0.074-2.452-0.229
	c-0.757-0.146-1.428-0.328-2.019-0.547c-0.59-0.217-1.087-0.441-1.489-0.672c-0.4-0.23-0.677-0.426-0.831-0.59
	c-0.16-0.164-0.276-0.373-0.348-0.621c-0.076-0.252-0.114-0.59-0.114-1.012c0-0.297,0.014-0.543,0.042-0.742
	c0.026-0.195,0.067-0.357,0.122-0.479c0.054-0.123,0.122-0.207,0.202-0.256c0.083-0.047,0.179-0.07,0.286-0.07
	c0.189,0,0.46,0.117,0.805,0.346c0.347,0.232,0.791,0.486,1.336,0.754c0.542,0.273,1.198,0.529,1.964,0.762
	c0.768,0.238,1.654,0.359,2.658,0.359c0.76,0,1.459-0.1,2.091-0.307c0.631-0.203,1.174-0.492,1.632-0.865
	c0.45-0.373,0.803-0.832,1.048-1.373c0.24-0.543,0.362-1.162,0.362-1.854c0-0.75-0.169-1.389-0.505-1.916
	c-0.341-0.531-0.787-0.996-1.345-1.396c-0.559-0.4-1.192-0.769-1.907-1.1c-0.711-0.334-1.443-0.676-2.188-1.021
	c-0.748-0.342-1.477-0.727-2.181-1.15c-0.707-0.42-1.337-0.914-1.893-1.486c-0.559-0.57-1.011-1.24-1.358-2.006
	c-0.346-0.766-0.519-1.689-0.519-2.76c0-1.104,0.201-2.082,0.604-2.943c0.397-0.865,0.955-1.588,1.669-2.172
	c0.713-0.582,1.562-1.029,2.547-1.334c0.982-0.309,2.048-0.461,3.186-0.461c0.585,0,1.171,0.055,1.765,0.152
	c0.589,0.104,1.147,0.24,1.67,0.41c0.523,0.168,0.987,0.361,1.398,0.566c0.401,0.213,0.674,0.383,0.8,0.514
	c0.131,0.129,0.215,0.229,0.255,0.305c0.043,0.074,0.077,0.172,0.103,0.283c0.027,0.117,0.05,0.256,0.061,0.422
	c0.014,0.16,0.024,0.371,0.024,0.627c0,0.246-0.014,0.463-0.034,0.654c-0.018,0.189-0.051,0.352-0.092,0.48
	c-0.04,0.125-0.099,0.225-0.172,0.285c-0.075,0.057-0.16,0.091-0.254,0.091c-0.152,0-0.383-0.097-0.705-0.288
	c-0.319-0.188-0.706-0.4-1.171-0.641c-0.461-0.236-1.01-0.451-1.638-0.652c-0.634-0.193-1.344-0.295-2.132-0.295
	c-0.731,0-1.372,0.102-1.914,0.295c-0.543,0.201-0.993,0.463-1.344,0.785c-0.356,0.328-0.618,0.713-0.795,1.16
	c-0.176,0.449-0.265,0.928-0.265,1.43c0,0.732,0.17,1.361,0.51,1.893c0.34,0.531,0.791,1,1.353,1.406
	c0.567,0.406,1.208,0.781,1.927,1.119c0.72,0.338,1.454,0.684,2.2,1.033c0.748,0.344,1.478,0.725,2.201,1.137
	c0.72,0.418,1.359,0.902,1.928,1.467c0.56,0.568,1.015,1.23,1.361,2C130.075,26.043,130.249,26.948,130.249,27.991"/>
<path fill="#FFFFFF" d="M152.559,10.182c0,0.264-0.016,0.492-0.042,0.684c-0.028,0.195-0.073,0.355-0.136,0.473
	c-0.059,0.119-0.141,0.205-0.229,0.26c-0.089,0.057-0.192,0.082-0.303,0.082h-7.588v23.393c0,0.111-0.027,0.209-0.084,0.291
	c-0.056,0.084-0.153,0.152-0.292,0.199c-0.139,0.049-0.321,0.09-0.553,0.123c-0.23,0.035-0.519,0.055-0.863,0.055
	c-0.336,0-0.622-0.02-0.854-0.055c-0.24-0.033-0.425-0.074-0.563-0.123c-0.14-0.047-0.236-0.115-0.294-0.199
	c-0.053-0.082-0.084-0.18-0.084-0.291V11.68h-7.588c-0.109,0-0.211-0.025-0.301-0.082c-0.092-0.055-0.164-0.141-0.22-0.26
	c-0.054-0.117-0.101-0.277-0.137-0.473c-0.034-0.191-0.054-0.42-0.054-0.684s0.02-0.5,0.054-0.697
	c0.036-0.203,0.083-0.369,0.137-0.492c0.056-0.121,0.128-0.215,0.22-0.271c0.09-0.055,0.191-0.084,0.301-0.084h18.763
	c0.11,0,0.214,0.029,0.303,0.084c0.089,0.057,0.171,0.15,0.229,0.271c0.062,0.123,0.107,0.289,0.136,0.492
	C152.543,9.682,152.559,9.918,152.559,10.182"/>
<path fill="#A2A4A7" d="M173.43,16.551c0,1.352-0.221,2.57-0.67,3.658c-0.446,1.086-1.082,2.014-1.91,2.775
	c-0.827,0.768-1.844,1.359-3.051,1.775c-1.203,0.42-2.637,0.627-4.312,0.627h-3.067v9.73c0,0.115-0.035,0.211-0.096,0.295
	c-0.064,0.082-0.158,0.15-0.292,0.197c-0.13,0.046-0.315,0.092-0.545,0.127c-0.228,0.031-0.517,0.053-0.864,0.053
	s-0.638-0.021-0.865-0.053c-0.234-0.035-0.418-0.081-0.555-0.127c-0.143-0.047-0.238-0.115-0.293-0.197
	c-0.058-0.084-0.082-0.18-0.082-0.295V10.186c0-0.559,0.145-0.953,0.437-1.193c0.293-0.236,0.618-0.355,0.983-0.355h5.782
	c0.587,0,1.146,0.023,1.683,0.076c0.537,0.047,1.17,0.152,1.897,0.311c0.731,0.16,1.479,0.461,2.238,0.898
	c0.759,0.439,1.401,0.979,1.93,1.619c0.532,0.641,0.938,1.381,1.224,2.225S173.43,15.538,173.43,16.551 M169.65,16.844
	c0-1.1-0.205-2.018-0.617-2.752c-0.409-0.74-0.918-1.291-1.524-1.652c-0.605-0.361-1.231-0.594-1.877-0.689
	c-0.649-0.096-1.28-0.146-1.893-0.146h-3.318v10.838h3.236c1.085,0,1.987-0.141,2.702-0.42c0.718-0.277,1.319-0.66,1.808-1.156
	c0.486-0.494,0.856-1.084,1.108-1.773C169.524,18.403,169.65,17.653,169.65,16.844"/>
<path fill="#A2A4A7" d="M181.93,35.1c0,0.109-0.027,0.209-0.083,0.291c-0.058,0.08-0.151,0.148-0.292,0.195
	c-0.139,0.049-0.32,0.09-0.551,0.127c-0.225,0.033-0.514,0.049-0.86,0.049c-0.331,0-0.616-0.016-0.851-0.049
	c-0.237-0.037-0.426-0.078-0.561-0.127c-0.139-0.047-0.238-0.115-0.293-0.195c-0.053-0.082-0.08-0.182-0.08-0.291V9.303
	c0-0.111,0.031-0.209,0.092-0.291c0.062-0.082,0.166-0.148,0.312-0.193c0.145-0.051,0.332-0.096,0.559-0.127
	c0.23-0.033,0.504-0.055,0.821-0.055c0.347,0,0.636,0.021,0.86,0.055c0.23,0.031,0.412,0.076,0.551,0.127
	c0.141,0.045,0.234,0.111,0.292,0.193c0.056,0.082,0.083,0.18,0.083,0.291V35.1z"/>
<path fill="#A2A4A7" d="M202.581,34.225c0,0.273-0.014,0.508-0.039,0.695c-0.029,0.188-0.074,0.352-0.141,0.482
	c-0.059,0.131-0.135,0.23-0.225,0.289c-0.09,0.064-0.197,0.098-0.326,0.098h-11.946c-0.32,0-0.62-0.109-0.906-0.326
	c-0.284-0.215-0.427-0.596-0.427-1.139V9.307c0-0.109,0.025-0.209,0.082-0.293c0.057-0.082,0.154-0.148,0.289-0.195
	c0.143-0.051,0.33-0.094,0.568-0.127c0.233-0.033,0.52-0.055,0.857-0.055c0.345,0,0.633,0.021,0.863,0.055
	c0.231,0.033,0.412,0.076,0.554,0.127c0.139,0.047,0.235,0.113,0.291,0.195c0.058,0.084,0.086,0.184,0.086,0.293v23.369h9.688
	c0.129,0,0.236,0.031,0.326,0.096c0.09,0.061,0.166,0.152,0.225,0.27c0.066,0.119,0.111,0.275,0.141,0.473
	C202.567,33.708,202.581,33.944,202.581,34.225"/>
<path fill="#A2A4A7" d="M227.049,21.879c0,2.123-0.252,4.043-0.754,5.754c-0.502,1.707-1.252,3.158-2.248,4.361
	c-0.995,1.197-2.246,2.119-3.75,2.764s-3.262,0.965-5.266,0.965c-1.979,0-3.693-0.293-5.136-0.881
	c-1.442-0.592-2.638-1.449-3.58-2.575c-0.94-1.124-1.644-2.521-2.104-4.188s-0.694-3.586-0.694-5.754
	c0-2.074,0.255-3.957,0.755-5.656c0.501-1.691,1.255-3.133,2.26-4.32c1.002-1.188,2.256-2.1,3.762-2.742
	c1.506-0.645,3.258-0.969,5.265-0.969c1.938,0,3.626,0.293,5.063,0.875c1.437,0.584,2.633,1.436,3.59,2.551
	c0.953,1.121,1.664,2.504,2.133,4.15C226.812,17.86,227.049,19.749,227.049,21.879 M223.349,22.122c0-1.492-0.136-2.879-0.397-4.16
	c-0.266-1.279-0.707-2.391-1.322-3.334c-0.614-0.941-1.438-1.678-2.467-2.207c-1.028-0.525-2.303-0.791-3.819-0.791
	c-1.515,0-2.789,0.285-3.818,0.854c-1.028,0.57-1.864,1.326-2.507,2.275c-0.645,0.951-1.104,2.061-1.381,3.326
	c-0.279,1.268-0.417,2.601-0.417,3.996c0,1.545,0.128,2.967,0.387,4.273c0.257,1.297,0.69,2.42,1.298,3.359
	c0.611,0.945,1.428,1.68,2.448,2.197c1.021,0.524,2.306,0.783,3.853,0.783c1.527,0,2.814-0.283,3.857-0.854
	c1.041-0.57,1.882-1.336,2.518-2.307c0.635-0.973,1.09-2.092,1.359-3.363C223.209,24.895,223.349,23.543,223.349,22.122"/>
<path fill="#A2A4A7" d="M248.023,10.186c0,0.26-0.015,0.492-0.044,0.686c-0.025,0.199-0.072,0.354-0.137,0.473
	c-0.061,0.117-0.137,0.203-0.227,0.26c-0.092,0.057-0.191,0.082-0.302,0.082h-7.601v23.432c0,0.115-0.029,0.211-0.088,0.295
	c-0.054,0.082-0.15,0.15-0.291,0.197c-0.139,0.047-0.322,0.092-0.555,0.127c-0.227,0.031-0.518,0.053-0.865,0.053
	c-0.332,0-0.621-0.021-0.855-0.053c-0.236-0.035-0.426-0.08-0.564-0.127s-0.236-0.115-0.291-0.197
	c-0.056-0.084-0.084-0.18-0.084-0.295V11.686h-7.607c-0.105,0-0.206-0.025-0.297-0.082c-0.09-0.057-0.166-0.143-0.222-0.26
	c-0.052-0.119-0.1-0.273-0.135-0.473c-0.036-0.193-0.052-0.426-0.052-0.686c0-0.268,0.016-0.5,0.052-0.701
	c0.035-0.203,0.083-0.367,0.135-0.492c0.056-0.121,0.132-0.215,0.222-0.271c0.091-0.055,0.191-0.084,0.297-0.084h18.802
	c0.11,0,0.21,0.029,0.302,0.084c0.09,0.057,0.166,0.15,0.227,0.271c0.064,0.125,0.111,0.289,0.137,0.492
	C248.008,9.686,248.023,9.918,248.023,10.186"/>
<path fill="#FBB026" d="M8.692,9.106v11.478c0,0,8.665,4.136,13.076,11.53c0,0,1.946-16.332,12.871-23.008H8.692z"/>
<g>
	<defs>
		<path id="SVGID_1_" d="M8.667,35.12h11.676c0,0-4.447-4.734-11.676-5.08V35.12z M23.476,35.111H34.64V20.282
			C28.321,21.993,23.476,35.111,23.476,35.111"/>
	</defs>
	<clipPath id="SVGID_2_">
		<use xlink:href="#SVGID_1_"  overflow="visible"/>
	</clipPath>
	
		<linearGradient id="SVGID_3_" gradientUnits="userSpaceOnUse" x1="-512.0371" y1="1236.3843" x2="-511.0371" y2="1236.3843" gradientTransform="matrix(-6.000000e-07 -14.8379 -14.8379 6.000000e-07 18366.9785 -7562.4282)">
		<stop  offset="0" style="stop-color:#E98C31"/>
		<stop  offset="0.4725" style="stop-color:#FBB026"/>
		<stop  offset="1" style="stop-color:#FBB026"/>
	</linearGradient>
	<rect x="8.667" y="20.282" clip-path="url(#SVGID_2_)" fill="url(#SVGID_3_)" width="25.973" height="14.838"/>
</g>
<g opacity="0.5">
	<g>
		<defs>
			<rect id="SVGID_4_" x="8.84" y="9.28" width="25.528" height="9.957"/>
		</defs>
		<clipPath id="SVGID_5_">
			<use xlink:href="#SVGID_4_"  overflow="visible"/>
		</clipPath>
		<g clip-path="url(#SVGID_5_)">
			<defs>
				<path id="SVGID_6_" d="M8.84,9.28h25.528c0,0-4.192,1.477-8.707,9.797c0,0-9.872,1.004-16.798-2.012L8.84,9.28z"/>
			</defs>
			<clipPath id="SVGID_7_">
				<use xlink:href="#SVGID_6_"  overflow="visible"/>
			</clipPath>
			
				<linearGradient id="SVGID_8_" gradientUnits="userSpaceOnUse" x1="-483.4644" y1="1220.563" x2="-482.4644" y2="1220.563" gradientTransform="matrix(-4.000000e-07 -9.9575 -9.9575 4.000000e-07 12175.373 -4794.8687)">
				<stop  offset="0" style="stop-color:#FFFFFF"/>
				<stop  offset="1" style="stop-color:#FBB026"/>
			</linearGradient>
			<rect x="8.84" y="9.28" clip-path="url(#SVGID_7_)" fill="url(#SVGID_8_)" width="25.528" height="10.801"/>
		</g>
	</g>
</g>
<g>
	<defs>
		<path id="SVGID_9_" d="M34.607,9.127c-10.896,6.688-12.84,22.987-12.84,22.987C17.356,24.718,8.691,20.583,8.691,20.583v9.463
			c7.213,0.354,11.651,5.074,11.651,5.074l3.133-0.009c0,0,4.846-13.118,11.164-14.829V9.127H34.607z"/>
	</defs>
	<clipPath id="SVGID_10_">
		<use xlink:href="#SVGID_9_"  overflow="visible"/>
	</clipPath>
	
		<linearGradient id="SVGID_11_" gradientUnits="userSpaceOnUse" x1="-603.8774" y1="1287.2407" x2="-602.8779" y2="1287.2407" gradientTransform="matrix(-1.100000e-06 25.787 25.787 1.100000e-06 -33172.4453 15581.4199)">
		<stop  offset="0" style="stop-color:#5A5A5A"/>
		<stop  offset="1" style="stop-color:#000000"/>
	</linearGradient>
	<rect x="8.691" y="9.127" clip-path="url(#SVGID_10_)" fill="url(#SVGID_11_)" width="25.948" height="25.992"/>
</g>
</svg>
