<?xml version="1.0" encoding="iso-8859-1"?>
<!-- Generator: Adobe Illustrator 21.0.0, SVG Export Plug-In . SVG Version: 6.00 Build 0)  -->
<svg version="1.1" id="Layer_1" xmlns="http://www.w3.org/2000/svg" xmlns:xlink="http://www.w3.org/1999/xlink" x="0px" y="0px"
	 width="37px" height="37px" viewBox="0 0 37 37" style="enable-background:new 0 0 37 37;" xml:space="preserve">
<style type="text/css">
	.st0{clip-path:url(#SVGID_2_);}
	.st1{clip-path:url(#SVGID_4_);fill:none;stroke:#666666;stroke-width:2;stroke-miterlimit:10;}
	.st2{clip-path:url(#SVGID_4_);fill:#666666;}
</style>
<g id="Twitter_Icon">
	<g>
		<defs>
			<rect id="SVGID_1_" width="36.3" height="36.3"/>
		</defs>
		<clipPath id="SVGID_2_">
			<use xlink:href="#SVGID_1_"  style="overflow:visible;"/>
		</clipPath>
		<g class="st0">
			<defs>
				<rect id="SVGID_3_" y="0" width="36.3" height="36.3"/>
			</defs>
			<clipPath id="SVGID_4_">
				<use xlink:href="#SVGID_3_"  style="overflow:visible;"/>
			</clipPath>
			<circle class="st1" cx="18.1" cy="18.1" r="17.1"/>
			<path class="st2" d="M24.8,14.7C25,19.6,21.4,25,15,25c-1.9,0-3.7-0.6-5.3-1.5c1.8,0.2,3.6-0.3,5.1-1.4c-1.5,0-2.8-1-3.2-2.4
				c0.5,0.1,1.1,0.1,1.6-0.1c-1.7-0.3-2.8-1.8-2.8-3.4c0.5,0.3,1,0.4,1.6,0.4c-1.5-1-2-3-1.1-4.6c1.7,2.1,4.2,3.5,7.1,3.6
				c-0.5-2.1,1.1-4.2,3.3-4.2c1,0,1.9,0.4,2.5,1.1c0.8-0.2,1.5-0.4,2.2-0.8c-0.3,0.8-0.8,1.5-1.5,1.9c0.7-0.1,1.4-0.3,2-0.5
				C26.1,13.6,25.5,14.2,24.8,14.7"/>
		</g>
	</g>
</g>
</svg>
