<?xml version="1.0" encoding="utf-8"?>
<!-- Generator: Adobe Illustrator 15.1.0, SVG Export Plug-In . SVG Version: 6.00 Build 0)  -->
<!DOCTYPE svg PUBLIC "-//W3C//DTD SVG 1.1//EN" "http://www.w3.org/Graphics/SVG/1.1/DTD/svg11.dtd">
<svg version="1.1" id="Layer_1" xmlns="http://www.w3.org/2000/svg" xmlns:xlink="http://www.w3.org/1999/xlink" x="0px" y="0px"
	 width="37.125px" height="36.625px" viewBox="0 0 37.125 36.625" enable-background="new 0 0 37.125 36.625" xml:space="preserve">
<path fill="#676766" d="M35.297,18.477c0,9.471-7.678,17.148-17.148,17.148S1,27.947,1,18.477S8.678,1.328,18.148,1.328
	S35.297,9.006,35.297,18.477"/>
<path fill="#010101" d="M26.527,13.279c-0.617,0.273-1.279,0.459-1.975,0.541c0.71-0.426,1.256-1.1,1.512-1.902
	c-0.664,0.395-1.4,0.68-2.184,0.834c-0.627-0.668-1.521-1.086-2.51-1.086c-2.219,0-3.85,2.072-3.349,4.221
	c-2.856-0.143-5.392-1.512-7.086-3.592c-0.901,1.547-0.468,3.568,1.063,4.592c-0.563-0.018-1.094-0.174-1.557-0.43
	c-0.037,1.593,1.104,3.082,2.757,3.414c-0.483,0.131-1.013,0.162-1.552,0.059c0.438,1.365,1.707,2.359,3.211,2.387
	c-1.445,1.133-3.266,1.639-5.09,1.424c1.521,0.978,3.329,1.545,5.271,1.545c6.384,0,9.989-5.391,9.772-10.227
	C25.483,14.574,26.066,13.969,26.527,13.279"/>
</svg>
